<!-- Generated by IcoMoon.io -->
<svg version="1.1" xmlns="http://www.w3.org/2000/svg" width="32" height="32" viewBox="0 0 32 32">
<title>activityfill</title>
<path d="M26.531 4.125q-0.5-0.281-1 0.031-0.125 0.063-0.453 0.219t-1.125 0.391-1.516 0.234q-1.406 0-3.125-0.844l-0.125-0.063q-2.469-1.094-4.656-1.094-2.25 0-4.875 1.063-0.625 0.281-0.625 0.938v13q0 0.531 0.453 0.828t0.953 0.109q2.188-0.938 3.969-0.938 1.688 0 3.938 0.906 2.063 1.094 4.188 1.094 1 0 2.031-0.313t1.422-0.516 0.609-0.328q0.438-0.313 0.438-0.844v-13q0-0.594-0.5-0.875zM18.031 28h-11v-24q0-0.406-0.297-0.703t-0.703-0.297-0.703 0.297-0.297 0.703v24q-0.406 0.031-0.688 0.313t-0.281 0.688 0.297 0.703 0.703 0.297h12.969q0.406 0 0.703-0.297t0.297-0.703-0.297-0.703-0.703-0.297z"></path>
</svg>
