<!-- Generated by IcoMoon.io -->
<svg version="1.1" xmlns="http://www.w3.org/2000/svg" width="32" height="32" viewBox="0 0 32 32">
<title>activity</title>
<path d="M22.469 20q-2.125 0-4.156-1.094-2.25-0.906-3.938-0.906-1.781 0-4 0.938-0.469 0.188-0.922-0.109t-0.453-0.828v-13q0-0.688 0.625-0.938 2.625-1.063 4.844-1.063t4.688 1.094q0.063 0 0.094 0.063 1.5 0.844 3.156 0.844 0.719 0 1.516-0.234t1.109-0.391l0.438-0.219q0.5-0.313 1.016-0.031t0.516 0.875v13q0 0.531-0.469 0.844-0.188 0.125-0.578 0.328t-1.438 0.516-2.047 0.313zM14.375 16q2.156 0 4.75 1.063l0.125 0.063q0.156 0.094 0.484 0.25t1.156 0.391 1.578 0.234q1.25 0 2.531-0.594v-10.875q-1.344 0.469-2.594 0.469-2.156 0-4.094-1.094-2.125-0.906-3.844-0.906-1.406 0-3.469 0.688v10.906q1.938-0.594 3.375-0.594zM17 29h-11v-25q0-0.406 0.297-0.703t0.703-0.297 0.703 0.297 0.297 0.703v23h9q0.406 0 0.703 0.297t0.297 0.703-0.297 0.703-0.703 0.297zM7 29h-1.969q-0.406 0-0.703-0.297t-0.297-0.703 0.297-0.703 0.703-0.297h1.969q0.406 0 0.703 0.297t0.297 0.703-0.297 0.703-0.703 0.297z"></path>
</svg>
