<!-- Generated by IcoMoon.io -->
<svg version="1.1" xmlns="http://www.w3.org/2000/svg" width="32" height="32" viewBox="0 0 32 32">
<title>addressbook</title>
<path d="M5 19q-0.406 0-0.703-0.297t-0.297-0.703v-5q0-0.406 0.297-0.703t0.703-0.297 0.703 0.297 0.297 0.703v5q0 0.406-0.297 0.703t-0.703 0.297zM27 29h-20q-1.25 0-2.125-0.875t-0.875-2.094v-2.031q0-0.406 0.297-0.703t0.703-0.297 0.703 0.297 0.297 0.703v2.031q0 0.406 0.297 0.688t0.703 0.281h20q0.406 0 0.703-0.297t0.297-0.703v-20q0-0.406-0.297-0.703t-0.703-0.297h-20q-0.406 0-0.703 0.172t-0.297 0.359v1.469q0 0.406-0.297 0.703t-0.703 0.297-0.703-0.297-0.297-0.703v-1.469q0-1.031 0.875-1.781t2.125-0.75h20q1.25 0 2.125 0.875t0.875 2.125v20q0 1.25-0.875 2.125t-2.125 0.875zM6 11h-3q-0.406 0-0.703-0.297t-0.297-0.703 0.297-0.703 0.703-0.297h3q0.406 0 0.703 0.297t0.297 0.703-0.297 0.703-0.703 0.297zM6 22h-3q-0.406 0-0.703-0.297t-0.297-0.703 0.297-0.703 0.703-0.297h3q0.406 0 0.703 0.297t0.297 0.703-0.297 0.703-0.703 0.297zM9.969 25.031q-0.344 0-0.609-0.219t-0.359-0.563q-0.094-0.406 0.125-0.75t0.625-0.438q3.031-0.719 5.25-0.969v-0.625q-1.563-1.344-2.281-3.359t-0.719-5.078q0-6 6-6 1.438 0 2.531 0.359t1.734 0.938 1.047 1.406 0.547 1.609 0.141 1.688q0 5.344-3.969 8.469v0.625q2.125 0.25 5.188 0.938 0.406 0.094 0.625 0.438t0.125 0.75-0.438 0.625-0.75 0.125q-3.969-0.844-5.813-0.969-0.375-0.031-0.656-0.313t-0.281-0.688v-2.031q-0.031-0.5 0.406-0.813 3.563-2.563 3.563-7.156 0-2.156-0.938-3.078t-3.063-0.922q-2.156 0-3.078 0.922t-0.922 3.078q0 2.781 0.609 4.453t1.984 2.734q0.406 0.281 0.406 0.781v2.031q0 0.375-0.281 0.672t-0.656 0.328q-1.5 0.063-5.844 0.969-0.125 0.031-0.25 0.031z"></path>
</svg>
