<!-- Generated by IcoMoon.io -->
<svg version="1.1" xmlns="http://www.w3.org/2000/svg" width="32" height="32" viewBox="0 0 32 32">
<title>album</title>
<path d="M6 14q0-0.813 0.594-1.406t1.406-0.594 1.406 0.594 0.594 1.406-0.594 1.406-1.406 0.594-1.406-0.594-0.594-1.406zM22.344 8h-16.688q-1.5 0-2.578 1.078t-1.078 2.578v12.688q0 1.5 1.078 2.578t2.578 1.078h16.688q1.5 0 2.578-1.078t1.078-2.578v-12.688q0-1.5-1.078-2.578t-2.578-1.078zM24 24.344q0 0.688-0.484 1.172t-1.172 0.484h-16.688q-0.688 0-1.172-0.484t-0.484-1.172v-12.688q0-0.688 0.484-1.172t1.172-0.484h16.688q0.688 0 1.172 0.484t0.484 1.172v12.688zM26.344 4h-18.344q-0.406 0-0.703 0.297t-0.297 0.703 0.297 0.703 0.703 0.297h18.344q0.688 0 1.172 0.484t0.484 1.172v12.344q0 0.406 0.297 0.703t0.703 0.297 0.703-0.297 0.297-0.703v-12.344q0-1.5-1.078-2.578t-2.578-1.078zM21.031 14.031q-1.156 0-2.031 0.266t-1.328 0.594-0.781 0.922-0.422 0.922-0.219 0.922q-0.188 0.813-0.328 1.047t-0.578 0.297q-0.875 0.094-1.141 0.031t-0.703-0.313q-1.125-0.688-2.438-0.719-1.094-0.031-2.031 0.469t-1.438 1.109-0.906 1.453-0.5 1.188-0.156 0.594q-0.094 0.406 0.125 0.75t0.625 0.438q0.094 0.031 0.219 0.031 0.344 0 0.625-0.219t0.344-0.563q0.031-0.125 0.094-0.359t0.313-0.797 0.563-0.984 0.859-0.766 1.172-0.344h0.063q0.75 0 1.438 0.438 0.688 0.406 1.25 0.531t1.938 0q0.594-0.094 1.031-0.344t0.672-0.516 0.422-0.703 0.266-0.672 0.141-0.672q0.125-0.625 0.234-0.891t0.375-0.594 0.813-0.438 1.422-0.109q0.406 0 0.703-0.297t0.297-0.719-0.297-0.703-0.703-0.281z"></path>
</svg>
