<!-- Generated by IcoMoon.io -->
<svg version="1.1" xmlns="http://www.w3.org/2000/svg" width="32" height="32" viewBox="0 0 32 32">
<title>all</title>
<path d="M12 28q-0.406 0-0.703-0.297t-0.297-0.703v-22q0-0.406 0.297-0.703t0.703-0.297 0.703 0.297 0.297 0.703v22q0 0.406-0.297 0.703t-0.703 0.297zM20.031 28q-0.406 0-0.703-0.297t-0.297-0.703v-22q0-0.406 0.297-0.703t0.703-0.297 0.703 0.297 0.297 0.703v22q0 0.406-0.297 0.703t-0.703 0.297zM27 23q-0.406 0-0.703-0.297t-0.297-0.703v-12q0-0.406 0.297-0.703t0.703-0.297 0.703 0.297 0.297 0.703v12q0 0.406-0.297 0.703t-0.703 0.297zM5 23q-0.406 0-0.703-0.297t-0.297-0.703v-12q0-0.406 0.297-0.703t0.703-0.297 0.703 0.297 0.297 0.703v12q0 0.406-0.297 0.703t-0.703 0.297z"></path>
</svg>
