<!-- Generated by IcoMoon.io -->
<svg version="1.1" xmlns="http://www.w3.org/2000/svg" width="32" height="32" viewBox="0 0 32 32">
<title>anfang</title>
<path d="M26.462 4.677c-0.185 0.185-0.923 0.185-0.923 0.185-1.415 0-4.615-1.785-5.477-2.215s-2.4-0.615-4.185-0.615-3.323 0.185-4.185 0.615-4 2.215-5.477 2.215c0 0-0.677 0-0.923-0.185-0.062-0.185-0.985-0.062-0.985 0.431v7.877c0 3.385 1.908 13.046 11.692 17.354 9.785-4.369 11.692-14.031 11.692-17.354v-7.877c-0.062-0.492-0.985-0.615-1.231-0.431zM15.938 27.754v-11.631h-8.554c0 0-0.554-3.2-0.554-5.538v-3.508c0 0 1.231 0.062 2.523-0.554s4.123-2.092 6.646-2.092v11.692h8.431c-1.354 7.692-8.492 11.631-8.492 11.631z"></path>
</svg>
