<!-- Generated by IcoMoon.io -->
<svg version="1.1" xmlns="http://www.w3.org/2000/svg" width="32" height="32" viewBox="0 0 32 32">
<title>appreciatefill</title>
<path d="M27.313 13h-5.906q0.938-3.281 0.594-5.906-0.156-1.406-0.922-2.422t-1.984-1.484q-0.906-0.281-1.734-0.141t-1.359 0.641q-0.375 0.375-0.688 1.094t-0.484 1.281-0.422 1.625q-0.063 0.281-0.203 0.813t-0.219 0.813-0.203 0.625-0.281 0.563q-0.438 0.75-1.297 1.359t-1.391 0.828-0.906 0.313h-2.906q-0.438 0-0.719 0.281t-0.281 0.719v14q0 0.438 0.281 0.719t0.719 0.281h17.094q1.094 0 2.109-1.281t1.672-3.063 1.156-3.703 0.734-3.234 0.234-1.625q0-1.281-0.844-2.188t-1.844-0.906zM3 13q-0.438 0-0.719 0.281t-0.281 0.719v14q0 0.438 0.281 0.719t0.719 0.281 0.719-0.281 0.281-0.719v-14q0-0.438-0.281-0.719t-0.719-0.281z"></path>
</svg>
