<!-- Generated by IcoMoon.io -->
<svg version="1.1" xmlns="http://www.w3.org/2000/svg" width="32" height="32" viewBox="0 0 32 32">
<title>appreciate</title>
<path d="M27.313 13h-5.906q0.938-3.281 0.594-5.906-0.156-1.406-0.922-2.422t-1.984-1.484q-0.906-0.281-1.734-0.141t-1.359 0.641q-0.375 0.375-0.688 1.094t-0.484 1.281-0.422 1.625q-0.063 0.281-0.203 0.813t-0.219 0.813-0.203 0.625-0.281 0.563q-0.438 0.75-1.297 1.359t-1.391 0.828-0.906 0.313h-2.906q-0.438 0-0.719 0.281t-0.281 0.719v14q0 0.438 0.281 0.719t0.719 0.281h17.094q1.094 0 2.109-1.281t1.672-3.063 1.156-3.703 0.734-3.234 0.234-1.625q0-1.281-0.844-2.188t-1.844-0.906zM24.094 26.906h-16.094v-11.906h2.406q0.375-0.094 0.875-0.313t1.219-0.625 1.438-1.047 1.156-1.422q0.531-0.844 1.094-3.281 0.063-0.188 0.141-0.547t0.125-0.547 0.141-0.5 0.156-0.516 0.156-0.422 0.188-0.359 0.219-0.234q0.094-0.094 0.406-0.109t0.781 0.109q0.469 0.094 0.922 0.594t0.578 1.531q0.188 1.406-0.063 2.984t-0.594 2.453l-0.344 0.844q-0.188 0.563 0.094 1 0.344 0.5 0.813 0.5h7.406q0.188 0 0.484 0.297t0.297 0.703q-0.031 1.125-0.734 3.688t-1.656 4.844-1.609 2.281zM3 13q-0.438 0-0.719 0.281t-0.281 0.719v14q0 0.438 0.281 0.719t0.719 0.281 0.719-0.281 0.281-0.719v-14q0-0.438-0.281-0.719t-0.719-0.281z"></path>
</svg>
