<!-- Generated by IcoMoon.io -->
<svg version="1.1" xmlns="http://www.w3.org/2000/svg" width="32" height="32" viewBox="0 0 32 32">
<title>appreciate_fill_light</title>
<path d="M26.875 13.344h-5.75q1.156-3.094 0.75-6.281-0.094-1.281-0.828-2.234t-1.859-1.297q-0.781-0.25-1.563-0.141t-1.219 0.547q-0.344 0.344-0.641 1.031t-0.422 1.141-0.406 1.609q-0.531 2.281-0.938 2.875-0.25 0.438-0.656 0.844t-0.828 0.672-0.906 0.5-0.813 0.359-0.656 0.234-0.328 0.141h-1.813q-0.313 0-0.484 0.172t-0.172 0.484v14q0 0.313 0.172 0.484t0.484 0.172h2.125q0.219 0 0.281-0.063h12.313q1.313 0 2.375-0.703t1.734-1.766 1.188-2.453 0.766-2.641 0.406-2.484 0.188-1.797 0.031-0.75q-0.063-1.063-0.859-1.859t-1.672-0.797zM5.344 13.281h-2q-0.313 0-0.5 0.172t-0.188 0.484v14q0 0.281 0.188 0.469t0.5 0.188h2q0.281 0 0.469-0.188t0.188-0.469v-14q0-0.25-0.203-0.453t-0.453-0.203z"></path>
</svg>
