<!-- Generated by IcoMoon.io -->
<svg version="1.1" xmlns="http://www.w3.org/2000/svg" width="32" height="32" viewBox="0 0 32 32">
<title>appreciate_light</title>
<path d="M26.875 13.344h-5.75q1.156-3.094 0.75-6.281-0.094-1.281-0.828-2.234t-1.859-1.297q-0.781-0.25-1.563-0.141t-1.219 0.547q-0.344 0.344-0.641 1.031t-0.422 1.141-0.406 1.609q-0.531 2.281-0.938 2.875-1.094 1.813-3.875 2.75h-2.125q-0.313 0-0.484 0.172t-0.172 0.484v14.063q0 0.281 0.188 0.469t0.469 0.188l2.406-0.063q0.813 0 5.906-0.031t6.344-0.031q1.313 0 2.375-0.703t1.734-1.766 1.188-2.453 0.766-2.641 0.406-2.484 0.188-1.797 0.031-0.75q0-1.063-0.797-1.859t-1.672-0.797zM22.656 27.281q-1.188 0-4.313 0.016t-5.734 0.031-2.547 0.016h-1.406v-12.688h1.875l0.219-0.063t0.516-0.188 0.703-0.313 0.844-0.469 0.859-0.594 0.828-0.766 0.688-0.922q0.406-0.719 1.094-3.219 0.031-0.125 0.125-0.531t0.141-0.578 0.156-0.516 0.172-0.531 0.156-0.422 0.188-0.406 0.188-0.266q0.125-0.125 0.5-0.172t0.906 0.109 1.094 0.734 0.688 1.734q0.094 0.719 0.078 1.391t-0.094 1.328-0.203 1.203-0.266 1.016-0.25 0.797-0.188 0.516l-0.078 0.188q-0.125 0.406 0.063 0.688 0.219 0.313 0.531 0.313h6.688q0.344 0 0.734 0.406t0.391 0.938q0 0.813-0.125 2.016t-0.5 2.859-0.922 3.031-1.547 2.344-2.25 0.969zM5.406 14.656q0.281 0 0.469-0.172t0.188-0.484-0.188-0.484-0.469-0.172h-2q-0.313 0-0.5 0.172t-0.188 0.484v14q0 0.313 0.188 0.484t0.5 0.172h2q0.281 0 0.469-0.172t0.188-0.484-0.188-0.484-0.469-0.172h-1.344v-12.688h1.344z"></path>
</svg>
