<!-- Generated by IcoMoon.io -->
<svg version="1.1" xmlns="http://www.w3.org/2000/svg" width="32" height="32" viewBox="0 0 32 32">
<title>ask</title>
<path d="M20.813 11.688q-0.313-1.375-1.313-2.391t-2.406-1.297q-1.563-0.375-2.969 0.172t-2.313 1.828q-0.344 0.469-0.406 0.828t0.141 0.672 0.313 0.422 0.453 0.391q0.188 0.094 0.688 0.594 0.313 0.281 0.703 0.25t0.703-0.344q0.281-0.313 0.25-0.703t-0.344-0.703q-0.313-0.219-0.719-0.594 0.531-0.625 1.359-0.875t1.641-0.031q1.75 0.469 2.219 2.188 0.219 1.125-0.25 2.094t-1.469 1.406q-1 0.469-1.594 1.328t-0.594 1.891v0.688q0 0.438 0.266 0.719t0.734 0.281v0q0.375 0 0.688-0.281t0.313-0.719v-0.688q0-0.469 0.281-0.859t0.719-0.547q1.625-0.688 2.453-2.297t0.453-3.422zM15 22.813q-0.406 0.375-0.406 1.094 0 0.5 0.406 1.094 0.406 0.406 1.094 0.406 0.5 0 1.094-0.406 0.406-0.406 0.406-1.094 0-0.5-0.406-1.094-0.438-0.469-1.094-0.469t-1.094 0.469zM16 2.094q-3.875 0-7.094 2-1.813-2.094-5-2.094-0.563 0-0.906 0.5t0 1q1 1.719 1.313 4.313 0.063 0.375 0.344 0.625t0.656 0.25h0.094q1-0.156 1-1.094-0.313-1.969-0.813-3.281 1.375 0.313 2.219 1.594v0 0q0.094 0.094 0.094 0.188l0.094 0.094q0.063 0 0.109 0.063t0.094 0.063 0.094 0.047 0.109 0.047h0.406q0.094 0 0.188-0.094 0.094 0 0.188-0.125v0 0q3-2.094 6.813-2.094 3.25 0 6.016 1.609t4.375 4.375 1.609 6.016-1.609 6.016-4.375 4.375-6.016 1.609-6.016-1.609-4.375-4.375-1.609-6.016q0-2.594 1-4.906 0.156-0.375 0.016-0.75t-0.516-0.531-0.766-0.016-0.547 0.516q-1.188 2.688-1.188 5.688 0 2.844 1.109 5.438t2.984 4.469 4.469 2.984 5.438 1.109 5.438-1.109 4.469-2.984 2.984-4.469 1.109-5.438-1.109-5.422-2.984-4.469-4.469-3-5.438-1.109z"></path>
</svg>
