<!-- Generated by IcoMoon.io -->
<svg version="1.1" xmlns="http://www.w3.org/2000/svg" width="32" height="32" viewBox="0 0 32 32">
<title>askfill</title>
<path d="M21 2.906q-0.156-0.063-0.5-0.156t-0.5-0.156q-1.938-0.594-4-0.594-2.594 0-5 0.906-0.156 0.031-0.5 0.188t-0.5 0.219q-0.219 0.156-0.625 0.391t-0.469 0.297q-1.031-1.031-1.906-1.406-0.188-0.125-1-0.406-1.063-0.281-2.094-0.281-0.563 0-0.906 0.5t0 1q1 1.594 1.313 4l-1.125 2.781q-1.188 2.875-1.188 5.813 0 5.625 4 9.813 0.156 0.125 0.5 0.438t0.5 0.438q1.25 1.125 3 1.906 0.188 0.125 1 0.406 2.406 0.906 5 0.906 2.063 0 4-0.594 0.156-0.063 0.5-0.156t0.5-0.156q3.969-1.531 6.484-5.109t2.516-7.984-2.5-7.891-6.5-5.109zM17.188 24.313q-0.375 0.375-1.094 0.375-0.5 0-1.094-0.375-0.406-0.406-0.406-1.125 0-0.5 0.406-1.094 0.438-0.438 1.078-0.438t1.016 0.438q0.406 0.406 0.406 1.094 0.281 0.531-0.313 1.125zM18 16.688q-0.813 0.281-1 1.406v0.813q0 0.438-0.313 0.813t-0.688 0.375v0q-0.438 0-0.719-0.359t-0.281-0.828v-0.813q0-1.031 0.609-1.938t1.578-1.344q1.063-0.469 1.531-1.438t0.188-2.063q-0.156-0.844-0.766-1.453t-1.453-0.766q-0.813-0.219-1.641 0.031t-1.359 0.875q0.219 0.094 0.719 0.594 0.313 0.313 0.344 0.703t-0.25 0.703q-0.313 0.313-0.703 0.344t-0.703-0.25q-0.156-0.156-0.375-0.328t-0.313-0.266q-0.281-0.219-0.438-0.375t-0.344-0.453-0.109-0.672 0.391-0.813q0.906-1.25 2.344-1.813t2.938-0.188q1.375 0.313 2.391 1.344t1.328 2.375q0.375 1.781-0.438 3.406t-2.469 2.375z"></path>
</svg>
