<!-- Generated by IcoMoon.io -->
<svg version="1.1" xmlns="http://www.w3.org/2000/svg" width="32" height="32" viewBox="0 0 32 32">
<title>attention_light</title>
<path d="M30.594 16q0-0.125-0.063-0.281v-0.063q0-0.063-0.063-0.125-1.969-4.313-5.891-6.891t-8.563-2.578-8.594 2.578-5.953 6.891q0 0.031-0.031 0.063t-0.031 0.063v0.063l-0.063 0.219v0.469q0 0.188 0.063 0.25 0 0.156 0.063 0.281 0 0.125 0.063 0.125 2 4.344 6 7t8.547 2.656 8.531-2.641 5.922-6.953q0-0.031 0.031-0.063t0.031-0.063v-0.063l0.063-0.219 0.031-0.125t0.031-0.188q0-0.094-0.031-0.188l-0.047-0.141t-0.047-0.078zM29.344 16.406v0.125q-1.844 4-5.516 6.438t-7.828 2.438q-4.125 0-7.766-2.422t-5.516-6.391v-0.469q1.875-3.938 5.484-6.297t7.797-2.359q4.25 0 7.859 2.359t5.422 6.297v0.219q0.063 0 0.063 0.063zM16 12q-1.938 0-3.297 1.359t-1.359 3.313 1.359 3.313 3.297 1.359 3.297-1.359 1.359-3.313-1.359-3.313-3.297-1.359zM16 20q-1.406 0-2.375-0.969t-0.969-2.359 0.969-2.359 2.375-0.969 2.375 0.969 0.969 2.359-0.969 2.359-2.375 0.969z"></path>
</svg>
