<!-- Generated by IcoMoon.io -->
<svg version="1.1" xmlns="http://www.w3.org/2000/svg" width="32" height="32" viewBox="0 0 32 32">
<title>attentionfavorfill-copy</title>
<path d="M26.281 21.125q0.656-0.625 1.531-0.625 0.938 0 1.594 0.656t0.656 1.594q0 0.5-0.156 0.828t-0.5 0.766l-3.188 3.219q-0.406 0.406-0.656 0.406t-0.625-0.406l-3.188-3.219q-0.688-0.719-0.688-1.594 0-0.938 0.656-1.594t1.594-0.656q0.906 0 1.563 0.625l0.688 0.688 0.172-0.156t0.344-0.328zM20.688 25.406q-1.125-1.188-1.125-2.656 0-1.563 1.109-2.656t2.641-1.094q1.25 0 2.25 0.75 1-0.75 2.25-0.75 0.844 0 1.625 0.375 0.813-1.188 1.344-2.406 0.063-0.063 0.094-0.219l0.047-0.188t0.031-0.109-0.016-0.047v0q0.063-0.219 0.063-0.406 0-0.281-0.031-0.344-0.031-0.188-0.063-0.344-0.031-0.031-0.031-0.063-0.031-0.094-0.063-0.125-2.063-4.563-6.156-7.344t-8.656-2.781-8.656 2.781-6.156 7.313q-0.031 0.094-0.063 0.156 0 0.031-0.031 0.063 0 0.031-0.031 0.25l-0.063 0.344v0.188q0.031 0.438 0.031 0.469v-0.031q0.031-0.188 0.031 0v0.469l0.063-0.031q0.031 0.031 0.031 0.016t0.031 0.016q2.063 4.531 6.141 7.297t8.672 2.766q2.656 0 5.281-1.031zM16 21q-2.063 0-3.531-1.469t-1.469-3.531 1.469-3.531 3.531-1.469 3.531 1.469 1.469 3.531-1.469 3.531-3.531 1.469z"></path>
</svg>
