<!-- Generated by IcoMoon.io -->
<svg version="1.1" xmlns="http://www.w3.org/2000/svg" width="32" height="32" viewBox="0 0 32 32">
<title>attention</title>
<path d="M31 16q0-0.281-0.031-0.344-0.031-0.188-0.063-0.344-0.031-0.031-0.031-0.063-0.031-0.094-0.063-0.125-2.063-4.531-6.156-7.328t-8.656-2.797-8.656 2.781-6.156 7.313q-0.031 0.094-0.063 0.156 0 0.063-0.031 0.063 0 0.063-0.031 0.25l-0.063 0.344v0.188q0.031 0.219 0.031 0.25 0 0.094 0.031 0.219v0l0.063 0.188t0.063 0.125q2.063 4.531 6.156 7.328t8.656 2.797 8.656-2.781 6.125-7.281q0.063-0.094 0.094-0.219 0-0.031 0.031-0.031 0-0.063 0.016-0.125t0.031-0.109-0.016-0.047v0q0.063-0.25 0.063-0.406zM28.969 16.063v0.063q-1.844 4-5.422 6.438t-7.547 2.438-7.531-2.438-5.438-6.438v-0.063l-0.031-0.031v-0.063q0-0.031 0.031-0.063v-0.031q1.844-4 5.422-6.438t7.547-2.438 7.547 2.438 5.422 6.438v0.031q0.031 0.094 0.031 0.125zM16 11q-2.063 0-3.531 1.469t-1.469 3.531 1.469 3.531 3.531 1.469 3.531-1.469 1.469-3.531-1.469-3.531-3.531-1.469zM16 19q-1.25 0-2.125-0.875t-0.875-2.125 0.875-2.125 2.125-0.875 2.125 0.875 0.875 2.125-0.875 2.125-2.125 0.875z"></path>
</svg>
