<!-- Generated by IcoMoon.io -->
<svg version="1.1" xmlns="http://www.w3.org/2000/svg" width="32" height="32" viewBox="0 0 32 32">
<title>attentionfavor</title>
<path d="M16 27q-4.563 0-8.656-2.797t-6.156-7.328q-0.031-0.031-0.063-0.125l-0.063-0.188q-0.031-0.125-0.031-0.219l-0.031-0.25v-0.188q0.031-0.25 0.063-0.344 0.031-0.188 0.031-0.25 0.031-0.031 0.031-0.063 0.031-0.094 0.063-0.156 2.063-4.531 6.156-7.313t8.656-2.781 8.656 2.797 6.156 7.328q0.031 0.031 0.063 0.125 0 0.031 0.031 0.063 0.031 0.156 0.063 0.344 0.031 0.063 0.031 0.344 0 0.406-0.297 0.703t-0.703 0.297-0.703-0.281-0.297-0.688q0-0.031-0.031-0.094v-0.063q-1.844-4-5.422-6.438t-7.547-2.438-7.547 2.438-5.422 6.438v0.031t-0.031 0.063v0.063l0.016 0.016t0.016 0.031v0.047q2.094 4.5 6.297 6.969t8.641 1.75q0.406-0.063 0.734 0.172t0.406 0.641-0.172 0.75-0.656 0.406q-1.125 0.188-2.281 0.188zM16 21q-2.063 0-3.531-1.469t-1.469-3.531 1.469-3.531 3.531-1.469 3.531 1.469 1.469 3.531-1.469 3.531-3.531 1.469zM16 13q-1.25 0-2.125 0.875t-0.875 2.125 0.875 2.125 2.125 0.875 2.125-0.875 0.875-2.125-0.875-2.125-2.125-0.875zM25.438 28.969q-0.656 0-1.344-0.688l-3.188-3.219q-0.969-1.031-0.969-2.313 0-1.344 0.953-2.297t2.297-0.953q1.313 0 2.25 0.906v0 0q0.969-0.906 2.25-0.906 1.344 0 2.297 0.953t0.953 2.297q0 0.531-0.156 0.984t-0.297 0.672-0.453 0.594l-0.063 0.063-3.188 3.219q-0.688 0.688-1.344 0.688zM23.188 21.5q-0.5 0-0.875 0.375t-0.375 0.875 0.406 0.938l3.094 3.125 3.094-3.125q0.406-0.531 0.406-0.938 0-0.5-0.359-0.875t-0.891-0.375q-0.5 0-0.844 0.344l-0.688 0.688q-0.281 0.313-0.719 0.313-0.375 0.031-0.688-0.313l-0.719-0.688q-0.344-0.344-0.844-0.344z"></path>
</svg>
