<!-- Generated by IcoMoon.io -->
<svg version="1.1" xmlns="http://www.w3.org/2000/svg" width="32" height="32" viewBox="0 0 32 32">
<title>attentionforbid</title>
<path d="M18.906 15.344l1.938 1.844q0.156-0.656 0.156-1.188 0-2.063-1.469-3.531t-3.531-1.469q-0.625 0-1.375 0.219l1.906 1.844q0.875 0.156 1.531 0.781t0.844 1.5zM17.375 20.781l-1.906-1.844q-0.875-0.156-1.531-0.781t-0.844-1.5l-1.938-1.844q-0.156 0.656-0.156 1.188 0 2.063 1.469 3.531t3.531 1.469q0.625 0 1.375-0.219zM5.594 4.281q-0.313-0.281-0.719-0.281t-0.688 0.297-0.281 0.719 0.313 0.703l23 22q0.281 0.281 0.688 0.281t0.719-0.313q0.281-0.281 0.281-0.703t-0.313-0.703zM16 25q-3.969 0-7.531-2.438t-5.438-6.438v-0.063l-0.031-0.031v-0.063l0.031-0.063v-0.031q1.375-2.969 3.813-5.156l-1.438-1.406q-2.719 2.469-4.219 5.781-0.031 0.094-0.063 0.156 0 0.031-0.031 0.063 0 0.063-0.031 0.25l-0.063 0.344v0.188q0.031 0.438 0.031 0.469l0.156 0.438q2.063 4.531 6.141 7.297t8.672 2.766q3.156 0 6.344-1.5l-1.563-1.531q-2.375 0.969-4.781 0.969zM31 16q0-0.281-0.031-0.344-0.031-0.188-0.063-0.344-0.031-0.031-0.031-0.063-0.031-0.094-0.063-0.125-2.063-4.531-6.156-7.328t-8.656-2.797q-3.219 0-6.344 1.469l1.563 1.5q2.375-0.969 4.781-0.969 3.969 0 7.547 2.438t5.422 6.438v0 0.031q0.031 0.094 0.031 0.125l-0.031 0.031v0.063q-1.375 2.969-3.813 5.156l1.438 1.406q2.688-2.469 4.188-5.75 0.063-0.094 0.094-0.219 0-0.031 0.031-0.031 0-0.063 0.016-0.125t0.031-0.109-0.016-0.047v0q0.063-0.25 0.063-0.406z"></path>
</svg>
