<!-- Generated by IcoMoon.io -->
<svg version="1.1" xmlns="http://www.w3.org/2000/svg" width="32" height="32" viewBox="0 0 32 32">
<title>attentionforbidfill</title>
<path d="M1.188 17q2.063 4.531 6.141 7.297t8.672 2.766q3.219 0 6.375-1.5l-5-4.781q-0.75 0.219-1.375 0.219-2.063 0-3.531-1.469t-1.469-3.531q0-0.531 0.156-1.156l-5.75-5.5q-2.719 2.438-4.219 5.75-0.031 0.094-0.063 0.156 0 0.031-0.031 0.063l-0.031 0.25-0.063 0.344v0.188q0.031 0.438 0.031 0.469zM31 16q0-0.281-0.031-0.344-0.031-0.188-0.063-0.344-0.031-0.031-0.031-0.063-0.031-0.094-0.063-0.125-2.063-4.531-6.156-7.328t-8.656-2.797q-3.219 0-6.344 1.469l4.938 4.75q0.781-0.219 1.406-0.219 2.063 0 3.531 1.469t1.469 3.531q0 0.563-0.156 1.188l5.75 5.531q2.688-2.469 4.188-5.75 0.063-0.063 0.094-0.219l0.047-0.188t0.031-0.109-0.016-0.047v0q0.063-0.25 0.063-0.406zM27 28q-0.406 0-0.688-0.281l-23-22q-0.313-0.281-0.313-0.703t0.281-0.719 0.703-0.297 0.703 0.281l23 22q0.313 0.281 0.313 0.703t-0.281 0.703q-0.281 0.313-0.719 0.313z"></path>
</svg>
