<!-- Generated by IcoMoon.io -->
<svg version="1.1" xmlns="http://www.w3.org/2000/svg" width="32" height="32" viewBox="0 0 32 32">
<title>baby</title>
<path d="M25.094 9.969q-0.25-0.219-0.563-0.406 0.469-0.75 0.469-1.563v-1q0-1.25-0.891-2.125t-2.109-0.875h-3.469q-0.219-0.031-0.781-0.531t-1.031-1.094q-0.281-0.344-0.813-0.375-0.5 0.031-0.813 0.438-0.375 0.531-0.844 1.016t-0.656 0.547h-3.594q-1.25 0-2.125 0.875t-0.875 2.125q0 0.406 0.297 0.703t0.703 0.297 0.703-0.297 0.297-0.703 0.297-0.703 0.703-0.297h3.594q1.063 0 2.375-1.438 1.438 1.438 2.563 1.438h3.469q0.406 0 0.703 0.297t0.297 0.703v1q0 0.406-0.297 0.703t-0.703 0.297h-12q-0.031 0-0.094 0.016l-0.063 0.016h-0.75q-1.313 0-2.219 0.938t-0.906 2.281v14.594q0 1.344 0.953 2.281t2.297 0.938h13.594q1.313 0 2.266-0.938t0.953-2.281v-14.594q0-1.313-0.938-2.281zM24.031 26.844q0 0.5-0.359 0.859t-0.859 0.359h-13.594q-0.531 0-0.891-0.359t-0.359-0.859v-14.594q0-0.531 0.328-0.875t0.797-0.344h13.719q0.5 0 0.859 0.359t0.359 0.859v14.594zM11 17h3q0.406 0 0.703-0.297t0.297-0.703-0.297-0.703-0.703-0.297h-3q-0.406 0-0.703 0.297t-0.297 0.703 0.297 0.703 0.703 0.297zM16 19h-5q-0.406 0-0.703 0.297t-0.297 0.703 0.297 0.703 0.703 0.297h5q0.406 0 0.703-0.297t0.297-0.703-0.297-0.703-0.703-0.297zM14 23h-3q-0.406 0-0.703 0.297t-0.297 0.703 0.297 0.703 0.703 0.297h3q0.406 0 0.703-0.297t0.297-0.703-0.297-0.703-0.703-0.297z"></path>
</svg>
