<!-- Generated by IcoMoon.io -->
<svg version="1.1" xmlns="http://www.w3.org/2000/svg" width="32" height="32" viewBox="0 0 32 32">
<title>backdelete</title>
<path d="M17.938 2.938q-1.438 0-3.141 0.672t-3.188 1.688-3.109 2.406-2.766 2.563-2.281 2.453-1.563 1.797-0.672 0.891q-0.469 0.594 0 1.219 0.25 0.344 0.672 0.859t1.563 1.797 2.281 2.453 2.75 2.563 3.109 2.406 3.203 1.688 3.141 0.672q3.531 0 6.547-1.75t4.766-4.766 1.75-6.547-1.75-6.547-4.766-4.766-6.547-1.75zM17.938 27.063q-1.344 0-3.078-0.813t-3.313-2.031-3.234-2.797-2.859-2.891-2.172-2.531q0.969-1.219 2.172-2.531t2.859-2.891 3.234-2.797 3.297-2.031 3.094-0.813q3 0 5.547 1.484t4.031 4.031 1.484 5.547-1.484 5.547-4.031 4.031-5.547 1.484zM23.719 11.484q-0.281-0.297-0.703-0.297t-0.703 0.281l-3.313 3.25-3.25-3.25q-0.313-0.281-0.719-0.281t-0.703 0.281-0.297 0.703 0.281 0.703l3.25 3.25-3.25 3.25q-0.313 0.281-0.313 0.703t0.297 0.719 0.703 0.297 0.719-0.281l3.281-3.25 3.281 3.313q0.313 0.281 0.719 0.281t0.703-0.281 0.297-0.703-0.281-0.703l-3.313-3.313 3.313-3.281q0.281-0.281 0.281-0.688t-0.281-0.703z"></path>
</svg>
