<!-- Generated by IcoMoon.io -->
<svg version="1.1" xmlns="http://www.w3.org/2000/svg" width="32" height="32" viewBox="0 0 32 32">
<title>bad</title>
<path d="M3.969 23.969q-0.406 0-0.688 0.297t-0.281 0.703 0.281 0.703 0.719 0.297q0.125 0 0.344 0.016t0.844 0.172 1.219 0.422 1.391 0.828 1.484 1.313q0.313 0.313 0.75 0.313 0.375 0 0.656-0.25 0.313-0.281 0.328-0.703t-0.266-0.703q-0.844-0.969-1.875-1.656t-1.766-1.016-1.578-0.516-1.063-0.203-0.5-0.016zM27.125 24.031q-0.125-0.031-0.328-0.031t-0.719 0.047-1.047 0.141-1.281 0.328-1.453 0.578-1.5 0.938-1.484 1.313q-0.281 0.313-0.266 0.719t0.297 0.719q0.313 0.25 0.688 0.25 0.438 0 0.75-0.313 0.75-0.813 1.656-1.391t1.641-0.813 1.438-0.391 1.031-0.109 0.422 0.016q0.406 0.031 0.719-0.25t0.344-0.688-0.234-0.719-0.672-0.344zM28.938 17.094q-0.906-2.188-3.781-4.938 1.875-1.375 2.75-3.5 0.281-0.656-0.281-1.156-2.406-1.969-6.078-3.234t-7.078-1.266q-5.781 0-8.094 3.563v0q-0.563 0.656-1.156 2.438 0 0.063-0.031 0.156-0.313 1.219-0.156 2.563v0.094q0 0.281 0.031 0.719t0.234 1.625 0.531 2.406 1.047 2.922 1.656 3.313 2.469 3.469 3.406 3.484q0.281 0.25 0.656 0.25 0.469 0 0.75-0.344 0.281-0.313 0.25-0.734t-0.344-0.672q-5.063-4.375-7.313-10.406 2.375 2.406 5.672 4.078t6.141 2.078h0.125q0.563 0 0.844-0.469 1.531-2.375 1.25-4.469h0.656q3.125 0 5.219-0.625 0.406-0.156 0.609-0.547t0.016-0.797zM23.094 17.063q-1.063 0-2.125-0.094-0.688-0.063-0.984 0.563t0.172 1.125q0.375 0.313 0.297 1.25t-0.641 2q-3.063-0.625-6.438-2.672t-5.125-4.703q-1.719-2.594-1.125-4.906l0.031-0.031q0.344-0.969 0.875-1.906v-0.031q1.75-2.656 6.438-2.656 2.844 0 5.969 1t5.281 2.563q-0.906 1.625-2.688 2.531-0.438 0.25-0.516 0.766t0.328 0.859q2.719 2.5 3.688 4.063-1.656 0.281-3.438 0.281z"></path>
</svg>
