<!-- Generated by IcoMoon.io -->
<svg version="1.1" xmlns="http://www.w3.org/2000/svg" width="32" height="32" viewBox="0 0 32 32">
<title>baobiao</title>
<path d="M30 21v-16q0-0.406-0.297-0.703t-0.703-0.297h-12v-2h-2v2h-12q-0.406 0-0.703 0.297t-0.297 0.703v16q0 0.406 0.297 0.703t0.703 0.297h12v1.563l-4.781 2.813 1 1.75 4.5-2.625h0.594l4.5 2.625 1-1.75-4.813-2.813v-1.563h12q0.406 0 0.703-0.297t0.297-0.703zM24.688 8l1.313 1.531-9.906 8.438-5.094-4.281-3.688 3.094-1.281-1.531 5-4.188 5.094 4.313z"></path>
</svg>
