<!-- Generated by IcoMoon.io -->
<svg version="1.1" xmlns="http://www.w3.org/2000/svg" width="32" height="32" viewBox="0 0 32 32">
<title>barcode</title>
<path d="M5 17q-0.406 0-0.703 0.297t-0.297 0.703v10q0 0.406 0.297 0.703t0.703 0.297 0.703-0.297 0.297-0.703v-10q0-0.406-0.297-0.703t-0.703-0.297zM19 17q-0.406 0-0.703 0.297t-0.297 0.703v10q0 0.406 0.297 0.703t0.703 0.297 0.703-0.297 0.297-0.703v-10q0-0.406-0.297-0.703t-0.703-0.297zM27 17q-0.406 0-0.703 0.297t-0.297 0.703v10q0 0.406 0.297 0.703t0.703 0.297 0.703-0.297 0.297-0.703v-10q0-0.406-0.297-0.703t-0.703-0.297zM9 17q-0.406 0-0.703 0.297t-0.297 0.703v7q0 0.406 0.297 0.703t0.703 0.297 0.703-0.297 0.297-0.703v-7q0-0.406-0.297-0.703t-0.703-0.297zM13 17q-0.406 0-0.703 0.297t-0.297 0.703v7q0 0.406 0.297 0.703t0.703 0.297 0.703-0.297 0.297-0.703v-7q0-0.406-0.297-0.703t-0.703-0.297zM23 17q-0.406 0-0.703 0.297t-0.297 0.703v7q0 0.406 0.297 0.703t0.703 0.297 0.703-0.297 0.297-0.703v-7q0-0.406-0.297-0.703t-0.703-0.297zM5 11q0.406 0 0.703-0.297t0.297-0.703v-6q0-0.406-0.297-0.703t-0.703-0.297-0.703 0.297-0.297 0.703v6q0 0.406 0.297 0.703t0.703 0.297zM9 11q0.406 0 0.703-0.297t0.297-0.703v-6q0-0.406-0.297-0.703t-0.703-0.297-0.703 0.297-0.297 0.703v6q0 0.406 0.297 0.703t0.703 0.297zM13 11q0.406 0 0.703-0.297t0.297-0.703v-6q0-0.406-0.297-0.703t-0.703-0.297-0.703 0.297-0.297 0.703v6q0 0.406 0.297 0.703t0.703 0.297zM19 11q0.406 0 0.703-0.297t0.297-0.703v-6q0-0.406-0.297-0.703t-0.703-0.297-0.703 0.297-0.297 0.703v6q0 0.406 0.297 0.703t0.703 0.297zM23 11q0.406 0 0.703-0.297t0.297-0.703v-6q0-0.406-0.297-0.703t-0.703-0.297-0.703 0.297-0.297 0.703v6q0 0.406 0.297 0.703t0.703 0.297zM27 11q0.406 0 0.703-0.297t0.297-0.703v-6q0-0.406-0.297-0.703t-0.703-0.297-0.703 0.297-0.297 0.703v6q0 0.406 0.297 0.703t0.703 0.297zM29 13h-26q-0.406 0-0.703 0.297t-0.297 0.703 0.297 0.703 0.703 0.297h26q0.406 0 0.703-0.297t0.297-0.703-0.297-0.703-0.703-0.297z"></path>
</svg>
