<!-- Generated by IcoMoon.io -->
<svg version="1.1" xmlns="http://www.w3.org/2000/svg" width="32" height="32" viewBox="0 0 32 32">
<title>big</title>
<path d="M25 11h-1q-1.656 0-2.828 1.172t-1.172 2.828v2q0 1.656 1.172 2.828t2.828 1.172h1q1.031 0 2-0.563v1.563q0 0.813-0.438 1.406t-1.063 0.594h-2.5v2h2.5q1.438 0 2.469-1.172t1.031-2.828v-7q0-1.656-1.172-2.828t-2.828-1.172zM25 19h-1q-0.813 0-1.406-0.594t-0.594-1.406v-2q0-0.813 0.594-1.406t1.406-0.594h1q0.813 0 1.406 0.594t0.594 1.406v2q0 0.813-0.594 1.406t-1.406 0.594zM15 10h2v11h-2v-11zM15 7h2v2h-2v-2zM8 11h-3v-4h-2v14h5q1.656 0 2.828-1.156t1.172-2.781v-2q0-1.688-1.172-2.875t-2.828-1.188zM10 17.063q0 0.813-0.578 1.375t-1.422 0.563h-3v-6h3q0.813 0 1.406 0.609t0.594 1.453v2z"></path>
</svg>
