<!-- Generated by IcoMoon.io -->
<svg version="1.1" xmlns="http://www.w3.org/2000/svg" width="32" height="32" viewBox="0 0 32 32">
<title>bingtu-xianxing</title>
<path d="M16 2q-5.781 0-9.891 4.109t-4.109 9.891 4.109 9.891 9.891 4.109 9.891-4.109 4.109-9.891-4.109-9.891-9.891-4.109zM25.719 8.969l-7.719 5.125v-9.906q2.344 0.375 4.344 1.625t3.375 3.156zM16 28q-4.969 0-8.484-3.516t-3.516-8.484 3.516-8.484 8.484-3.516v13.813l10.75-7.125q1.25 2.5 1.25 5.313 0 3.25-1.609 6.016t-4.375 4.375-6.016 1.609v0z"></path>
</svg>
