<!-- Generated by IcoMoon.io -->
<svg version="1.1" xmlns="http://www.w3.org/2000/svg" width="32" height="32" viewBox="0 0 32 32">
<title>brandfill</title>
<path d="M16 2q-5.781 0-9.891 4.109t-4.109 9.891 4.109 9.891 9.891 4.109 9.891-4.109 4.109-9.891-4.109-9.891-9.891-4.109zM20.531 22h1.469q0.406 0 0.703 0.297t0.297 0.703-0.297 0.703-0.703 0.297h-2q-0.156 0-0.344-0.063l-0.063-0.031q-0.156-0.063-0.281-0.188l-0.016-0.016t-0.016-0.047q-0.094-0.094-0.125-0.094l-3.688-5.563h-2.469v4h1q0.406 0 0.703 0.297t0.297 0.703-0.297 0.703-0.703 0.297h-4q-0.406 0-0.703-0.297t-0.297-0.703 0.297-0.703 0.703-0.297h1v-9q0-0.406 0.297-0.703t0.703-0.297 0.703 0.297 0.297 0.703v3h5q1.25 0 2.125-0.875t0.875-2.125-0.875-2.125-2.125-0.875h-8q-0.406 0-0.703-0.297t-0.297-0.703 0.297-0.703 0.703-0.297h8q2.063 0 3.531 1.469t1.469 3.531-1.469 3.531-3.531 1.469h-0.125z"></path>
</svg>
