<!-- Generated by IcoMoon.io -->
<svg version="1.1" xmlns="http://www.w3.org/2000/svg" width="32" height="32" viewBox="0 0 32 32">
<title>brand</title>
<path d="M16 2q-5.781 0-9.891 4.109t-4.109 9.891 4.109 9.891 9.891 4.109 9.891-4.109 4.109-9.891-4.109-9.891-9.891-4.109zM16 28q-4.969 0-8.484-3.516t-3.516-8.484 3.516-8.484 8.484-3.516 8.484 3.516 3.516 8.484-3.516 8.484-8.484 3.516zM23 13q0-2.063-1.469-3.531t-3.531-1.469h-8q-0.406 0-0.703 0.297t-0.297 0.703 0.297 0.703 0.703 0.297h8q1.25 0 2.125 0.875t0.875 2.125-0.875 2.125-2.125 0.875h-5v-3q0-0.406-0.297-0.703t-0.703-0.297-0.703 0.297-0.297 0.703v9h-1q-0.406 0-0.703 0.297t-0.297 0.703 0.297 0.703 0.703 0.297h4q0.406 0 0.703-0.297t0.297-0.703-0.297-0.703-0.703-0.297h-1v-4h2.469l3.688 5.563q0.031 0 0.125 0.094 0 0.031 0.016 0.047l0.016 0.016q0.125 0.125 0.281 0.188l0.063 0.031q0.188 0.063 0.344 0.063v0h2q0.406 0 0.703-0.297t0.297-0.703-0.297-0.703-0.703-0.297h-1.469l-2.656-4h0.125q2.063 0 3.531-1.469t1.469-3.531z"></path>
</svg>
