<!-- Generated by IcoMoon.io -->
<svg version="1.1" xmlns="http://www.w3.org/2000/svg" width="32" height="32" viewBox="0 0 32 32">
<title>calendar</title>
<path d="M8.031 18.031h16q0.438 0 0.719-0.297t0.281-0.703-0.281-0.703-0.719-0.297h-16q-0.406 0-0.703 0.297t-0.297 0.703 0.297 0.703 0.703 0.297zM8.031 24.031h16q0.438 0 0.719-0.297t0.281-0.703-0.281-0.703-0.719-0.297h-16q-0.406 0-0.703 0.297t-0.297 0.703 0.297 0.703 0.703 0.297zM14 6h5q0.406 0 0.703-0.297t0.297-0.703-0.297-0.703-0.703-0.297h-5q-0.406 0-0.703 0.297t-0.297 0.703 0.297 0.703 0.703 0.297zM26.469 4h-1.469q-0.406 0-0.703 0.297t-0.297 0.703 0.297 0.703 0.703 0.297h1.469q0.156 0 0.344 0.281t0.188 0.719v3h-22v-3q0-0.406 0.281-0.703t0.688-0.297h2.031q0.406 0 0.703-0.297t0.297-0.703-0.297-0.703-0.703-0.297h-2.031q-1.219 0-2.094 0.875t-0.875 2.125v20q0 1.25 0.875 2.125t2.125 0.875h20q1.25 0 2.125-0.875t0.875-2.125v-20q0-1.25-0.75-2.125t-1.781-0.875zM27 27q0 0.406-0.297 0.703t-0.703 0.297h-20q-0.406 0-0.703-0.297t-0.297-0.703v-15h22v15zM22 7q0.406 0 0.703-0.297t0.297-0.703v-3q0-0.406-0.297-0.703t-0.703-0.297-0.703 0.297-0.297 0.703v3q0 0.406 0.297 0.703t0.703 0.297zM11 7q0.406 0 0.703-0.297t0.297-0.703v-3q0-0.406-0.297-0.703t-0.703-0.297-0.703 0.297-0.297 0.703v3q0 0.406 0.297 0.703t0.703 0.297z"></path>
</svg>
