<!-- Generated by IcoMoon.io -->
<svg version="1.1" xmlns="http://www.w3.org/2000/svg" width="32" height="32" viewBox="0 0 32 32">
<title>cameraadd</title>
<path d="M15 11q-2.469 0-4.234 1.766t-1.766 4.234 1.766 4.234 4.234 1.766 4.234-1.766 1.766-4.234-1.766-4.234-4.234-1.766zM15 21q-1.656 0-2.828-1.172t-1.172-2.828 1.172-2.828 2.828-1.172 2.828 1.172 1.172 2.828-1.172 2.828-2.828 1.172zM18 26h-13q-0.406 0-0.703-0.297t-0.297-0.703v-16q0-0.406 0.297-0.703t0.703-0.297h3q0.406 0 0.703-0.297t0.297-0.703-0.297-0.703-0.703-0.297h-3q-1.25 0-2.125 0.875t-0.875 2.125v16q0 1.25 0.875 2.125t2.125 0.875h13q0.406 0 0.703-0.297t0.297-0.703-0.297-0.703-0.703-0.297zM16 8h10q0.406 0 0.703 0.297t0.297 0.703v8q0 0.406 0.297 0.703t0.703 0.297 0.703-0.297 0.297-0.703v-8q0-1.25-0.875-2.125t-2.125-0.875h-10q-0.406 0-0.703 0.297t-0.297 0.703 0.297 0.703 0.703 0.297zM23 10.5q0-0.625 0.438-1.063t1.063-0.438 1.063 0.438 0.438 1.063-0.438 1.063-1.063 0.438-1.063-0.438-0.438-1.063zM10 5h4q0.406 0 0.703-0.297t0.297-0.703-0.297-0.703-0.703-0.297h-4q-0.406 0-0.703 0.297t-0.297 0.703 0.297 0.703 0.703 0.297zM30 24h-3v-3q0-0.406-0.297-0.703t-0.703-0.297-0.703 0.297-0.297 0.703v3h-3q-0.406 0-0.703 0.297t-0.297 0.703 0.297 0.703 0.703 0.297h3v3q0 0.406 0.297 0.703t0.703 0.297 0.703-0.297 0.297-0.703v-3h3q0.406 0 0.703-0.297t0.297-0.703-0.297-0.703-0.703-0.297z"></path>
</svg>
