<!-- Generated by IcoMoon.io -->
<svg version="1.1" xmlns="http://www.w3.org/2000/svg" width="32" height="32" viewBox="0 0 32 32">
<title>camerafill</title>
<path d="M27 6h-11q0-1.25-0.875-2.125t-2.125-0.875h-2q-1.25 0-2.125 0.875t-0.875 2.125h-3q-1.25 0-2.125 0.875t-0.875 2.125v16q0 1.25 0.875 2.125t2.125 0.875h22q1.25 0 2.125-0.875t0.875-2.125v-16q0-1.25-0.875-2.125t-2.125-0.875zM16 23q-2.469 0-4.234-1.766t-1.766-4.234 1.766-4.234 4.234-1.766 4.234 1.766 1.766 4.234-1.766 4.234-4.234 1.766zM25.5 13q-0.625 0-1.063-0.438t-0.438-1.063 0.438-1.063 1.063-0.438 1.063 0.438 0.438 1.063-0.438 1.063-1.063 0.438z"></path>
</svg>
