<!-- Generated by IcoMoon.io -->
<svg version="1.1" xmlns="http://www.w3.org/2000/svg" width="32" height="32" viewBox="0 0 32 32">
<title>camera_light</title>
<path d="M10 17.672q0 2.359 1.656 4.016t4.016 1.656 4.016-1.656 1.656-4.016-1.656-4.016-4.016-1.656-4.016 1.656-1.656 4.016zM20 17.672q0 1.797-1.266 3.063t-3.078 1.266q-1.75 0-3.031-1.266t-1.281-3.078q0-1.781 1.266-3.047t3.063-1.266 3.063 1.266 1.266 3.063zM26.656 7.344h-9.313q-0.313 0-0.5 0.172t-0.188 0.484 0.188 0.484 0.5 0.172h9.313q0.563 0 0.953 0.391t0.391 0.953v16q0 0.563-0.391 0.953t-0.953 0.391h-20.656q-0.563 0-0.953-0.359t-0.391-0.922v-16q0-0.594 0.406-1t0.938-0.406h3.281q0.281 0 0.469-0.172t0.188-0.484-0.188-0.484-0.469-0.172h-3.281q-1.094 0-1.875 0.813t-0.781 1.906v16q0 1.094 0.781 1.844t1.875 0.75h20.656q1.125 0 1.906-0.781t0.781-1.875v-16q0-1.125-0.766-1.891t-1.922-0.766zM23.344 11.656v0q0 0.688 0.484 1.188t1.172 0.5 1.172-0.5 0.484-1.188v0 0q0-0.688-0.484-1.172t-1.172-0.484-1.172 0.484-0.484 1.172v0zM10.656 6h5.281q0.281 0 0.469-0.188t0.188-0.484-0.188-0.484-0.469-0.188h-5.281q-0.281 0-0.469 0.188t-0.188 0.5q0 0.281 0.203 0.469t0.453 0.188z"></path>
</svg>
