<!-- Generated by IcoMoon.io -->
<svg version="1.1" xmlns="http://www.w3.org/2000/svg" width="32" height="32" viewBox="0 0 32 32">
<title>camerarotate</title>
<path d="M27 6h-11q-0.406 0-0.703 0.297t-0.297 0.703 0.297 0.703 0.703 0.297h11q0.406 0 0.703 0.297t0.297 0.703v16q0 0.406-0.297 0.703t-0.703 0.297h-22q-0.406 0-0.703-0.297t-0.297-0.703v-16q0-0.406 0.297-0.703t0.703-0.297h3q0.406 0 0.703-0.297t0.297-0.703-0.297-0.703-0.703-0.297h-3q-1.25 0-2.125 0.875t-0.875 2.125v16q0 1.25 0.875 2.125t2.125 0.875h22q1.25 0 2.125-0.875t0.875-2.125v-16q0-1.25-0.875-2.125t-2.125-0.875zM10 5h4q0.406 0 0.703-0.297t0.297-0.703-0.297-0.703-0.703-0.297h-4q-0.406 0-0.703 0.297t-0.297 0.703 0.297 0.703 0.703 0.297zM12.5 22.875q0.219 0.125 0.5 0.125 0.563 0 0.875-0.5 0.188-0.344 0.094-0.75t-0.469-0.625q-1.094-0.625-1.719-1.734t-0.625-2.391 0.625-2.391 1.719-1.734q0.375-0.219 0.469-0.625t-0.094-0.75q-0.406-0.656-1.125-0.438l-4.938 1q-0.406 0.094-0.641 0.438t-0.141 0.75q0.063 0.344 0.344 0.578t0.625 0.234q0.094 0 0.188-0.031l1.844-0.375q-0.875 1.563-0.875 3.344 0 1.813 0.891 3.375t2.453 2.5zM19.438 11.094q-0.375-0.188-0.766-0.078t-0.609 0.469-0.109 0.75 0.484 0.609q1.125 0.625 1.766 1.75t0.641 2.406q0 1.25-0.625 2.359t-1.719 1.766q-0.344 0.188-0.453 0.594t0.109 0.781q0.156 0.25 0.438 0.375 0.281 0.188 0.594 0.188 0.188 0 0.375-0.094l4.844-1.969q0.375-0.156 0.531-0.547t0-0.766-0.531-0.531-0.781 0l-1.344 0.563q0.563-1.344 0.563-2.719 0-1.813-0.922-3.406t-2.484-2.5z"></path>
</svg>
