<!-- Generated by IcoMoon.io -->
<svg version="1.1" xmlns="http://www.w3.org/2000/svg" width="32" height="32" viewBox="0 0 32 32">
<title>cameraaddfill</title>
<path d="M26 6h-10q0-1.25-0.875-2.125t-2.125-0.875h-2q-1.25 0-2.125 0.875t-0.875 2.125h-3q-1.25 0-2.125 0.875t-0.875 2.125v16q0 1.25 0.875 2.125t2.125 0.875h13.063q0.438 0 0.734-0.328t0.25-0.781-0.047-0.797q0-2.188 1.203-3.969t3.25-2.578 4.297-0.234q0.469 0.125 0.859-0.172t0.391-0.797v-9.344q0-1.25-0.875-2.125t-2.125-0.875zM15 23q-2.469 0-4.234-1.766t-1.766-4.234 1.766-4.234 4.234-1.766 4.234 1.766 1.766 4.234-1.766 4.234-4.234 1.766zM24.5 13q-0.625 0-1.063-0.438t-0.438-1.063 0.438-1.063 1.063-0.438 1.063 0.438 0.438 1.063-0.438 1.063-1.063 0.438zM26 21.063q-2.063 0-3.531 1.469t-1.469 3.531 1.469 3.531 3.531 1.469 3.531-1.469 1.469-3.531-1.469-3.531-3.531-1.469zM28 27h-1v1q0 0.406-0.297 0.703t-0.703 0.297-0.703-0.297-0.297-0.703v-1h-1q-0.406 0-0.703-0.297t-0.297-0.703 0.297-0.703 0.703-0.297h1v-1q0-0.406 0.297-0.703t0.703-0.297 0.703 0.297 0.297 0.703v1h1q0.406 0 0.703 0.297t0.297 0.703-0.297 0.703-0.703 0.297z"></path>
</svg>
