<!-- Generated by IcoMoon.io -->
<svg version="1.1" xmlns="http://www.w3.org/2000/svg" width="32" height="32" viewBox="0 0 32 32">
<title>cardboard</title>
<path d="M27.375 7.031h-22.781q-1.063 0-1.813 0.766t-0.75 1.859v13.75q0 1.094 0.766 1.859t1.828 0.766h6.219q0.813 0 1.469-0.453t0.938-1.172l1.813-4.531q0.281-0.656 0.969-0.656t0.938 0.656l1.813 4.531q0.313 0.719 0.969 1.172t1.406 0.453h6.219q1.094 0 1.875-0.766t0.781-1.859v-13.75q0-1.094-0.781-1.859t-1.875-0.766zM28.031 23.406q0 0.25-0.188 0.438t-0.469 0.188h-6.219q-0.375 0-0.5-0.375l-1.813-4.531q-0.375-0.875-1.141-1.391t-1.688-0.516-1.688 0.516-1.109 1.391l-1.813 4.531q-0.156 0.375-0.563 0.375h-6.219q-0.25 0-0.422-0.188t-0.172-0.438v-13.75q0-0.25 0.172-0.438t0.391-0.188h22.781q0.281 0 0.469 0.188t0.188 0.438v13.75zM20.063 15.5q0-1.031 0.734-1.766t1.781-0.734 1.766 0.734 0.719 1.766-0.719 1.766-1.766 0.734-1.781-0.734-0.734-1.766zM7 15.5q0-1.031 0.734-1.766t1.766-0.734 1.766 0.734 0.734 1.766-0.734 1.766-1.766 0.734-1.766-0.734-0.734-1.766z"></path>
</svg>
