<!-- Generated by IcoMoon.io -->
<svg version="1.1" xmlns="http://www.w3.org/2000/svg" width="32" height="32" viewBox="0 0 32 32">
<title>cardboardfill</title>
<path d="M27.375 7.031h-22.781q-1.063 0-1.813 0.766t-0.75 1.859v13.75q0 1.094 0.766 1.859t1.828 0.766h6.219q0.813 0 1.469-0.453t0.938-1.172l1.813-4.531q0.281-0.656 0.969-0.656t0.938 0.656l1.813 4.531q0.313 0.719 0.969 1.172t1.406 0.453h6.219q1.094 0 1.875-0.766t0.781-1.859v-13.75q0-1.094-0.781-1.859t-1.875-0.766zM9.594 19q-1.438 0-2.469-1.031t-1.031-2.469 1.031-2.469 2.469-1.031 2.469 1.031 1.031 2.469-1.031 2.469-2.469 1.031zM22.578 19q-1.453 0-2.484-1.031t-1.031-2.469 1.031-2.469 2.484-1.031 2.469 1.031 1.016 2.469-1.016 2.469-2.469 1.031z"></path>
</svg>
