<!-- Generated by IcoMoon.io -->
<svg version="1.1" xmlns="http://www.w3.org/2000/svg" width="32" height="32" viewBox="0 0 32 32">
<title>cardboardforbid</title>
<path d="M20 15.406q0-1.031 0.734-1.766t1.766-0.734 1.766 0.734 0.734 1.766-0.734 1.766-1.766 0.734-1.766-0.734-0.734-1.766zM7 15.406q0-1.031 0.734-1.766t1.766-0.734 1.766 0.734 0.734 1.766-0.734 1.766-1.766 0.734-1.766-0.734-0.734-1.766zM27.406 7h-15.938l2.094 2h13.844q0.25 0 0.422 0.188t0.172 0.469v13.219l1.719 1.656q0.281-0.563 0.281-1.125v-13.75q0-1.094-0.75-1.875t-1.844-0.781zM13.219 19.125l-1.813 4.5q-0.125 0.375-0.531 0.375h-6.25q-0.25 0-0.438-0.172t-0.188-0.422v-13.75q0-0.25 0.188-0.453t0.406-0.203h0.281l-1.656-1.563q-1.219 0.781-1.219 2.219v13.75q0 1.063 0.781 1.828t1.844 0.766h6.25q0.781 0 1.438-0.438t0.969-1.188l1.813-4.531q0.156-0.344 0.531-0.531l-1.469-1.406q-0.625 0.5-0.938 1.219zM5.688 4.281q-0.281-0.281-0.703-0.281t-0.703 0.297-0.281 0.719 0.313 0.703l23 22q0.281 0.281 0.688 0.281 0.438 0 0.719-0.313 0.281-0.281 0.281-0.703t-0.313-0.703z"></path>
</svg>
