<!-- Generated by IcoMoon.io -->
<svg version="1.1" xmlns="http://www.w3.org/2000/svg" width="32" height="32" viewBox="0 0 32 32">
<title>cartfill</title>
<path d="M8.094 28q0 0.844 0.594 1.422t1.422 0.578 1.406-0.578 0.578-1.422-0.578-1.422-1.406-0.578-1.422 0.578-0.594 1.422zM24 28q0 0.844 0.578 1.422t1.422 0.578 1.422-0.578 0.578-1.422-0.578-1.422-1.422-0.578-1.422 0.578-0.578 1.422zM29.406 8.906q-0.75-0.906-2-0.906h-19.594l-0.719-3.5q-0.156-1.063-0.969-1.781t-1.938-0.719h-1.188q-0.438 0-0.719 0.297t-0.281 0.703 0.281 0.703 0.719 0.297h1.188q0.313 0 0.578 0.219t0.328 0.594l0.906 4.875 1.594 11.625q0.156 1.125 0.953 1.906t1.859 0.781h15.188q1.063 0 1.859-0.656t0.953-1.656l1.594-10.594q0.156-1.281-0.594-2.188z"></path>
</svg>
