<!-- Generated by IcoMoon.io -->
<svg version="1.1" xmlns="http://www.w3.org/2000/svg" width="32" height="32" viewBox="0 0 32 32">
<title>cart_light</title>
<path d="M28.813 9.469q-0.719-0.813-1.813-0.813h-16.281q-0.281 0-0.469 0.188t-0.188 0.484 0.188 0.484 0.469 0.188h16.281q0.469 0 0.813 0.344 0.25 0.406 0.188 0.781l-1.531 10.688q-0.063 0.344-0.422 0.594t-0.766 0.25h-14.344q-0.406 0-0.781-0.375t-0.438-0.875l-1.656-11.594-0.938-4.938q-0.094-0.938-0.828-1.578t-1.703-0.641h-1.25q-0.313 0-0.5 0.203t-0.188 0.484q0 0.25 0.219 0.453t0.469 0.203h1.25q0.469 0 0.813 0.313t0.406 0.75l0.906 4.938 1.688 11.594q0.094 1 0.828 1.703t1.641 0.703h14.406q0.938 0 1.656-0.578t0.875-1.422l1.531-10.656q0.188-1.031-0.531-1.875zM8.125 27.063q0 0.688 0.5 1.172t1.188 0.484 1.172-0.484 0.484-1.172v0q0-0.688-0.484-1.172t-1.172-0.484-1.188 0.484-0.5 1.172v0zM24.656 27.063q0 0.688 0.5 1.172t1.188 0.484 1.172-0.484 0.484-1.172-0.484-1.172-1.172-0.484-1.188 0.484-0.5 1.172z"></path>
</svg>
