<!-- Generated by IcoMoon.io -->
<svg version="1.1" xmlns="http://www.w3.org/2000/svg" width="32" height="32" viewBox="0 0 32 32">
<title>cart</title>
<path d="M29.406 8.906q-0.75-0.906-2-0.906h-16.406q-0.438 0-0.719 0.281t-0.281 0.719 0.281 0.719 0.719 0.281h16.406q0.281 0 0.5 0.188 0.219 0.25 0.094 0.625l-1.5 10.5q0 0.219-0.25 0.406t-0.563 0.188h-15.188q-0.281 0-0.547-0.297t-0.266-0.609l-1.688-11.594-0.906-4.906q-0.156-1.063-0.969-1.781t-1.938-0.719h-1.188q-0.438 0-0.719 0.297t-0.281 0.703 0.281 0.703 0.719 0.297h1.188q0.313 0 0.578 0.219t0.328 0.594l0.906 4.875 1.594 11.625q0.156 1.125 0.953 1.906t1.859 0.781h15.188q1.063 0 1.859-0.656t0.953-1.656l1.594-10.594q0.156-1.281-0.594-2.188zM8.094 28q0 0.844 0.594 1.422t1.422 0.578 1.406-0.578 0.578-1.422-0.578-1.422-1.406-0.578-1.422 0.578-0.594 1.422zM24 28q0 0.844 0.578 1.422t1.422 0.578 1.422-0.578 0.578-1.422-0.578-1.422-1.422-0.578-1.422 0.578-0.578 1.422z"></path>
</svg>
