<!-- Generated by IcoMoon.io -->
<svg version="1.1" xmlns="http://www.w3.org/2000/svg" width="32" height="32" viewBox="0 0 32 32">
<title>cart_fill_light</title>
<path d="M8 27q0 0.688 0.484 1.172t1.172 0.484 1.188-0.484 0.5-1.172-0.5-1.172-1.188-0.484-1.172 0.484-0.484 1.172zM24.594 27q0 0.688 0.484 1.172t1.188 0.484 1.188-0.484 0.484-1.172-0.484-1.172-1.188-0.484-1.188 0.484-0.484 1.172zM28.938 9.469q-0.75-0.875-1.875-0.875h-19.344l-0.719-3.781q-0.094-0.906-0.813-1.531t-1.656-0.625h-1.25q-0.313 0-0.5 0.188t-0.188 0.484 0.188 0.484 0.5 0.188h1.25q0.469 0 0.813 0.313t0.375 0.75l0.938 4.938 1.688 11.594q0.094 0.969 0.828 1.656t1.641 0.688h13.469l1.063 0.063q0.938 0 1.641-0.641t0.828-1.547l1.531-10.625q0.188-1-0.406-1.719z"></path>
</svg>
