<!-- Generated by IcoMoon.io -->
<svg version="1.1" xmlns="http://www.w3.org/2000/svg" width="32" height="32" viewBox="0 0 32 32">
<title>cascades</title>
<path d="M12 15h-6q-1.25 0-2.125-0.875t-0.875-2.125v-6q0-1.25 0.875-2.125t2.125-0.875h6q1.25 0 2.125 0.875t0.875 2.125v6q0 1.25-0.875 2.125t-2.125 0.875zM6 5q-0.406 0-0.703 0.297t-0.297 0.703v6q0 0.406 0.297 0.703t0.703 0.297h6q0.406 0 0.703-0.297t0.297-0.703v-6q0-0.406-0.297-0.703t-0.703-0.297h-6zM12 29h-6q-1.25 0-2.125-0.875t-0.875-2.125v-6q0-1.25 0.875-2.125t2.125-0.875h6q1.25 0 2.125 0.875t0.875 2.125v6q0 1.25-0.875 2.125t-2.125 0.875zM6 19q-0.406 0-0.703 0.297t-0.297 0.703v6q0 0.406 0.297 0.703t0.703 0.297h6q0.406 0 0.703-0.297t0.297-0.703v-6q0-0.406-0.297-0.703t-0.703-0.297h-6zM26 29h-6q-1.25 0-2.125-0.875t-0.875-2.125v-2q0-1.25 0.875-2.125t2.125-0.875h6q1.25 0 2.125 0.875t0.875 2.125v2q0 1.25-0.875 2.125t-2.125 0.875zM20 23q-0.406 0-0.703 0.297t-0.297 0.703v2q0 0.406 0.297 0.703t0.703 0.297h6q0.406 0 0.703-0.297t0.297-0.703v-2q0-0.406-0.297-0.703t-0.703-0.297h-6zM26 19h-6q-1.25 0-2.125-0.875t-0.875-2.125v-10q0-1.25 0.875-2.125t2.125-0.875h6q1.25 0 2.125 0.875t0.875 2.125v10q0 1.25-0.875 2.125t-2.125 0.875zM20 5q-0.406 0-0.703 0.297t-0.297 0.703v10q0 0.406 0.297 0.703t0.703 0.297h6q0.406 0 0.703-0.297t0.297-0.703v-10q0-0.406-0.297-0.703t-0.703-0.297h-6z"></path>
</svg>
