<!-- Generated by IcoMoon.io -->
<svg version="1.1" xmlns="http://www.w3.org/2000/svg" width="32" height="32" viewBox="0 0 32 32">
<title>check</title>
<path d="M27.75 9.313q-0.313-0.281-0.719-0.266t-0.688 0.328l-13.344 14.188-7.281-7.188q-0.313-0.281-0.719-0.281t-0.703 0.297-0.297 0.719 0.313 0.703l8 7.906h0.031q0.031 0.031 0.219 0.125 0 0.031 0.031 0.047t0.063 0.047q0.188 0.063 0.375 0.063t0.375-0.094q0.031 0 0.063-0.031t0.063-0.031q0.156-0.094 0.219-0.156v0 0l14.031-14.969q0.281-0.281 0.281-0.703t-0.313-0.703z"></path>
</svg>
