<!-- Generated by IcoMoon.io -->
<svg version="1.1" xmlns="http://www.w3.org/2000/svg" width="32" height="32" viewBox="0 0 32 32">
<title>choiceness</title>
<path d="M30 11.281l-3.25-7.688q-0.25-0.594-0.938-0.594h-18.563q-0.594 0-0.875 0.5l-4.156 7.594q-0.344 0.563 0.094 1.094l13.031 16.406q0.313 0.406 0.813 0.406v0q0.469 0 0.781-0.406l12.938-16.281q0.375-0.469 0.125-1.031zM23.188 5l-7.063 5.688-6.5-5.688h13.563zM7.438 5.719l6 5.281h-6.438q-0.406 0-0.703 0.297t-0.297 0.703 0.297 0.703 0.703 0.297h8v11.938l-10.719-13.469zM17 25.281v-12.281h8q0.406 0 0.703-0.297t0.297-0.703-0.297-0.703-0.703-0.297h-6.094l6.563-5.281 2.469 5.813z"></path>
</svg>
