<!-- Generated by IcoMoon.io -->
<svg version="1.1" xmlns="http://www.w3.org/2000/svg" width="32" height="32" viewBox="0 0 32 32">
<title>choicenessfill</title>
<path d="M30 11.281l-3.25-7.688q-0.25-0.594-0.938-0.594h-18.563q-0.594 0-0.875 0.5l-4.156 7.594q-0.344 0.563 0.094 1.094l13.031 16.406q0.313 0.406 0.813 0.406v0q0.469 0 0.781-0.406l12.938-16.281q0.375-0.469 0.125-1.031zM25 13h-8v13q0 0.406-0.297 0.703t-0.703 0.297-0.703-0.297-0.297-0.703v-13h-8q-0.406 0-0.703-0.297t-0.297-0.703 0.297-0.703 0.703-0.297h6.344l-5-4.25q-0.313-0.25-0.344-0.672t0.234-0.734 0.688-0.344 0.734 0.25l6.406 5.438 6.281-5.438q0.313-0.281 0.734-0.25t0.688 0.344 0.234 0.734-0.344 0.672l-4.906 4.25h6.25q0.406 0 0.703 0.297t0.297 0.703-0.297 0.703-0.703 0.297z"></path>
</svg>
