<!-- Generated by IcoMoon.io -->
<svg version="1.1" xmlns="http://www.w3.org/2000/svg" width="32" height="32" viewBox="0 0 32 32">
<title>circle</title>
<path d="M28 18.813v-5.531q2-1.938 2-4.688 0-2.688-1.906-4.594t-4.594-1.906-4.594 1.906h-5.719q-1.938-2-4.688-2-2.688 0-4.594 1.906t-1.906 4.594q0 2.75 2 4.688v5.625q-2 1.938-2 4.688 0 2.688 1.906 4.594t4.594 1.906q2.75 0 4.688-2h5.625q1.938 2 4.688 2 2.688 0 4.594-1.906t1.906-4.594q0-2.75-2-4.688zM23.5 4.094q1.875 0 3.188 1.328t1.313 3.188-1.313 3.172-3.188 1.313-3.188-1.313-1.313-3.172 1.313-3.188 3.188-1.328zM8.516 4q1.859 0 3.172 1.328t1.313 3.188-1.313 3.172-3.172 1.313-3.188-1.313-1.328-3.172 1.328-3.188 3.188-1.328zM8.516 28q-1.859 0-3.188-1.328t-1.328-3.188 1.328-3.172 3.188-1.313 3.172 1.313 1.313 3.172-1.313 3.188-3.172 1.328zM14.5 26q0.5-1.188 0.5-2.5 0-2.688-1.906-4.594t-4.594-1.906q-1.313 0-2.5 0.5v-3q1.188 0.5 2.5 0.5 2.688 0 4.594-1.906t1.906-4.594q0-1.313-0.5-2.5h3.031q-0.531 1.25-0.531 2.594 0 2.688 1.906 4.594t4.594 1.906q1.313 0 2.5-0.5v2.906q-1.188-0.5-2.5-0.5-2.688 0-4.594 1.906t-1.906 4.594q0 1.313 0.5 2.5h-3zM23.5 28q-1.875 0-3.188-1.328t-1.313-3.188 1.313-3.172 3.188-1.313 3.188 1.313 1.313 3.172-1.313 3.188-3.188 1.328z"></path>
</svg>
