<!-- Generated by IcoMoon.io -->
<svg version="1.1" xmlns="http://www.w3.org/2000/svg" width="32" height="32" viewBox="0 0 32 32">
<title>clothes</title>
<path d="M29.281 6.031l-7.094-2q-0.438-0.125-0.813 0.125t-0.438 0.688q-0.313 1.813-1.703 2.984t-3.234 1.172q-1.094 0-2.469-0.844-0.375-0.219-0.766-0.125t-0.609 0.453-0.125 0.75 0.438 0.609q1.875 1.156 3.531 1.156 2.281 0 4.094-1.313t2.531-3.438l5.375 1.5v7.031l-3.813-0.75q-0.469-0.094-0.828 0.203t-0.359 0.766v11q0 0.406-0.297 0.703t-0.703 0.297h-12q-0.406 0-0.703-0.297t-0.297-0.703v-12q0-0.469-0.375-0.766t-0.813-0.203l-3.813 0.75v-6.031l6.281-1.781q0.406-0.125 0.594-0.484t0.078-0.766-0.469-0.594-0.766-0.094l-7 2q-0.313 0.094-0.516 0.359t-0.203 0.609v8q0 0.469 0.359 0.766t0.828 0.203l3.813-0.75v10.781q0 1.25 0.875 2.125t2.125 0.875h12q1.25 0 2.125-0.875t0.875-2.125v-9.781l3.813 0.75q0.469 0.094 0.828-0.203t0.359-0.766v-9q0-0.344-0.203-0.609t-0.516-0.359zM10 24q0 0.406 0.297 0.703t0.703 0.297h10q0.406 0 0.703-0.297t0.297-0.703-0.297-0.703-0.703-0.297h-10q-0.406 0-0.703 0.297t-0.297 0.703z"></path>
</svg>
