<!-- Generated by IcoMoon.io -->
<svg version="1.1" xmlns="http://www.w3.org/2000/svg" width="32" height="32" viewBox="0 0 32 32">
<title>clothesfill</title>
<path d="M29.281 6.031l-7.094-2q-0.438-0.125-0.813 0.125t-0.438 0.688q-0.344 1.906-1.672 3.031t-3.266 1.125q-0.781 0-1.625-0.5t-1.531-1.281-1.172-1.453-0.797-1.234q-0.156-0.313-0.484-0.453t-0.672-0.047l-7 2q-0.313 0.094-0.516 0.359t-0.203 0.609v8q0 0.469 0.359 0.766t0.828 0.203l3.813-0.75v10.781q0 1.25 0.875 2.125t2.125 0.875h12q1.25 0 2.125-0.875t0.875-2.125v-9.781l3.813 0.75q0.469 0.094 0.828-0.203t0.359-0.766v-9q0-0.344-0.203-0.609t-0.516-0.359zM21 25h-10q-0.406 0-0.703-0.297t-0.297-0.703 0.297-0.703 0.703-0.297h10q0.406 0 0.703 0.297t0.297 0.703-0.297 0.703-0.703 0.297z"></path>
</svg>
