<!-- Generated by IcoMoon.io -->
<svg version="1.1" xmlns="http://www.w3.org/2000/svg" width="32" height="32" viewBox="0 0 32 32">
<title>coffee</title>
<path d="M26.531 14q-0.75 0-1.188 0.281v-2.281q0-0.313-0.188-0.484t-0.5-0.172h-20.656q-0.313 0-0.484 0.172t-0.172 0.484v8.594q0 3.594 2.531 6.141t6.125 2.547h4.594q3.594 0.031 6.172-2.516t2.578-6.172v-4.875h0.063q0.406-0.313 1.188-0.313 0.906 0 1.516 0.609t0.609 1.516q0 1.563-1.375 1.875-0.281 0.031-0.438 0.266t-0.094 0.516q0.094 0.531 0.656 0.531h0.125q1.156-0.25 1.813-1.094t0.656-2.094q-0.031-1.5-1.063-2.516t-2.469-1.016zM24 20.594q0 3.063-2.172 5.234t-5.234 2.172h-4.594q-3.063 0-5.203-2.141t-2.141-5.203v-8h19.344v7.938zM8.672 10q-0.297 0-0.484-0.188t-0.188-0.469q0-0.188-0.063-0.359t-0.094-0.266-0.188-0.344-0.188-0.313q-0.031-0.031-0.172-0.25t-0.188-0.313-0.156-0.297-0.156-0.359-0.094-0.359-0.047-0.422q0-0.406 0.125-0.781t0.297-0.641 0.391-0.5 0.391-0.359 0.328-0.219l0.156-0.094q0.25-0.094 0.5-0.016t0.344 0.266q0.125 0.281 0.031 0.531t-0.281 0.344q-0.094 0.063-0.25 0.172t-0.422 0.484-0.266 0.75q0 0.156 0.063 0.344t0.094 0.266 0.188 0.344 0.188 0.328q0.031 0.031 0.172 0.25t0.188 0.297 0.156 0.297 0.156 0.359 0.094 0.359 0.047 0.438q0 0.281-0.188 0.5t-0.484 0.219zM14.656 10q-0.281 0-0.469-0.188t-0.188-0.469q0-0.188-0.063-0.359t-0.094-0.266-0.188-0.344-0.188-0.313q-0.031-0.031-0.172-0.25t-0.188-0.313-0.156-0.297-0.156-0.359-0.094-0.359-0.047-0.422q0-0.406 0.125-0.781t0.297-0.641 0.391-0.5 0.391-0.359 0.328-0.219l0.156-0.094q0.25-0.094 0.5-0.016t0.344 0.266q0.125 0.25 0.063 0.516t-0.313 0.359q-0.094 0.063-0.25 0.172t-0.422 0.484-0.266 0.75q0 0.156 0.063 0.344t0.094 0.266 0.188 0.344 0.188 0.328q0.031 0.031 0.172 0.25t0.188 0.297 0.156 0.297 0.156 0.359 0.094 0.359 0.047 0.438q0 0.281-0.203 0.5t-0.484 0.219zM20.719 10q-0.281 0-0.469-0.188t-0.188-0.469q0-0.188-0.063-0.359t-0.094-0.266-0.188-0.344-0.188-0.313q-0.031-0.031-0.172-0.25t-0.188-0.313-0.156-0.297-0.156-0.359-0.094-0.359-0.047-0.422q0-0.406 0.125-0.781t0.297-0.641 0.391-0.5 0.406-0.359l0.469-0.313q0.25-0.094 0.5-0.016t0.375 0.266q0.094 0.281 0 0.531t-0.281 0.344q-0.094 0.063-0.25 0.172t-0.422 0.484-0.266 0.75q0 0.156 0.063 0.344t0.094 0.266 0.188 0.344 0.188 0.328q0.031 0.031 0.172 0.25t0.188 0.297 0.156 0.297 0.156 0.359 0.094 0.359 0.047 0.438q0 0.281-0.203 0.5t-0.484 0.219z"></path>
</svg>
