<!-- Generated by IcoMoon.io -->
<svg version="1.1" xmlns="http://www.w3.org/2000/svg" width="32" height="32" viewBox="0 0 32 32">
<title>coin</title>
<path d="M16 30q-5.781 0-9.891-4.109t-4.109-9.891 4.109-9.891 9.891-4.109 9.891 4.109 4.109 9.891-4.109 9.891-9.891 4.109zM16 4q-4.969 0-8.484 3.516t-3.516 8.484 3.516 8.484 8.484 3.516 8.484-3.516 3.516-8.484-3.516-8.484-8.484-3.516zM21.438 19.219q-0.125 0.281-0.328 0.422t-0.422 0.203h-0.469q-0.469-0.063-1.094-0.375l-0.094 0.969q0.25 0.156 0.656 0.313 0.313 0.156 0.875 0.313 0.469 0.156 1.125 0.25 0.313 0.063 0.531 0.063 0.344 0 0.625-0.125 0.438-0.156 0.75-0.5 0.281-0.344 0.422-0.828t0.203-1.016q0.063-0.5 0.031-1.031 0-0.25-0.031-0.969-0.063-0.531-0.188-0.938-0.125-0.469-0.594-0.938-0.469-0.5-1.344-0.875-0.875-0.406-2.375-0.531-0.5-0.063-1.281-0.063-0.813 0-1.313 0.063h-0.125v-1.125h0.094q0.375-0.031 0.844-0.063 2-0.156 2.656-0.219 1.625-0.156 3.156-0.406-0.094-0.156-0.125-0.281l-0.031-0.063q-0.094-0.188-0.125-0.313-0.031-0.063-0.063-0.141t-0.047-0.109-0.078-0.188-0.141-0.328-0.172-0.406-0.156-0.422q-1.875 0.563-3.438 0.875-1.625 0.344-3.5 0.594-1.75 0.219-3.594 0.344h-0.5q-0.531 0-1.656-0.063-1.219-0.094-1.594-0.094l0.406 1.594q0.25 0 1-0.031 1.031-0.063 1.469-0.063 1.531 0 3.406-0.094h0.188v1.594h-0.156q-1.219 0.25-2.094 0.531-0.281 0.094-1.125 0.281-0.219 0.063-0.688 0.25l0.063 0.031v-1.313h-3v7h3v-4.375h-0.125q0.406-0.188 1.156-0.375l0.875-0.25q0.375-0.156 1.906-0.594l0.188-0.031v7.594l-0.156 0.031h2.156v-7.938h0.094q0.094-0.031 0.844-0.094 0.094 0 0.234 0.016t0.172 0.016h0.75q0.063 0 0.172-0.031t0.172-0.031q0.875 0 1.25 0.188 0.594 0.313 0.781 0.656 0.125 0.188 0.125 0.406 0.031 0.25 0.031 0.406 0.031 0.063 0.031 0.281 0.063 0.594-0.031 1.656-0.063 0.438-0.188 0.688z"></path>
</svg>
