<!-- Generated by IcoMoon.io -->
<svg version="1.1" xmlns="http://www.w3.org/2000/svg" width="32" height="32" viewBox="0 0 32 32">
<title>comment_fill_light</title>
<path d="M25.406 4.656h-18.688q-1.375 0-2.344 0.969t-0.969 2.375v14.656q0 1.406 0.969 2.375t2.344 0.969h5.813l3.063 3.125q0.219 0.219 0.484 0.219t0.453-0.219l3.125-3.125h5.75q1.344 0 2.328-0.969t0.984-2.375v-14.656q0-1.344-0.984-2.344t-2.328-1zM9.672 16.656q-0.703 0-1.188-0.484t-0.484-1.172 0.484-1.172 1.188-0.484 1.188 0.484 0.484 1.172-0.484 1.172-1.188 0.484zM16.078 16.656q-0.703 0-1.188-0.484t-0.484-1.172 0.484-1.172 1.188-0.484 1.172 0.484 0.469 1.172-0.469 1.172-1.172 0.484zM22.328 16.656q-0.703 0-1.188-0.484t-0.484-1.172 0.484-1.172 1.188-0.484 1.188 0.484 0.484 1.172-0.484 1.172-1.188 0.484z"></path>
</svg>
