<!-- Generated by IcoMoon.io -->
<svg version="1.1" xmlns="http://www.w3.org/2000/svg" width="32" height="32" viewBox="0 0 32 32">
<title>commandfill</title>
<path d="M14.953 14.219q-0.828 0-1.422 0.578t-0.594 1.406 0.594 1.422q0.563 0.563 1.406 0.563t1.406-0.563q0.594-0.594 0.594-1.422t-0.578-1.406-1.406-0.578zM16 2q-3.781 0-7.016 1.609t-5.109 4.375-1.875 6.016q0 2.719 1.406 5.172t3.938 4.172l2.719 2.219q-0.219 1.094-1.031 3.063-0.25 0.625 0.25 1.094 0.281 0.281 0.688 0.281 0.219 0 0.406-0.094 4.5-2 5.844-3.906 3.75-0.063 6.922-1.672t5.016-4.359 1.844-5.969q0-3.25-1.875-6.016t-5.109-4.375-7.016-1.609zM22.719 12.469q0.281 0.281 0.281 0.688t-0.297 0.703-0.703 0.297-0.719-0.281l-1.219-1.25-1.656 1.625q0.531 0.938 0.531 1.969 0 1.656-1.172 2.828t-2.828 1.172-2.828-1.172-1.172-2.828 1.172-2.828 2.828-1.172q1.125 0 2.094 0.594l4.25-4.25q0.313-0.313 0.719-0.313t0.703 0.297 0.297 0.719-0.281 0.703l-1.25 1.25z"></path>
</svg>
