<!-- Generated by IcoMoon.io -->
<svg version="1.1" xmlns="http://www.w3.org/2000/svg" width="32" height="32" viewBox="0 0 32 32">
<title>comment</title>
<path d="M16 29q-0.406 0-0.719-0.281l-3-3q-0.281-0.313-0.281-0.719t0.297-0.703 0.703-0.297 0.719 0.281l2.281 2.313 2.281-2.313q0.313-0.281 0.719-0.281h7q0.406 0 0.703-0.297t0.297-0.703v-16q0-0.406-0.297-0.703t-0.703-0.297h-20q-0.406 0-0.703 0.297t-0.297 0.703v16q0 0.406 0.297 0.703t0.703 0.297h3q0.406 0 0.703 0.297t0.297 0.703-0.297 0.703-0.703 0.297h-3q-1.25 0-2.125-0.875t-0.875-2.125v-16q0-1.25 0.875-2.125t2.125-0.875h20q1.25 0 2.125 0.875t0.875 2.125v16q0 1.25-0.875 2.125t-2.125 0.875h-6.594l-2.688 2.719q-0.313 0.281-0.719 0.281zM10.5 16q-0.625 0-1.063-0.438t-0.438-1.063 0.438-1.063 1.063-0.438 1.063 0.438 0.438 1.063-0.438 1.063-1.063 0.438zM16.5 16q-0.625 0-1.063-0.438t-0.438-1.063 0.438-1.063 1.063-0.438 1.063 0.438 0.438 1.063-0.438 1.063-1.063 0.438zM22.5 16q-0.625 0-1.063-0.438t-0.438-1.063 0.438-1.063 1.063-0.438 1.063 0.438 0.438 1.063-0.438 1.063-1.063 0.438z"></path>
</svg>
