<!-- Generated by IcoMoon.io -->
<svg version="1.1" xmlns="http://www.w3.org/2000/svg" width="32" height="32" viewBox="0 0 32 32">
<title>commentfill</title>
<path d="M26 4h-20q-1.25 0-2.125 0.875t-0.875 2.125v16q0 1.25 0.875 2.125t2.125 0.875h6.594l2.688 2.719q0.313 0.281 0.719 0.281t0.719-0.281l2.688-2.719h6.594q1.25 0 2.125-0.875t0.875-2.125v-16q0-1.25-0.875-2.125t-2.125-0.875zM10.5 16q-0.625 0-1.063-0.438t-0.438-1.063 0.438-1.063 1.063-0.438 1.063 0.438 0.438 1.063-0.438 1.063-1.063 0.438zM16.5 16q-0.625 0-1.063-0.438t-0.438-1.063 0.438-1.063 1.063-0.438 1.063 0.438 0.438 1.063-0.438 1.063-1.063 0.438zM22.5 16q-0.625 0-1.063-0.438t-0.438-1.063 0.438-1.063 1.063-0.438 1.063 0.438 0.438 1.063-0.438 1.063-1.063 0.438z"></path>
</svg>
