<!-- Generated by IcoMoon.io -->
<svg version="1.1" xmlns="http://www.w3.org/2000/svg" width="32" height="32" viewBox="0 0 32 32">
<title>comment_light</title>
<path d="M16.063 29.344q-0.25 0-0.469-0.219l-3.25-3.313q-0.219-0.219-0.219-0.484t0.203-0.469 0.469-0.203 0.484 0.219l2.781 2.844 2.875-2.844q0.188-0.219 0.469-0.219h6q0.813 0 1.406-0.578t0.594-1.422v-14.656q0-0.813-0.578-1.406t-1.422-0.594h-18.688q-0.813 0-1.406 0.578t-0.594 1.422v14.656q0 0.875 0.578 1.438t1.422 0.563h3.406q0.313 0 0.5 0.188t0.188 0.484-0.188 0.484-0.5 0.188h-3.406q-1.375 0-2.344-0.969t-0.969-2.375v-14.656q0-1.406 0.969-2.375t2.344-0.969h18.688q1.344 0 2.328 0.984t0.984 2.359v14.719q0 1.375-0.969 2.359t-2.344 0.984h-5.75l-3.125 3.125q-0.25 0.156-0.469 0.156zM9.672 16.656q-0.703 0-1.188-0.484t-0.484-1.172 0.484-1.172 1.188-0.484 1.188 0.484 0.484 1.172-0.484 1.172-1.188 0.484zM16 16.656q-0.688 0-1.172-0.484t-0.484-1.172 0.484-1.172 1.172-0.484 1.172 0.484 0.484 1.172-0.484 1.172-1.172 0.484zM22.328 16.656q-0.703 0-1.188-0.484t-0.484-1.172 0.484-1.172 1.188-0.484 1.188 0.484 0.484 1.172-0.484 1.172-1.188 0.484z"></path>
</svg>
