<!-- Generated by IcoMoon.io -->
<svg version="1.1" xmlns="http://www.w3.org/2000/svg" width="32" height="32" viewBox="0 0 32 32">
<title>community_fill_light</title>
<path d="M22.656 22q1.125 0 1.906-0.781t0.781-1.875v-12.688q0-1.094-0.781-1.875t-1.906-0.781h-17.313q-1.125 0-1.906 0.781t-0.781 1.875v12.75q0 1.094 0.781 1.875t1.906 0.781h0.719v5.281q0 0.469 0.469 0.594 0.031 0 0.094 0.031t0.094 0.031q0.375 0 0.563-0.281l4.719-5.719h10.656zM27.344 8q-0.313 0-0.5 0.188t-0.188 0.469q0 0.313 0.203 0.5t0.484 0.188q0.531 0 0.922 0.391t0.391 0.922v10.875q0 0.563-0.391 0.844t-0.922 0.281h-1q-0.219 0-0.281 0.063h-0.063q-0.313 0-0.484 0.188t-0.172 0.5v2.406l-2.469-2.281q-0.219-0.188-0.469-0.188h-5.063q-0.313 0-0.5 0.172t-0.188 0.484 0.188 0.484 0.5 0.172h4.844l3.406 3.156q0.219 0.188 0.469 0.188 0.219 0 0.281-0.063 0.375-0.219 0.375-0.594v-3.281h0.688q1.156 0 1.906-0.688t0.75-1.781v-10.938q-0.031-1.094-0.828-1.875t-1.891-0.781z"></path>
</svg>
