<!-- Generated by IcoMoon.io -->
<svg version="1.1" xmlns="http://www.w3.org/2000/svg" width="32" height="32" viewBox="0 0 32 32">
<title>command</title>
<path d="M30 14q0-3.25-1.875-6.016t-5.109-4.375-7.016-1.609-7.016 1.609-5.109 4.375-1.875 6.016q0 2.719 1.406 5.188t4 4.219q0.344 0.219 0.75 0.141t0.641-0.422 0.156-0.75-0.422-0.625q-2.156-1.469-3.344-3.5t-1.188-4.25q0-2.719 1.609-5.016t4.375-3.641 6.016-1.344 6.016 1.344 4.375 3.641 1.609 5.016-1.609 5.016-4.375 3.641-6.016 1.344q-0.031 0-0.094 0.016t-0.094 0.016q-0.344-0.063-0.656 0.109t-0.438 0.516q-0.281 0.813-2.938 2.313 0.531-1.813 0.094-2.469-0.344-0.5-0.938-0.5-0.406 0-0.703 0.297t-0.297 0.703q0 0.281 0.125 0.5-0.156 1.031-1.031 3.125-0.25 0.625 0.25 1.094 0.281 0.281 0.688 0.281 0.219 0 0.406-0.094 4.5-2 5.875-3.906 3.719-0.063 6.891-1.672t5.016-4.359 1.844-5.969zM22.703 8.547q-0.297-0.297-0.703-0.297t-0.719 0.313l-4.25 4.25q-0.969-0.594-2.094-0.594-1.656 0-2.828 1.172t-1.172 2.828 1.172 2.828 2.828 1.172 2.828-1.172 1.172-2.828q0-1.031-0.531-1.969l1.656-1.625 1.219 1.25q0.313 0.281 0.719 0.281t0.703-0.297 0.297-0.703-0.281-0.688l-1.25-1.25 1.25-1.25q0.281-0.281 0.281-0.703t-0.297-0.719zM16.344 17.625q-0.563 0.563-1.406 0.563t-1.406-0.563q-0.594-0.594-0.594-1.422t0.594-1.406 1.422-0.578 1.406 0.578 0.578 1.406-0.594 1.422z"></path>
</svg>
