<!-- Generated by IcoMoon.io -->
<svg version="1.1" xmlns="http://www.w3.org/2000/svg" width="32" height="32" viewBox="0 0 32 32">
<title>community</title>
<path d="M22 22.906q1.219 0 2.109-0.875t0.891-2.125v-12.906q0-1.219-0.875-2.109t-2.125-0.891h-17.094q-1.219 0-2.109 0.875t-0.891 2.125v12.906q0 1.219 0.875 2.109t2.125 0.891h1.094v5q0 0.656 0.688 1h0.313q0.531 0 0.813-0.406l4.094-5.594h10.094zM7.313 21q-0.125-0.094-0.406-0.094h-2q-0.406 0-0.703-0.281t-0.297-0.719v-12.906q0-0.406 0.281-0.703t0.719-0.297h17.094q0.406 0 0.703 0.281t0.297 0.719v12.906q0 0.375-0.281 0.688t-0.719 0.313h-10.906q-0.094 0.094-0.188 0.094-0.063 0-0.109 0.047t-0.109 0.047l-0.094 0.094q-0.094 0-0.094 0.125l-2.5 3.594v-2.906q0-0.656-0.688-1zM27 7.906q-0.438 0-0.719 0.266t-0.281 0.734q0 0.438 0.297 0.719t0.703 0.281 0.703 0.281 0.297 0.719v10.906q0 0.781-1 0.781h-1q-0.438 0-0.719 0.281t-0.281 0.719v0.094q0 0.063-0.047 0.156t-0.047 0.156v1.906l-2.313-1.813q-0.094-0.094-0.5-0.094h-5.094q-0.438 0-0.719 0.281t-0.281 0.719 0.281 0.719 0.719 0.281h4.813l3.594 2.813q0.406 0.188 0.594 0.188 0.313 0 0.406-0.094 0.594-0.406 0.594-0.906v-3.406q1.281 0 2.141-0.797t0.859-1.984v-10.906q0-1.219-0.906-2.109t-2.094-0.891z"></path>
</svg>
