<!-- Generated by IcoMoon.io -->
<svg version="1.1" xmlns="http://www.w3.org/2000/svg" width="32" height="32" viewBox="0 0 32 32">
<title>copy</title>
<path d="M21 26h-14q-1.25 0-2.125-0.875t-0.875-2.125v-18q0-1.25 0.875-2.125t2.125-0.875h14q1.25 0 2.125 0.875t0.875 2.125v18q0 1.25-0.875 2.125t-2.125 0.875zM7 4q-0.406 0-0.703 0.297t-0.297 0.703v18q0 0.406 0.297 0.703t0.703 0.297h14q0.406 0 0.703-0.297t0.297-0.703v-18q0-0.406-0.297-0.703t-0.703-0.297h-14zM25 30h-15q-0.406 0-0.703-0.297t-0.297-0.703 0.297-0.703 0.703-0.297h15q0.406 0 0.703-0.297t0.297-0.703v-19q0-0.406 0.297-0.703t0.703-0.297 0.703 0.297 0.297 0.703v19q0 1.25-0.875 2.125t-2.125 0.875zM17 10h-8q-0.406 0-0.703-0.297t-0.297-0.703 0.297-0.703 0.703-0.297h8q0.406 0 0.703 0.297t0.297 0.703-0.297 0.703-0.703 0.297zM19 15h-10q-0.406 0-0.703-0.297t-0.297-0.703 0.297-0.703 0.703-0.297h10q0.406 0 0.703 0.297t0.297 0.703-0.297 0.703-0.703 0.297zM19 20h-10q-0.406 0-0.703-0.297t-0.297-0.703 0.297-0.703 0.703-0.297h10q0.406 0 0.703 0.297t0.297 0.703-0.297 0.703-0.703 0.297z"></path>
</svg>
