<!-- Generated by IcoMoon.io -->
<svg version="1.1" xmlns="http://www.w3.org/2000/svg" width="32" height="32" viewBox="0 0 32 32">
<title>countdown</title>
<path d="M18 5h-4q-0.406 0-0.703-0.297t-0.297-0.703 0.297-0.703 0.703-0.297h4q0.406 0 0.703 0.297t0.297 0.703-0.297 0.703-0.703 0.297zM25.594 10.813l1.125-1.094q0.281-0.313 0.281-0.719t-0.297-0.703-0.703-0.297-0.719 0.281l-1.031 1.031q-1.625-1.563-3.766-2.438t-4.484-0.875q-4.969 0-8.484 3.516t-3.516 8.484 3.516 8.484 8.484 3.516 8.484-3.516 3.516-8.484q0-3.969-2.406-7.188zM17 27.938v-0.938q0-0.406-0.297-0.703t-0.703-0.297-0.703 0.297-0.297 0.703v0.938q-3.531-0.344-6.063-2.875t-2.875-6.063h0.938q0.406 0 0.703-0.297t0.297-0.703-0.297-0.703-0.703-0.297h-0.938q0.344-3.531 2.875-6.063t6.063-2.875v0.938q0 0.406 0.297 0.703t0.703 0.297 0.703-0.297 0.297-0.703v-0.938q3.531 0.344 6.063 2.875t2.875 6.063h-0.938q-0.406 0-0.703 0.297t-0.297 0.703 0.297 0.703 0.703 0.297h0.938q-0.344 3.531-2.875 6.063t-6.063 2.875zM20.375 13.219l-5 4q-0.313 0.25-0.359 0.672t0.203 0.734q0.313 0.375 0.781 0.375 0.344 0 0.625-0.219l5-4q0.313-0.25 0.359-0.672t-0.203-0.734-0.672-0.359-0.734 0.203z"></path>
</svg>
