<!-- Generated by IcoMoon.io -->
<svg version="1.1" xmlns="http://www.w3.org/2000/svg" width="32" height="32" viewBox="0 0 32 32">
<title>countdownfill</title>
<path d="M18 5h-4q-0.406 0-0.703-0.297t-0.297-0.703 0.297-0.703 0.703-0.297h4q0.406 0 0.703 0.297t0.297 0.703-0.297 0.703-0.703 0.297zM25.594 10.813l1.125-1.094q0.281-0.313 0.281-0.719t-0.297-0.703-0.703-0.297-0.719 0.281l-1.031 1.031q-1.625-1.563-3.766-2.438t-4.484-0.875q-4.969 0-8.484 3.516t-3.516 8.484 3.516 8.484 8.484 3.516 8.484-3.516 3.516-8.484q0-3.969-2.406-7.188zM15 8q0-0.406 0.297-0.703t0.703-0.297 0.703 0.297 0.297 0.703v1q0 0.406-0.297 0.703t-0.703 0.297-0.703-0.297-0.297-0.703v-1zM7 19h-1q-0.406 0-0.703-0.297t-0.297-0.703 0.297-0.703 0.703-0.297h1q0.406 0 0.703 0.297t0.297 0.703-0.297 0.703-0.703 0.297zM17 28q0 0.406-0.297 0.703t-0.703 0.297-0.703-0.297-0.297-0.703v-1q0-0.406 0.297-0.703t0.703-0.297 0.703 0.297 0.297 0.703v1zM21.625 14.781l-5 4q-0.281 0.219-0.625 0.219-0.469 0-0.781-0.375-0.25-0.313-0.203-0.734t0.359-0.672l5-4q0.313-0.25 0.734-0.203t0.672 0.359 0.203 0.734-0.359 0.672zM26 19h-1q-0.406 0-0.703-0.297t-0.297-0.703 0.297-0.703 0.703-0.297h1q0.406 0 0.703 0.297t0.297 0.703-0.297 0.703-0.703 0.297z"></path>
</svg>
