<!-- Generated by IcoMoon.io -->
<svg version="1.1" xmlns="http://www.w3.org/2000/svg" width="32" height="32" viewBox="0 0 32 32">
<title>creativefill</title>
<path d="M27 8q-0.469 0-0.75-0.313t-0.266-0.734 0.328-0.672l1.031-0.938q0.313-0.281 0.719-0.25t0.688 0.328 0.25 0.719-0.313 0.703l-1.031 0.906q-0.281 0.25-0.656 0.25zM5 8q-0.375 0-0.656-0.25l-1.031-0.906q-0.281-0.281-0.313-0.703t0.25-0.719 0.688-0.328 0.719 0.25l1.031 0.938q0.313 0.25 0.328 0.672t-0.266 0.734-0.75 0.313zM16 4q-0.406 0-0.703-0.297t-0.297-0.703v-1q0-0.406 0.297-0.703t0.703-0.297 0.703 0.297 0.297 0.703v1q0 0.406-0.297 0.703t-0.703 0.297zM16 4.688q-2.719 0-5.016 1.328t-3.641 3.641-1.344 5.031q0 0.969 0.234 1.938t0.516 1.609 0.672 1.25 0.547 0.813 0.281 0.328q0.688 0.781 1.219 2.141t0.531 2.391v1.75q0 1.656 1.172 2.828t2.828 1.172h4q1.656 0 2.828-1.172t1.172-2.828v-1.75q0-1.031 0.531-2.391t1.219-2.141q0.125-0.125 0.297-0.328t0.547-0.813 0.656-1.25 0.516-1.609 0.234-1.938q0-2.719-1.344-5.031t-3.641-3.641-5.016-1.328zM18 27h-4q-0.406 0-0.703-0.297t-0.297-0.703 0.297-0.703 0.703-0.297h4q0.406 0 0.703 0.297t0.297 0.703-0.297 0.703-0.703 0.297zM20.313 17.938q-0.156 0.063-0.313 0.063-0.719 0-0.938-0.688l-0.5-1.469-1.844 1.875q-0.313 0.281-0.719 0.281t-0.719-0.281l-1.844-1.875-0.5 1.469q-0.125 0.406-0.5 0.594t-0.766 0.047-0.578-0.516-0.031-0.75l1-3q0.156-0.531 0.703-0.656t0.953 0.25l2.281 2.313 2.281-2.313q0.406-0.375 0.953-0.25t0.703 0.656l1 3q0.156 0.375-0.031 0.75t-0.594 0.5z"></path>
</svg>
