<!-- Generated by IcoMoon.io -->
<svg version="1.1" xmlns="http://www.w3.org/2000/svg" width="32" height="32" viewBox="0 0 32 32">
<title>creative</title>
<path d="M18 30.906h-4q-1.656 0-2.828-1.172t-1.172-2.828v-1.75q0-1.031-0.531-2.391t-1.219-2.141q-0.125-0.125-0.281-0.328t-0.547-0.813-0.672-1.25-0.516-1.609-0.234-1.938q0-2.719 1.344-5.031t3.641-3.641 5.016-1.328 5.016 1.328 3.641 3.641 1.344 5.031q0 0.969-0.234 1.938t-0.516 1.609-0.672 1.25-0.547 0.813-0.281 0.328q-0.688 0.781-1.219 2.141t-0.531 2.391v1.75q0 1.656-1.172 2.828t-2.828 1.172zM16 6.688q-3.313 0-5.656 2.344t-2.344 5.656q0 1.188 0.469 2.375t0.766 1.609 0.484 0.609q0.969 1.031 1.625 2.75t0.656 3.125v1.75q0 0.813 0.594 1.406t1.406 0.594h4q0.813 0 1.406-0.594t0.594-1.406v-1.75q0-1.406 0.656-3.125t1.625-2.75q0.219-0.25 0.5-0.641t0.75-1.578 0.469-2.375q0-3.313-2.344-5.656t-5.656-2.344zM20 18q-0.719 0-0.938-0.688l-0.5-1.469-1.844 1.875q-0.313 0.281-0.719 0.281t-0.719-0.281l-1.844-1.875-0.5 1.469q-0.125 0.406-0.5 0.594t-0.766 0.047-0.578-0.516-0.031-0.75l1-3q0.156-0.531 0.703-0.656t0.953 0.25l2.281 2.313 2.281-2.313q0.406-0.375 0.953-0.25t0.703 0.656l1 3q0.156 0.375-0.031 0.75t-0.594 0.5q-0.156 0.063-0.313 0.063zM27 8q-0.469 0-0.75-0.313t-0.266-0.734 0.328-0.672l1.031-0.938q0.313-0.281 0.719-0.25t0.688 0.328 0.25 0.719-0.313 0.703l-1.031 0.906q-0.281 0.25-0.656 0.25zM5 8q-0.375 0-0.656-0.25l-1.031-0.906q-0.281-0.281-0.313-0.703t0.25-0.719 0.688-0.328 0.719 0.25l1.031 0.938q0.313 0.25 0.328 0.672t-0.266 0.734-0.75 0.313zM16 4q-0.406 0-0.703-0.297t-0.297-0.703v-1q0-0.406 0.297-0.703t0.703-0.297 0.703 0.297 0.297 0.703v1q0 0.406-0.297 0.703t-0.703 0.297zM18 27h-4q-0.406 0-0.703-0.297t-0.297-0.703 0.297-0.703 0.703-0.297h4q0.406 0 0.703 0.297t0.297 0.703-0.297 0.703-0.703 0.297z"></path>
</svg>
