<!-- Generated by IcoMoon.io -->
<svg version="1.1" xmlns="http://www.w3.org/2000/svg" width="32" height="32" viewBox="0 0 32 32">
<title>crown</title>
<path d="M30.969 10q0-1.438-1.016-2.453t-2.469-1.016-2.469 1.016-1.016 2.453q0 1.219 0.766 2.172t1.922 1.234q-1.094 2.188-2.281 3.75t-1.906 1.563q-0.75 0-2.094-2.156t-2.719-5.938q1.063-0.469 1.703-1.453t0.641-2.172q0-1.625-1.156-2.781t-2.781-1.156-2.781 1.156-1.156 2.781q0 1.219 0.641 2.188t1.703 1.438q-0.969 2.656-1.938 4.516t-1.609 2.578-1.047 0.719q-0.969 0-2.219-1.5t-2.313-3.531q1.188-0.281 1.938-1.234t0.75-2.172q0-1.438-1.016-2.453t-2.453-1.016-2.469 1.016-1.031 2.453q0 0.969 0.5 1.781t1.344 1.281l0.688 13.906q0 0.531 0.438 0.813 0.188 0.094 0.516 0.266t1.391 0.547 2.313 0.672 3.359 0.531 4.453 0.234 4.438-0.234 3.359-0.531 2.328-0.672 1.391-0.547 0.484-0.297q0.438-0.281 0.469-0.781l0.625-13.938q0.813-0.438 1.297-1.25t0.484-1.781zM26 10.016q0-0.609 0.438-1.047t1.047-0.438 1.047 0.438 0.438 1.047-0.438 1.047-1.047 0.438-1.047-0.438-0.438-1.047zM14.156 7.031q0-0.813 0.563-1.391t1.375-0.578 1.375 0.578 0.563 1.391q0 0.719-0.5 1.281t-1.25 0.625q-0.094 0-0.188 0.031-0.094-0.031-0.188-0.031-0.75-0.063-1.25-0.625t-0.5-1.281zM4.578 8.531q0.609 0 1.047 0.438t0.438 1.047-0.438 1.047-1.047 0.438-1.047-0.438-0.438-1.047 0.438-1.047 1.047-0.438zM26.594 26.313q-3.75 1.719-10.5 1.719t-10.5-1.719l-0.469-9.438q2.438 3.563 4.781 3.563 3.031 0 6.188-8.375 3.281 8.656 6.406 8.656 2.094 0 4.5-3.813z"></path>
</svg>
