<!-- Generated by IcoMoon.io -->
<svg version="1.1" xmlns="http://www.w3.org/2000/svg" width="32" height="32" viewBox="0 0 32 32">
<title>crownfill</title>
<path d="M30.938 9.969q0-1.438-1.016-2.469t-2.469-1.031-2.469 1.031-1.016 2.469q0 1.219 0.75 2.156t1.938 1.219q-1.094 2.188-2.297 3.75t-1.891 1.563q-0.781 0-2.109-2.156t-2.703-5.938q1.063-0.469 1.703-1.438t0.641-2.156q0-1.625-1.156-2.781t-2.797-1.156-2.797 1.156-1.156 2.781q0 1.188 0.656 2.156t1.719 1.438q-0.969 2.688-1.938 4.547t-1.625 2.578-1.063 0.719q-0.938 0-2.188-1.516t-2.313-3.547q1.156-0.281 1.922-1.219t0.766-2.156q0-1.469-1.016-2.484t-2.469-1.016-2.469 1.031-1.016 2.469q0 0.969 0.5 1.781t1.313 1.25l0.688 13.938q0.031 0.5 0.469 0.781 0.188 0.125 0.516 0.281t1.375 0.547 2.313 0.672 3.375 0.516 4.453 0.234 4.438-0.234 3.359-0.516 2.328-0.672 1.375-0.563 0.5-0.266q0.438-0.281 0.469-0.813l0.625-13.906q0.813-0.469 1.297-1.281t0.484-1.75z"></path>
</svg>
