<!-- Generated by IcoMoon.io -->
<svg version="1.1" xmlns="http://www.w3.org/2000/svg" width="32" height="32" viewBox="0 0 32 32">
<title>cut</title>
<path d="M24.563 19q-1.625 0-2.969 0.891t-2 2.297l-2.25-4.5 7.531-14.219q0.188-0.375 0.078-0.766t-0.484-0.578-0.766-0.078-0.578 0.484l-6.875 12.938-6.344-12.906q-0.188-0.375-0.578-0.516t-0.766 0.047-0.516 0.578 0.047 0.766l7.031 14.219-2.531 4.719q-0.625-1.5-2-2.438t-3.063-0.938q-2.281 0-3.891 1.625t-1.609 3.891 1.609 3.875 3.891 1.609q1.656 0 3.016-0.891t2.016-2.359v0l3.625-6.906 3.156 6.406q0.563 1.656 2 2.703t3.219 1.047q2.281 0 3.891-1.609t1.609-3.875-1.609-3.891-3.891-1.625zM7.531 28q-1.438 0-2.469-1.016t-1.031-2.469 1.031-2.484 2.469-1.031 2.469 1.031 1.031 2.484-1.031 2.469-2.469 1.016zM24.563 28q-1.781 0-2.844-1.469l-0.469-0.969q-0.188-0.563-0.188-1.063 0-1.438 1.031-2.469t2.469-1.031 2.469 1.031 1.031 2.484-1.031 2.469-2.469 1.016z"></path>
</svg>
