<!-- Generated by IcoMoon.io -->
<svg version="1.1" xmlns="http://www.w3.org/2000/svg" width="32" height="32" viewBox="0 0 32 32">
<title>delete_light</title>
<path d="M24.656 10.719q-0.281 0-0.469 0.188t-0.188 0.5v15.313q0 0.563-0.391 0.953t-0.953 0.391h-13.313q-0.563 0-0.953-0.391t-0.391-0.953v-15.375q0-0.313-0.188-0.5t-0.484-0.188-0.484 0.188-0.188 0.5v15.313q0 1.125 0.781 1.906t1.906 0.781h13.313q1.125 0 1.906-0.781t0.781-1.906v-15.313q0-0.25-0.203-0.438t-0.484-0.188zM28.594 7.344h-5.25v-2q0-1.125-0.781-1.906t-1.906-0.781h-9.313q-1.125 0-1.906 0.781t-0.781 1.906v2h-5.313q-0.313 0-0.5 0.172t-0.188 0.484 0.188 0.484 0.5 0.172h25.25q0.313 0 0.5-0.172t0.188-0.484-0.188-0.484-0.5-0.172zM10 5.344q0-0.563 0.391-0.953t0.953-0.391h9.313q0.563 0 0.953 0.391t0.391 0.953v2h-12v-2zM20 22v-10.594q0-0.313-0.188-0.5t-0.484-0.188-0.484 0.188-0.188 0.5v10.594q0 0.313 0.188 0.484t0.5 0.172q0.281 0 0.469-0.203t0.188-0.453zM13.344 22v-10.656q0-0.313-0.188-0.5t-0.484-0.188-0.484 0.188-0.188 0.5v10.656q0 0.313 0.188 0.484t0.469 0.172q0.313 0 0.5-0.203t0.188-0.453z"></path>
</svg>
