<!-- Generated by IcoMoon.io -->
<svg version="1.1" xmlns="http://www.w3.org/2000/svg" width="32" height="32" viewBox="0 0 32 32">
<title>delete</title>
<path d="M19 24q-0.406 0-0.703-0.297t-0.297-0.703v-11q0-0.406 0.297-0.703t0.703-0.297 0.703 0.297 0.297 0.703v11q0 0.406-0.297 0.703t-0.703 0.297zM13 24q-0.406 0-0.703-0.297t-0.297-0.703v-11q0-0.406 0.297-0.703t0.703-0.297 0.703 0.297 0.297 0.703v11q0 0.406-0.297 0.703t-0.703 0.297zM29 7h-5v-2q0-1.25-0.875-2.125t-2.094-0.875h-10.031q-1.25 0-2.125 0.875t-0.875 2.125v2h-5q-0.406 0-0.703 0.297t-0.297 0.703 0.297 0.703 0.703 0.297h26q0.406 0 0.703-0.297t0.297-0.703-0.297-0.703-0.703-0.297zM10 5q0-0.406 0.297-0.703t0.703-0.297h10.031q0.406 0 0.688 0.297t0.281 0.703v2h-12v-2zM23 30h-14q-1.25 0-2.125-0.875t-0.875-2.125v-15q0-0.438 0.297-0.719t0.703-0.281 0.703 0.281 0.297 0.719v15q0 0.406 0.297 0.703t0.703 0.297h14q0.406 0 0.703-0.297t0.297-0.703v-14.969q0-0.406 0.297-0.703t0.703-0.297 0.703 0.297 0.297 0.703v14.969q0 1.25-0.875 2.125t-2.125 0.875z"></path>
</svg>
