<!-- Generated by IcoMoon.io -->
<svg version="1.1" xmlns="http://www.w3.org/2000/svg" width="32" height="32" viewBox="0 0 32 32">
<title>deliver_fill</title>
<path d="M27 3h-14.5q-1 0-1.75 0.734t-0.75 1.766v2.813l-6.188 3.094q-0.125 0-0.125 0.094-1.688 1.25-1.688 3.5v10.094q0 0.406 0.297 0.703t0.703 0.297h3.094q0-0.094-0.047-0.25t-0.047-0.25q0-1.875 1.313-3.188t3.188-1.313 3.188 1.313 1.313 3.188q0 0.313-0.094 0.5h3.094v-0.5q0-1.875 1.313-3.188t3.188-1.313 3.188 1.313 1.313 3.188v0.5h2.094q0.469 0 0.734-0.266t0.266-0.734v-19.094q-0.063-1.219-0.953-2.109t-2.141-0.891zM10 15q0 0.438-0.281 0.719t-0.719 0.281h-4q-0.438 0-0.719-0.281t-0.281-0.719q0-2.125 4.594-3.906 0.5-0.25 1 0.094 0.406 0.281 0.406 0.813v3zM7.094 25.5q0 1.438 1.031 2.469t2.484 1.031 2.469-1.031 1.016-2.469-1.016-2.469-2.469-1.031-2.484 1.031-1.031 2.469zM19 25.5q0 1.438 1.031 2.469t2.469 1.031 2.469-1.031 1.031-2.469-1.031-2.469-2.469-1.031-2.469 1.031-1.031 2.469z"></path>
</svg>
