<!-- Generated by IcoMoon.io -->
<svg version="1.1" xmlns="http://www.w3.org/2000/svg" width="32" height="32" viewBox="0 0 32 32">
<title>deliver</title>
<path d="M11 18h-4q-0.406 0-0.703-0.297t-0.297-0.703 0.297-0.703 0.703-0.297h3v-3q0-0.406 0.297-0.703t0.703-0.297 0.703 0.297 0.297 0.703v4q0 0.406-0.297 0.703t-0.703 0.297zM21.938 20.844q-1.438 0-2.547 0.891t-1.422 2.266h-3.875q-0.313-1.375-1.422-2.266t-2.547-0.891q-1.719 0-2.906 1.203t-1.188 2.891 1.188 2.891 2.906 1.203q1.375 0 2.469-0.859t1.469-2.172h3.938q0.375 1.313 1.453 2.172t2.484 0.859q1.688 0 2.891-1.203t1.203-2.891-1.203-2.891-2.891-1.203zM10.109 27.031q-0.859 0-1.469-0.609t-0.609-1.484 0.609-1.484 1.469-0.609 1.484 0.609 0.625 1.484-0.625 1.484-1.484 0.609zM21.938 27.031q-0.875 0-1.484-0.609t-0.609-1.484 0.609-1.484 1.484-0.609 1.484 0.609 0.609 1.484-0.609 1.484-1.484 0.609zM27 3h-14.5q-1.031 0-1.766 0.734t-0.734 1.766v2.875l-6.219 3.125q-1.75 1.25-1.75 3.5v10.063q0 0.406 0.297 0.703t0.719 0.297 0.703-0.297 0.281-0.703v-10.063q0-1.188 0.844-1.813l6.563-3.281q0.031-0.031 0.078-0.063l0.047-0.031q0.125-0.094 0.156-0.125t0.125-0.156l0.094-0.188q0-0.063 0.031-0.188 0-0.031 0.016-0.078t0.016-0.078v-3.5q0-0.219 0.141-0.359t0.359-0.141h14.5q0.406 0 0.703 0.297t0.297 0.734v18.969q0 0.406 0.297 0.703t0.703 0.297 0.703-0.297 0.297-0.703v-18.969q0-1.25-0.875-2.141t-2.125-0.891z"></path>
</svg>
