<!-- Generated by IcoMoon.io -->
<svg version="1.1" xmlns="http://www.w3.org/2000/svg" width="32" height="32" viewBox="0 0 32 32">
<title>discoverfill</title>
<path d="M29.031 2.719q0-0.281-0.094-0.594-1.406-0.375-3.344 0.563-0.219 0.094-1.5 0.906-0.594 0.344-0.75 0.438v0l-0.031 0.031q-3.344-2.063-7.25-2.063-2.844 0-5.438 1.109t-4.469 2.984-2.984 4.469-1.109 5.438q0 3.781 1.969 7.094-2.25 3.438-2 4.938 0.063 0.25 0.625 0.25 1.219 0 3.172-1.016t3.766-2.359 3.828-3.063 3.016-2.656 1.688-1.594q4.563-4.469 7.734-8.625t3.172-6.25zM9.563 19.094q-1.031 0-1.766-0.734t-0.734-1.766 0.734-1.766 1.766-0.734 1.766 0.734 0.734 1.766-0.734 1.766-1.766 0.734zM13.969 12.094q-1.25 0-2.125-0.891t-0.875-2.125 0.875-2.109 2.125-0.875 2.125 0.875 0.875 2.109-0.875 2.125-2.125 0.891zM28 8.719q-3.094 4.563-8.688 10.063-0.969 0.969-2.25 2.156t-3.938 3.359-4.688 3.422v0q3.5 2.281 7.625 2.281 2.844 0 5.438-1.109t4.469-2.984 2.984-4.469 1.109-5.438q0-3.906-2.063-7.281zM20.016 25q-0.828 0-1.422-0.594t-0.594-1.406 0.594-1.406 1.422-0.594 1.406 0.594 0.578 1.406-0.578 1.406-1.406 0.594z"></path>
</svg>
