<!-- Generated by IcoMoon.io -->
<svg version="1.1" xmlns="http://www.w3.org/2000/svg" width="32" height="32" viewBox="0 0 32 32">
<title>down_light</title>
<path d="M15.469 24.469q0.125 0.125 0.25 0.188h0.281q0.281 0 0.469-0.188l8.656-8.656q0.219-0.219 0.219-0.484t-0.203-0.469-0.469-0.203-0.484 0.219l-7.531 7.531v-18.406q0-0.313-0.172-0.484t-0.484-0.172-0.484 0.172-0.172 0.484v18.406l-7.531-7.531q-0.219-0.219-0.484-0.219t-0.469 0.203-0.203 0.469 0.219 0.484zM26.656 27.344h-21.25q-0.313 0-0.5 0.172t-0.188 0.484 0.188 0.484 0.5 0.172h21.25q0.313 0 0.5-0.172t0.188-0.484q0-0.281-0.203-0.469t-0.484-0.188z"></path>
</svg>
