<!-- Generated by IcoMoon.io -->
<svg version="1.1" xmlns="http://www.w3.org/2000/svg" width="32" height="32" viewBox="0 0 32 32">
<title>down</title>
<path d="M24.766 15.172q-0.297-0.297-0.703-0.297t-0.688 0.313l-6.375 6.344v-17.531q0-0.406-0.297-0.703t-0.703-0.297-0.703 0.297-0.297 0.703v17.594l-7.313-7.344q-0.281-0.313-0.703-0.313t-0.719 0.297-0.297 0.703 0.313 0.719l8.969 9.031q0.156 0.156 0.344 0.219 0.188 0.094 0.406 0.094 0.531 0 0.813-0.469l7.969-7.938q0.281-0.281 0.281-0.703t-0.297-0.719zM27 29h-22q-0.406 0-0.703-0.297t-0.297-0.703 0.297-0.703 0.703-0.297h22q0.406 0 0.703 0.297t0.297 0.703-0.297 0.703-0.703 0.297z"></path>
</svg>
