<!-- Generated by IcoMoon.io -->
<svg version="1.1" xmlns="http://www.w3.org/2000/svg" width="32" height="32" viewBox="0 0 32 32">
<title>dress</title>
<path d="M25.344 19.531q-1.125-1.531-5.219-8.125l-0.063-0.063 1.875-4.219q0-0.063 0.063-0.125 0.25-0.938-0.406-1.469-0.531-0.438-1.125-0.125-0.188 0.094-0.938-0.219h-0.063v-1.781q0-0.313-0.188-0.5t-0.484-0.188-0.484 0.188-0.188 0.5v1.594q-1.125-0.125-2.125 0.813-1-0.813-1.875-0.813v-1.656q0-0.313-0.172-0.5t-0.484-0.188-0.484 0.188-0.172 0.5v1.656q-0.438 0.094-0.688 0.281-0.563 0.281-0.719 0.188-0.375-0.25-0.938-0.047t-0.938 0.922q-0.125 0.375 0 0.594l1.938 4.531q-0.031 0.063-0.063 0.156l-0.063 0.188q-0.031 0.031-0.109 0.297t-0.125 0.375-0.156 0.406-0.188 0.469-0.234 0.484-0.313 0.563-0.359 0.563-0.453 0.625q-0.125 0.125-0.578 0.703t-1.25 1.875-1.453 2.75-1.063 3.406-0.188 3.734q0 0.219 0.25 0.469 0.938 0.75 2.156 0.75 0.781 0 1.594-0.406 0.094-0.094 0.188 0 0.594 0.406 1.656 0.406 0.906 0 1.563-0.469 0.031-0.063 0.109-0.063t0.141 0.063q1.063 0.531 2.063 0.531 0.75 0 1.406-0.344l0.125-0.063q0.031 0.031 0.281 0.094t0.656 0.109 0.813 0.047q1 0 1.594-0.375 0.094-0.094 0.25 0 0.063 0 0.313 0.078t0.484 0.141 0.578 0.109 0.625 0.047q0.781 0 1.344-0.313 0.063-0.063 0.219-0.063 0.781 0.188 1.719 0.188 1.25 0 2-0.469 0.344-0.219 0.344-0.594 0-1-0.109-2.219t-0.594-3.125-1.297-3.063zM10.813 6.656q0.188 0.094 0.406 0.125t0.516-0.047 0.359-0.109 0.438-0.156q0.594-0.219 0.906-0.281t0.891 0.125 1.203 0.813q0.188 0.219 0.531 0.219t0.469-0.281q0.469-0.688 1.063-0.766t1.406 0.234q0.969 0.375 1.594 0.188l-1.719 3.938h-6.469l-1.594-4zM25 27.719q-0.313 0-0.672-0.047t-0.547-0.078l-0.188-0.063q-0.719-0.219-1.313 0.188-0.031 0.031-0.063 0.047t-0.188 0.063-0.375 0.047q-0.844 0-1.531-0.281-0.719-0.313-1.406 0.125-0.281 0.219-0.844 0.219-0.313 0-0.625-0.047t-0.469-0.109l-0.188-0.063q-0.719-0.219-1.25 0.156-0.313 0.188-0.813 0.188-0.313 0-0.641-0.094t-0.516-0.172-0.25-0.141q-0.844-0.5-1.656 0.063-0.313 0.219-0.813 0.219-0.25 0-0.5-0.063t-0.406-0.125-0.156-0.094q-0.75-0.313-1.406 0-0.438 0.281-1 0.281-0.625 0-1.063-0.344-0.094-1.125 0.094-2.344t0.547-2.266 0.828-2.063 0.953-1.797 0.875-1.375 0.656-0.938l0.266-0.344q0.063-0.063 0.063-0.125 1.406-1.875 2.125-4.219 0-0.063 0.063-0.125h6.406l0.063 0.063q4.094 6.594 5.281 8.219 0.781 1.094 1.219 3.156t0.5 4.094q-0.5 0.188-1.063 0.188z"></path>
</svg>
