<!-- Generated by IcoMoon.io -->
<svg version="1.1" xmlns="http://www.w3.org/2000/svg" width="32" height="32" viewBox="0 0 32 32">
<title>edit</title>
<path d="M25 30h-18q-1.25 0-2.125-0.875t-0.875-2.125v-20q0-1.25 0.875-2.125t2.125-0.875h14q0.406 0 0.703 0.297t0.297 0.703-0.297 0.703-0.703 0.297h-14q-0.406 0-0.703 0.297t-0.297 0.703v20q0 0.406 0.297 0.703t0.703 0.297h18q0.406 0 0.703-0.297t0.297-0.703v-16q0-0.406 0.297-0.703t0.703-0.297 0.703 0.297 0.297 0.703v16q0 1.25-0.875 2.125t-2.125 0.875zM19.125 14q-0.406 0-0.703-0.297t-0.297-0.703 0.281-0.719l9.938-9.938q0.313-0.281 0.719-0.281t0.703 0.297 0.297 0.703-0.281 0.719l-9.938 9.938q-0.313 0.281-0.719 0.281zM15 14h-6q-0.406 0-0.703-0.297t-0.297-0.703 0.297-0.703 0.703-0.297h6q0.406 0 0.703 0.297t0.297 0.703-0.297 0.703-0.703 0.297zM21 20h-12q-0.406 0-0.703-0.297t-0.297-0.703 0.297-0.703 0.703-0.297h12q0.406 0 0.703 0.297t0.297 0.703-0.297 0.703-0.703 0.297z"></path>
</svg>
