<!-- Generated by IcoMoon.io -->
<svg version="1.1" xmlns="http://www.w3.org/2000/svg" width="32" height="32" viewBox="0 0 32 32">
<title>edit_light</title>
<path d="M26 8.656q-0.313 0-0.484 0.188t-0.172 0.5v17.313q0 0.563-0.391 0.953t-0.953 0.391h-18q-0.563 0-0.953-0.391t-0.391-0.953v-20q0-0.531 0.391-0.922t0.953-0.391h15.344q0.281 0 0.469-0.188t0.188-0.484-0.188-0.484-0.469-0.188h-15.344q-1.094 0-1.875 0.781t-0.781 1.875v20q0 1.125 0.781 1.906t1.875 0.781h18q1.094 0 1.875-0.781t0.781-1.906v-17.313q0-0.313-0.172-0.5t-0.484-0.188zM28.469 2.203q-0.188-0.203-0.469-0.203t-0.469 0.188l-9.938 9.938q-0.188 0.219-0.188 0.484t0.203 0.469 0.469 0.203 0.453-0.219l9.938-9.875q0.188-0.188 0.188-0.484t-0.188-0.5zM14 12h-6q-0.313 0-0.484 0.188t-0.172 0.484 0.172 0.484 0.484 0.188h6q0.313 0 0.484-0.188t0.172-0.484-0.172-0.484-0.484-0.188zM22 17.344h-14q-0.313 0-0.484 0.172t-0.172 0.484 0.172 0.484 0.484 0.172h14q0.313 0 0.484-0.172t0.172-0.484-0.172-0.484-0.484-0.172zM22 22.594h-14q-0.313 0-0.484 0.188t-0.172 0.484 0.172 0.484 0.484 0.188h14q0.313 0 0.484-0.188t0.172-0.484-0.172-0.484-0.484-0.188z"></path>
</svg>
