<!-- Generated by IcoMoon.io -->
<svg version="1.1" xmlns="http://www.w3.org/2000/svg" width="32" height="32" viewBox="0 0 32 32">
<title>emojiflashfill</title>
<path d="M15.969 2q-2.844 0-5.438 1.109t-4.469 2.984-2.984 4.469-1.109 5.438 1.109 5.438 2.984 4.469 4.469 2.984 5.438 1.109 5.438-1.109 4.469-2.984 2.984-4.469 1.109-5.438-1.109-5.438-2.984-4.469-4.469-2.984-5.438-1.109zM8 13.109q0-0.203 0.141-0.359t0.359-0.156q0.844 0 1.406-0.563t0.563-1.438q0-0.188 0.141-0.344t0.344-0.156 0.359 0.156 0.156 0.344q0 0.813 0.625 1.359t1.438 0.609q0.188 0 0.328 0.141t0.141 0.344-0.141 0.359-0.328 0.156q-0.719 0.063-1.328 0.609t-0.734 1.266q0.031 0.094 0.031 0.125 0 0.219-0.141 0.375t-0.328 0.156h-0.094q-0.219 0-0.359-0.156t-0.109-0.375v-0.125q-0.125-0.781-0.688-1.313t-1.281-0.531q-0.219 0-0.359-0.141t-0.141-0.344zM23.125 20.656q-1.281 1.656-3.141 2.578t-3.984 0.922q-2.094 0-3.953-0.906t-3.141-2.531q-0.25-0.344-0.203-0.75t0.375-0.656 0.734-0.203 0.688 0.359q1 1.281 2.438 1.984t3.063 0.703q1.656 0 3.109-0.703t2.453-2.016q0.25-0.344 0.656-0.391t0.734 0.203 0.391 0.656-0.219 0.75zM23.563 13.563q-0.719 0.063-1.328 0.609t-0.734 1.266q0.031 0.094 0.031 0.125 0 0.219-0.141 0.375t-0.328 0.156h-0.094q-0.219 0-0.359-0.156t-0.109-0.375v-0.125q-0.125-0.781-0.688-1.313t-1.281-0.531q-0.219 0-0.359-0.141t-0.141-0.344 0.141-0.359 0.359-0.156q0.844 0 1.406-0.563t0.563-1.438q0-0.188 0.141-0.344t0.344-0.156 0.359 0.156 0.156 0.344q0 0.813 0.625 1.359t1.438 0.609q0.188 0 0.328 0.141t0.141 0.344-0.141 0.359-0.328 0.156z"></path>
</svg>
