<!-- Generated by IcoMoon.io -->
<svg version="1.1" xmlns="http://www.w3.org/2000/svg" width="32" height="32" viewBox="0 0 32 32">
<title>emojilight</title>
<path d="M15.969 30q-2.844 0-5.438-1.109t-4.469-2.984-2.984-4.469-1.109-5.438 1.109-5.438 2.984-4.469 4.469-2.984 5.438-1.109 5.438 1.109 4.469 2.984 2.984 4.469 1.109 5.438-1.109 5.438-2.984 4.469-4.469 2.984-5.438 1.109zM15.969 3.344q-3.438 0-6.359 1.688t-4.609 4.609-1.688 6.359 1.688 6.359 4.609 4.609 6.359 1.688 6.359-1.688 4.609-4.609 1.688-6.359-1.688-6.359-4.609-4.609-6.359-1.688zM16 23.906q-2.125 0-4-0.906t-3.156-2.563q-0.188-0.219-0.156-0.5t0.25-0.453 0.5-0.141 0.438 0.25q1.125 1.438 2.719 2.219t3.406 0.781 3.438-0.797 2.719-2.234q0.156-0.219 0.438-0.266t0.5 0.125 0.25 0.453-0.125 0.5q-1.313 1.688-3.203 2.609t-4.016 0.922zM11.703 15.594q-0.422 0-0.719-0.297t-0.297-0.703v-2q0-0.406 0.297-0.703t0.719-0.297 0.703 0.297 0.281 0.703v2q0 0.406-0.281 0.703t-0.703 0.297zM20.359 15.594q-0.422 0-0.703-0.297t-0.281-0.703v-2q0-0.406 0.281-0.703t0.703-0.297 0.719 0.297 0.297 0.703v2q0 0.406-0.297 0.703t-0.719 0.297z"></path>
</svg>
