<!-- Generated by IcoMoon.io -->
<svg version="1.1" xmlns="http://www.w3.org/2000/svg" width="32" height="32" viewBox="0 0 32 32">
<title>emojifill</title>
<path d="M15.969 2q-2.844 0-5.438 1.109t-4.469 2.984-2.984 4.469-1.109 5.438 1.109 5.438 2.984 4.469 4.469 2.984 5.438 1.109 5.438-1.109 4.469-2.984 2.984-4.469 1.109-5.438-1.109-5.438-2.984-4.469-4.469-2.984-5.438-1.109zM19 12.594q0-0.625 0.438-1.063t1.063-0.438 1.063 0.438 0.438 1.063v2q0 0.625-0.438 1.063t-1.063 0.438-1.063-0.438-0.438-1.063v-2zM10 12.594q0-0.625 0.438-1.063t1.063-0.438 1.063 0.438 0.438 1.063v2q0 0.625-0.438 1.063t-1.063 0.438-1.063-0.438-0.438-1.063v-2zM23.125 20.656q-1.281 1.656-3.141 2.578t-3.984 0.922q-2.094 0-3.953-0.906t-3.141-2.531q-0.25-0.344-0.203-0.75t0.375-0.656 0.734-0.203 0.688 0.359q1 1.281 2.438 1.984t3.063 0.703q1.656 0 3.109-0.703t2.453-2.016q0.25-0.344 0.656-0.391t0.734 0.203 0.391 0.656-0.219 0.75z"></path>
</svg>
