<!-- Generated by IcoMoon.io -->
<svg version="1.1" xmlns="http://www.w3.org/2000/svg" width="32" height="32" viewBox="0 0 32 32">
<title>evaluate</title>
<path d="M12.688 29.125q-0.469 0-0.75-0.344-0.75-0.813-1.734-1.406t-1.797-0.875-1.672-0.438-1.188-0.188-0.516-0.031v0q-0.406 0-0.703-0.281t-0.297-0.703 0.281-0.719 0.688-0.297q0.188 0 0.656 0.031t1.469 0.219 2 0.531 2.188 1.078 2.094 1.766q0.281 0.313 0.266 0.719t-0.328 0.688q-0.281 0.25-0.656 0.25zM19.375 29.125q-0.375 0-0.688-0.25-0.281-0.281-0.297-0.703t0.266-0.734q0.938-1 2.141-1.75t2.188-1.078 1.984-0.516 1.438-0.219 0.656-0.031q0.406 0 0.688 0.297t0.281 0.719-0.297 0.703-0.703 0.281v0 0q-0.188 0-0.5 0.016t-1.172 0.188-1.672 0.453-1.813 0.891-1.75 1.422q-0.313 0.313-0.75 0.313zM17.625 24.031h-3.188q-0.156 0-0.281-0.031-2.531-0.344-4.625-1.766t-3.5-3.797q-1.594-2.719-1.938-5.969t0.719-5.813q0.25-0.594 0.906-0.594h0.313q2.844 0 5.281 1.063 1.781-3.219 4-4.844 0.125-0.094 0.25-0.156v0q0.5-0.219 0.969 0.063l0.125 0.125q2.219 1.594 3.969 4.875 2.469-1.125 5.406-1.125h0.313q0.656 0 0.906 0.594 1.063 2.563 0.719 5.813t-1.938 6q-1.406 2.344-3.5 3.781t-4.625 1.75q-0.156 0.031-0.281 0.031zM14.625 22.031h2.875q4.375-0.5 6.781-4.594 1.281-2.156 1.641-4.734t-0.297-4.641q-2.75 0.094-4.969 1.313-0.375 0.219-0.781 0.094t-0.594-0.531q-1.531-3.094-3.313-4.625-1.813 1.563-3.313 4.563-0.188 0.406-0.594 0.531t-0.781-0.094q-2.188-1.188-4.844-1.25-0.656 2.063-0.297 4.641t1.641 4.734q2.406 4.094 6.781 4.594h0.063zM16.031 30q-0.406 0-0.703-0.297t-0.297-0.703v-5.969q0-0.406 0.297-0.703t0.703-0.297 0.703 0.297 0.297 0.703v5.969q0 0.406-0.297 0.703t-0.703 0.297z"></path>
</svg>
