<!-- Generated by IcoMoon.io -->
<svg version="1.1" xmlns="http://www.w3.org/2000/svg" width="32" height="32" viewBox="0 0 32 32">
<title>evaluate_fill</title>
<path d="M5 23.906q-0.438 0-0.719 0.297t-0.281 0.703q0 0.375 0.313 0.688t0.688 0.313q0.219 0 0.531 0.016t1.188 0.172 1.672 0.422 1.781 0.875 1.734 1.422q0.281 0.281 0.688 0.281t0.719-0.281q0.281-0.313 0.297-0.719t-0.203-0.688q-0.656-0.75-1.469-1.344t-1.578-0.953-1.547-0.625-1.438-0.391-1.188-0.172-0.828-0.047-0.359 0.031zM27 23.813q-0.281 0-0.656 0.016t-1.422 0.203-2.016 0.531-2.172 1.078-2.141 1.766q-0.313 0.281-0.281 0.688t0.375 0.719q0.313 0.281 0.719 0.281t0.688-0.281q0.75-0.813 1.75-1.422t1.813-0.906 1.656-0.469 1.188-0.188 0.5-0.016q0.406 0 0.703-0.297t0.297-0.703q0-0.375-0.281-0.656t-0.719-0.344zM26 18.5q1.625-2.75 1.953-6.016t-0.766-5.797q-0.281-0.594-0.875-0.594-3.375 0-5.719 1.094-1.75-3.188-3.906-4.875-0.094 0-0.094-0.125-0.594-0.188-0.906-0.094h-0.094q-0.094 0-0.281 0.219-2.188 1.563-4 4.781-2.688-1.094-5.625-1.094-0.625 0.156-0.875 0.688-1.063 2.563-0.734 5.797t1.922 6.016q1.438 2.344 3.516 3.781t4.578 1.719h0.906v5q0 0.438 0.281 0.719t0.719 0.281 0.719-0.281 0.281-0.719v-5h0.906q2.531-0.313 4.641-1.734t3.453-3.766z"></path>
</svg>
