<!-- Generated by IcoMoon.io -->
<svg version="1.1" xmlns="http://www.w3.org/2000/svg" width="32" height="32" viewBox="0 0 32 32">
<title>exit</title>
<path d="M28.688 15.313l-5-5q-0.281-0.313-0.688-0.313t-0.703 0.297-0.297 0.703 0.313 0.688l3.281 3.313h-9.594q-0.438 0-0.719 0.281t-0.281 0.719 0.281 0.719 0.719 0.281h9.594l-3.281 3.313q-0.313 0.281-0.313 0.688t0.297 0.703 0.703 0.297 0.688-0.313l5-5.094q0-0.094 0.125-0.094 0.219-0.219 0.203-0.594t-0.328-0.594zM26 23q-0.438 0-0.719 0.281t-0.281 0.719v2q0 0.438-0.281 0.719t-0.719 0.281h-17q-0.438 0-0.719-0.281t-0.281-0.719v-20q0-0.438 0.281-0.719t0.719-0.281h17q0.438 0 0.719 0.281t0.281 0.719v2q0 0.438 0.281 0.719t0.719 0.281 0.719-0.281 0.281-0.719v-2q0-1.281-0.859-2.141t-2.141-0.859h-17q-1.281 0-2.141 0.859t-0.859 2.141v20q0 1.281 0.859 2.141t2.141 0.859h17q1.281 0 2.141-0.859t0.859-2.141v-2q0-0.438-0.281-0.719t-0.719-0.281z"></path>
</svg>
