<!-- Generated by IcoMoon.io -->
<svg version="1.1" xmlns="http://www.w3.org/2000/svg" width="32" height="32" viewBox="0 0 32 32">
<title>explore</title>
<path d="M30 25.906l-1.313-13.031q-0.156-1.125-1-2.094t-1.938-1.25l-0.156-0.031q-0.594-0.125-0.594-1.5v-2q0-1.25-0.859-2.125t-2.078-0.875h-1.031q-1.219 0-2.125 0.734t-0.906 1.766v1.5q0 0.406 0.297 0.703t0.703 0.297 0.703-0.297 0.297-0.703v-1.5q0-0.156 0.313-0.328t0.719-0.172h1.031q0.406 0 0.672 0.297t0.266 0.703v2q0 1.688 0.656 2.469t1.469 0.969l0.125 0.031q0.5 0.125 0.938 0.625t0.5 1l1 9.906h-6.344l-0.313-3.125q-0.125-1.188-1.047-2.031t-2.141-0.844h-3.906q-0.875 0-1.875 0.875t-1.125 2l-0.313 3.125h-6.344l0.625-10q0.063-0.563 0.516-1.203t0.953-0.891l0.406-0.219q0.969-0.5 1.594-1.531t0.625-2.156v-1q0-0.406 0.313-0.703t0.719-0.297h1q0.438 0 0.703 0.297t0.266 0.703v1.906q0 1.281 0.75 2.188t1.781 0.906h3.5q0.438 0 0.719-0.297t0.281-0.703-0.281-0.703-0.719-0.297h-3.5q-0.063 0-0.188-0.125t-0.234-0.391-0.109-0.578v-1.906q0-1.25-0.859-2.125t-2.109-0.875h-1q-1.219 0-2.125 0.875t-0.906 2.125v1q0 0.563-0.328 1.109t-0.797 0.797l-0.406 0.188q-0.969 0.5-1.703 1.547t-0.859 2.172l-0.813 13.094q-0.156 1.25 0.656 2.172t2.094 0.922h4.313q1.188 0 2.125-0.844t1.063-2.063l0.594-6q0.031-0.344 0.422-0.719t0.578-0.375h3.906q0.438 0 0.797 0.328t0.422 0.766l0.594 6q0.125 1.219 1.063 2.063t2.125 0.844h4.406q1.281 0 2.094-0.922t0.656-2.172zM9.156 27h-4.313q-0.375 0-0.594-0.25t-0.156-0.688l0.063-1.063h6.281l-0.094 0.906q-0.031 0.438-0.391 0.766t-0.797 0.328zM27.844 26.75q-0.219 0.25-0.594 0.25h-4.406q-0.438 0-0.797-0.328t-0.391-0.766l-0.094-0.906h6.344l0.125 1.125q0.031 0.375-0.188 0.625z"></path>
</svg>
