<!-- Generated by IcoMoon.io -->
<svg version="1.1" xmlns="http://www.w3.org/2000/svg" width="32" height="32" viewBox="0 0 32 32">
<title>explorefill</title>
<path d="M30.094 25.906l-1.531-13.031q-0.125-1.125-0.969-2.094t-1.938-1.25l-0.156-0.031q-0.5-0.125-0.5-1.5v-2q0-1.25-0.859-2.125t-2.078-0.875h-1.125q-1.219 0-2.078 0.734t-0.859 1.766v1.5q0 0.031-0.016 0.078t0.016 0.078q0.063 0.219 0 0.766t-0.281 0.797q-0.25 0.281-0.688 0.281h-2.5q-0.125 0-0.328-0.344t-0.203-0.75v-2q0-1.25-0.859-2.078t-2.109-0.828h-1q-1.25 0-2.141 0.828t-0.891 2.078v1q0 0.531-0.359 1.141t-0.859 0.859l-0.406 0.188q-0.969 0.5-1.703 1.547t-0.859 2.172l-0.844 13.094q-0.125 1.25 0.688 2.172t2.094 0.922h5q1.188 0 2.125-0.844t1.063-2.063l0.594-6q0.031-0.375 0.313-0.734t0.406-0.359h3q0.438 0 0.797 0.328t0.391 0.766l0.625 6q0.125 1.219 1.047 2.063t2.141 0.844h5.094q1.281 0 2.094-0.922t0.656-2.172zM11 25h-7q-0.406 0-0.703-0.297t-0.297-0.703 0.297-0.703 0.703-0.297h7q0.406 0 0.703 0.297t0.297 0.703-0.297 0.703-0.703 0.297zM28 25h-7q-0.406 0-0.703-0.297t-0.297-0.703 0.297-0.703 0.703-0.297h7q0.406 0 0.703 0.297t0.297 0.703-0.297 0.703-0.703 0.297z"></path>
</svg>
