<!-- Generated by IcoMoon.io -->
<svg version="1.1" xmlns="http://www.w3.org/2000/svg" width="32" height="32" viewBox="0 0 32 32">
<title>expressman</title>
<path d="M24 12h4.094q0.469 0 0.734-0.281t0.266-0.719-0.266-0.719-0.734-0.281h-4.281q-0.688-3.031-3.156-5.016t-5.656-1.984q-3.75 0-6.375 2.625t-2.625 6.375q0 2.5 1.266 4.578t3.328 3.234q-2.875 1.125-4.891 3.5t-2.609 5.5q-0.063 0.438 0.172 0.781t0.641 0.406h0.188q0.844 0 1-0.813 0.688-3.5 3.422-5.813t6.297-2.375h0.188q3.75 0 6.375-2.625t2.625-6.375zM8 12q0-2.938 2.031-4.969t4.969-2.031q2.313 0 4.172 1.406t2.516 3.594h-10.594q-0.438 0-0.719 0.281t-0.281 0.719 0.281 0.719 0.719 0.281h10.906q0 2.844-1.969 4.891t-4.844 2.109h-0.375q-2.875-0.063-4.844-2.109t-1.969-4.891zM28 22h-8q-0.438 0-0.719 0.281t-0.281 0.719v6q0 0.438 0.281 0.719t0.719 0.281h8q0.438 0 0.719-0.281t0.281-0.719v-6q0-0.406-0.281-0.703t-0.719-0.297zM27 28h-6v-4h6v4zM23 27h1q0.438 0 0.719-0.281t0.281-0.719-0.281-0.719-0.719-0.281h-1q-0.438 0-0.719 0.281t-0.281 0.719 0.297 0.719 0.703 0.281z"></path>
</svg>
