<!-- Generated by IcoMoon.io -->
<svg version="1.1" xmlns="http://www.w3.org/2000/svg" width="32" height="32" viewBox="0 0 32 32">
<title>favorfill</title>
<path d="M29.906 12.641q-0.188-0.578-0.781-0.672l-8.469-1.313-3.75-8.094q-0.281-0.563-0.906-0.563v0q-0.656 0-0.906 0.563l-3.813 8.063-8.469 1.281q-0.594 0.094-0.797 0.672t0.234 1.016l6.125 6.313-1.469 8.906q-0.094 0.625 0.422 0.984t1.047 0.047l7.563-4.156 7.563 4.188q0.219 0.125 0.469 0.125h0.031q0.406 0 0.703-0.297t0.297-0.703q0-0.188-0.063-0.344l-1.406-8.719 6.156-6.281q0.406-0.438 0.219-1.016z"></path>
</svg>
