<!-- Generated by IcoMoon.io -->
<svg version="1.1" xmlns="http://www.w3.org/2000/svg" width="32" height="32" viewBox="0 0 32 32">
<title>favor_light</title>
<path d="M23 28.656q-0.375 0-0.656-0.188l-6.344-3.531-6.344 3.469q-0.781 0.438-1.375-0.063-0.719-0.594-0.563-1.344l1.219-7.469-5.219-5.406q-0.531-0.563-0.313-1.313 0.219-0.781 1.063-0.875l4.719-0.594q0.313-0.063 0.531 0.109t0.219 0.484q0.031 0.313-0.141 0.516t-0.453 0.203l-4.688 0.625 5.469 5.594q0.219 0.188 0.219 0.594l-1.281 7.813 6.656-3.688q0.344-0.219 0.688 0l6.656 3.688-1.25-7.875q-0.094-0.219 0.188-0.594l5.344-5.469-7.469-1.156q-0.344-0.094-0.531-0.375l-3.344-7.156-3.469 7.063q-0.094 0.25-0.359 0.344t-0.516 0-0.344-0.359 0.031-0.516l3.469-7.063q0.438-0.781 1.188-0.781 0.906 0 1.188 0.781l3.156 6.75 7.188 1.125q0.875 0.094 1.063 0.938 0.25 0.844-0.313 1.344l-5.219 5.313 1.219 7.531q0.094 0.844-0.563 1.281-0.375 0.25-0.719 0.25z"></path>
</svg>
