<!-- Generated by IcoMoon.io -->
<svg version="1.1" xmlns="http://www.w3.org/2000/svg" width="32" height="32" viewBox="0 0 32 32">
<title>favor_fill_light</title>
<path d="M28.594 12.938q-0.188-0.688-1.063-0.938l-7.125-1.063-3.125-6.75q-0.344-0.781-1.219-0.781t-1.188 0.719l-3.344 6.75-7.063 1.125q-0.75 0.094-1.063 0.875-0.25 0.844 0.313 1.313l5.219 5.406-1.219 7.469q-0.094 0.813 0.563 1.344 0.281 0.188 0.672 0.219t0.703-0.156l6.344-3.469 6.344 3.531q0.281 0.188 0.656 0.188 0.469 0 0.719-0.25 0.656-0.438 0.563-1.281l-1.219-7.531 5.219-5.313q0.531-0.656 0.313-1.406z"></path>
</svg>
