<!-- Generated by IcoMoon.io -->
<svg version="1.1" xmlns="http://www.w3.org/2000/svg" width="32" height="32" viewBox="0 0 32 32">
<title>favor</title>
<path d="M23.969 30q-0.25 0-0.469-0.125l-7.563-4.188-7.563 4.156q-0.531 0.313-1.047-0.047t-0.422-0.984l1.469-8.906-6.125-6.313q-0.438-0.438-0.25-1.016t0.781-0.672l4.875-0.813q0.406-0.094 0.734 0.156t0.406 0.656-0.172 0.734-0.656 0.422l-2.969 0.5 5.188 5.313q0.344 0.375 0.25 0.875l-1.219 7.344 6.25-3.438q0.469-0.25 0.969 0.031l6.219 3.438-1.188-7.375q-0.094-0.5 0.281-0.844l5.125-5.281-7.031-1.063q-0.531-0.094-0.75-0.563l-3.125-6.656-3.125 6.625q-0.156 0.375-0.547 0.516t-0.766-0.031-0.516-0.563 0.016-0.766l4.063-8.563q0.25-0.563 0.906-0.563v0q0.625 0 0.906 0.563l3.75 8.094 8.469 1.313q0.594 0.094 0.781 0.672t-0.219 1.016l-6.156 6.281 1.438 8.906q0.094 0.625-0.438 0.969-0.25 0.188-0.563 0.188z"></path>
</svg>
