<!-- Generated by IcoMoon.io -->
<svg version="1.1" xmlns="http://www.w3.org/2000/svg" width="32" height="32" viewBox="0 0 32 32">
<title>female</title>
<path d="M27 13q0-4.563-3.219-7.781t-7.781-3.219-7.781 3.219-3.219 7.781q0 4.281 2.891 7.422t7.109 3.516v2.063h-4q-0.406 0-0.703 0.297t-0.297 0.703 0.297 0.703 0.703 0.297h4v1q0 0.406 0.297 0.703t0.703 0.297 0.703-0.297 0.297-0.703v-1h4q0.406 0 0.703-0.297t0.297-0.703-0.297-0.703-0.703-0.297h-4v-2.063q4.219-0.375 7.109-3.516t2.891-7.422zM16 22q-3.719 0-6.359-2.641t-2.641-6.359 2.641-6.359 6.359-2.641 6.359 2.641 2.641 6.359-2.641 6.359-6.359 2.641z"></path>
</svg>
