<!-- Generated by IcoMoon.io -->
<svg version="1.1" xmlns="http://www.w3.org/2000/svg" width="32" height="32" viewBox="0 0 32 32">
<title>filter</title>
<path d="M19.016 30q-0.422 0-0.719-0.297t-0.297-0.703v-15q0-0.375 0.281-0.656l6.5-7.344h-17.594l6.563 7.344q0.25 0.281 0.25 0.656v9.031l1.594 1.281q0.313 0.25 0.359 0.672t-0.219 0.734-0.672 0.359-0.75-0.203l-1.938-1.594q-0.375-0.313-0.375-0.781v-9.125l-7.781-8.719q-0.438-0.469-0.172-1.063t0.922-0.594h22.063q0.656 0 0.922 0.594t-0.172 1.063l-7.781 8.719v14.625q0 0.406-0.281 0.703t-0.703 0.297z"></path>
</svg>
