<!-- Generated by IcoMoon.io -->
<svg version="1.1" xmlns="http://www.w3.org/2000/svg" width="32" height="32" viewBox="0 0 32 32">
<title>flashlightopen</title>
<path d="M16 21q-0.406 0-0.703-0.297t-0.297-0.703v-3q0-0.406 0.297-0.703t0.703-0.297 0.703 0.297 0.297 0.703v3q0 0.406-0.297 0.703t-0.703 0.297zM27.641 4.281q-0.328-0.25-0.734-0.188t-0.656 0.375l-6.031 8q-0.219 0.281-0.219 0.594v13.938q0 0.406-0.297 0.703t-0.703 0.297h-6q-0.406 0-0.703-0.297t-0.297-0.703v-14q0-0.344-0.188-0.594l-5.938-8q-0.25-0.344-0.656-0.406t-0.75 0.188-0.391 0.656 0.172 0.75l5.75 7.75v13.656q0 1.25 0.875 2.125t2.125 0.875h6q1.25 0 2.125-0.875t0.875-2.125v-13.594l5.844-7.719q0.25-0.344 0.188-0.75t-0.391-0.656zM16 9q-0.406 0-0.703-0.297t-0.297-0.703v-5q0-0.406 0.297-0.703t0.703-0.297 0.703 0.297 0.297 0.703v5q0 0.406-0.297 0.703t-0.703 0.297z"></path>
</svg>
