<!-- Generated by IcoMoon.io -->
<svg version="1.1" xmlns="http://www.w3.org/2000/svg" width="32" height="32" viewBox="0 0 32 32">
<title>flashlightclose</title>
<path d="M16 21q-0.406 0-0.703-0.297t-0.297-0.703v-3q0-0.406 0.297-0.703t0.703-0.297 0.703 0.297 0.297 0.703v3q0 0.406-0.297 0.703t-0.703 0.297zM25.875 6.531q-0.281-0.531-0.875-0.531h-18q-0.594 0-0.875 0.531t0.031 1.031l3.844 5.75v13.688q0 1.25 0.875 2.125t2.125 0.875h6q1.25 0 2.125-0.875t0.875-2.125v-13.625l3.844-5.813q0.313-0.5 0.031-1.031zM20.156 12.531q-0.156 0.25-0.156 0.531v13.938q0 0.406-0.297 0.703t-0.703 0.297h-6q-0.406 0-0.703-0.297t-0.297-0.703v-14q0-0.313-0.156-0.563l-2.969-4.438h14.281zM19 5h-6q-0.406 0-0.703-0.297t-0.297-0.703 0.297-0.703 0.703-0.297h6q0.406 0 0.703 0.297t0.297 0.703-0.297 0.703-0.703 0.297z"></path>
</svg>
