<!-- Generated by IcoMoon.io -->
<svg version="1.1" xmlns="http://www.w3.org/2000/svg" width="32" height="32" viewBox="0 0 32 32">
<title>flashbuyfill-copy</title>
<path d="M27.688 18.031v-9.781q0-0.781-0.5-1.219t-1.203-0.438-1.219 0.438-0.516 1.219v6.531q0 0.281-0.141 0.469t-0.328 0.188q-0.375 0-0.375-0.656v-10q0-0.781-0.5-1.203t-1.203-0.422-1.203 0.422-0.5 1.203q0 0.563 0.016 3.906t-0.016 3.875q-0.031 0.313-0.172 0.5t-0.328 0.188q-0.469 0-0.469-0.656 0-1.563-0.031-3.906t-0.031-4.031q0-0.781-0.5-1.219t-1.203-0.438-1.219 0.438-0.516 1.219q0 1.594 0.031 5.031t0.031 5.063q0 0.594-0.406 0.594-0.188 0-0.328-0.172t-0.141-0.453q0-1.5-0.031-4.203t-0.031-4.234q0-0.688-0.531-1.063t-1.219-0.375-1.188 0.359-0.5 1.016q0 0.563-0.016 6.031t-0.078 8.031q-0.344-0.5-0.891-1.422t-1.016-1.516-1.219-1.188q-0.438-0.344-1.063-0.344-1.125 0-1.703 0.938t0.234 2.156q0.063 0.063 0.516 0.734t0.984 1.469 0.625 0.953q1 1.438 1.453 2.078t0.969 1.328 1.047 1.406q0.625 0.938 2.438 1.531t4.063 0.594q2.781 0 5.188-0.984t3.594-2.984q1.563-2.656 1.344-7zM21.969 19.875l-4.188 5.969q-0.156 0.219-0.438 0.219-0.094 0-0.219-0.031-0.375-0.188-0.313-0.625l0.719-3.406h-2.063q-0.344 0-0.484-0.281t0.016-0.531l4.063-5.938q0.25-0.375 0.656-0.203t0.313 0.578l-0.563 3.406h2.063q0.313 0 0.469 0.281t-0.031 0.563z"></path>
</svg>
