<!-- Generated by IcoMoon.io -->
<svg version="1.1" xmlns="http://www.w3.org/2000/svg" width="32" height="32" viewBox="0 0 32 32">
<title>focus</title>
<path d="M16 12q-1.656 0-2.828 1.172t-1.172 2.828 1.172 2.828 2.828 1.172 2.828-1.172 1.172-2.828-1.172-2.828-2.828-1.172zM16 18q-0.813 0-1.406-0.594t-0.594-1.406 0.594-1.406 1.406-0.594 1.406 0.594 0.594 1.406-0.594 1.406-1.406 0.594zM29 15h-0.031q-0.375-4.781-3.781-8.188t-8.188-3.781v-0.031q0-0.406-0.297-0.703t-0.703-0.297-0.703 0.297-0.297 0.703v0.031q-4.781 0.375-8.188 3.781t-3.781 8.188h-0.031q-0.406 0-0.703 0.297t-0.297 0.703 0.297 0.703 0.703 0.297h0.031q0.375 4.781 3.781 8.188t8.188 3.781v0.031q0 0.406 0.297 0.703t0.703 0.297 0.703-0.297 0.297-0.703v-0.031q4.781-0.375 8.188-3.781t3.781-8.188h0.031q0.406 0 0.703-0.297t0.297-0.703-0.297-0.703-0.703-0.297zM17 26.969v-1.969q0-0.406-0.297-0.703t-0.703-0.297-0.703 0.297-0.297 0.703v1.969q-3.969-0.344-6.797-3.172t-3.172-6.797h1.969q0.406 0 0.703-0.297t0.297-0.703-0.297-0.703-0.703-0.297h-1.969q0.344-3.969 3.172-6.797t6.797-3.172v1.969q0 0.406 0.297 0.703t0.703 0.297 0.703-0.297 0.297-0.703v-1.969q3.969 0.344 6.797 3.172t3.172 6.797h-1.969q-0.406 0-0.703 0.297t-0.297 0.703 0.297 0.703 0.703 0.297h1.969q-0.344 3.969-3.172 6.797t-6.797 3.172z"></path>
</svg>
