<!-- Generated by IcoMoon.io -->
<svg version="1.1" xmlns="http://www.w3.org/2000/svg" width="32" height="32" viewBox="0 0 32 32">
<title>footprint</title>
<path d="M27.688 21.313q-0.344-0.281-0.75-0.234t-0.672 0.375-0.219 0.734 0.391 0.656q0.531 0.438 1.078 1.469t0.547 1.719q0 1.281-0.891 2.172t-2.172 0.891q-1.594 0-2.5-1.281-2.031-2.906-3-3.938-0.531-0.563-1.234-0.953t-1.297-0.578-1.25-0.281-0.891-0.109-0.453-0.016v0q-3.031-0.625-4.875-2.797t-1.438-4.672q0.375-2.625 2.875-4.156 2.594-1.594 5.875-1.094t5.313 2.781q1.938 2.219 1.531 4.813-0.156 0.969-0.625 1.844-0.219 0.344-0.094 0.75t0.484 0.609 0.75 0.094 0.609-0.484q0.656-1.188 0.844-2.531 0.531-3.5-2-6.406-2.5-2.844-6.5-3.438t-7.219 1.375q-1.594 0.969-2.594 2.406t-1.25 3.125q-0.5 3.313 1.797 6.141t6.109 3.609h0.172t0.438 0.031 0.609 0.078 0.734 0.141 0.766 0.234 0.734 0.359 0.609 0.5q0.5 0.5 1.219 1.469t1.203 1.672 0.547 0.734q0.719 0.938 1.766 1.453t2.234 0.516q2.094 0 3.578-1.484t1.484-3.578q0-1.156-0.75-2.594t-1.625-2.125zM2 10.016q0-0.828 0.594-1.406t1.422-0.578 1.406 0.578 0.578 1.406-0.578 1.422-1.406 0.594-1.422-0.594-0.594-1.422zM8.531 7.125q-0.563 0-0.969-0.344-0.469-0.406-0.531-1.016t0.344-1.078q0.063-0.063 0.141-0.156t0.344-0.344 0.563-0.469 0.766-0.5 0.969-0.5 1.172-0.406 1.375-0.281 1.563-0.063 1.766 0.219q0.625 0.125 0.969 0.641t0.219 1.125-0.641 0.953-1.141 0.219q-0.75-0.156-1.484-0.156t-1.281 0.109-1.063 0.297-0.828 0.375-0.594 0.406-0.375 0.313l-0.156 0.156q-0.438 0.5-1.125 0.5z"></path>
</svg>
