<!-- Generated by IcoMoon.io -->
<svg version="1.1" xmlns="http://www.w3.org/2000/svg" width="32" height="32" viewBox="0 0 32 32">
<title>form</title>
<path d="M25 29h-18q-1.25 0-2.125-0.875t-0.875-2.125v-20q0-1.25 0.875-2.125t2.125-0.875h18q1.25 0 2.125 0.875t0.875 2.125v20q0 1.25-0.875 2.125t-2.125 0.875zM7 5q-0.406 0-0.703 0.297t-0.297 0.703v20q0 0.406 0.297 0.703t0.703 0.297h18q0.406 0 0.703-0.297t0.297-0.703v-20q0-0.406-0.297-0.703t-0.703-0.297h-18zM20.031 17.031h-11.031q-0.406 0-0.703-0.297t-0.297-0.703 0.297-0.703 0.703-0.297h11.031q0.406 0 0.703 0.297t0.297 0.703-0.297 0.703-0.703 0.297zM22.969 23h-13.969q-0.438 0-0.719-0.297t-0.281-0.719 0.281-0.703 0.719-0.281h13.969q0.406 0 0.703 0.281t0.297 0.703-0.297 0.719-0.703 0.297zM8 9.531q0-0.625 0.438-1.063t1.063-0.438 1.063 0.438 0.438 1.063-0.438 1.063-1.063 0.438-1.063-0.438-0.438-1.063zM14.469 9.531q0-0.625 0.438-1.063t1.063-0.438 1.063 0.438 0.438 1.063-0.438 1.063-1.063 0.438-1.063-0.438-0.438-1.063zM20.969 9.531q0-0.625 0.438-1.063t1.063-0.438 1.063 0.438 0.438 1.063-0.438 1.063-1.063 0.438-1.063-0.438-0.438-1.063z"></path>
</svg>
