<!-- Generated by IcoMoon.io -->
<svg version="1.1" xmlns="http://www.w3.org/2000/svg" width="32" height="32" viewBox="0 0 32 32">
<title>form_fill_light</title>
<path d="M24.719 3.344h-17.438q-1.063 0-1.844 0.781t-0.781 1.875v20q0 1.094 0.781 1.875t1.844 0.781h17.438q1.094 0 1.859-0.781t0.766-1.875v-20q0-1.094-0.766-1.875t-1.859-0.781zM22.328 8.656q0.391 0 0.703 0.313t0.313 0.703-0.313 0.688-0.703 0.297-0.688-0.297-0.297-0.688 0.297-0.703 0.688-0.313zM16.328 8.656q0.391 0 0.703 0.313t0.313 0.703-0.313 0.688-0.688 0.297q-0.438 0-0.719-0.281t-0.281-0.719q0-0.375 0.297-0.688t0.688-0.313zM9.719 8.656q0.406 0 0.703 0.313t0.297 0.703-0.297 0.688-0.688 0.297-0.703-0.297-0.313-0.703 0.281-0.703 0.719-0.297zM9.344 15.344h10.469q0.281 0 0.469 0.172t0.188 0.484-0.188 0.484-0.469 0.172h-10.469q-0.313 0-0.5-0.172t-0.188-0.484q0-0.281 0.203-0.469t0.484-0.188zM22.656 22.719h-13.313q-0.313 0-0.5-0.172t-0.188-0.469 0.188-0.484 0.5-0.188h13.313q0.313 0 0.5 0.188t0.188 0.484-0.188 0.469-0.5 0.172z"></path>
</svg>
