<!-- Generated by IcoMoon.io -->
<svg version="1.1" xmlns="http://www.w3.org/2000/svg" width="32" height="32" viewBox="0 0 32 32">
<title>form_light</title>
<path d="M24.719 3.344h-17.438q-1.063 0-1.844 0.781t-0.781 1.875v20q0 1.094 0.781 1.875t1.844 0.781h17.438q1.094 0 1.859-0.781t0.766-1.875v-20q0-1.094-0.766-1.875t-1.859-0.781zM26 26q0 0.531-0.375 0.938t-0.906 0.406h-17.438q-0.531 0-0.906-0.406t-0.375-0.938v-20q0-0.531 0.375-0.938t0.906-0.406h17.438q0.563 0 0.922 0.391t0.359 0.953v20zM9.344 16.656h10.469q0.281 0 0.469-0.172t0.188-0.484-0.188-0.484-0.469-0.172h-10.469q-0.313 0-0.5 0.172t-0.188 0.484q0 0.281 0.203 0.469t0.484 0.188zM22.656 21.406h-13.313q-0.313 0-0.5 0.188t-0.188 0.484 0.188 0.469 0.5 0.172h13.313q0.313 0 0.5-0.172t0.188-0.469-0.188-0.484-0.5-0.188zM8.719 9.672q0 0.422 0.297 0.703t0.719 0.281 0.703-0.281 0.281-0.703-0.281-0.719-0.703-0.297-0.719 0.297-0.297 0.719zM15.344 9.672q0 0.422 0.281 0.703t0.703 0.281 0.719-0.281 0.297-0.703-0.297-0.719-0.719-0.297-0.703 0.297-0.281 0.719zM21.344 9.672q0 0.422 0.281 0.703t0.703 0.281 0.719-0.281 0.297-0.703-0.297-0.719-0.719-0.297-0.703 0.297-0.281 0.719z"></path>
</svg>
