<!-- Generated by IcoMoon.io -->
<svg version="1.1" xmlns="http://www.w3.org/2000/svg" width="32" height="32" viewBox="0 0 32 32">
<title>forward</title>
<path d="M17 30q-0.188 0-0.375-0.063-0.625-0.25-0.625-0.938v-8.969q-2.094 0.094-4.141 0.641t-3.391 1.141-2.578 1.359-1.625 1.078-0.578 0.469q-0.563 0.5-1.188 0.156t-0.469-1.063q0.063-0.438 0.234-1.125t0.875-2.453 1.641-3.266q2.156-3.406 5.266-5.188t6.953-1.781q0.406 0 0.703 0.297t0.297 0.703-0.297 0.703-0.703 0.297q-2.125 0-4 0.656t-3.141 1.625-2.328 2.328-1.656 2.5-1.094 2.359q5.688-3.469 12.219-3.469 0.406 0 0.703 0.297t0.297 0.703v7.438l9.625-10.313-9.625-10.469v1.344q0 0.406-0.297 0.703t-0.703 0.297-0.703-0.297-0.297-0.703v-3.906q0-0.656 0.641-0.906t1.109 0.25l12 13q0.25 0.281 0.25 0.672t-0.281 0.672l-12 12.906q-0.281 0.313-0.719 0.313z"></path>
</svg>
