<!-- Generated by IcoMoon.io -->
<svg version="1.1" xmlns="http://www.w3.org/2000/svg" width="32" height="32" viewBox="0 0 32 32">
<title>forwardfill</title>
<path d="M29.75 15.438l-12-13.094q-0.469-0.531-1.109-0.281t-0.641 0.938v7.031q-3.5 0.219-6.344 1.984t-4.875 4.953q-0.938 1.5-1.641 3.266t-0.875 2.453-0.234 1.125q-0.156 0.719 0.469 1.063t1.156-0.125q0.156-0.156 0.594-0.484t1.641-1.047 2.563-1.328 3.406-1.141 4.141-0.625v8.875q0 0.688 0.625 0.938 0.188 0.063 0.375 0.063 0.438 0 0.719-0.313l12-12.906q0.281-0.281 0.281-0.672t-0.25-0.672z"></path>
</svg>
