<!-- Generated by IcoMoon.io -->
<svg version="1.1" xmlns="http://www.w3.org/2000/svg" width="32" height="32" viewBox="0 0 32 32">
<title>friendadd</title>
<path d="M25 12.094q0-3.75-2.625-6.375t-6.375-2.625-6.375 2.625-2.625 6.375q0 2.469 1.25 4.578t3.344 3.234q-2.875 1.125-4.891 3.5t-2.609 5.5q-0.063 0.375 0.156 0.75t0.656 0.438h0.188q0.844 0 1-0.781 0.688-3.531 3.438-5.828t6.375-2.391h0.188q3.688 0 6.297-2.656t2.609-6.344zM9 12.094q0-2.906 2.031-4.953t4.969-2.047 4.969 2.047 2.031 4.953q0 2.844-2.016 4.891t-4.891 2.109h-0.281q-2.875-0.156-4.844-2.188t-1.969-4.813zM27 25h-2v-2q0-0.438-0.281-0.719t-0.719-0.281-0.719 0.281-0.281 0.719v2h-2q-0.438 0-0.719 0.281t-0.281 0.719 0.281 0.719 0.719 0.281h2v2q0 0.438 0.281 0.719t0.719 0.281 0.719-0.281 0.281-0.719v-2h2q0.438 0 0.719-0.281t0.281-0.719-0.281-0.719-0.719-0.281z"></path>
</svg>
