<!-- Generated by IcoMoon.io -->
<svg version="1.1" xmlns="http://www.w3.org/2000/svg" width="32" height="32" viewBox="0 0 32 32">
<title>friend</title>
<path d="M20.906 12q0-3.313-2.359-5.656t-5.656-2.344-5.641 2.344-2.344 5.656q0 2.125 1.063 3.922t2.844 2.891q-2.563 1.063-4.391 3.172t-2.422 4.828q-0.063 0.375 0.141 0.75t0.547 0.438h0.219q0.844 0 1-0.813 0.75-3.156 3.297-5.219t5.703-2.063h0.094q3.281 0 5.594-2.328t2.313-5.578zM6.906 12q0-2.469 1.766-4.234t4.234-1.766 4.234 1.766 1.766 4.234-1.766 4.234-4.234 1.766-4.234-1.766-1.766-4.234zM22.906 17q-0.469 0-0.719 0.328t-0.188 0.766q0 0.375 0.313 0.641t0.688 0.266h0.094q2.469-0.156 4.188-1.984t1.719-4.328q0-2.438-1.688-4.25t-4.125-2.031q-0.438 0-0.719 0.25t-0.375 0.656q0 0.438 0.25 0.719t0.656 0.375q1.656 0.156 2.828 1.406t1.172 2.875q0 1.75-1.188 3t-2.906 1.313zM30 23.688q-0.219-1-0.922-2.047t-1.578-1.641q-0.375-0.219-0.766-0.109t-0.641 0.422q-0.219 0.375-0.109 0.766t0.422 0.609q0.5 0.313 0.969 1.047t0.625 1.359q0.156 0.813 1 0.813h0.188q0.469-0.094 0.672-0.422t0.141-0.797zM19.406 20l-0.594-0.406q-0.375-0.219-0.781-0.141t-0.625 0.453q-0.25 0.375-0.156 0.781t0.438 0.625l0.625 0.375q1.344 1 2.328 2.438t1.359 3.063q0.156 0.813 1 0.813h0.188q0.406-0.063 0.625-0.453t0.094-0.734q-1.094-4.313-4.5-6.813z"></path>
</svg>
