<!-- Generated by IcoMoon.io -->
<svg version="1.1" xmlns="http://www.w3.org/2000/svg" width="32" height="32" viewBox="0 0 32 32">
<title>friend_light</title>
<path d="M20.719 12q0-3.313-2.344-5.656t-5.641-2.344-5.656 2.344-2.359 5.656q0 2.375 1.266 4.313t3.359 2.969q-2.688 0.906-4.656 3.047t-2.625 4.953q-0.063 0.25 0.078 0.5t0.391 0.281h0.125q0.563 0 0.688-0.531 0.781-3.25 3.438-5.391t5.938-2.141q3.313 0 5.656-2.344t2.344-5.656zM6.063 12q0-2.75 1.953-4.703t4.703-1.953 4.719 1.953 1.969 4.703-1.969 4.703-4.719 1.953-4.703-1.953-1.953-4.703zM22.656 17.344q-0.281 0-0.453 0.203t-0.141 0.516q0 0.25 0.203 0.422t0.453 0.172h0.094q2.281-0.125 3.766-1.828t1.484-4.172q0-2.406-1.484-4.094t-3.766-1.906q-0.281-0.031-0.484 0.156t-0.266 0.469q0 0.594 0.594 0.719 1.75 0.156 2.875 1.469t1.125 3.188q0 1.938-1.141 3.25t-2.859 1.438zM30 23.875q-0.75-2.875-3-4.594-0.188-0.188-0.484-0.156t-0.453 0.281q-0.156 0.188-0.125 0.484t0.25 0.453q1.938 1.5 2.531 3.844 0.125 0.531 0.688 0.531h0.125q0.25-0.094 0.391-0.344t0.078-0.5zM19 20.656l-0.594-0.375q-0.25-0.156-0.516-0.109t-0.422 0.297-0.109 0.516 0.297 0.422l0.625 0.406q2.906 2 3.844 5.719 0.125 0.531 0.688 0.531h0.125q0.25-0.063 0.406-0.313t0.063-0.469q-1.031-4.281-4.406-6.625z"></path>
</svg>
