<!-- Generated by IcoMoon.io -->
<svg version="1.1" xmlns="http://www.w3.org/2000/svg" width="32" height="32" viewBox="0 0 32 32">
<title>friendaddfill</title>
<path d="M27 25h-2v-1.906q0-0.438-0.281-0.719t-0.719-0.281-0.719 0.281-0.281 0.719v1.906h-2q-0.438 0-0.719 0.281t-0.281 0.719 0.281 0.719 0.719 0.281h2v2.094q0 0.469 0.281 0.734t0.719 0.266 0.719-0.266 0.281-0.734v-2.094h2q0.438 0 0.719-0.281t0.281-0.719-0.281-0.719-0.719-0.281zM22 29.094v-1.094h-1q-0.813 0-1.406-0.594t-0.594-1.406 0.594-1.406 1.406-0.594h1v-0.906q0-1.188 1-1.688-0.594-0.594-2.688-1.5 2.063-1.25 3.328-3.313t1.266-4.5q0-3.75-2.625-6.375t-6.375-2.625-6.375 2.625-2.625 6.375q0 2.5 1.266 4.578t3.328 3.234q-2.906 1.125-4.906 3.5t-2.594 5.5q-0.156 0.438 0.188 0.781 0.406 0.406 0.813 0.406h17.313q-0.313-0.906-0.313-1z"></path>
</svg>
