<!-- Generated by IcoMoon.io -->
<svg version="1.1" xmlns="http://www.w3.org/2000/svg" width="32" height="32" viewBox="0 0 32 32">
<title>friendfamous</title>
<path d="M24.313 12q0-3.75-2.625-6.375t-6.375-2.625-6.375 2.625-2.625 6.375q0 2.531 1.234 4.594t3.359 3.219q-2.906 1.125-4.906 3.5t-2.594 5.5q-0.094 0.375 0.141 0.75t0.641 0.438h0.219q0.844 0 1-0.813 0.656-3.5 3.422-5.813t6.359-2.375h0.219q3.688 0 6.297-2.625t2.609-6.375zM8.313 12q0-2.938 2.031-4.969t4.953-2.031 4.969 2.031 2.047 4.969q0 2.844-2.031 4.891t-4.875 2.109h-0.313q-2.844-0.063-4.813-2.109t-1.969-4.891zM30.188 23.188q-0.125-0.531-0.781-0.688l-2.594-0.406-1.219-2.5q-0.281-0.594-0.891-0.594t-0.891 0.594l-1.219 2.5-2.594 0.406q-0.656 0.156-0.813 0.688-0.125 0.531 0.219 1l1.906 1.906-0.5 2.813q-0.156 0.625 0.375 1 0.406 0.281 1.125 0.094l2.281-1.313 2.313 1.313q0.188 0.094 0.5 0.094 0.188 0 0.594-0.188 0.563-0.375 0.406-1l-0.406-2.813 1.906-1.906q0.469-0.469 0.281-1zM26.313 25.094q-0.313 0.313-0.313 0.906l0.188 1.188-1-0.5q-0.188-0.094-0.484-0.094t-0.516 0.094l-1 0.5 0.219-1.188q0.156-0.438-0.313-0.906l-0.906-0.906 1.219-0.188q0.406 0 0.781-0.594l0.5-1 0.5 1q0.156 0.438 0.813 0.594l1.188 0.188z"></path>
</svg>
