<!-- Generated by IcoMoon.io -->
<svg version="1.1" xmlns="http://www.w3.org/2000/svg" width="32" height="32" viewBox="0 0 32 32">
<title>friendfill</title>
<path d="M16.219 20.438v-0.219q0.688-0.469 1.188-1.078t0.781-1.359 0.469-1.375 0.25-1.547 0.078-1.453 0.016-1.469v-0.438q0-3.063-1.75-4.797t-4.844-1.734h-0.188q-2.969 0-4.563 1.688t-1.594 4.844q0 0.938 0.031 1.531t0.203 1.766 0.484 2.016 0.969 1.797 1.563 1.609v0.188q-1.969 0.281-3.563 0.844t-2.656 1.531-1.063 2.125q0 5.063 10.281 5.063 2.563 0 4.516-0.313t3.109-0.797 1.875-1.172 0.969-1.344 0.25-1.438q0-0.906-0.688-1.719t-1.813-1.344-2.188-0.859-2.125-0.547zM29.063 24q-0.406 0-0.703-0.297t-0.297-0.703q-0.031-0.375-0.922-1.047t-2.375-1.281-2.891-0.797q-0.375-0.031-0.625-0.313t-0.25-0.656v-2.094q0-0.469 0.375-0.781 1.281-1 2.125-2.953t0.844-3.891q0-1.219-0.375-2.078t-1.047-1.281-1.359-0.609-1.5-0.188q-0.406 0-0.703-0.281t-0.297-0.703 0.297-0.719 0.703-0.297q2.906 0 4.594 1.656t1.688 4.5q0 2.219-0.938 4.469t-2.406 3.625v0.781q1.531 0.313 3.094 1t2.766 1.766 1.203 2.172q0 0.406-0.297 0.703t-0.703 0.297v0z"></path>
</svg>
