<!-- Generated by IcoMoon.io -->
<svg version="1.1" xmlns="http://www.w3.org/2000/svg" width="32" height="32" viewBox="0 0 32 32">
<title>friend_add_light</title>
<path d="M24.938 11.078q0-3.703-2.656-6.359t-6.359-2.656-6.344 2.656-2.641 6.344q0 2.719 1.484 4.969t3.922 3.313q-3.094 1-5.391 3.469t-3.078 5.781q-0.063 0.25 0.078 0.469t0.453 0.281h0.125q0.563 0 0.656-0.531 0.969-3.875 3.984-6.344t6.766-2.469q3.688 0.063 6.344-2.578t2.656-6.344zM8.281 11.063q0-3.156 2.25-5.406t5.406-2.25 5.406 2.25 2.25 5.406-2.25 5.406-5.406 2.25q-3.188 0-5.422-2.25t-2.234-5.406zM28.656 24.656h-2.656v-2.656q0-0.313-0.188-0.484t-0.484-0.172-0.484 0.172-0.188 0.484v2.656h-2.656q-0.313 0-0.484 0.188t-0.172 0.484 0.172 0.484 0.484 0.188h2.656v2.656q0 0.313 0.188 0.5t0.484 0.188 0.484-0.188 0.188-0.5v-2.656h2.656q0.313 0 0.5-0.188t0.188-0.484-0.188-0.484-0.5-0.188z"></path>
</svg>
