<!-- Generated by IcoMoon.io -->
<svg version="1.1" xmlns="http://www.w3.org/2000/svg" width="32" height="32" viewBox="0 0 32 32">
<title>friendfavor</title>
<path d="M24.906 12q0-3.75-2.625-6.375t-6.375-2.625-6.375 2.625-2.625 6.375q0 2.531 1.234 4.594t3.359 3.219q-2.906 1.125-4.906 3.5t-2.594 5.5q-0.094 0.375 0.141 0.75t0.672 0.438h0.188q0.844 0 1-0.813 0.688-3.5 3.438-5.813t6.375-2.375h0.188q3.656 0 6.281-2.656t2.625-6.344zM8.906 12q0-2.938 2.031-4.969t4.953-2.031 4.969 2.031 2.047 4.969q0 2.844-2.031 4.891t-4.875 2.109h-0.313q-2.844-0.156-4.813-2.156t-1.969-4.844zM26.813 21q-1.25 0-2.219 0.813l-0.406-0.313q-1-0.5-1.875-0.5-1.344 0-2.281 0.906t-0.938 2.188q0 0.5 0.172 0.969t0.313 0.672 0.422 0.578q0 0.094 0.094 0.094l3.219 3q0.594 0.594 1.297 0.594t1.297-0.594l3.188-3.094q1-1 1-2.219 0-1.281-0.969-2.188t-2.313-0.906zM27.688 24.906l-3.094 3-3.094-3q-0.406-0.531-0.406-0.813 0-0.438 0.375-0.766t0.844-0.328q0.281 0 0.688 0.188l1.094 0.719q0.313 0.219 0.641 0.172t0.578-0.266l0.594-0.5q0.281-0.313 0.906-0.313 0.5 0 0.844 0.328t0.344 0.766q0.125 0.375-0.313 0.813z"></path>
</svg>
