<!-- Generated by IcoMoon.io -->
<svg version="1.1" xmlns="http://www.w3.org/2000/svg" width="32" height="32" viewBox="0 0 32 32">
<title>full</title>
<path d="M19.969 13q0.406 0 0.719-0.281l6.313-6.156-0.031 4.5q0 0.406 0.297 0.703t0.703 0.297v0q0.438 0 0.719-0.297t0.281-0.703l0.063-6.938q0-0.031-0.016-0.047l-0.016-0.016 0.016-0.016t0.016-0.047q0-0.406-0.297-0.703t-0.703-0.297h-7.031q-0.438 0-0.719 0.297t-0.297 0.703 0.281 0.703 0.703 0.297h4.75l-6.438 6.281q-0.313 0.281-0.313 0.703t0.281 0.703q0.313 0.313 0.719 0.313zM28 20v0q-0.406 0-0.703 0.281t-0.297 0.719v4.719l-6.281-6.438q-0.281-0.281-0.703-0.297t-0.719 0.281-0.297 0.703 0.281 0.719l6.156 6.313-4.5-0.031q-0.406 0-0.703 0.297t-0.297 0.719 0.297 0.703 0.703 0.281l6.938 0.063q0.031 0 0.047-0.016l0.016-0.016 0.016 0.016t0.047 0.016v0q0.406 0 0.703-0.297t0.297-0.703v-7.031q0-0.438-0.297-0.719t-0.703-0.281zM6.563 5l4.5 0.031q0.406 0 0.703-0.297t0.297-0.719-0.297-0.703-0.703-0.281l-6.969-0.063-0.016 0.016t-0.031 0.016-0.016-0.016-0.031-0.016v0q-0.406 0-0.703 0.297t-0.297 0.703v7.031q0 0.438 0.297 0.719t0.703 0.281v0q0.406 0 0.703-0.281t0.297-0.688v-4.75l6.281 6.438q0.281 0.313 0.719 0.313 0.406 0 0.688-0.281 0.313-0.313 0.313-0.719t-0.281-0.719zM11.313 19.281l-6.313 6.156 0.031-4.5q0-0.406-0.297-0.703t-0.703-0.297v0q-0.438 0-0.719 0.297t-0.281 0.703l-0.063 6.938q0 0.031 0.016 0.047t0.016 0.031-0.016 0.016-0.016 0.031q0 0.406 0.297 0.703t0.703 0.297h7.031q0.438 0 0.719-0.297t0.297-0.703-0.281-0.703-0.703-0.297h-4.75l6.438-6.281q0.281-0.281 0.297-0.703t-0.281-0.719-0.703-0.297-0.719 0.281z"></path>
</svg>
