<!-- Generated by IcoMoon.io -->
<svg version="1.1" xmlns="http://www.w3.org/2000/svg" width="32" height="32" viewBox="0 0 32 32">
<title>furniture</title>
<path d="M26.719 12.938q-0.125-4.313-3.219-7.297t-7.438-2.984q-4.281 0-7.375 2.984t-3.281 7.297q-1.219 0.344-1.984 1.391t-0.766 2.328q0 1.5 0.953 2.594t2.391 1.344v3.344q0 1.406 0.969 2.375t2.375 0.969v1.313q0 0.313 0.172 0.5t0.484 0.188 0.484-0.188 0.172-0.5v-1.313h10.688v1.313q0 0.313 0.172 0.5t0.484 0.188 0.484-0.188 0.172-0.5v-1.313h0.625q1.375 0 2.344-1t0.969-2.344v-3.531q1.219-0.406 1.984-1.453t0.766-2.359q0-1.188-0.734-2.203t-1.891-1.453zM16.063 4q3.688 0 6.391 2.531t2.953 6.188q-1.656 0-2.813 1.141t-1.188 2.797v6h-10.75v-6q0-1.594-1.125-2.766t-2.719-1.234q0.188-3.594 2.875-6.125t6.375-2.531zM25.875 19.344q-0.375 0.125-0.469 0.313 0 0.063-0.031 0.172t-0.031 0.172v4q0 0.844-0.594 1.422t-1.406 0.578h-14q-0.844 0-1.422-0.594t-0.578-1.406v-4q0-0.313-0.188-0.484t-0.5-0.172q-1.094 0-1.875-0.781t-0.781-1.891 0.781-1.891 1.891-0.781 1.891 0.781 0.781 1.875v6.688q0 0.281 0.172 0.469t0.484 0.188h12q0.313 0 0.484-0.188t0.172-0.469v-6.688q0-1.094 0.781-1.875t1.891-0.781 1.891 0.781 0.781 1.875q0 0.969-0.594 1.719t-1.531 0.969zM12.719 20.656h6.688q0.281 0 0.469-0.172t0.188-0.484-0.188-0.484-0.469-0.172h-6.688q-0.281 0-0.469 0.172t-0.188 0.484 0.188 0.484 0.469 0.172z"></path>
</svg>
