<!-- Generated by IcoMoon.io -->
<svg version="1.1" xmlns="http://www.w3.org/2000/svg" width="32" height="32" viewBox="0 0 32 32">
<title>game</title>
<path d="M6.406 26.969h-0.344q-1.656-0.156-2.906-1.719t-1.844-4.141-0.344-5.609q0.375-4.688 2.328-7.688t4.484-2.781q1.719 0.156 3.313 2.375 0.25 0.344 0.172 0.75t-0.406 0.656-0.734 0.172-0.656-0.391q-1.063-1.5-1.844-1.563-1.469-0.125-2.906 2.359t-1.75 6.297q-0.219 2.5 0.219 4.656t1.266 3.344 1.797 1.281q1.219 0.125 2.359-1.313t1.766-3.906q0.094-0.344 0.359-0.547t0.609-0.203h9.375q0.344 0 0.609 0.203t0.359 0.547q0.688 2.5 1.828 3.922t2.391 1.266q0.688-0.063 1.313-0.75t1.063-1.875q1.094-2.844 0.703-6.719t-2.016-6.438q-1.438-2.281-2.875-2.125-0.906 0.094-1.875 1.531-0.281 0.438-0.813 0.438h-7.406q-0.406 0-0.703-0.297t-0.297-0.703 0.297-0.703 0.703-0.297h6.875q1.406-1.781 3.031-1.938 2.5-0.281 4.547 2.719t2.516 7.625q0.438 4.344-0.813 7.625-0.656 1.75-1.703 2.766t-2.359 1.141q-1.906 0.188-3.547-1.391t-2.578-4.547h-7.875q-0.844 2.813-2.359 4.391t-3.328 1.578zM10 14h-1v-1q0-0.406-0.297-0.703t-0.703-0.297-0.703 0.297-0.297 0.703v1h-1q-0.406 0-0.703 0.297t-0.297 0.703 0.297 0.703 0.703 0.297h1v1q0 0.406 0.297 0.703t0.703 0.297 0.703-0.297 0.297-0.703v-1h1q0.406 0 0.703-0.297t0.297-0.703-0.297-0.703-0.703-0.297zM23 12q0-0.813 0.594-1.406t1.406-0.594 1.406 0.594 0.594 1.406-0.594 1.406-1.406 0.594-1.406-0.594-0.594-1.406zM19 16q0-0.813 0.594-1.406t1.406-0.594 1.406 0.594 0.594 1.406-0.594 1.406-1.406 0.594-1.406-0.594-0.594-1.406z"></path>
</svg>
