<!-- Generated by IcoMoon.io -->
<svg version="1.1" xmlns="http://www.w3.org/2000/svg" width="32" height="32" viewBox="0 0 32 32">
<title>global_light</title>
<path d="M16 2.719q-3.594 0-6.672 1.797t-4.875 4.875-1.797 6.688 1.797 6.672 4.875 4.859 6.672 1.797 6.672-1.797 4.875-4.859 1.797-6.688-1.781-6.703-4.844-4.859-6.719-1.781zM28 16.063q0 4.125-2.594 7.469-0.281-0.125-2.141-1.031t-2.141-1.031q-0.781-0.344-2.313 0.656l-3.281-3.125q-0.188-0.938 0.406-1.281 0.188-0.125 0.813 0.313t1.188 1.094q0.219 0.344 0.594 0.219 0.313-0.094 0.531-0.406 0.719-2.156-0.25-3.281-0.219-0.188-0.219-0.375 0.156-0.719 2.938-2.281 0.813-0.469 1.188-0.703t0.906-0.625 0.766-0.734 0.266-0.75q0.063-0.25-0.031-0.5t-0.938-1.016-2.5-1.859q-0.188-0.156-0.453-0.125t-0.391 0.25l-2.219 2.656-2.125-1.406 2.406-1.375q0.438-0.25 0.313-0.688-0.094-0.406-0.531-0.531l-3.781-0.781-0.75-0.406q1.625-0.281 2.406-0.281 3.219-0.031 5.969 1.547t4.359 4.344 1.609 6.047zM19.406 23.344q0.844-0.531 1.25-0.688 0.219 0.094 0.797 0.375t1.375 0.672 1.297 0.641q-2.313 2.5-4.938 3.063 0.625-1.594 0.219-4.063zM13.125 18.813q-1.188-1.875-1.891-2.703t-1.422-0.984q-0.594-0.094-1 0.219-0.469-0.125-1.234-1.938t-1.234-4.063q0.25-0.438 0.656-0.953t1.109-1.25 1.734-1.328 2.156-0.813l1.719 1h0.281l2.188 0.469-1.844 1.063q-0.344 0.219-0.344 0.531 0 0.344 0.281 0.594l3.531 2.344q0.188 0.156 0.453 0.109t0.391-0.234l2.219-2.688q1.938 1.313 2.313 1.875-0.313 0.594-2.469 1.75-0.906 0.5-1.297 0.75t-1.016 0.703-0.891 0.875-0.328 0.859q-0.125 0.75 0.469 1.469 0.344 0.25 0.344 0.875-1.656-1.406-2.813-0.75-0.5 0.344-0.766 0.906t-0.25 1.078 0.109 0.953q0 0.125 0.188 0.344l1.406 1.313q-1.063-0.25-1.219-0.25-0.469-0.5-1.531-2.125zM4 16.063q0-2.781 1.281-5.344 1.344 5.25 3 5.875 0.625 0.281 1.25-0.125 0.156 0.031 0.375 0.234t0.547 0.641 0.516 0.719 0.578 0.875 0.453 0.656q0.938 1.563 1.453 2.156t1.078 0.594q0.344 0 3.469 1.125 0.219 0.688 0.219 2.125t-0.75 2.469q-0.469 0.063-1.469 0.063-3.25-0.031-6.016-1.656t-4.375-4.391-1.609-6.016z"></path>
</svg>
