<!-- Generated by IcoMoon.io -->
<svg version="1.1" xmlns="http://www.w3.org/2000/svg" width="32" height="32" viewBox="0 0 32 32">
<title>global</title>
<path d="M30 16q0-3.781-1.875-7.016t-5.109-5.109-7.016-1.875q-3.625 0-6.906 1.813-2.063 1.094-3.5 2.875-1.469 1.656-2.531 4.375t-1.063 4.938v0q0 3.781 1.875 7.016t5.109 5.109 7.016 1.875q0.313 0 0.906-0.047t0.906-0.047h0.188q2.563-0.125 5-1.813 3.219-1.813 5.109-5.031t1.891-7.063zM28 16q0 4.438-2.813 7.688-0.469-0.25-2.156-1.047t-1.938-0.953q-0.844-0.344-2.188 0.406-0.063-0.031-0.109-0.141t-0.109-0.141l-3.281-3.219q0-0.688 0.188-0.781 0.25 0 0.75 0.391t0.844 0.891 0.906 0.313q0.5-0.125 0.813-0.594 0.094-0.219 0.219-0.766t0.047-1.422-0.578-1.438l-0.094-0.094q0.094-0.5 2.813-2 0.844-0.5 1.219-0.734t0.938-0.656 0.813-0.797 0.313-0.813q0-0.156 0.031-0.328t-0.141-0.469-0.484-0.656-1-0.938-1.688-1.297q-0.313-0.219-0.688-0.188t-0.625 0.281l-2.313 2.5-1.5-1 2-1.094q0.688-0.344 0.5-1-0.156-0.656-0.781-0.813l-3.719-0.781q0.75-0.313 1.813-0.313 3.25 0 6.016 1.609t4.375 4.375 1.609 6.016zM19.594 27.406q0.406-1.781 0-3.406 0.594-0.406 0.906-0.406 0.281 0.125 1.406 0.656t1.594 0.75q-0.594 0.75-1.813 1.5-1.031 0.594-2.094 0.906zM13.5 19.094q-0.094-0.156-0.25-0.406t-0.25-0.375q-1.188-1.906-1.969-2.797t-1.531-1.016h-0.313q-0.188 0-0.781 0.188-0.469-0.438-1.063-2.031t-1.031-3.563q0.594-0.906 1.094-1.5l0.094-0.094q0-0.031 0.031-0.063t0.078-0.063 0.078-0.063q1.406-1.156 2.125-1.625 0.5-0.281 1.688-0.688l1.688 1q0.063 0 0.156 0.047t0.156 0.047l1.406 0.313-1.094 0.594q-0.5 0.344-0.5 0.813 0 0.5 0.375 0.875l3.625 2.313q0.625 0.469 1.281-0.188l2.313-2.406q0.688 0.5 1.594 1.406-0.344 0.313-2.188 1.375-0.844 0.469-1.344 0.781t-1.094 0.766-0.906 0.938-0.375 1.016q-0.156 0.656 0.313 1.406-1.313-0.75-2.219-0.094-1.438 0.969-1.188 3.094zM4 16q0-2.438 0.906-4.406 1.25 4.375 2.906 5 0.656 0.281 1.375-0.094 0.375 0.281 1.047 1.219t1.078 1.688q0.125 0.188 0.359 0.563t0.344 0.531 0.313 0.438 0.313 0.406 0.281 0.328 0.281 0.281 0.266 0.172 0.313 0.141 0.313 0.047q1.406 0.344 3.5 1.094v0.5q0.063 0.25 0.141 0.703t0.047 1.516-0.375 1.781q-0.5 0.094-1.406 0.094-3.25 0-6.016-1.609t-4.375-4.375-1.609-6.016z"></path>
</svg>
