<!-- Generated by IcoMoon.io -->
<svg version="1.1" xmlns="http://www.w3.org/2000/svg" width="32" height="32" viewBox="0 0 32 32">
<title>goods_favor_light</title>
<path d="M28 10.594q0-0.25-0.203-0.453t-0.453-0.203h-4v-0.219q0.031-2.875-2.031-4.969t-4.969-2.094h-0.531q-2.906 0-5 2.094t-2.094 4.969v0.281h-4.063q-0.25 0-0.453 0.188t-0.203 0.469l-0.594 16.219v0.063q0.094 1.281 1.063 2.172t2.25 0.891h18.625q1.281 0 2.25-0.891t1.063-2.172v-0.063zM25.344 28.656h-18.625q-0.719 0-1.297-0.516t-0.703-1.266l0.625-15.531h3.375v4q0 0.281 0.188 0.469t0.484 0.188 0.484-0.188 0.188-0.469v-5.625q0-2.344 1.688-4.031t4.063-1.688h0.531q2.344 0 4.031 1.688t1.688 4.031v5.625q0 0.281 0.188 0.469t0.484 0.188 0.484-0.188 0.188-0.469v-4h3.313l0.625 15.531q-0.063 0.75-0.641 1.266t-1.359 0.516zM12.063 11.406h8q0.313 0 0.484-0.188t0.172-0.484-0.172-0.484-0.484-0.188h-8q-0.281 0-0.469 0.188t-0.188 0.484 0.188 0.484 0.469 0.188zM18.344 17.281q-1.219 0-2.063 0.844l-0.281 0.281-0.281-0.281q-0.844-0.844-2.063-0.844t-2.109 0.891-0.891 2.172q0 1.188 0.875 2.188l3.344 3.469q0.594 0.594 1.125 0.594t1.125-0.594l3.281-3.469q0-0.063 0.063-0.063 0-0.031 0.109-0.172t0.141-0.172 0.109-0.156 0.109-0.172 0.109-0.188 0.094-0.219 0.078-0.219 0.078-0.266 0.031-0.266 0.016-0.297q0-1.313-0.875-2.188t-2.125-0.875zM19.469 21.594l-3.281 3.406-0.188 0.188q-0.094 0-0.188-0.188l-3.281-3.406q-0.531-0.531-0.531-1.25t0.484-1.234 1.172-0.516q0.563 0 1.156 0.469l0.719 0.75q0.188 0.188 0.469 0.188t0.469-0.188q0.594-0.688 0.719-0.75 0.469-0.469 1.156-0.469t1.172 0.516 0.484 1.234q0 0.625-0.531 1.25z"></path>
</svg>
