<!-- Generated by IcoMoon.io -->
<svg version="1.1" xmlns="http://www.w3.org/2000/svg" width="32" height="32" viewBox="0 0 32 32">
<title>goods</title>
<path d="M29.188 9q0-0.375-0.297-0.641t-0.703-0.266h-4.281q-0.625-2.563-2.719-4.234t-4.781-1.672h-0.594q-2.688 0-4.797 1.672t-2.703 4.234h-4.313q-0.438-0.063-0.719 0.188t-0.281 0.719l-0.906 17.313v0.094q0.156 1.563 1.281 2.578t2.625 1.016h20.313q1.5 0 2.609-1.047t1.172-2.547v-0.094zM26.188 28h-20.188q-0.688 0-1.203-0.484t-0.609-1.203l0.719-16.313h3.188v4.188q-0.438 0.25-0.719 0.719t-0.281 1q0 0.813 0.594 1.406t1.422 0.594 1.406-0.594 0.578-1.406q0-0.531-0.266-1t-0.734-0.719v-4.375q0-2.406 1.688-4.063t4.031-1.656h0.594q2.375 0 4.031 1.688t1.656 4.031v4.5q-0.438 0.219-0.719 0.688t-0.281 1q0 0.813 0.594 1.406t1.422 0.594 1.406-0.594 0.578-1.406q0-0.531-0.266-1t-0.734-0.688v-4.313h3.094l0.813 16.313q0 0.719-0.516 1.203t-1.297 0.484zM19.094 8h-6q-0.438 0-0.719 0.281t-0.281 0.719 0.281 0.719 0.719 0.281h6q0.469 0 0.734-0.281t0.266-0.719-0.266-0.719-0.734-0.281z"></path>
</svg>
