<!-- Generated by IcoMoon.io -->
<svg version="1.1" xmlns="http://www.w3.org/2000/svg" width="32" height="32" viewBox="0 0 32 32">
<title>goods_new_fill_light</title>
<path d="M28.063 10.594q0-0.25-0.203-0.453t-0.453-0.203h-4v-0.281q-0.063-2.906-2.125-4.953t-5-2.047h-0.563q-2.906 0-4.984 2.063t-2.078 5v0.281h-4q-0.25 0-0.453 0.188t-0.203 0.469l-0.531 16.219v0.063q0.094 1.281 1.063 2.172t2.281 0.891h18.594q1.281 0 2.25-0.891t1.063-2.172v-0.063zM10 9.719q0-2.375 1.688-4.047t4.031-1.672h0.563q2.344 0 4.031 1.688t1.688 4.031v0.281h-12v-0.281zM9.344 15.938q-0.313 0-0.5-0.188t-0.188-0.469v-3.344q0-0.313 0.188-0.484t0.484-0.172 0.484 0.172 0.188 0.484v3.344q0 0.25-0.188 0.453t-0.469 0.203zM21.938 18.938l-3.125 5.938q-0.25 0.313-0.531 0.313-0.438 0-0.625-0.25l-3.781-5.125-2.688 5.063q-0.219 0.313-0.594 0.313-0.188 0-0.313-0.063-0.281-0.156-0.359-0.406t0.078-0.438l3.125-6q0.219-0.344 0.531-0.344 0.438 0 0.625 0.25l3.781 5.156 2.594-5q0.156-0.25 0.422-0.344t0.453 0.063q0.344 0.156 0.438 0.422t-0.031 0.453zM23.344 15.281q0 0.281-0.188 0.469t-0.484 0.188-0.484-0.188-0.188-0.469v-3.344q0-0.313 0.188-0.484t0.484-0.172 0.484 0.172 0.188 0.484v3.344z"></path>
</svg>
