<!-- Generated by IcoMoon.io -->
<svg version="1.1" xmlns="http://www.w3.org/2000/svg" width="32" height="32" viewBox="0 0 32 32">
<title>goods_new_light</title>
<path d="M28.063 10.656q0-0.25-0.203-0.453t-0.453-0.203h-4v-0.281q-0.063-2.938-2.141-5t-4.984-2.063h-0.563q-2.906 0-4.984 2.063t-2.078 5v0.281h-4q-0.25 0-0.453 0.188t-0.203 0.469l-0.594 16.219v0.063q0.094 1.281 1.063 2.172t2.25 0.891h18.625q1.281 0 2.25-0.891t1.063-2.172v-0.063zM25.344 28.656h-18.625q-0.719 0-1.297-0.516t-0.703-1.266l0.625-15.531h3.313v4q0 0.281 0.188 0.469t0.484 0.188 0.484-0.188 0.188-0.469v-5.625q0-2.375 1.688-4.047t4.031-1.672h0.563q2.344 0 4.031 1.688t1.688 4.031v5.625q0 0.281 0.188 0.469t0.484 0.188 0.484-0.188 0.188-0.469v-4h3.375l0.625 15.531q-0.063 0.75-0.641 1.266t-1.359 0.516zM12.063 11.344h8q0.313 0 0.484-0.188t0.172-0.484-0.172-0.484-0.484-0.188h-8q-0.281 0-0.469 0.188t-0.188 0.484 0.188 0.484 0.469 0.188zM21.656 18.125q-0.25-0.125-0.5-0.047t-0.344 0.328l-2.625 5-3.781-5.125q-0.281-0.281-0.688-0.281-0.281 0-0.531 0.344l-3.125 6q-0.156 0.25-0.063 0.5t0.344 0.344q0.125 0.156 0.313 0.156 0.375 0 0.625-0.344l2.656-5.063 3.781 5.125q0.188 0.281 0.625 0.281 0.313 0 0.531-0.344l3.125-5.938q0.125-0.594-0.344-0.938z"></path>
</svg>
