<!-- Generated by IcoMoon.io -->
<svg version="1.1" xmlns="http://www.w3.org/2000/svg" width="32" height="32" viewBox="0 0 32 32">
<title>goodsfill</title>
<path d="M28.375 12q-0.844-1-2.094-1h-20.563q-1.25 0-2.094 1-0.813 0.969-0.594 2.281l2.156 12.938q0.219 1.188 1.188 1.984t2.188 0.797h14.875q1.219 0 2.203-0.797t1.172-1.984l2.156-12.969q0.219-1.281-0.594-2.25zM9.953 19.125q-0.828 0-1.422-0.578t-0.594-1.406 0.594-1.422 1.422-0.594 1.406 0.594 0.578 1.422-0.578 1.406-1.406 0.578zM22.016 19.125q-0.828 0-1.422-0.578t-0.594-1.406 0.594-1.422 1.422-0.594 1.406 0.594 0.578 1.422-0.578 1.406-1.406 0.578zM23 10.063q-0.406 0-0.703-0.297t-0.297-0.703q0-2.063-1.906-3.531t-4.156-1.469q-2.344 0-4.141 1.375t-1.797 3.594q0 0.406-0.297 0.703t-0.703 0.297-0.703-0.297-0.297-0.703q0-2.094 1.188-3.719t2.969-2.438 3.781-0.813q1.938 0 3.781 0.859t3.063 2.5 1.219 3.641q0 0.406-0.297 0.703t-0.703 0.297z"></path>
</svg>
