<!-- Generated by IcoMoon.io -->
<svg version="1.1" xmlns="http://www.w3.org/2000/svg" width="32" height="32" viewBox="0 0 32 32">
<title>goods_light</title>
<path d="M28 10.656q0-0.25-0.203-0.453t-0.453-0.203h-4v-0.281q0-2.906-2.063-4.984t-5-2.078h-0.563q-2.875 0-4.969 2.094t-2.094 4.969v0.281h-4q-0.25 0-0.453 0.188t-0.203 0.469l-0.594 16.219v0.063q0.094 1.281 1.063 2.172t2.25 0.891h18.625q1.281 0 2.25-0.891t1.063-2.172v-0.063zM25.344 28.719h-18.625q-0.719 0-1.297-0.516t-0.703-1.266l0.625-15.594h3.313v3.531q-0.656 0.313-0.656 1.125 0 0.563 0.391 0.953t0.938 0.391 0.938-0.391 0.391-0.953q0-0.813-0.656-1.125v-5.156q0-2.344 1.688-4.031t4.031-1.688h0.563q2.344 0 4.031 1.688t1.688 4.031v5.156q-0.656 0.438-0.656 1.125 0 0.563 0.391 0.953t0.938 0.391 0.938-0.391 0.391-0.953q0-0.813-0.656-1.125v-3.531h3.313l0.688 15.531q-0.125 0.781-0.688 1.313t-1.313 0.531zM20 10h-8q-0.313 0-0.484 0.188t-0.172 0.484 0.172 0.484 0.484 0.188h8q0.313 0 0.484-0.188t0.172-0.484-0.172-0.484-0.484-0.188z"></path>
</svg>
