<!-- Generated by IcoMoon.io -->
<svg version="1.1" xmlns="http://www.w3.org/2000/svg" width="32" height="32" viewBox="0 0 32 32">
<title>goodsfavor</title>
<path d="M28.406 10q0-0.375-0.313-0.688t-0.688-0.313h-4.406q-0.156-2.938-2.078-4.969t-4.609-2.031h-0.5q-2.688 0-4.625 2.031t-2.094 4.969h-4.5q-0.375 0-0.688 0.281t-0.313 0.719l-0.594 16.5v0.094q0.156 1.438 1.219 2.422t2.469 0.984h18.719q1.406 0 2.469-0.984t1.219-2.422v-0.094zM25.313 28h-18.625q-0.656 0-1.141-0.438t-0.547-1.063l0.594-15.5h3.406v3q0 0.438 0.281 0.719t0.719 0.281 0.719-0.281 0.281-0.719v-4.5q0-2.25 1.391-3.828t3.422-1.578h0.5q1.938 0 3.359 1.578t1.422 3.828v4.594q0 0.469 0.281 0.734t0.734 0.266 0.719-0.266 0.266-0.734v-3h3.406l0.5 15.406q-0.063 0.656-0.547 1.078t-1.141 0.422v0zM13 11h6q0.438 0 0.719-0.281t0.281-0.719-0.281-0.719-0.719-0.281h-6q-0.438 0-0.719 0.281t-0.281 0.719 0.297 0.719 0.703 0.281zM18.5 17q-1.344 0-2.406 0.906l-0.094 0.094-0.094-0.094q-1.063-0.906-2.406-0.906-1.438 0-2.469 0.984t-1.031 2.422q0 1.281 1.094 2.406l3.5 3.375q0.656 0.813 1.406 0.813 0.688 0 1.406-0.688l3.594-3.5q0.344-0.406 0.5-0.656t0.328-0.719 0.172-1.031q0-1.438-1.031-2.422t-2.469-0.984zM19.5 21.406l-3.5 3.406-3.5-3.406q-0.219-0.219-0.359-0.5t-0.141-0.5q0-0.594 0.438-1t1.063-0.406q0.719 0 1 0.406l0.813 0.688q0.281 0.313 0.688 0.313t0.688-0.313q0.719-0.594 0.813-0.688 0.406-0.406 1-0.406 0.625 0 1.063 0.406t0.438 1q0 0.5-0.5 1z"></path>
</svg>
