<!-- Generated by IcoMoon.io -->
<svg version="1.1" xmlns="http://www.w3.org/2000/svg" width="32" height="32" viewBox="0 0 32 32">
<title>goodsnew</title>
<path d="M25.406 30h-18.594q-1.438 0-2.5-0.984t-1.219-2.422v-0.094l0.594-16.594q0-0.375 0.313-0.688t0.688-0.313h4q0.469 0 0.734 0.266t0.266 0.719-0.266 0.734-0.734 0.281h-3l-0.594 15.5q0.094 0.688 0.563 1.141t1.156 0.453h18.594q0.656 0 1.141-0.438t0.547-1.063l-0.688-15.5h-3.094q-0.469 0-0.734-0.281t-0.266-0.719 0.266-0.719 0.734-0.281h4q0.375 0 0.688 0.281t0.313 0.719l0.688 16.406v0.094q-0.063 1.5-1.109 2.5t-2.484 1zM19.094 10.906h-6q-0.438 0-0.719-0.281t-0.281-0.734 0.281-0.719 0.719-0.266h6q0.469 0 0.734 0.266t0.266 0.734q0 0.438-0.297 0.719t-0.703 0.281zM23 14.906q-0.438 0-0.719-0.281t-0.281-0.719v-4.5q0-2.25-1.688-3.828t-4-1.578h-0.625q-2.313 0-4 1.578t-1.688 3.828v4.5q0 0.438-0.281 0.719t-0.719 0.281-0.719-0.281-0.281-0.719v-4.5q0-3.063 2.266-5.234t5.422-2.172h0.625q3.219 0 5.453 2.156t2.234 5.25v4.5q0 0.375-0.281 0.688t-0.719 0.313zM18.313 25q-0.531 0-0.813-0.406l-3.5-4.594-2 4.406q-0.156 0.375-0.547 0.516t-0.766-0.016q-0.344-0.156-0.5-0.547t0-0.766l2.719-5.906q0.125-0.375 0.781-0.594 0.656 0 0.906 0.406l3.5 4.688 2.094-4.5q0.156-0.344 0.547-0.5t0.766 0 0.516 0.547-0.016 0.766l-2.813 6q-0.313 0.5-0.781 0.5h-0.094z"></path>
</svg>
