<!-- Generated by IcoMoon.io -->
<svg version="1.1" xmlns="http://www.w3.org/2000/svg" width="32" height="32" viewBox="0 0 32 32">
<title>group_light</title>
<path d="M19 19.344q1.656-0.813 2.656-2.406t1-3.531q0-2.75-1.953-4.719t-4.703-1.969-4.703 1.969-1.953 4.719q0 1.906 1.016 3.516t2.641 2.422q-2.125 0.75-3.672 2.5t-1.984 4.031q-0.063 0.25 0.094 0.5t0.438 0.281h0.125q0.563 0 0.656-0.531 0.563-2.594 2.625-4.297t4.719-1.703 4.719 1.703 2.625 4.297q0.031 0.281 0.266 0.438t0.516 0.094q0.281-0.031 0.438-0.266t0.094-0.516q-0.438-2.281-1.953-4t-3.703-2.531zM10.719 13.406q0-2.219 1.578-3.781t3.781-1.563 3.766 1.563 1.563 3.766-1.563 3.766-3.781 1.563-3.781-1.547-1.563-3.766zM8.063 15.406q0-0.563-0.531-0.688-0.688-0.156-1.172-0.578t-0.703-0.969-0.297-1.047-0.078-1q0-1.594 0.969-2.656t2.406-1.063q0.313 0 0.5-0.188t0.188-0.484-0.188-0.484-0.5-0.188q-2.031 0-3.375 1.453t-1.344 3.609q0 2.844 1.781 4.219-1.406 0.594-2.375 1.781t-1.281 2.813q-0.063 0.25 0.094 0.5t0.438 0.281h0.125q0.563 0 0.688-0.531 0.344-1.656 1.422-2.703t2.703-1.297q0.25-0.031 0.422-0.266t0.109-0.516zM30.063 19.938q-0.344-1.625-1.297-2.813t-2.359-1.781q1.781-1.375 1.781-4.219 0-2.125-1.359-3.594t-3.359-1.469q-0.313 0-0.484 0.188t-0.172 0.484 0.172 0.484 0.484 0.188q1.5 0 2.453 1.063t0.953 2.656q0 3.094-2.281 3.594-0.469 0.094-0.469 0.688v0.063q-0.031 0.25 0.125 0.484t0.406 0.234q1.656 0.25 2.719 1.297t1.438 2.703q0.094 0.531 0.656 0.531h0.125q0.219-0.031 0.375-0.281t0.094-0.5z"></path>
</svg>
