<!-- Generated by IcoMoon.io -->
<svg version="1.1" xmlns="http://www.w3.org/2000/svg" width="32" height="32" viewBox="0 0 32 32">
<title>group</title>
<path d="M19.406 19.094q1.594-0.906 2.594-2.547t1-3.547q0-2.938-2.031-4.969t-4.969-2.031-4.969 2.031-2.031 4.969q0 1.938 0.969 3.563t2.625 2.531q-2.094 0.844-3.578 2.594t-2.016 4q-0.094 0.406 0.141 0.766t0.672 0.453h0.188q0.844 0 1-0.813 0.531-2.469 2.5-4.078t4.5-1.609 4.5 1.609 2.5 4.078q0.063 0.406 0.406 0.641t0.781 0.172q0.406-0.094 0.641-0.438t0.172-0.781q-0.531-2.25-2.016-4t-3.578-2.594zM11 13q0-2.094 1.453-3.547t3.547-1.453 3.547 1.453 1.453 3.547-1.453 3.547-3.547 1.453-3.547-1.453-1.453-3.547zM31 19.688q-0.625-3.094-3.688-4.5 1.688-1.531 1.688-4 0-2.156-1.453-3.672t-3.547-1.516q-0.438 0-0.719 0.281t-0.281 0.719 0.281 0.719 0.719 0.281q1.281 0 2.141 0.922t0.859 2.266q0 1.219-0.625 2.047t-1.688 1.078q-0.375 0.063-0.609 0.438t-0.078 0.75q0 0.375 0.219 0.641t0.594 0.266q1.656 0.281 2.719 1.234t1.375 2.359q0.156 0.813 1 0.813h0.188q0.469 0 0.719-0.328t0.188-0.797zM7.906 15.594q0.125-0.406-0.094-0.766t-0.625-0.516q-0.969-0.25-1.578-1.094t-0.609-2.031q0.063-1.375 0.906-2.281t2.094-0.906q0.438 0 0.719-0.281t0.281-0.719-0.297-0.719-0.703-0.281q-2.094 0-3.5 1.484t-1.406 3.703q0 2.406 1.594 4-1.438 0.688-2.422 1.859t-1.266 2.641q-0.094 0.406 0.141 0.766t0.672 0.453h0.188q0.844 0 1-0.813 0.313-1.406 1.375-2.344t2.719-1.25q0.375 0 0.594-0.25t0.219-0.656z"></path>
</svg>
