<!-- Generated by IcoMoon.io -->
<svg version="1.1" xmlns="http://www.w3.org/2000/svg" width="32" height="32" viewBox="0 0 32 32">
<title>group_fill_light</title>
<path d="M19 19.281q1.656-0.813 2.656-2.422t1-3.516q0-2.75-1.953-4.719t-4.703-1.969-4.703 1.969-1.953 4.719q0 1.906 1.016 3.5t2.641 2.438q-2.125 0.75-3.672 2.5t-1.984 4.031q-0.125 0.281 0.125 0.531t0.531 0.25h16q0.344 0 0.531-0.25 0.25-0.25 0.125-0.531-0.438-2.281-1.953-4t-3.703-2.531zM8.063 15.344q0-0.563-0.531-0.688-0.688-0.156-1.172-0.578t-0.703-0.984-0.297-1.047-0.078-0.984q0-1.594 0.969-2.656t2.406-1.063q0.313 0 0.5-0.188t0.188-0.484-0.188-0.484-0.5-0.188q-2 0-3.359 1.438t-1.359 3.625q0 2.813 1.781 4.219-1.406 0.594-2.375 1.781t-1.281 2.813q-0.063 0.25 0.094 0.5t0.438 0.281h0.125q0.563 0 0.688-0.531 0.344-1.656 1.422-2.703t2.703-1.297q0.25-0.031 0.422-0.266t0.109-0.516zM30.063 19.938q-0.344-1.625-1.297-2.813t-2.359-1.781q1.781-1.375 1.781-4.219 0-2.125-1.359-3.594t-3.359-1.469q-0.313 0-0.484 0.188t-0.172 0.484 0.172 0.484 0.484 0.188q1.5 0 2.453 1.063t0.953 2.656q0 3.094-2.281 3.594-0.469 0.094-0.469 0.688v0.063q-0.031 0.25 0.125 0.484t0.406 0.234q1.656 0.25 2.719 1.297t1.438 2.703q0.094 0.531 0.656 0.531h0.125q0.594-0.219 0.469-0.781z"></path>
</svg>
