<!-- Generated by IcoMoon.io -->
<svg version="1.1" xmlns="http://www.w3.org/2000/svg" width="32" height="32" viewBox="0 0 32 32">
<title>haodian</title>
<path d="M4.438 15.906h1.063q-0.063-0.313-0.219-0.625-0.063-0.063-0.141-0.109t-0.141-0.078h-1.031q0.125 0.25 0.25 0.656 0.031 0.094 0.078 0.125t0.109 0.031h0.031zM5.156 17.281h-0.938q0.125 0.25 0.25 0.656 0 0.094 0.063 0.125t0.094 0.031h1.125q-0.063-0.281-0.219-0.625zM22.406 14.813q0.5-0.344 1.125-1.375l0.063-0.094v-0.406h-4.281v-0.375h-1.063v0.344h-0.813v-0.344h-1.063v0.344h-0.375v0.719h0.375v1.875q-0.031 1.125 0.078 1.734t0.453 0.953l0.063 0.094-0.031 0.063q-0.219 0.344-1.094 0.656v0.531q0.875-0.219 1.688-0.781 0.156-0.125 0.25-0.156l0.063-0.031 0.063 0.031q0.875 0.656 1.906 0.938v-0.5q-0.75-0.25-1.031-0.688l-0.063-0.063 0.063-0.063q0.563-0.625 0.531-2.719v-1.906h3.031q-0.438 0.656-0.969 0.969-0.031 0.031-0.094 0.063t-0.094 0.063v0.75h-1.594v0.656h1.594v2.344q0.031 0.281-0.125 0.438t-0.469 0.156h-0.406v0.531h1.313q0.5 0 0.719-0.234t0.188-0.703v-2.531h1.344v-0.656h-1.344v-0.625zM17.906 17.844l-0.094 0.156-0.094-0.156q-0.313-0.5-0.281-2.063v-2.156h0.813v2.094q0.031 1.625-0.344 2.125zM25.719 15.781v-2.25h5.281v-0.594h-2.438v-0.594h-1.344v0.594h-2.75v3q0.031 1.438-0.094 2.141t-0.5 0.891v0.656q1.188-0.344 1.594-1.813l0.219 0.031v1.563h4.188q0.5 0 0.719-0.219 0.188-0.219 0.188-0.625v-2.125h-2.219v-1.063h2.406v-0.625h-2.406v-0.813h-1.188v2.531h-1.688l0.031-0.125v-0.563zM29.344 17v1.281q0.031 0.281-0.125 0.438-0.125 0.156-0.438 0.156h-1.875v-1.313l0.031-0.094q0.031-0.219 0.172-0.344t0.266-0.125h1.969zM9.125 19.438h5.125q0.531 0 0.781-0.25t0.219-0.781v-5.531h-6.125v6.563zM10.438 16.531h3.031v-0.719h-3.031v-1.781q0.063-0.406 0.406-0.438h3.125v4.375q0 0.75-0.75 0.75h-2.781v-2.188zM3.625 12.938q0.25-0.406 0.344-0.688h-1.281q-0.313 1.188-1.688 1.594v0 0 0.75q0.219 0.031 0.563-0.063v3.625q0 0.531 0.234 0.766t0.734 0.234h4.344v0.594h1.313v-5.188q0-0.219-0.188-0.406-0.063-0.063-0.156-0.094l-0.188-0.063h-4.719l0.406-0.406h4.906v-0.656h-4.625zM6.281 14.625h0.125q0.156 0.031 0.266 0.094t0.141 0.141 0.047 0.156 0.016 0.141v3.344h-3.344q-0.313 0-0.5-0.188t-0.156-0.594v-0.813h3.5v-0.656h-3.5v-1.625h3.406z"></path>
</svg>
