<!-- Generated by IcoMoon.io -->
<svg version="1.1" xmlns="http://www.w3.org/2000/svg" width="32" height="32" viewBox="0 0 32 32">
<title>home</title>
<path d="M3 15q-0.531 0-0.813-0.406-0.281-0.313-0.234-0.734t0.359-0.672l11.781-9.688q0.844-0.594 1.906-0.594t1.813 0.594l11.781 9.594q0.313 0.25 0.359 0.672t-0.266 0.734-0.688 0.344-0.688-0.25l-11.719-9.406q-0.219-0.125-0.594-0.125t-0.594 0.125l-11.813 9.625q-0.188 0.188-0.594 0.188zM25.5 29h-6.5q-0.438 0-0.719-0.281t-0.281-0.719v-4.688q0-0.531-0.703-0.969t-1.391-0.438q-0.719 0-1.359 0.406t-0.641 1v4.688q0 0.438-0.281 0.719t-0.719 0.281h-6.313q-1.125 0-1.859-0.719t-0.734-1.781v-9.5q0-0.438 0.281-0.719t0.719-0.281 0.719 0.281 0.281 0.719v9.5q0 0.5 0.594 0.5h5.406v-3.688q0-1.438 1.25-2.422t2.75-0.984 2.797 0.984 1.297 2.422v3.688h5.5q0.188 0 0.281-0.016t0.156-0.156 0.063-0.422v-9.406q0-0.438 0.281-0.719t0.734-0.281 0.719 0.281 0.266 0.719v9.5q-0.063 1.125-0.766 1.813t-1.828 0.688z"></path>
</svg>
