<!-- Generated by IcoMoon.io -->
<svg version="1.1" xmlns="http://www.w3.org/2000/svg" width="32" height="32" viewBox="0 0 32 32">
<title>home_light</title>
<path d="M29.719 13.313l-12.063-9.594q-0.688-0.563-1.656-0.563t-1.656 0.563l-12.063 9.594q-0.219 0.156-0.266 0.438t0.109 0.484 0.453 0.25 0.484-0.109l12.063-9.656q0.344-0.25 0.859-0.25t0.828 0.25l12.063 9.594q0.188 0.125 0.469 0.125 0.344 0 0.531-0.25 0.156-0.188 0.125-0.453t-0.281-0.422zM27.344 15.781q-0.313 0-0.5 0.188t-0.188 0.469v9.75q0 0.938-0.844 0.938h-6.406v-4.156q0-1.344-0.953-2.266t-2.328-0.922h-0.125q-1.344 0-2.313 0.953t-0.969 2.234v4.156h-6.375q-0.469 0-0.734-0.25t-0.266-0.688v-9.75q0-0.281-0.188-0.469t-0.484-0.188-0.484 0.188-0.188 0.469v9.75q0 0.969 0.656 1.609t1.688 0.641h7.063q0.281 0 0.469-0.188t0.188-0.469v-4.813q0-0.75 0.578-1.297t1.359-0.547h0.125q0.813 0 1.375 0.547t0.563 1.297v4.813q0 0.281 0.188 0.469t0.469 0.188h7.094q0.969 0 1.578-0.625t0.609-1.625v-9.75q0-0.25-0.188-0.453t-0.469-0.203z"></path>
</svg>
