<!-- Generated by IcoMoon.io -->
<svg version="1.1" xmlns="http://www.w3.org/2000/svg" width="32" height="32" viewBox="0 0 32 32">
<title>home_fill_light</title>
<path d="M29.719 13.469l-12.063-9.531q-0.688-0.563-1.656-0.563t-1.656 0.563l-12.063 9.531q-0.406 0.375-0.219 0.719 0.25 0.469 0.594 0.469h1.406v11.75q0 1 0.672 1.625t1.672 0.625h7q0.281 0 0.469-0.172t0.188-0.484v-4.813q0-0.75 0.578-1.297t1.359-0.547h0.125q0.813 0 1.375 0.547t0.563 1.297v4.813q0 0.313 0.188 0.484t0.469 0.172h7.094q0.969 0 1.578-0.625t0.609-1.625v-11.75h1.344q0.469 0 0.594-0.469t-0.219-0.719z"></path>
</svg>
