<!-- Generated by IcoMoon.io -->
<svg version="1.1" xmlns="http://www.w3.org/2000/svg" width="32" height="32" viewBox="0 0 32 32">
<title>hot</title>
<path d="M22.688 6.313q-0.563-0.438-1.188 0-0.594 0.594-0.313 1.188 0.219 0.406 0.406 1.406-0.375-0.906-0.844-1.75t-0.938-1.484-0.969-1.219-0.953-1-0.922-0.781-0.844-0.594-0.75-0.438-0.594-0.297-0.406-0.172l-0.188-0.078q-0.5-0.156-0.875 0.219-0.5 0.313-0.313 0.875 0.594 4.031-3.594 9.719-0.313-1.281-1-2.5-0.531-0.531-1.094-0.406-0.813 0.156-0.813 0.906-0.094 1.594-1.594 4.406-1.375 2.531-1.719 4.188-0.75 3.594 0.922 6.344t6.078 5.156q0.219 0.094 0.5 0.094 0.406 0 0.813-0.406 0.219-0.344 0.141-0.75t-0.453-0.625l-0.094-0.125q-2.156-1.188-3.516-2.359t-1.953-2.281-0.719-2.266 0.188-2.375q0.125-0.469 0.313-1t0.313-0.813 0.453-0.984 0.422-0.922q0.594-0.875 0.906-1.781 0 0.156 0.047 0.5t0.047 0.5q0 0.281 0.203 0.547t0.516 0.359q0.625 0.156 1.094-0.313 5.313-6.375 5.594-11.406 0.688 0.438 1.391 1.063t1.516 1.625 1.563 2.5 1.219 3.313q0.219 0.594 0.719 0.719 0.531 0.156 0.906-0.219 1.125-0.969 1.281-2.688 1.531 1.875 2.531 4.234t0.875 4.766q-0.281 4.25-4.688 7.594 0.844-3.969-0.688-7.984t-4.938-6.328q-0.406-0.281-1-0.094-0.5 0.344-0.5 0.906-0.031 1-0.25 1.844t-0.734 1.734-0.781 1.266-1.016 1.344q-0.75 0.938-1.125 1.469t-0.781 1.438-0.5 1.813q0 0.375 0.266 0.703t0.641 0.391q0.406 0.063 0.703-0.219t0.391-0.688q0.031-0.594 0.391-1.313t0.578-1.031 0.938-1.25 1.156-1.563 1-1.719 0.844-2.219q2.719 2.563 3.469 6.5t-0.875 7.094v0.094q0 0.125-0.094 0.219v0.406q0 0.094 0.094 0.188v0.094l0.094 0.094q0 0.063 0.047 0.109t0.047 0.109q0.125 0.094 0.219 0.094l0.094 0.094q0.094 0 0.094 0.094h0.594q0.219 0 0.313-0.094 3.844-2.094 5.891-4.828t2.203-5.953q0.094-1.906-0.438-3.859t-1.359-3.438-1.797-2.766-1.688-1.984-1.125-0.953z"></path>
</svg>
