<!-- Generated by IcoMoon.io -->
<svg version="1.1" xmlns="http://www.w3.org/2000/svg" width="32" height="32" viewBox="0 0 32 32">
<title>hot_light</title>
<path d="M22.531 6.531q-0.375-0.281-0.813 0-0.406 0.344-0.188 0.813 0.313 0.594 0.391 1.438t-0.109 1.625q-0.719-2.063-1.766-3.75t-1.953-2.594-1.938-1.609-1.422-0.859-0.672-0.25q-0.344-0.125-0.594 0.125-0.344 0.219-0.188 0.594 0.688 4.375-4.094 10.656-0.188-1.656-1.063-3.125-0.219-0.438-0.719-0.313-0.219 0.031-0.375 0.219t-0.156 0.375q-0.156 1.75-1.594 4.531-1.281 2.438-1.688 4.125-0.75 3.563 0.859 6.219t6.016 5.125q0.063 0.125 0.25 0.125 0.406 0 0.625-0.344 0.125-0.25 0.063-0.5t-0.281-0.438h-0.063q-2.25-1.219-3.656-2.469t-2.016-2.422-0.734-2.438 0.219-2.516q0.25-1.219 1.531-3.813 0.938-1.875 1.25-2.781 0.156 0.875 0.281 2.25 0 0.5 0.469 0.594 0.406 0.125 0.719-0.188 5.563-6.781 5.469-11.875 0.75 0.406 1.484 1.016t1.688 1.672 1.797 2.734 1.375 3.703q0.125 0.406 0.469 0.469 0.313 0.125 0.656-0.125 1.281-1.188 1.281-3.406 1.031 1.25 1.891 2.609t1.563 3.438 0.609 4.016q-0.313 4.969-5.594 8.469 1.188-3.969-0.25-8.266t-4.906-6.734q-0.344-0.219-0.719 0.016t-0.281 0.672q0.188 0.875-0.016 2.375t-0.828 2.813q-0.125-0.594-0.344-1.125t-0.375-0.797l-0.156-0.266q-0.188-0.281-0.656-0.281-0.469 0.125-0.469 0.531-0.063 0.25-0.172 0.656t-0.578 1.516-1.125 2.047q-1.594 2.375-1.656 4.313 0 0.313 0.172 0.5t0.484 0.188q0.281 0.031 0.469-0.172t0.188-0.516q0.094-1.625 1.469-3.656 0.781-1.063 1.531-2.875 0.156 1.156 0 1.938-0.125 0.5 0.344 0.75 0.438 0.219 0.781-0.156 1.219-1.344 1.828-3.141t0.641-3.453q2.938 2.688 3.766 6.766t-0.953 7.516v0.063q0 0.063-0.063 0.125v0.281q0 0.063 0.063 0.125v0.063l0.063 0.063q0 0.031 0.031 0.063t0.031 0.063q0.063 0.063 0.156 0.063l0.063 0.094q0.063 0 0.125 0.063h0.344q0.125 0 0.188-0.063 7.625-4.219 7.938-10.625 0-1.781-0.563-3.672t-1.375-3.328-1.766-2.703-1.641-1.969-1.063-0.984z"></path>
</svg>
