<!-- Generated by IcoMoon.io -->
<svg version="1.1" xmlns="http://www.w3.org/2000/svg" width="32" height="32" viewBox="0 0 32 32">
<title>hotfill</title>
<path d="M23.656 6.25q-0.5-0.438-1.109-0.141t-0.547 0.984q0.156 1.875-0.031 3.5-0.719-1.156-1.844-2.453t-2.109-2.234-2.109-1.875-1.578-1.281-0.734-0.563q-0.531-0.375-1.094-0.047t-0.5 0.953q0.031 0.25 0.078 0.797t0.094 1.922 0 2.703-0.281 2.953-0.641 2.844q-0.813-1.563-1.688-2.156-1.469-0.969-4.5-1.156-0.656-0.031-0.969 0.594-0.281 0.594 0.188 1.094 0.063 0.063 0.203 0.25t0.422 0.75 0.5 1.281 0.406 1.938 0.188 2.594q0 0.125 0.031 0.219 0.188 2.75 1.641 5.281t3.766 3.875q0.219 0.125 0.5 0.125v0h0.031q0.406 0 0.703-0.281t0.297-0.719q0-0.219-0.125-0.438-0.188-0.75-0.188-1.906v-0.125q-0.063-1.313-0.344-2.406 0.375 0.25 1.141 0.906t0.859 0.719q0.313 0.25 0.75 0.188t0.688-0.438q1.281-1.906 0.625-6.969 6.625 4.438 6.531 7.813 0 0.219-0.031 0.531-0.063 0.688 0.563 0.984t1.125-0.172q3.438-3.281 3.438-7.656 0.063-2.406-0.359-4.609t-1-3.547-1.328-2.516-1.078-1.531-0.578-0.578z"></path>
</svg>
