<!-- Generated by IcoMoon.io -->
<svg version="1.1" xmlns="http://www.w3.org/2000/svg" width="32" height="32" viewBox="0 0 32 32">
<title>hua</title>
<path d="M30 21.688q0.031-0.656 0.031-8.422t-0.031-8.297h-4.375v18.844q-0.063 2.188-3 2.219-0.469 1.063-0.906 1.938 0.781 0.125 2 0.156t2.813-0.234 2.375-0.891q0.281-0.25 0.469-0.531t0.313-0.688 0.188-0.672 0.094-0.844 0.047-0.797 0-0.922-0.016-0.859zM13.594 24.594q1.5-1.469 2-3.563 0.156-0.625 0.422-2.422t0.469-3.25 0.203-1.484h-4.156q0 2.875-0.281 5.75-0.125 1.438-0.781 2.594-0.781-1.563-0.719-3.594 0.063-1.688 0-5.781 3.531-0.438 7.281-0.531v-1.969q-3.344 0.031-7.313 0.219l-0.125-5.281-4.5-0.031 0.125 5.563q-2.438 0.219-4.188 0.469l1.219 3q1.063-0.313 3.031-0.719l0.094 4.531q0 0.156 0.016 0.438t0.141 1.109 0.328 1.594 0.641 1.766 1.031 1.813q-1.688 0.813-4.156 1.219l1.063 2.125q3-0.563 5.125-1.531 0.531 0.344 1.063 0.531 1.188 0.438 2.938 0.672t2.906 0.266l1.156 0.031 1.531-1.969q-0.156 0.031-0.422 0.031t-1.078-0.047-1.563-0.188-1.734-0.484-1.766-0.875zM19.813 7.969h3.813v14.25h-3.813v-14.25zM14.656 9.563q1.063 0 1.844-0.797t0.781-1.703q0-0.938-0.781-1.734t-1.844-0.797-1.844 0.797-0.781 1.734 0.781 1.719 1.844 0.781z"></path>
</svg>
