<!-- Generated by IcoMoon.io -->
<svg version="1.1" xmlns="http://www.w3.org/2000/svg" width="32" height="32" viewBox="0 0 32 32">
<title>info</title>
<path d="M16 29.938q-2.844 0-5.422-1.109t-4.438-2.969-2.969-4.438-1.109-5.422 1.109-5.422 2.969-4.438 4.438-2.969 5.422-1.109 5.422 1.109 4.438 2.969 2.969 4.438 1.109 5.422-1.109 5.422-2.969 4.438-4.438 2.969-5.422 1.109zM16 4.063q-3.25 0-6 1.594t-4.344 4.344-1.594 6 1.594 6 4.344 4.344 6 1.594 6-1.594 4.344-4.344 1.594-6-1.594-6-4.344-4.344-6-1.594zM14.5 9.5q0-0.625 0.438-1.063t1.063-0.438 1.063 0.438 0.438 1.063-0.438 1.063-1.063 0.438-1.063-0.438-0.438-1.063zM16 24q-0.406 0-0.703-0.297t-0.297-0.703v-9q0-0.406 0.297-0.703t0.703-0.297 0.703 0.297 0.297 0.703v9q0 0.406-0.297 0.703t-0.703 0.297z"></path>
</svg>
