<!-- Generated by IcoMoon.io -->
<svg version="1.1" xmlns="http://www.w3.org/2000/svg" width="32" height="32" viewBox="0 0 32 32">
<title>infofill</title>
<path d="M16 2.063q-2.844 0-5.422 1.109t-4.438 2.969-2.969 4.438-1.109 5.422 1.109 5.422 2.969 4.438 4.438 2.969 5.422 1.109 5.422-1.109 4.438-2.969 2.969-4.438 1.109-5.422-1.109-5.422-2.969-4.438-4.438-2.969-5.422-1.109zM17 23q0 0.406-0.297 0.703t-0.703 0.297-0.703-0.297-0.297-0.703v-9q0-0.406 0.297-0.703t0.703-0.297 0.703 0.297 0.297 0.703v9zM16 11q-0.625 0-1.063-0.438t-0.438-1.063 0.438-1.063 1.063-0.438 1.063 0.438 0.438 1.063-0.438 1.063-1.063 0.438z"></path>
</svg>
