<!-- Generated by IcoMoon.io -->
<svg version="1.1" xmlns="http://www.w3.org/2000/svg" width="32" height="32" viewBox="0 0 32 32">
<title>jiadian</title>
<path d="M26.277 1.169h-20.554c-1.046 0-1.908 0.862-1.908 1.908v3.938h24.246v-4c0.062-1.046-0.8-1.846-1.785-1.846zM8 5.231c-0.492 0-0.862-0.369-0.862-0.862s0.369-0.862 0.862-0.862c0.492 0 0.862 0.369 0.862 0.862s-0.369 0.862-0.862 0.862zM10.769 5.231c-0.492 0-0.862-0.369-0.862-0.862s0.369-0.862 0.862-0.862c0.492 0 0.862 0.369 0.862 0.862s-0.431 0.862-0.862 0.862zM13.6 5.231c-0.492 0-0.862-0.369-0.862-0.862s0.369-0.862 0.862-0.862c0.492 0 0.862 0.369 0.862 0.862s-0.431 0.862-0.862 0.862zM16.308 5.231c-0.492 0-0.862-0.369-0.862-0.862s0.369-0.862 0.862-0.862c0.492 0 0.862 0.369 0.862 0.862s-0.369 0.862-0.862 0.862zM23.262 6.092c-1.046 0-1.908-0.862-1.908-1.908s0.862-1.908 1.908-1.908c1.046 0 1.908 0.862 1.908 1.908s-0.862 1.908-1.908 1.908zM3.877 28.985c0 1.046 0.862 1.908 1.908 1.908h20.492c1.046 0 1.908-0.862 1.908-1.908v-20.677h-24.308v20.677zM25.6 22.154h-4.123c0.369-1.908 0.369-3.815 0-5.662h4.123c0.431 1.785 0.492 3.692 0 5.662zM16.062 10.277c3.631 0 6.769 2.154 8.185 5.231h-2.892c-1.169-1.662-3.138-2.708-5.292-2.708-3.569 0-6.523 2.892-6.523 6.523s2.892 6.523 6.523 6.523c2.215 0 4.123-1.108 5.292-2.769h2.892c-1.415 3.138-4.554 5.292-8.246 5.292-4.985 0-9.046-4.062-9.046-9.046 0.123-5.046 4.123-9.046 9.108-9.046z"></path>
</svg>
