<!-- Generated by IcoMoon.io -->
<svg version="1.1" xmlns="http://www.w3.org/2000/svg" width="32" height="32" viewBox="0 0 32 32">
<title>jiaoyu</title>
<path d="M30.705 11.838v5.302l1.11 1.11-2.343 2.405-2.343-2.343 1.603-1.48v-4.193c-6.844 2.836-9.064 3.699-10.543 4.378-1.541 0.678-2.59 0.678-4.131 0.123-1.48-0.555-8.694-3.206-12.208-4.871-2.405-1.11-2.528-1.85 0.062-2.836 3.329-1.295 8.879-3.329 11.838-4.439 1.665-0.678 2.59-1.048 4.193-0.247 2.836 1.171 9.372 3.638 12.578 4.933 2.836 1.233 0.925 1.665 0.185 2.158v0zM18.497 19.114c1.665-0.678 3.884-1.788 6.289-2.836v8.385c0 0-3.145 3.329-8.694 3.329-5.981 0-9.187-3.329-9.187-3.329v-7.83c1.85 0.74 4.008 1.418 6.536 2.281 1.665 0.555 3.638 0.74 5.056 0v0z"></path>
</svg>
