<!-- Generated by IcoMoon.io -->
<svg version="1.1" xmlns="http://www.w3.org/2000/svg" width="32" height="32" viewBox="0 0 32 32">
<title>ju</title>
<path d="M29.469 19.5l-3.5-2.094-0.188 0.281t-0.563 0.672-0.922 0.922-1.281 0.953-1.609 0.828q-1.719-1.344-2.875-2.844 4.563-0.438 6.844-0.875-0.375-0.438-0.813-1.203t-0.688-1.328l-0.25-0.531q-0.75 0.313-1.844 0.594 1.438-0.781 2.625-1.531 1.406 1.344 2.406 2.906 1.719-1.313 3.188-2.563-1.219-1.125-2.875-2.188 1.375-1.063 1.906-1.938 0.906-1.406 0.156-2.75-1.094-1.844-4.438-1.875-3.031 0-6.781 0.938v-1.125h-14.969v2.25h1.781v6.188q-1.625 0.156-2.781 0.313l1.219 3.063q0.375-0.125 1.078-0.313t3.125-0.641 5.109-0.734v1.563q-4.688 0.531-7.906 0.594l0.5 2.125q2.344-0.125 5.5-0.313-3.281 2.438-8.125 3.25 0.75 1.063 0.969 1.719 1.594 0 5.219-1.266t5.188-2.703l-1.063-1.156q0.594-0.031 1.156-0.094v9.406h4.313v-5.75q2.969 3.375 8.25 5.594 0.281-0.313 1.047-1.078l2.016-2.016q-3.063-0.625-5.781-2.125 0.813-0.188 1.703-0.578t1.563-0.813 1.234-0.828 0.875-0.656zM8 9.438h4.531v1.094h-4.531v-1.094zM12.531 7v1h-4.531v-1h4.531zM8 12.938v-0.938h4.531v0.719q-2.531 0.094-4.531 0.219zM15.781 14.656q1.063-0.063 2-0.063v-2q-0.781 0-2 0.031v-5.625h1.688l0.75 1.531 0.094-0.063t0.25-0.156 0.391-0.219 0.547-0.266 0.688-0.281 0.828-0.266 0.953-0.219 1.078-0.141 1.172-0.047h0.125q1.594 0.094 1.938 0.781 0.25 0.5-0.219 1.156-0.438 0.531-1.469 1.156-1.063-0.563-2.141-1.063t-1.609-0.719l-0.563-0.219-1.563 1.688q1.375 0.5 3.156 1.688-0.969 0.406-3.625 1.469l1.625 2.5q-1.781 0.375-4.094 0.719v-1.375zM2.5 26.031q0.75 1.063 0.969 1.688 1.594 0 5.219-1.25t5.188-2.719l-1.969-2.125q0 0.031-0.328 0.359t-1.109 0.891-1.813 1.125-2.672 1.141-3.484 0.891z"></path>
</svg>
