<!-- Generated by IcoMoon.io -->
<svg version="1.1" xmlns="http://www.w3.org/2000/svg" width="32" height="32" viewBox="0 0 32 32">
<title>juhuasuan</title>
<path d="M29.5 17.313q0.406 0 0.656-0.109t0.344-0.375 0.109-0.469 0.016-0.609v-0.688q0-0.781-0.906-1l0.531-0.469q-0.219-0.156-0.594-0.344 0.688 0.031 1.344 0.125 0.156-0.469 0.313-0.75-1.094-0.094-2.531 0.031l0.125-0.156-1.344-0.5q-0.406 1.344-1.25 1.969l0.25 0.125q-0.75 0.063-1.625 0.156l0.594-0.625q-0.156-0.125-0.531-0.313 0.625 0 1.344 0.094 0.156-0.375 0.281-0.656-1.156-0.125-2.344 0l0.188-0.25-1.375-0.438q-0.406 1.25-1.25 1.844 0.156 0.063 0.328 0.172t0.234 0.172l0.094 0.063q0.531-0.219 1.125-0.813 0.438 0.281 0.719 0.531h-1.25v3.281h1.469v0.313h-2.406v0.719h2.313q-0.313 0.875-2.063 0.938l0.375 0.656q2.656-0.188 3.094-1.594h2.188v1.656h1.438v-1.656h1.813v-0.719h-1.813v-0.313zM28.156 13.438q0.469 0.313 0.781 0.531h-0.188q-0.531 0.031-1.188 0.063 0.281-0.25 0.594-0.594zM24.594 14.25h0.031l0.031 0.031h-0.063v-0.031zM24.594 14.844q1.313-0.125 2.797-0.219t1.703 0.313l-4.5 0.125v-0.219zM28.063 17.625h-2.063v-0.313h2.063v0.313zM28.469 16.75h-3.844v-0.219l4.469-0.094q-0.188 0.313-0.625 0.313zM24.594 15.938v-0.281l4.563-0.094v0.25zM8.938 16.031q0.563-0.438 1.063-0.844-0.406-0.375-0.969-0.75 0.469-0.344 0.656-0.625 0.281-0.469 0.031-0.906-0.344-0.625-1.469-0.625-1 0-2.25 0.313v-0.375h-4.969v0.75h0.594v2.031q-0.5 0.063-0.938 0.125l0.406 1q1.094-0.344 3.094-0.563v0.531q-1.563 0.188-2.625 0.188l0.156 0.719q0.781-0.031 1.844-0.125-1.094 0.813-2.688 1.094 0.25 0.344 0.313 0.563 0.531 0 1.734-0.422t1.703-0.891l-0.344-0.375q0.188-0.031 0.375-0.031v3.125h1.438v-1.906q1 1.125 2.75 1.844l1-1.031q-1-0.188-1.906-0.688 0.438-0.125 0.906-0.375t0.719-0.469l0.25-0.219-1.156-0.688q-0.531 0.844-1.531 1.219-0.563-0.438-0.938-0.938 1.531-0.156 2.281-0.313-0.094-0.094-0.172-0.219t-0.156-0.266-0.141-0.25-0.094-0.203l-0.031-0.063q-0.25 0.094-0.625 0.188 0.5-0.25 0.875-0.5 0.469 0.469 0.813 0.969zM4.188 14.844q-0.75 0.031-1.5 0.094v-0.313h1.5v0.219zM4.188 14.125h-1.5v-0.344h1.5v0.344zM4.188 13.281h-1.5v-0.313h1.5v0.313zM6.094 14.875l0.531 0.844q-0.594 0.125-1.344 0.25v-0.469q0.281-0.031 0.656-0.031v-0.656h-0.656v-1.844h0.563l0.25 0.5 0.031-0.016t0.078-0.047 0.125-0.078 0.188-0.094 0.234-0.094 0.266-0.094 0.313-0.078 0.359-0.047 0.406-0.016h0.031q0.531 0.031 0.625 0.281 0.094 0.156-0.063 0.375-0.156 0.188-0.469 0.375l-1.438-0.656-0.531 0.563q0.469 0.156 1.031 0.563-0.344 0.156-1.188 0.469zM20.625 17.844v-2.828t-0.031-2.797h-1.438v6.313q-0.031 0.75-1.031 0.75-0.156 0.375-0.313 0.656 0.25 0.094 1.141 0.031t1.297-0.344q0.094-0.094 0.156-0.188t0.094-0.234 0.063-0.234 0.031-0.281 0.016-0.266 0.016-0.313v-0.266zM15.094 18.813q0.5-0.5 0.688-1.188l0.375-2.406h-1.406q0 0.969-0.094 1.938-0.031 0.469-0.281 0.844-0.25-0.5-0.219-1.188v-1.938q1.156-0.156 2.438-0.188v-0.656q-1.125 0-2.469 0.063l-0.031-1.75-1.5-0.031 0.031 1.875q-0.813 0.063-1.406 0.156l0.406 1q0.375-0.094 1.031-0.25l0.031 1.531q0 1.313 0.719 2.25-0.563 0.281-1.406 0.406l0.375 0.719q1-0.188 1.719-0.5 0.156 0.094 0.344 0.156 0.406 0.156 1 0.234t0.969 0.078l0.406 0.031 0.5-0.656q-1.406 0-2.219-0.531zM18.469 13.219h-1.281v4.781h1.281v-4.781zM15.453 13.781q0.359 0 0.625-0.266t0.266-0.578-0.266-0.594-0.625-0.281-0.609 0.281-0.25 0.594 0.25 0.578 0.609 0.266zM0.875 19.281q0.25 0.344 0.313 0.563 0.531 0 1.734-0.422t1.703-0.891l-0.625-0.719q0 0.031-0.313 0.297t-1.078 0.641-1.734 0.531z"></path>
</svg>
