<!-- Generated by IcoMoon.io -->
<svg version="1.1" xmlns="http://www.w3.org/2000/svg" width="32" height="32" viewBox="0 0 32 32">
<title>keyboardlight</title>
<path d="M23.344 11.344q-0.281 0-0.469 0.188t-0.188 0.469v3.344h-3.344q-0.281 0-0.469 0.188t-0.188 0.469 0.188 0.469 0.469 0.188h4q0.281 0 0.484-0.188t0.203-0.469v-4q0-0.281-0.203-0.469t-0.484-0.188zM23.344 19.344h-14.656q-0.281 0-0.469 0.188t-0.188 0.469 0.188 0.469 0.469 0.188h14.656q0.281 0 0.484-0.188t0.203-0.469-0.203-0.469-0.484-0.188zM14.031 16.656h1.313q0.281 0 0.484-0.188t0.203-0.469-0.203-0.469-0.484-0.188h-1.313q-0.281 0-0.484 0.188t-0.203 0.469 0.203 0.469 0.484 0.188zM8.688 16.656h1.344q0.25 0 0.453-0.188t0.203-0.469-0.203-0.469-0.453-0.188h-1.344q-0.281 0-0.469 0.188t-0.188 0.469 0.188 0.469 0.469 0.188zM14.031 12.656h1.313q0.281 0 0.484-0.188t0.203-0.469-0.203-0.469-0.484-0.188h-1.313q-0.281 0-0.484 0.188t-0.203 0.469 0.203 0.469 0.484 0.188zM19.344 12.656h1.344q0.281 0 0.469-0.188t0.188-0.469-0.188-0.469-0.469-0.188h-1.344q-0.281 0-0.469 0.188t-0.188 0.469 0.188 0.469 0.469 0.188zM8.688 12.656h1.344q0.25 0 0.453-0.188t0.203-0.469-0.203-0.469-0.453-0.188h-1.344q-0.281 0-0.469 0.188t-0.188 0.469 0.188 0.469 0.469 0.188zM16.031 1.969q-2.844 0-5.438 1.125t-4.469 3-2.984 4.453-1.109 5.422 1.109 5.438 2.984 4.469 4.469 2.984 5.438 1.109 5.438-1.109 4.469-2.984 2.984-4.469 1.109-5.438-1.109-5.422-2.984-4.453-4.469-3-5.438-1.125zM16.031 28.656q-3.438 0-6.359-1.703t-4.625-4.625-1.703-6.344 1.703-6.344 4.625-4.625 6.359-1.703 6.344 1.703 4.609 4.625 1.703 6.344-1.703 6.344-4.609 4.625-6.344 1.703z"></path>
</svg>
