<!-- Generated by IcoMoon.io -->
<svg version="1.1" xmlns="http://www.w3.org/2000/svg" width="32" height="32" viewBox="0 0 32 32">
<title>keyboard</title>
<path d="M23 11q-0.406 0-0.703 0.297t-0.297 0.703v3h-3q-0.406 0-0.703 0.297t-0.297 0.703 0.297 0.703 0.703 0.297h4q0.406 0 0.703-0.297t0.297-0.703v-4q0-0.406-0.297-0.703t-0.703-0.297zM23 21h-14q-0.406 0-0.703-0.297t-0.297-0.703 0.297-0.703 0.703-0.297h14q0.406 0 0.703 0.297t0.297 0.703-0.297 0.703-0.703 0.297zM15 17h-1q-0.406 0-0.703-0.297t-0.297-0.703 0.297-0.703 0.703-0.297h1q0.406 0 0.703 0.297t0.297 0.703-0.297 0.703-0.703 0.297zM10 17h-1q-0.406 0-0.703-0.297t-0.297-0.703 0.297-0.703 0.703-0.297h1q0.406 0 0.703 0.297t0.297 0.703-0.297 0.703-0.703 0.297zM15 13h-1q-0.406 0-0.703-0.297t-0.297-0.703 0.297-0.703 0.703-0.297h1q0.406 0 0.703 0.297t0.297 0.703-0.297 0.703-0.703 0.297zM20 13h-1q-0.406 0-0.703-0.297t-0.297-0.703 0.297-0.703 0.703-0.297h1q0.406 0 0.703 0.297t0.297 0.703-0.297 0.703-0.703 0.297zM10 13h-1q-0.406 0-0.703-0.297t-0.297-0.703 0.297-0.703 0.703-0.297h1q0.406 0 0.703 0.297t0.297 0.703-0.297 0.703-0.703 0.297zM16 29.906q-2.844 0-5.438-1.109t-4.469-2.984-2.984-4.469-1.109-5.438 1.109-5.438 2.984-4.469 4.469-2.984 5.438-1.109 5.438 1.109 4.469 2.984 2.984 4.469 1.109 5.438-1.109 5.438-2.984 4.469-4.469 2.984-5.438 1.109zM16 3.906q-3.25 0-6.016 1.609t-4.375 4.375-1.609 6.016 1.609 6.016 4.375 4.375 6.016 1.609 6.016-1.609 4.375-4.375 1.609-6.016-1.609-6.016-4.375-4.375-6.016-1.609z"></path>
</svg>
