<!-- Generated by IcoMoon.io -->
<svg version="1.1" xmlns="http://www.w3.org/2000/svg" width="32" height="32" viewBox="0 0 32 32">
<title>light</title>
<path d="M10 30q-0.281 0-0.531-0.156-0.313-0.188-0.422-0.516t0.016-0.672l3.5-9.656h-7.563q-0.656 0-0.922-0.609t0.203-1.109l15-15q0.313-0.281 0.719-0.281t0.703 0.297 0.297 0.703-0.281 0.719l-13.313 13.281h6.594q0.531 0 0.828 0.422t0.109 0.922l-2.469 6.75 12.125-12.094h-6.594q-0.406 0-0.703-0.297t-0.297-0.703 0.297-0.703 0.703-0.297h9q0.656 0 0.922 0.609t-0.203 1.109l-17 17q-0.313 0.281-0.719 0.281z"></path>
</svg>
