<!-- Generated by IcoMoon.io -->
<svg version="1.1" xmlns="http://www.w3.org/2000/svg" width="32" height="32" viewBox="0 0 32 32">
<title>lightauto</title>
<path d="M10 30q-0.281 0-0.531-0.156-0.313-0.188-0.422-0.516t0.016-0.672l3.5-9.656h-7.563q-0.656 0-0.922-0.609t0.203-1.109l15-15q0.313-0.281 0.719-0.281t0.703 0.297 0.297 0.703-0.281 0.719l-13.313 13.281h6.594q0.531 0 0.828 0.422t0.109 0.922l-2.469 6.75 12.125-12.094h-6.594q-0.406 0-0.703-0.297t-0.297-0.703 0.297-0.703 0.703-0.297h9q0.656 0 0.922 0.609t-0.203 1.109l-17 17q-0.313 0.281-0.719 0.281zM29.813 28.563l-3.906-8-0.063-0.063t-0.031-0.063q-0.094-0.156-0.156-0.188-0.031-0.031-0.188-0.125-0.031 0-0.063-0.031t-0.063-0.031v0q-0.094-0.031-0.281-0.031-0.031-0.031-0.063-0.031h-0.031q-0.063 0-0.125 0.031h-0.063q-0.188 0.063-0.219 0.063v0 0q-0.031 0.031-0.078 0.063l-0.047 0.031q-0.156 0.125-0.188 0.156t-0.125 0.188l-0.031 0.047t-0.031 0.078l-3 8q-0.156 0.375 0.016 0.75t0.578 0.531q0.156 0.063 0.344 0.063 0.688 0 0.938-0.656l0.5-1.344h3.875l0.719 1.438q0.25 0.563 0.875 0.563 0.25 0 0.438-0.094 0.375-0.188 0.516-0.578t-0.047-0.766zM24.188 26l0.938-2.469 1.219 2.469h-2.156z"></path>
</svg>
