<!-- Generated by IcoMoon.io -->
<svg version="1.1" xmlns="http://www.w3.org/2000/svg" width="32" height="32" viewBox="0 0 32 32">
<title>like</title>
<path d="M16 29q-1.406 0-2.719-1.281l-9.969-10.094q-0.781-0.969-1.172-1.547t-0.766-1.688-0.375-2.391q0-3.313 2.344-5.656t5.656-2.344q2.531 0 4.594 1.469 0.344 0.219 0.422 0.625t-0.172 0.75-0.656 0.422-0.75-0.172q-1.531-1.094-3.438-1.094-2.469 0-4.234 1.766t-1.766 4.234q0 1.344 0.406 2.188t1.438 2.156l9.875 9.969q0.688 0.688 1.281 0.688 0.563 0 1.281-0.719l9.906-10q1.813-1.938 1.813-4.281 0-2.469-1.766-4.234t-4.234-1.766q-2.344 0-4.063 1.563l-4.188 4.188q-0.281 0.313-0.688 0.313t-0.703-0.297-0.297-0.703 0.281-0.719l4.219-4.219q2.344-2.125 5.438-2.125 3.313 0 5.656 2.344t2.344 5.656q0 3.125-2.375 5.688l-9.906 10q-1.313 1.313-2.719 1.313z"></path>
</svg>
