<!-- Generated by IcoMoon.io -->
<svg version="1.1" xmlns="http://www.w3.org/2000/svg" width="32" height="32" viewBox="0 0 32 32">
<title>link</title>
<path d="M17.063 20h-0.031q-0.688 0-1.406-0.813l-1.156-1.344q-0.281-0.313-0.266-0.75t0.328-0.719 0.719-0.266 0.688 0.328l1.156 1.25 5.438-5.594-1.563-1.719-2.25 2.344q-0.313 0.281-0.719 0.281t-0.703-0.281-0.297-0.703 0.281-0.703l2.313-2.344q0.563-0.563 1.406-0.563t1.406 0.594l1.563 1.656q0.563 0.594 0.547 1.422t-0.578 1.391l-5.5 5.781q-0.75 0.75-1.375 0.75zM11.016 23.594q-0.828 0-1.422-0.594l-1.594-1.531q-0.594-0.563-0.594-1.406t0.594-1.406l5.594-5.844q0.781-0.813 1.406-0.813v0q0.625 0 1.406 0.781l1.313 1.406q0.281 0.281 0.281 0.734t-0.297 0.734-0.703 0.297-0.719-0.266l-1.281-1.281-5.594 5.656 1.594 1.5 2.344-2.281q0.281-0.281 0.688-0.281t0.703 0.297 0.297 0.703-0.281 0.719l-2.344 2.281q-0.563 0.594-1.391 0.594zM16 30q-5.781 0-9.891-4.109t-4.109-9.891 4.109-9.891 9.891-4.109 9.891 4.109 4.109 9.891-4.109 9.891-9.891 4.109zM16 4q-4.969 0-8.484 3.516t-3.516 8.484 3.516 8.484 8.484 3.516 8.484-3.516 3.516-8.484-3.516-8.484-8.484-3.516z"></path>
</svg>
