<!-- Generated by IcoMoon.io -->
<svg version="1.1" xmlns="http://www.w3.org/2000/svg" width="32" height="32" viewBox="0 0 32 32">
<title>loading</title>
<path d="M16 30.094q-4.625 0-8.375-2.781-2.219-1.688-3.641-4.063t-1.813-5.156 0.297-5.453 2.344-4.922q2.281-3.063 5.719-4.516t7.141-1.016 6.766 2.719q1.938 1.438 3.281 3.469t1.906 4.406q0.094 0.375-0.125 0.734t-0.609 0.453-0.75-0.109-0.453-0.609q-1.031-4.188-4.469-6.75-2.594-1.969-5.766-2.328t-6.125 0.891-4.891 3.844q-1.438 1.938-2.031 4.234t-0.25 4.672 1.547 4.406 3.141 3.5q2.594 1.938 5.781 2.313t6.125-0.875 4.875-3.875q1.594-2.094 2.125-4.594 0.094-0.406 0.438-0.641t0.75-0.141 0.625 0.438 0.156 0.75q-0.656 2.969-2.469 5.406-1.688 2.25-4.063 3.656t-5.156 1.813q-1.031 0.125-2.031 0.125z"></path>
</svg>
