<!-- Generated by IcoMoon.io -->
<svg version="1.1" xmlns="http://www.w3.org/2000/svg" width="32" height="32" viewBox="0 0 32 32">
<title>location</title>
<path d="M16 19q-2.469 0-4.234-1.766t-1.766-4.234 1.766-4.234 4.234-1.766 4.234 1.766 1.766 4.234-1.766 4.234-4.234 1.766zM16 9q-1.656 0-2.828 1.172t-1.172 2.828 1.172 2.828 2.828 1.172 2.828-1.172 1.172-2.828-1.172-2.828-2.828-1.172zM16 30q-0.406 0-0.688-0.281-0.313-0.281-0.313-0.703t0.281-0.703q1.219-1.281 2.688-3.047t3.141-4.047 2.781-4.516 1.109-3.703q0-3.719-2.641-6.359t-6.359-2.641-6.359 2.641-2.641 6.359q0 1.781 1.641 4.734t4.734 6.734q0.281 0.344 0.234 0.75t-0.375 0.672-0.734 0.219-0.656-0.359q-6.844-8.375-6.844-12.75 0-4.563 3.219-7.781t7.781-3.219 7.781 3.219 3.219 7.781q0 1.656-1.063 3.984t-2.391 4.266-3.063 4.078-2.5 2.984-1.266 1.375q-0.281 0.313-0.719 0.313z"></path>
</svg>
