<!-- Generated by IcoMoon.io -->
<svg version="1.1" xmlns="http://www.w3.org/2000/svg" width="32" height="32" viewBox="0 0 32 32">
<title>location_light</title>
<path d="M21.344 12.656q0-2.188-1.578-3.75t-3.766-1.563-3.766 1.563-1.578 3.766 1.578 3.766 3.766 1.563q2.25 0 3.797-1.563t1.547-3.781zM12 12.672q0-1.641 1.172-2.828t2.828-1.188 2.828 1.188 1.172 2.828-1.172 2.813-2.828 1.172-2.828-1.172-1.172-2.813zM16 2q-2.875 0-5.344 1.438t-3.891 3.891-1.422 5.328q0 2.531 2.172 6.594t4.672 7.156q0.156 0.188 0.453 0.219t0.484-0.156q0.219-0.156 0.25-0.438t-0.188-0.5q-2.313-2.906-4.422-6.813t-2.109-6.063q0-3.844 2.75-6.578t6.594-2.734 6.594 2.734 2.75 6.578q0 1.469-1.031 3.688t-2.406 4.266-2.906 4.031-2.422 3.031-1.047 1.203q-0.188 0.188-0.156 0.453t0.219 0.484q0.219 0.188 0.484 0.188t0.453-0.188l0.094-0.094q0.719-0.844 1.469-1.75t2.453-3.141 2.922-4.156 2.203-4.188 0.984-3.828q0-2.875-1.406-5.328t-3.875-3.891-5.375-1.438z"></path>
</svg>
