<!-- Generated by IcoMoon.io -->
<svg version="1.1" xmlns="http://www.w3.org/2000/svg" width="32" height="32" viewBox="0 0 32 32">
<title>locationfill</title>
<path d="M16 2q-4.563 0-7.781 3.219t-3.219 7.781q0 1.656 1.063 3.984t2.391 4.266 3.063 4.078 2.5 2.984 1.266 1.375q0.281 0.313 0.719 0.313h0.031q0.438 0 0.719-0.344l3.406-3.906q6.844-8.375 6.844-12.75 0-4.563-3.219-7.781t-7.781-3.219zM16 18q-2.063 0-3.531-1.469t-1.469-3.531 1.469-3.531 3.531-1.469 3.531 1.469 1.469 3.531-1.469 3.531-3.531 1.469z"></path>
</svg>
