<!-- Generated by IcoMoon.io -->
<svg version="1.1" xmlns="http://www.w3.org/2000/svg" width="32" height="32" viewBox="0 0 32 32">
<title>lock</title>
<path d="M16 24q-0.406 0-0.703-0.297t-0.297-0.703v-3q0-0.406 0.297-0.703t0.703-0.297 0.703 0.297 0.297 0.703v3q0 0.406-0.297 0.703t-0.703 0.297zM26 30h-20q-1.25 0-2.125-0.875t-0.875-2.125v-11q0-1.25 0.875-2.125t2.125-0.875h20q1.25 0 2.125 0.875t0.875 2.125v11q0 1.25-0.875 2.125t-2.125 0.875zM6 15q-0.406 0-0.703 0.297t-0.297 0.703v11q0 0.406 0.297 0.703t0.703 0.297h20q0.406 0 0.703-0.297t0.297-0.703v-11q0-0.406-0.297-0.703t-0.703-0.297h-20zM23 15q-0.406 0-0.703-0.297t-0.297-0.703v-4.063q0-2.438-1.906-4.188t-4.156-1.75q-2.313 0-4.125 1.641t-1.813 4.297v4.063q0 0.406-0.297 0.703t-0.703 0.297-0.703-0.297-0.297-0.703v-4.063q0-2.375 1.188-4.234t2.969-2.781 3.781-0.922q1.938 0 3.781 0.984t3.063 2.844 1.219 4.109v4.063q0 0.406-0.297 0.703t-0.703 0.297z"></path>
</svg>
