<!-- Generated by IcoMoon.io -->
<svg version="1.1" xmlns="http://www.w3.org/2000/svg" width="32" height="32" viewBox="0 0 32 32">
<title>magic</title>
<path d="M16.016 8q0.422 0 0.703-0.297t0.281-0.703v-4q0-0.406-0.281-0.703t-0.703-0.297-0.719 0.297-0.297 0.703v4q0 0.406 0.297 0.703t0.719 0.297zM17.016 26q-0.422 0-0.719 0.297t-0.297 0.703v2q0 0.406 0.297 0.703t0.719 0.297 0.703-0.297 0.281-0.703v-2q0-0.406-0.281-0.703t-0.703-0.297zM23.156 10.156q0.406 0 0.719-0.313l2.594-2.594q0.281-0.281 0.281-0.703t-0.297-0.703-0.703-0.281-0.719 0.281l-2.594 2.594q-0.281 0.281-0.281 0.703t0.297 0.719 0.703 0.297zM23.75 22.375q-0.313-0.313-0.719-0.313t-0.703 0.297-0.297 0.719 0.281 0.703l2.969 2.969q0.313 0.281 0.719 0.281t0.703-0.297 0.297-0.703-0.281-0.688zM9.313 10.781q0.313 0.281 0.719 0.281t0.703-0.281 0.297-0.703-0.281-0.703l-3.031-3.031q-0.281-0.281-0.703-0.281t-0.703 0.297-0.281 0.703 0.281 0.719zM29 15h-4q-0.406 0-0.703 0.297t-0.297 0.703 0.297 0.703 0.703 0.297h4q0.438 0 0.719-0.297t0.281-0.703-0.281-0.703-0.719-0.297zM3 16h2q0.438 0 0.719-0.297t0.281-0.703-0.281-0.703-0.719-0.297h-2q-0.406 0-0.703 0.297t-0.297 0.703 0.297 0.703 0.703 0.297zM20 11h-5.563q-0.406 0-0.719 0.281l-11.313 11.094q-0.313 0.281-0.313 0.688t0.281 0.703 0.703 0.313 0.703-0.297l11.063-10.781h4.156v4.188l-10.688 11.125q-0.281 0.281-0.281 0.703t0.313 0.703q0.281 0.281 0.688 0.281 0.438 0 0.719-0.313l10.969-11.406q0.281-0.281 0.281-0.688v-5.594q0-0.406-0.281-0.703t-0.719-0.297z"></path>
</svg>
