<!-- Generated by IcoMoon.io -->
<svg version="1.1" xmlns="http://www.w3.org/2000/svg" width="32" height="32" viewBox="0 0 32 32">
<title>mail</title>
<path d="M26.844 6h-21.688q-1.313 0-2.234 0.922t-0.922 2.234v14.688q0 1.313 0.922 2.234t2.234 0.922h21.688q1.313 0 2.234-0.922t0.922-2.234v-14.688q0-1.313-0.922-2.234t-2.234-0.922zM26.844 25h-21.688q-0.469 0-0.813-0.344t-0.344-0.813v-14.688q0-0.469 0.344-0.813t0.813-0.344h21.406l-9.625 8.75q-0.313 0.344-0.813 0.328t-0.875-0.391l-7.656-6.469q-0.313-0.25-0.719-0.219t-0.672 0.344-0.234 0.734 0.344 0.672l7.563 6.406q0.938 0.938 2.25 0.938t2.219-0.906l9.656-8.781v14.438q0 0.469-0.344 0.813t-0.813 0.344z"></path>
</svg>
