<!-- Generated by IcoMoon.io -->
<svg version="1.1" xmlns="http://www.w3.org/2000/svg" width="32" height="32" viewBox="0 0 32 32">
<title>male</title>
<path d="M28.969 3.781l-0.031-0.125q-0.031-0.063-0.125-0.188v0q0-0.031-0.016-0.078t-0.047-0.047l-0.031-0.031q-0.031-0.031-0.156-0.125v0l-0.156-0.094q-0.188-0.094-0.406-0.094h-7q-0.406 0-0.703 0.297t-0.297 0.703 0.297 0.703 0.703 0.297h4.344l-4.75 4.219q-2.938-2.219-6.594-2.219-4.563 0-7.781 3.219t-3.219 7.781 3.219 7.781 7.781 3.219 7.781-3.219 3.219-7.781q0-4.281-2.938-7.438l4.938-4.344v3.781q0 0.406 0.297 0.703t0.703 0.297 0.703-0.297 0.297-0.703v-6q0-0.031-0.031-0.219zM23 18q0 3.719-2.641 6.359t-6.359 2.641-6.359-2.641-2.641-6.359 2.641-6.359 6.359-2.641 6.359 2.641 2.641 6.359z"></path>
</svg>
