<!-- Generated by IcoMoon.io -->
<svg version="1.1" xmlns="http://www.w3.org/2000/svg" width="32" height="32" viewBox="0 0 32 32">
<title>mao</title>
<path d="M24.094 13.281h-11.969v11.5q0 2 1.031 3.125t3.125 1.125v0h11.875v-11.688q0-4.063-4.063-4.063zM25.813 18.438v1.563h-4.563v-4.375h1.656q0.688 0 0.984 0.016t0.703 0.094 0.563 0.25 0.344 0.484 0.25 0.781 0.063 1.188zM19 15.625v4.375h-4.531v-4.375h4.531zM14.469 24.031v-1.781h4.531v4.531h-1.344q-1.781 0-2.484-0.5t-0.703-2.25zM25.813 26.781h-4.563v-4.531h4.563v4.531zM3.844 4.063v2.469q1.75 0.031 2.844 0.844t1.344 2.313l0.063 0.25-4.25 2.531v2.563q3.094-1.938 4.281-2.563v4.125l-4.281 2.563v2.531q3.125-1.906 4.281-2.531v1.5q0 1.563-0.438 2.75t-1.078 1.766-1.266 0.922-1.063 0.438l-0.438 0.063v2.469q0.469 0 0.938-0.063t1.156-0.297 1.297-0.594 1.234-1.016 1.078-1.531 0.734-2.203 0.281-2.953v-10.063q-0.156-3.031-1.875-4.625t-4.844-1.656zM25.656 6.813v-2.75h-2.344v2.75h-6.313v-2.75h-2.375v2.75h-2.5v2.406h2.5v2.281h2.375v-2.281h6.313v2.281h2.344v-2.281h2.5v-2.406h-2.5z"></path>
</svg>
