<!-- Generated by IcoMoon.io -->
<svg version="1.1" xmlns="http://www.w3.org/2000/svg" width="32" height="32" viewBox="0 0 32 32">
<title>mark</title>
<path d="M16 29q-0.5 0-0.813-0.406l-2.031-2.844q-4.875-0.875-8.016-4.172t-3.141-7.578q0-4.969 4.109-8.484t9.891-3.516 9.891 3.516 4.109 8.484q0 4.281-3.141 7.578t-8.016 4.172l-2.031 2.844q-0.313 0.406-0.813 0.406zM16 4q-4.969 0-8.484 2.938t-3.516 7.063q0 3.625 2.797 6.406t7.078 3.438q0.406 0.063 0.656 0.406l1.469 2.031 1.469-2.031q0.219-0.344 0.656-0.406 4.281-0.656 7.078-3.438t2.797-6.406q0-4.125-3.516-7.063t-8.484-2.938zM9.016 16q-0.828 0-1.422-0.594t-0.594-1.406 0.594-1.406 1.422-0.594 1.406 0.594 0.578 1.406-0.578 1.406-1.406 0.594zM9 14v0 0zM23.016 16q-0.828 0-1.422-0.594t-0.594-1.406 0.594-1.406 1.422-0.594 1.406 0.594 0.578 1.406-0.578 1.406-1.406 0.594zM23 14v0 0zM16.016 16q-0.828 0-1.422-0.594t-0.594-1.406 0.594-1.406 1.422-0.594 1.406 0.594 0.578 1.406-0.578 1.406-1.406 0.594zM16 14v0 0z"></path>
</svg>
