<!-- Generated by IcoMoon.io -->
<svg version="1.1" xmlns="http://www.w3.org/2000/svg" width="32" height="32" viewBox="0 0 32 32">
<title>markfill</title>
<path d="M16 2q-5.781 0-9.891 3.516t-4.109 8.484q0 4.281 3.141 7.578t8.016 4.172l2.031 2.844q0.313 0.406 0.813 0.406t0.813-0.406l2.031-2.844q4.875-0.875 8.016-4.172t3.141-7.578q0-4.969-4.109-8.484t-9.891-3.516zM9.016 16q-0.828 0-1.422-0.594t-0.594-1.406 0.594-1.406 1.422-0.594 1.406 0.594 0.578 1.406-0.578 1.406-1.406 0.594zM16.016 16q-0.828 0-1.422-0.594t-0.594-1.406 0.594-1.406 1.422-0.594 1.406 0.594 0.578 1.406-0.578 1.406-1.406 0.594zM23.016 16q-0.828 0-1.422-0.594t-0.594-1.406 0.594-1.406 1.422-0.594 1.406 0.594 0.578 1.406-0.578 1.406-1.406 0.594z"></path>
</svg>
