<!-- Generated by IcoMoon.io -->
<svg version="1.1" xmlns="http://www.w3.org/2000/svg" width="32" height="32" viewBox="0 0 32 32">
<title>medalfill</title>
<path d="M12 20q0 1.656 1.172 2.828t2.828 1.172 2.828-1.172 1.172-2.828-1.172-2.828-2.828-1.172-2.828 1.172-1.172 2.828zM23.313 11.813l2.594-4.5q0.188-0.219 0.188-0.5v-4.813q0-0.406-0.281-0.688-0.25-0.25-2.703-0.281t-17.016-0.031q-0.531 0-0.688 0.313-0.313 0.281-0.313 0.688v4.813q0 0.281 0.094 0.5l2.906 5.188q-1.438 1.438-2.266 3.406t-0.828 4.094q0 3 1.469 5.531t4 4 5.531 1.469 5.531-1.469 4-4 1.469-5.531q0-2.438-0.969-4.563t-2.719-3.625zM19 4.094q0-0.438 0.281-0.719t0.719-0.281 0.719 0.281 0.281 0.719v5.906q0 0.438-0.281 0.719t-0.719 0.281-0.719-0.281-0.281-0.719v-5.906zM10 4.094q0-0.438 0.281-0.719t0.719-0.281 0.719 0.281 0.281 0.719v6q0 0.469-0.281 0.734t-0.719 0.266-0.719-0.266-0.281-0.734v-6zM16 26q-2.469 0-4.234-1.766t-1.766-4.234 1.766-4.234 4.234-1.766 4.234 1.766 1.766 4.234-1.766 4.234-4.234 1.766z"></path>
</svg>
