<!-- Generated by IcoMoon.io -->
<svg version="1.1" xmlns="http://www.w3.org/2000/svg" width="32" height="32" viewBox="0 0 32 32">
<title>medal_light</title>
<path d="M22.813 11.813l2.469-4.813q0.063-0.063 0.063-0.344v-4q0-0.5-0.438-0.578t-3.031-0.078h-15.219q-0.25 0-0.453 0.203t-0.203 0.453v4q0 0.219 0.063 0.281l2.656 5.25q-1.594 1.563-2.484 3.563t-0.891 4.25q0 2.875 1.422 5.344t3.891 3.891 5.344 1.422 5.344-1.422 3.891-3.891 1.422-5.344q0-2.469-1.016-4.594t-2.828-3.594zM24 3.344v3.188l-2.281 4.469q-0.156-0.094-0.516-0.297t-0.547-0.297v-7.063h3.344zM16 9.344q-2.094 0-4 0.781v-6.781h7.344v6.531q-1.719-0.531-3.344-0.531zM7.344 6.469v-3.125h3.313v7.469q-0.156 0.094-0.453 0.297t-0.484 0.297zM16 29.344q-3.844 0-6.594-2.75t-2.75-6.594 2.75-6.594 6.594-2.75 6.594 2.75 2.75 6.594-2.75 6.594-6.594 2.75zM16 14q-2.5 0-4.25 1.75t-1.75 4.25 1.75 4.25 4.25 1.75 4.25-1.75 1.75-4.25-1.75-4.25-4.25-1.75zM16 24.656q-1.938 0-3.297-1.359t-1.359-3.297 1.359-3.297 3.297-1.359 3.297 1.359 1.359 3.297-1.359 3.297-3.297 1.359z"></path>
</svg>
