<!-- Generated by IcoMoon.io -->
<svg version="1.1" xmlns="http://www.w3.org/2000/svg" width="32" height="32" viewBox="0 0 32 32">
<title>medal_fill_light</title>
<path d="M11.406 20q0 1.938 1.359 3.297t3.297 1.359 3.297-1.359 1.359-3.297-1.359-3.297-3.297-1.359-3.297 1.359-1.359 3.297zM22.875 11.719l2.406-4.719q0.063-0.063 0.063-0.281v-4q0-0.25-0.219-0.438-0.094-0.219-1.281-0.25t-8.188-0.031h-9q-0.25 0-0.453 0.203t-0.203 0.453v4q0 0.219 0.063 0.281l2.656 5.344q-1.563 1.469-2.438 3.469t-0.875 4.25q0 2.875 1.422 5.344t3.891 3.891 5.344 1.422 5.344-1.422 3.891-3.891 1.422-5.344q0-2.438-1.031-4.578t-2.813-3.703zM19.344 4q0-0.313 0.172-0.484t0.484-0.172 0.484 0.172 0.172 0.484v5.938q0 0.281-0.172 0.469t-0.484 0.188-0.484-0.188-0.172-0.469v-5.938zM10.656 3.938q0-0.313 0.188-0.484t0.484-0.172 0.484 0.172 0.188 0.484v6q0 0.281-0.188 0.469t-0.484 0.188-0.484-0.188-0.188-0.469v-6zM16.063 26q-2.5 0-4.25-1.75t-1.75-4.25 1.75-4.25 4.25-1.75 4.25 1.75 1.75 4.25-1.75 4.25-4.25 1.75z"></path>
</svg>
