<!-- Generated by IcoMoon.io -->
<svg version="1.1" xmlns="http://www.w3.org/2000/svg" width="32" height="32" viewBox="0 0 32 32">
<title>medal</title>
<path d="M23.406 11.813l2.594-4.5q0.094-0.219 0.094-0.5v-4.813q0-0.375-0.125-0.578t-0.422-0.297-0.531-0.109-0.703-0.016h-18.219q-0.406 0-0.703 0.297t-0.297 0.703v4.813q0 0.281 0.094 0.5l2.906 5.188q-3.094 3.25-3.094 7.594 0 3 1.469 5.531t4 4 5.531 1.469 5.531-1.469 4-4 1.469-5.531q0.063-2.406-0.906-4.578t-2.688-3.703zM24.094 6.5l-2.406 4.094q-0.094-0.031-0.344-0.188t-0.344-0.219v-7.188h3.094v3.5zM16.094 9q-1.906 0-4 0.813v-6.813h7v6.406q-2-0.406-3-0.406zM7.094 3h3v7.688q-0.031 0.063-0.188 0.156t-0.219 0.156l-2.594-4.5v-3.5zM16.094 29q-3.75 0-6.375-2.625t-2.625-6.375 2.625-6.375 6.375-2.625 6.375 2.625 2.625 6.375q0 3.719-2.656 6.359t-6.344 2.641zM16.094 14q-2.469 0-4.234 1.766t-1.766 4.234 1.766 4.234 4.234 1.766 4.234-1.766 1.766-4.234-1.766-4.234-4.234-1.766zM16.094 24q-1.656 0-2.828-1.172t-1.172-2.828 1.172-2.828 2.828-1.172 2.828 1.172 1.172 2.828-1.172 2.828-2.828 1.172z"></path>
</svg>
