<!-- Generated by IcoMoon.io -->
<svg version="1.1" xmlns="http://www.w3.org/2000/svg" width="32" height="32" viewBox="0 0 32 32">
<title>messagefill</title>
<path d="M16 2.094q-3.781 0-7.016 1.609t-5.109 4.375-1.875 6.016q0 2.75 1.422 5.203t4.016 4.234l2.625 1.625q-0.188 1.188-1.031 3.625-0.219 0.594 0.25 1.063 0.281 0.25 0.688 0.25 0.219 0 0.406-0.094 4.5-2 5.875-3.906 3.719-0.063 6.891-1.672t5.016-4.359 1.844-5.969q0-3.25-1.875-6.016t-5.109-4.375-7.016-1.609zM18.125 17h-6.094q-0.406 0-0.703-0.297t-0.297-0.703 0.297-0.703 0.703-0.297h6.094q0.406 0 0.703 0.297t0.297 0.703-0.297 0.703-0.703 0.297zM20.031 13h-8q-0.406 0-0.703-0.297t-0.297-0.703 0.297-0.703 0.703-0.297h8q0.406 0 0.703 0.297t0.297 0.703-0.297 0.703-0.703 0.297z"></path>
</svg>
