<!-- Generated by IcoMoon.io -->
<svg version="1.1" xmlns="http://www.w3.org/2000/svg" width="32" height="32" viewBox="0 0 32 32">
<title>message</title>
<path d="M20 13h-8q-0.406 0-0.703-0.297t-0.297-0.703 0.297-0.703 0.703-0.297h8q0.406 0 0.703 0.297t0.297 0.703-0.297 0.703-0.703 0.297zM18.094 17h-6.094q-0.406 0-0.703-0.297t-0.297-0.703 0.297-0.703 0.703-0.297h6.094q0.438 0 0.719 0.297t0.281 0.703-0.281 0.703-0.719 0.297zM30.063 14q0-3.25-1.875-6.016t-5.094-4.375-7.016-1.609-7.031 1.609-5.109 4.375-1.875 6.016q0 2.719 1.422 5.188t3.984 4.219q0.344 0.219 0.75 0.141t0.641-0.422 0.156-0.75-0.422-0.625q-2.156-1.469-3.344-3.5t-1.188-4.25q0-2.719 1.609-5.016t4.375-3.641 6.016-1.344 6.016 1.344 4.375 3.641 1.609 5.016-1.609 5.016-4.375 3.641-6.016 1.344q-0.031 0-0.094 0.016l-0.063 0.016q-0.375-0.063-0.688 0.109t-0.438 0.516q-0.281 0.813-2.938 2.313 0.531-1.813 0.094-2.469-0.313-0.5-0.938-0.5-0.406 0-0.703 0.297t-0.297 0.703q0 0.281 0.156 0.5-0.188 1.031-1.031 3.125-0.281 0.625 0.219 1.094 0.281 0.281 0.688 0.281 0.219 0 0.406-0.094 4.5-2 5.875-3.906 3.75-0.063 6.906-1.672t5-4.359 1.844-5.969z"></path>
</svg>
