<!-- Generated by IcoMoon.io -->
<svg version="1.1" xmlns="http://www.w3.org/2000/svg" width="32" height="32" viewBox="0 0 32 32">
<title>message_light</title>
<path d="M10.656 12.656h10.688q0.281 0 0.469-0.172t0.188-0.484-0.188-0.484-0.469-0.172h-10.688q-0.281 0-0.469 0.172t-0.188 0.484q0 0.281 0.203 0.469t0.453 0.188zM10.656 16.656h8q0.313 0 0.5-0.172t0.188-0.484-0.188-0.484-0.5-0.172h-8q-0.281 0-0.469 0.172t-0.188 0.484q0 0.281 0.203 0.469t0.453 0.188zM29.938 14q0-3.25-1.875-6t-5.078-4.344-6.984-1.594q-3.813 0-7.031 1.594t-5.094 4.344-1.875 6q0 2.563 1.484 4.984t4.172 4.203q0.25 0.156 0.516 0.109t0.422-0.297 0.109-0.516-0.297-0.422q-0.844-0.563-1.609-1.25t-1.609-1.703-1.344-2.344-0.5-2.766q0-2.875 1.688-5.328t4.609-3.859 6.359-1.406q3.406 0 6.313 1.406t4.594 3.859 1.688 5.328-1.688 5.328-4.594 3.859-6.313 1.406q-0.125 0-0.188 0.063-0.25-0.094-0.484 0.031t-0.328 0.375q-0.344 1.094-3.938 3 0.719-2.313 0.281-3-0.219-0.344-0.688-0.344-0.281 0-0.469 0.188t-0.188 0.5q0 0.25 0.188 0.469 0 0.656-0.844 3.25-0.125 0.438 0.188 0.75 0.188 0.188 0.469 0.188 0.188 0 0.281-0.063 0.688-0.281 1.641-0.766t2.313-1.438 1.828-1.797q3.781-0.031 6.969-1.641t5.047-4.359 1.859-6z"></path>
</svg>
