<!-- Generated by IcoMoon.io -->
<svg version="1.1" xmlns="http://www.w3.org/2000/svg" width="32" height="32" viewBox="0 0 32 32">
<title>message_fill_light</title>
<path d="M16 2q-3.813 0-7.031 1.594t-5.094 4.344-1.875 6q0 1.813 0.766 3.563t1.781 2.969 2.344 2.344 2.094 1.609 1.422 0.859q-0.125 1.094-1.125 3.781-0.125 0.406 0.125 0.75 0.188 0.188 0.469 0.188 0.188 0 0.25-0.063 4.813-2.219 6-4.063 3.781-0.031 6.969-1.641t5.047-4.344 1.859-5.953q0-3.25-1.875-6t-5.094-4.344-7.031-1.594zM18.656 16.656h-8q-0.281 0-0.469-0.172t-0.188-0.484 0.188-0.484 0.469-0.172h8q0.313 0 0.5 0.172t0.188 0.484q0 0.281-0.203 0.469t-0.484 0.188zM21.344 12.656h-10.688q-0.281 0-0.469-0.172t-0.188-0.484 0.188-0.484 0.469-0.172h10.688q0.281 0 0.469 0.172t0.188 0.484-0.188 0.484-0.469 0.172z"></path>
</svg>
