<!-- Generated by IcoMoon.io -->
<svg version="1.1" xmlns="http://www.w3.org/2000/svg" width="32" height="32" viewBox="0 0 32 32">
<title>mobile</title>
<path d="M23 31h-14q-1.25 0-2.125-0.875t-0.875-2.125v-24q0-1.25 0.875-2.125t2.125-0.875h14q1.25 0 2.125 0.875t0.875 2.125v24q0 1.25-0.875 2.125t-2.125 0.875zM9 3q-0.406 0-0.703 0.297t-0.297 0.703v24q0 0.406 0.297 0.703t0.703 0.297h14q0.406 0 0.703-0.297t0.297-0.703v-24q0-0.406-0.297-0.703t-0.703-0.297h-14zM16 28q-0.813 0-1.406-0.578t-0.594-1.406 0.594-1.422 1.406-0.594 1.406 0.594 0.594 1.422-0.594 1.406-1.406 0.578zM16 26v0 0zM22 23h-12q-0.406 0-0.703-0.297t-0.297-0.703v-17q0-0.406 0.297-0.703t0.703-0.297h12q0.406 0 0.703 0.297t0.297 0.703v17q0 0.406-0.297 0.703t-0.703 0.297zM11 21h10v-15h-10v15z"></path>
</svg>
