<!-- Generated by IcoMoon.io -->
<svg version="1.1" xmlns="http://www.w3.org/2000/svg" width="32" height="32" viewBox="0 0 32 32">
<title>mobiletao</title>
<path d="M30 9.781q0-0.5-0.031-0.844 0-1.094-0.156-1.844-0.188-1.031-0.563-1.75-0.375-0.75-1.094-1.5-0.75-0.719-1.5-1.094-0.719-0.375-1.75-0.563-0.75-0.156-1.844-0.156-0.344-0.031-0.844-0.031h-12.438q-0.5 0-0.844 0.031-1.094 0-1.844 0.156-1.031 0.188-1.75 0.563-0.75 0.375-1.5 1.094-0.719 0.75-1.094 1.5t-0.563 1.75q-0.156 0.75-0.156 1.844-0.031 0.313-0.031 0.844v12.438q0 0.531 0.031 0.844 0 1.094 0.156 1.844 0.188 1.031 0.563 1.75 0.375 0.75 1.094 1.5 0.75 0.719 1.5 1.094t1.75 0.563q0.75 0.156 1.844 0.156 0.344 0.031 0.844 0.031h12.438q0.5 0 0.844-0.031 1.094 0 1.844-0.156 1-0.188 1.75-0.563t1.5-1.094q0.719-0.75 1.094-1.5 0.375-0.719 0.563-1.75 0.156-0.75 0.156-1.844 0.031-0.344 0.031-0.844v-12.438zM8.781 7.469q0.813 0 1.391 0.531t0.578 1.281-0.578 1.281-1.391 0.531q-0.844 0-1.422-0.531t-0.578-1.281 0.578-1.281 1.422-0.531zM10.438 18.375q-0.219 0.625-0.359 0.984t-0.281 0.688-0.672 1.453-1.188 2.563l-3.031-1.938q0.375-0.344 0.969-0.906t1.703-1.781 1.422-1.875q0.281-0.75 0.109-1.266t-0.547-0.766l-0.375-0.25-2.344-1.469 1.281-1.969q1.313 1 1.734 1.359t1.297 1.266q0.656 0.656 0.688 1.672t-0.406 2.234zM26.906 20.531q-0.125 1.156-0.641 1.969t-1.172 1.203-1.531 0.578-1.578 0.188-1.453-0.109-1.016-0.172-0.422-0.125v0l0.406-1.594 1.656 0.375q0.625 0.031 1.125-0.094t0.781-0.344 0.484-0.5 0.281-0.563 0.109-0.516 0.031-0.391l-0.031-0.156v-7.969q0.031-2.219-2.016-2.563t-5.859 1.063l1.188 0.344q-0.125 0.469-0.969 1.5h6.781v1.406h-3.813v1.75h3.813v1.375h-3.813v2.938q0.906-0.313 1.563-0.813l-0.344-1.281 1.781-0.563 1.5 3.719-2.188 0.938-0.406-1.469q-2.438 1.875-6.625 1.781-1.063 0.031-1.75-0.422t-0.906-1.094-0.266-1.313 0-1.109 0.078-0.469l0.094-0.031h2.688q0 0.094-0.047 0.594t-0.031 0.844 0.141 0.594q0.313 0.438 1.375 0.5h0.156v-3.344h-3.906v-1.375h3.906v-1.75h-1l-1.688 1.719-1.188-1.031q0.969-1.031 2.188-3.25-0.344 0.125-1.281 0.531-0.656 0.844-1.5 1.719l-0.469-0.281t-0.969-0.563l-0.5-0.281q0.906-0.75 1.688-2.156t1.125-2.313 0.344-1l2.781 0.781q-0.219 0.563-0.688 1.406 2.281-0.656 4.172-0.891t3.078-0.125 2.094 0.453 1.359 0.734 0.734 0.859 0.328 0.656 0.078 0.281v0q0.031 0.156 0.078 0.438t0.141 1.203 0.141 1.922 0 2.547-0.203 3.109z"></path>
</svg>
