<!-- Generated by IcoMoon.io -->
<svg version="1.1" xmlns="http://www.w3.org/2000/svg" width="32" height="32" viewBox="0 0 32 32">
<title>moneybag</title>
<path d="M20.5 9.688q2.406-2.594 2.406-4.875 0-1.719-1-2.719-0.625-0.594-1.703-0.906t-1.938-0.344-2.578-0.031h-2.375q-1.406-0.031-2.125 0.016t-1.625 0.328-1.469 0.844q-1 1-1 2.813 0 1.219 0.688 2.547t1.391 2.094 1.422 1.359q0.313 0.281 0.75 0.234t0.656-0.359q0.281-0.281 0.25-0.719t-0.344-0.656q-1.313-1.156-2.063-2.359t-0.75-2.141q0-1 0.406-1.406 0.313-0.281 1.063-0.422t1.375-0.156 1.875-0.016h2.094q1.375 0 2.078 0.016t1.547 0.188 1.156 0.484q0 0.031 0.078 0.172t0.156 0.438 0.078 0.703q0 0.906-0.781 2.094t-2.125 2.281q-0.5 0.344-0.281 0.906 0.156 0.531 0.594 0.813 1.438 0.531 2.75 1.484t2.422 2.266 1.766 3.047 0.656 3.609q0 3.656-2.5 5.172t-8.5 1.516-8.5-1.516-2.5-5.172q0-2.281 1.016-4.422t2.891-3.797q0.313-0.313 0.344-0.703t-0.25-0.703q-0.313-0.313-0.703-0.344t-0.703 0.25q-2.188 1.969-3.391 4.5t-1.203 5.219q0 1.406 0.328 2.578t0.813 2.016 1.313 1.516 1.563 1.094 1.844 0.719 1.875 0.438 1.938 0.219 1.75 0.094 1.578 0.016 1.578-0.016 1.75-0.094 1.938-0.219 1.875-0.438 1.844-0.719 1.563-1.094 1.313-1.516 0.813-2.016 0.328-2.578q0.063-3.563-2-6.719t-5.5-4.906zM19.094 14.594q0.313-0.281 0.313-0.688t-0.297-0.703-0.703-0.297-0.719 0.281l-2.5 2.406-2.5-2.406q-0.281-0.281-0.688-0.281t-0.703 0.297-0.297 0.703 0.313 0.688l2.781 2.719v0.594h-2q-0.438 0-0.719 0.266t-0.281 0.719 0.281 0.734 0.719 0.281h2v1h-2q-0.438 0-0.719 0.266t-0.281 0.719 0.281 0.734 0.719 0.281h2v2.094q0 0.438 0.281 0.719t0.734 0.281 0.719-0.281 0.266-0.719v-2.094h2q0.469 0 0.734-0.281t0.266-0.734-0.266-0.719-0.734-0.266h-2v-1h2q0.469 0 0.734-0.281t0.266-0.734-0.266-0.719-0.734-0.266h-2v-0.406z"></path>
</svg>
