<!-- Generated by IcoMoon.io -->
<svg version="1.1" xmlns="http://www.w3.org/2000/svg" width="32" height="32" viewBox="0 0 32 32">
<title>moneybagfill</title>
<path d="M21.5 9.906q2.5-2.5 2.5-4.906 0-1.688-1-2.688-0.625-0.625-1.703-0.922t-1.938-0.344-2.547-0.047h-1.906q-1.625 0-2.422 0.047t-1.781 0.313-1.609 0.828q-1 1-1 2.813 0 2.281 2.406 4.906-3.313 1.719-5.359 4.906t-2.047 6.688q0 1.406 0.328 2.594t0.813 2.016 1.313 1.5 1.578 1.094 1.844 0.734 1.875 0.453 1.938 0.219 1.75 0.078h3.141t1.75-0.078 1.938-0.219 1.875-0.453 1.844-0.734 1.563-1.094 1.313-1.5 0.813-2.016 0.328-2.594q0-3.563-2.094-6.703t-5.5-4.891zM19.094 18.094q0.469 0 0.734 0.281t0.266 0.734-0.266 0.719-0.734 0.266h-2v1h2q0.469 0 0.734 0.281t0.266 0.734-0.266 0.719-0.734 0.266h-2v2.094q0 0.469-0.266 0.734t-0.719 0.266-0.734-0.266-0.281-0.734v-2.094h-2q-0.438 0-0.719-0.266t-0.281-0.719 0.281-0.734 0.719-0.281h2v-1h-2q-0.438 0-0.719-0.266t-0.281-0.719 0.281-0.734 0.719-0.281h2v-0.594l-2.781-2.688q-0.313-0.313-0.313-0.719t0.297-0.703 0.703-0.297 0.688 0.313l2.5 2.406 2.5-2.406q0.313-0.313 0.719-0.313t0.703 0.297 0.297 0.703-0.313 0.719l-3 2.875v0.406h2z"></path>
</svg>
