<!-- Generated by IcoMoon.io -->
<svg version="1.1" xmlns="http://www.w3.org/2000/svg" width="32" height="32" viewBox="0 0 32 32">
<title>more_light</title>
<path d="M7 18.656q-0.938 0-1.641-0.688t-0.703-1.641 0.703-1.641 1.641-0.688 1.641 0.688 0.703 1.656q0 0.938-0.672 1.625t-1.672 0.688zM16 18.656q-0.938 0-1.641-0.688t-0.703-1.641 0.703-1.641 1.641-0.688 1.641 0.688 0.703 1.656q0 0.938-0.672 1.625t-1.672 0.688zM25 18.656q-0.938 0-1.641-0.688t-0.703-1.641 0.703-1.641 1.641-0.688 1.641 0.688 0.703 1.656q0 0.938-0.672 1.625t-1.672 0.688z"></path>
</svg>
