<!-- Generated by IcoMoon.io -->
<svg version="1.1" xmlns="http://www.w3.org/2000/svg" width="32" height="32" viewBox="0 0 32 32">
<title>more_android_light</title>
<path d="M13.656 7q0-0.938 0.703-1.641t1.641-0.703 1.641 0.703 0.703 1.641-0.703 1.641-1.641 0.703-1.641-0.703-0.703-1.641zM13.719 16q0-0.938 0.703-1.641t1.656-0.703 1.641 0.703 0.688 1.641-0.688 1.641-1.641 0.703-1.656-0.703-0.703-1.641zM13.656 25q0-0.938 0.703-1.641t1.641-0.703 1.641 0.703 0.703 1.641-0.703 1.641-1.641 0.703-1.641-0.703-0.703-1.641z"></path>
</svg>
