<!-- Generated by IcoMoon.io -->
<svg version="1.1" xmlns="http://www.w3.org/2000/svg" width="32" height="32" viewBox="0 0 32 32">
<title>more</title>
<path d="M7 19q-1.25 0-2.125-0.875t-0.875-2.125 0.875-2.125 2.125-0.875 2.125 0.875 0.875 2.125-0.875 2.125-2.125 0.875zM16 19q-1.25 0-2.125-0.875t-0.875-2.125 0.875-2.125 2.125-0.875 2.125 0.875 0.875 2.125-0.875 2.125-2.125 0.875zM25 19q-1.25 0-2.125-0.875t-0.875-2.125 0.875-2.125 2.125-0.875 2.125 0.875 0.875 2.125-0.875 2.125-2.125 0.875z"></path>
</svg>
