<!-- Generated by IcoMoon.io -->
<svg version="1.1" xmlns="http://www.w3.org/2000/svg" width="32" height="32" viewBox="0 0 32 32">
<title>moreandroid</title>
<path d="M13.063 7q0-1.25 0.875-2.125t2.109-0.875 2.125 0.875 0.891 2.125-0.891 2.125-2.125 0.875-2.109-0.875-0.875-2.125zM13.063 16q0-1.25 0.875-2.125t2.109-0.875 2.125 0.875 0.891 2.125-0.891 2.125-2.125 0.875-2.109-0.875-0.875-2.125zM13.063 25q0-1.25 0.875-2.125t2.109-0.875 2.125 0.875 0.891 2.125-0.891 2.125-2.125 0.875-2.109-0.875-0.875-2.125z"></path>
</svg>
