<!-- Generated by IcoMoon.io -->
<svg version="1.1" xmlns="http://www.w3.org/2000/svg" width="32" height="32" viewBox="0 0 32 32">
<title>musicfill</title>
<path d="M27.969 24.094q0-0.031 0.016-0.063l0.016-0.031v-19q0-0.031-0.016-0.063t-0.016-0.047 0.016-0.063 0.016-0.078q-0.094-0.406-0.422-0.641t-0.734-0.172l-15 2.5q-0.406 0.063-0.656 0.406t-0.188 0.75q0.031 0 0.047 0.047t0.016 0.078q-0.063 0.188-0.063 0.281v13.438q-1-0.469-2.156-0.469-1.031 0-2 0.313-1.938 0.625-3 2.063-1.188 1.594-0.656 3.25 0.375 1.125 1.484 1.797t2.578 0.672q1 0 2-0.313 1.344-0.438 2.297-1.313t1.297-1.938q0.156-0.25 0.156-0.5v-0.156q0.063-0.406 0-0.813v-15.781l13-2.156v15.344q-1-0.469-2.188-0.469-1 0-2 0.313-1.938 0.625-3 2.063-1.188 1.594-0.656 3.25 0.375 1.125 1.484 1.797t2.578 0.672q1 0 2-0.313 1.813-0.594 2.875-1.906t0.875-2.75z"></path>
</svg>
