<!-- Generated by IcoMoon.io -->
<svg version="1.1" xmlns="http://www.w3.org/2000/svg" width="32" height="32" viewBox="0 0 32 32">
<title>musicforbidfill</title>
<path d="M19.281 22.844q-0.313 0.313-0.469 0.5-1.188 1.594-0.656 3.25 0.375 1.125 1.484 1.797t2.578 0.672q1 0 2-0.313 0.469-0.156 0.875-0.344zM13 8.531v-0.281l13-2.156v14.875l2 1.938v-17.906q0-0.031-0.016-0.063t-0.016-0.047 0.016-0.063 0.016-0.078q-0.094-0.406-0.422-0.656t-0.734-0.156l-15 2.5q-0.406 0.063-0.656 0.375zM11 14.938v6.5q-1-0.469-2.156-0.469-1.031 0-2 0.313-1.938 0.625-3 2.063-1.188 1.594-0.656 3.25 0.375 1.125 1.484 1.797t2.578 0.672q1 0 2-0.313 1.344-0.438 2.297-1.313t1.297-1.938q0.156-0.25 0.156-0.5v-0.156q0.063-0.406 0-0.813v-7.188zM29 29q-0.406 0-0.688-0.281l-23-22q-0.313-0.281-0.313-0.703t0.281-0.719 0.703-0.297 0.703 0.281l23 22q0.313 0.281 0.313 0.703t-0.281 0.703q-0.281 0.313-0.719 0.313z"></path>
</svg>
