<!-- Generated by IcoMoon.io -->
<svg version="1.1" xmlns="http://www.w3.org/2000/svg" width="32" height="32" viewBox="0 0 32 32">
<title>my_light</title>
<path d="M25 11q0-3.719-2.625-6.359t-6.375-2.641-6.375 2.641-2.625 6.359q0 2.719 1.484 4.969t3.922 3.313q-3.094 1-5.391 3.469t-3.078 5.781q-0.063 0.25 0.078 0.5t0.391 0.313h0.125q0.563 0 0.656-0.531 0.906-3.813 3.953-6.313t6.797-2.5h0.063q3.75 0 6.375-2.641t2.625-6.359zM8.344 11q0-3.156 2.25-5.406t5.406-2.25 5.406 2.25 2.25 5.406-2.25 5.406-5.406 2.25-5.406-2.25-2.25-5.406zM27.938 28.531q-1.156-4.656-4.938-7.344l-0.656-0.469q-0.25-0.125-0.516-0.078t-0.422 0.297-0.109 0.516 0.297 0.422l0.688 0.469q1.656 1.156 2.797 2.859t1.578 3.734q0.125 0.531 0.688 0.531h0.125q0.563-0.344 0.469-0.938z"></path>
</svg>
