<!-- Generated by IcoMoon.io -->
<svg version="1.1" xmlns="http://www.w3.org/2000/svg" width="32" height="32" viewBox="0 0 32 32">
<title>new</title>
<path d="M30.094 13.938q0-3.25-1.875-6.016t-5.094-4.375-7.016-1.609-7.031 1.609-5.109 4.375-1.875 6.016q0 2.75 1.422 5.203t3.984 4.203q0.344 0.219 0.75 0.141t0.641-0.406 0.156-0.75-0.422-0.641q-2.156-1.469-3.344-3.484t-1.188-4.266q0-2.688 1.609-5t4.375-3.656 6.016-1.344 6.016 1.344 4.375 3.656 1.609 5.016-1.609 5.016-4.375 3.641-6.016 1.328q-0.031 0-0.094 0.016l-0.063 0.016q-0.375-0.063-0.688 0.125t-0.438 0.531q-0.281 0.781-2.938 2.281 0.531-1.813 0.094-2.469-0.344-0.469-0.938-0.469-0.406 0-0.703 0.281t-0.297 0.719q0 0.25 0.125 0.469-0.156 1.031-1.031 3.125-0.25 0.625 0.25 1.094 0.281 0.281 0.688 0.281 0.219 0 0.406-0.063 4.5-2.031 5.875-3.938 3.719-0.063 6.891-1.672t5.016-4.359 1.844-5.969zM10.719 18.906q0.188 0.094 0.438 0.094 0.625 0 0.906-0.531l2.219-4.375 2.875 4.438q0.281 0.469 0.813 0.469h0.031q0.531 0 0.813-0.438l4.031-5.906q0.25-0.344 0.172-0.75t-0.422-0.641-0.75-0.156-0.656 0.422l-3.156 4.656-3-4.625q-0.281-0.469-0.875-0.469-0.594 0.031-0.844 0.563l-3.031 5.875q-0.188 0.375-0.063 0.766t0.5 0.609z"></path>
</svg>
