<!-- Generated by IcoMoon.io -->
<svg version="1.1" xmlns="http://www.w3.org/2000/svg" width="32" height="32" viewBox="0 0 32 32">
<title>newfill</title>
<path d="M16 2q-3.781 0-7.016 1.609t-5.109 4.375-1.875 6.016q0 2.719 1.406 5.172t3.938 4.172l2.719 2.219q-0.219 1.094-1.031 3.063-0.25 0.625 0.25 1.094 0.281 0.281 0.688 0.281 0.219 0 0.406-0.094 4.5-2 5.875-3.906 3.719-0.063 6.891-1.688t5.016-4.359 1.844-5.953q0-3.25-1.875-6.016t-5.109-4.375-7.016-1.609zM22.844 12.719l-4.031 5.875q-0.281 0.438-0.813 0.438h-0.031q-0.531 0-0.813-0.438l-2.875-4.438-2.219 4.344q-0.281 0.531-0.906 0.531-0.219 0-0.438-0.094-0.375-0.188-0.5-0.578t0.063-0.766l3.031-5.906q0.25-0.531 0.844-0.531 0.563-0.031 0.875 0.438l3 4.656 3.156-4.656q0.25-0.344 0.656-0.422t0.75 0.156 0.422 0.641-0.172 0.75z"></path>
</svg>
