<!-- Generated by IcoMoon.io -->
<svg version="1.1" xmlns="http://www.w3.org/2000/svg" width="32" height="32" viewBox="0 0 32 32">
<title>news_hot_light</title>
<path d="M24.531 2.656h-17q-1.156 0-2.016 0.859t-0.859 2.016v21q0 1.156 0.828 1.984t1.984 0.828q0.188 0 0.344-0.063l8.188-4.563 8.188 4.563q0.094 0.063 0.344 0.063 1.156 0 1.984-0.828t0.828-1.984v-21q0-1.156-0.828-2.016t-1.984-0.859zM26 26.531q0 0.563-0.391 0.984t-0.953 0.484l-8.375-4.594q0-0.063-0.281-0.063-0.188 0-0.344 0.063l-8.25 4.594q-0.563-0.063-0.953-0.484t-0.391-0.984v-21q-0.031-0.594 0.422-1.063t1.047-0.469h17q0.594 0 1.031 0.469t0.438 1.063v21zM10 10h12q0.313 0 0.484-0.188t0.172-0.484-0.172-0.484-0.484-0.188h-12q-0.313 0-0.484 0.188t-0.172 0.5q0 0.281 0.203 0.469t0.453 0.188zM10 14.656h12q0.313 0 0.484-0.172t0.172-0.484-0.172-0.484-0.484-0.172h-12q-0.313 0-0.484 0.172t-0.172 0.484q0 0.281 0.203 0.469t0.453 0.188zM22.063 18h-12q-0.281 0-0.469 0.188t-0.188 0.484 0.188 0.484 0.469 0.188h12q0.313 0 0.484-0.188t0.172-0.5q0-0.281-0.188-0.469t-0.469-0.188z"></path>
</svg>
