<!-- Generated by IcoMoon.io -->
<svg version="1.1" xmlns="http://www.w3.org/2000/svg" width="32" height="32" viewBox="0 0 32 32">
<title>news_fill_light</title>
<path d="M28 5.344h-24q-0.844 0-1.422 0.563t-0.578 1.438v17.313q0 0.875 0.578 1.438t1.422 0.563h24q0.844 0 1.422-0.563t0.578-1.438v-17.313q0-0.813-0.578-1.406t-1.422-0.594zM5.344 9.344q0-0.313 0.172-0.5t0.484-0.188h8q0.313 0 0.484 0.188t0.172 0.5v6.594q0 0.281-0.172 0.469t-0.484 0.188h-8q-0.313 0-0.484-0.188t-0.172-0.469v-6.594zM26 22.656h-20q-0.313 0-0.484-0.172t-0.172-0.484 0.172-0.484 0.484-0.172h20q0.313 0 0.484 0.172t0.172 0.484-0.172 0.484-0.484 0.172zM16.656 13.938q0-0.313 0.188-0.484t0.5-0.172h4q0.281 0 0.469 0.172t0.188 0.469-0.188 0.484-0.469 0.188h-4q-0.281 0-0.484-0.188t-0.203-0.469zM26 10.594h-8.656q-0.313 0-0.5-0.188t-0.188-0.484 0.188-0.469 0.5-0.172h8.656q0.313 0 0.484 0.172t0.172 0.469-0.172 0.484-0.484 0.188z"></path>
</svg>
