<!-- Generated by IcoMoon.io -->
<svg version="1.1" xmlns="http://www.w3.org/2000/svg" width="32" height="32" viewBox="0 0 32 32">
<title>news_light</title>
<path d="M28 5.344h-24q-0.844 0-1.422 0.563t-0.578 1.438v17.313q0 0.875 0.578 1.438t1.422 0.563h24q0.844 0 1.422-0.563t0.578-1.438v-17.313q0-0.813-0.578-1.406t-1.422-0.594zM28.656 24.656q0 0.313-0.172 0.5t-0.484 0.188h-24q-0.313 0-0.484-0.188t-0.172-0.5v-17.313q0-0.313 0.172-0.5t0.484-0.188h24q0.313 0 0.484 0.188t0.172 0.5v17.313zM6 16.594h8q0.313 0 0.484-0.188t0.172-0.469v-6.594q0-0.313-0.172-0.5t-0.484-0.188h-8q-0.313 0-0.484 0.188t-0.172 0.5v6.594q0 0.281 0.172 0.469t0.484 0.188zM6.656 10h6.688v5.281h-6.688v-5.281zM26 9.281h-8.656q-0.313 0-0.5 0.172t-0.188 0.469 0.188 0.484 0.5 0.188h8.656q0.313 0 0.484-0.188t0.172-0.484-0.172-0.469-0.484-0.172zM21.406 14.594q0.281 0 0.469-0.188t0.188-0.484-0.188-0.469-0.469-0.172h-4q-0.313 0-0.5 0.172t-0.188 0.469 0.188 0.484 0.5 0.188h4zM26 21.344h-20q-0.313 0-0.484 0.172t-0.172 0.484 0.172 0.484 0.484 0.172h20q0.313 0 0.484-0.172t0.172-0.484-0.172-0.484-0.484-0.172z"></path>
</svg>
