<!-- Generated by IcoMoon.io -->
<svg version="1.1" xmlns="http://www.w3.org/2000/svg" width="32" height="32" viewBox="0 0 32 32">
<title>news</title>
<path d="M27.094 5h-22.094q-1.25 0-2.125 0.891t-0.875 2.109v16q0 1.281 0.859 2.141t2.141 0.859h22.094q1.281 0 2.141-0.859t0.859-2.141v-16q0-1.219-0.875-2.109t-2.125-0.891zM28.094 24q0 0.438-0.266 0.719t-0.734 0.281h-22.094q-0.438 0-0.719-0.281t-0.281-0.719v-16q0-0.438 0.281-0.719t0.719-0.281h22.094q0.469 0 0.734 0.281t0.266 0.719v16zM7.094 17h5.906q0.438 0 0.719-0.281t0.281-0.719v-5.906q0-0.438-0.281-0.719t-0.719-0.281h-5.906q-0.438 0-0.719 0.281t-0.281 0.719v5.906q0 0.438 0.281 0.719t0.719 0.281zM8.094 11.094h3.906v3.906h-3.906v-3.906zM25 9h-8q-0.438 0-0.719 0.281t-0.281 0.719 0.281 0.719 0.719 0.281h8q0.438 0 0.719-0.281t0.281-0.719-0.281-0.719-0.719-0.281zM21 15q0.438 0 0.719-0.281t0.281-0.719-0.281-0.719-0.719-0.281h-4q-0.438 0-0.719 0.281t-0.281 0.719 0.281 0.719 0.719 0.281h4zM25 21h-18q-0.438 0-0.719 0.281t-0.281 0.719 0.281 0.719 0.719 0.281h18q0.438 0 0.719-0.281t0.281-0.719-0.281-0.719-0.719-0.281z"></path>
</svg>
