<!-- Generated by IcoMoon.io -->
<svg version="1.1" xmlns="http://www.w3.org/2000/svg" width="32" height="32" viewBox="0 0 32 32">
<title>news_hot_fill_light</title>
<path d="M24.531 2.656h-17q-1.156 0-2.016 0.859t-0.859 2.016v21q0 1.156 0.828 1.984t1.984 0.828q0.188 0 0.344-0.063l8.188-4.563 8.188 4.563q0.094 0.063 0.344 0.063 1.156 0 1.984-0.828t0.828-1.984v-21q0-1.156-0.828-2.016t-1.984-0.859zM22 19.344h-12q-0.313 0-0.484-0.188t-0.172-0.484 0.172-0.484 0.484-0.188h12q0.313 0 0.484 0.188t0.172 0.469q0 0.313-0.203 0.5t-0.453 0.188zM22 14.656h-12q-0.313 0-0.484-0.172t-0.172-0.484 0.172-0.484 0.484-0.172h12q0.313 0 0.484 0.172t0.172 0.484-0.172 0.484-0.484 0.172zM22 10h-12q-0.313 0-0.484-0.188t-0.172-0.484 0.172-0.484 0.484-0.188h12q0.313 0 0.484 0.188t0.172 0.484-0.172 0.484-0.484 0.188z"></path>
</svg>
