<!-- Generated by IcoMoon.io -->
<svg version="1.1" xmlns="http://www.w3.org/2000/svg" width="32" height="32" viewBox="0 0 32 32">
<title>newshot</title>
<path d="M24 4.094h-15.906q-1.281 0-2.141 0.859t-0.859 2.141v19.906q0 1.281 0.859 2.141t2.141 0.859q0.125 0 0.297-0.047t0.203-0.047l7.406-4.594 7.5 4.594q0.188 0.094 0.5 0.094 1.281 0 2.141-0.859t0.859-2.141v-19.906q0-1.281-0.859-2.141t-2.141-0.859zM25 27q0 0.844-0.813 1l-7.688-4.688q-0.188-0.125-0.5-0.125-0.406 0-0.5 0.125l-7.594 4.688q-0.313-0.094-0.563-0.375t-0.25-0.625v-19.906q0-0.438 0.281-0.719t0.719-0.281h15.906q0.438 0 0.719 0.281t0.281 0.719v19.906zM21 10h-10q-0.438 0-0.719 0.281t-0.281 0.719 0.281 0.719 0.719 0.281h10q0.438 0 0.719-0.281t0.281-0.719-0.281-0.719-0.719-0.281zM21 14h-10q-0.438 0-0.719 0.281t-0.281 0.719 0.281 0.719 0.719 0.281h10q0.438 0 0.719-0.281t0.281-0.719-0.281-0.719-0.719-0.281zM21 18h-10q-0.438 0-0.719 0.281t-0.281 0.719 0.281 0.719 0.719 0.281h10q0.438 0 0.719-0.281t0.281-0.719-0.281-0.719-0.719-0.281z"></path>
</svg>
