<!-- Generated by IcoMoon.io -->
<svg version="1.1" xmlns="http://www.w3.org/2000/svg" width="32" height="32" viewBox="0 0 32 32">
<title>newshotfill</title>
<path d="M24 4.094h-15.906q-1.281 0-2.141 0.859t-0.859 2.141v19.906q0 1.281 0.859 2.141t2.141 0.859q0.125 0 0.297-0.047t0.203-0.047l7.406-4.594 7.5 4.594q0.188 0.094 0.5 0.094 1.281 0 2.141-0.859t0.859-2.141v-19.906q0-1.281-0.859-2.141t-2.141-0.859zM21 20h-10q-0.438 0-0.719-0.281t-0.281-0.719 0.281-0.719 0.719-0.281h10q0.438 0 0.719 0.281t0.281 0.719-0.281 0.719-0.719 0.281zM21 16h-10q-0.438 0-0.719-0.281t-0.281-0.719 0.281-0.719 0.719-0.281h10q0.438 0 0.719 0.281t0.281 0.719-0.281 0.719-0.719 0.281zM21 12h-10q-0.438 0-0.719-0.281t-0.281-0.719 0.281-0.719 0.719-0.281h10q0.438 0 0.719 0.281t0.281 0.719-0.281 0.719-0.719 0.281z"></path>
</svg>
