<!-- Generated by IcoMoon.io -->
<svg version="1.1" xmlns="http://www.w3.org/2000/svg" width="32" height="32" viewBox="0 0 32 32">
<title>notificationfill</title>
<path d="M16.438 28.875q-0.969 0-2.156-1.156l-5.688-5.719h-2.594q-1.25 0-2.125-0.875t-0.875-2.125v-6q0-1.25 0.875-2.125t2.125-0.875h2.594l5.688-5.719q1.156-1.156 2.156-1.156 0.625 0 1.094 0.469t0.469 1.406v22q0 0.969-0.469 1.422t-1.094 0.453zM21.5 22.813q-0.344 0-0.594-0.188-0.344-0.219-0.406-0.641t0.188-0.734l0.375-0.563q0.688-0.906 1-1.406t0.625-1.406 0.313-1.875q0-1.031-0.281-1.891t-0.578-1.328-0.922-1.313q-0.313-0.406-0.531-0.719-0.25-0.313-0.188-0.734t0.406-0.656 0.75-0.172 0.656 0.406q0.125 0.219 0.5 0.656 0.719 0.969 1.078 1.547t0.734 1.734 0.375 2.469q0 1.281-0.406 2.469t-0.781 1.797-1.125 1.609l-0.375 0.531q-0.313 0.406-0.813 0.406zM24.875 26.219q-0.375 0-0.656-0.25-0.313-0.281-0.328-0.688t0.234-0.719q1.813-2.063 2.844-4.063t1.031-4.5-1.031-4.5-2.844-4.063q-0.25-0.313-0.234-0.719t0.328-0.688 0.734-0.25 0.703 0.344q1.969 2.281 3.156 4.609t1.188 5.266-1.188 5.266-3.156 4.609q-0.313 0.344-0.781 0.344z"></path>
</svg>
