<!-- Generated by IcoMoon.io -->
<svg version="1.1" xmlns="http://www.w3.org/2000/svg" width="32" height="32" viewBox="0 0 32 32">
<title>noticefill</title>
<path d="M27.813 23.438q-0.188-0.25-0.422-0.609t-0.891-1.469-1.141-2.141-0.875-2.375-0.391-2.406q0-3.688-1.422-5.906t-3.672-3.063v-0.469q0-1.25-0.875-2.125t-2.125-0.875-2.125 0.875-0.875 2.125v0.469q-2.25 0.844-3.672 3.063t-1.422 5.906q0 1.063-0.391 2.406t-0.891 2.375-1.125 2.109-0.891 1.484-0.422 0.594q-0.25 0.375-0.156 0.813t0.5 0.656 1.109 0.563 2.563 1.031 3.609 1.063q0.5 1.563 1.641 2.516t2.547 0.953 2.531-0.953 1.656-2.516q1.75-0.375 3.609-1.063t2.563-1.016 1.109-0.547 0.5-0.672-0.156-0.797zM15 5q0-0.406 0.297-0.703t0.703-0.297 0.703 0.297 0.297 0.703v0.031q-0.344-0.031-0.656-0.031h-0.688q-0.313 0-0.656 0.031v-0.031zM16 29q-1.063 0-1.813-1.094 0.969 0.094 1.813 0.094t1.813-0.094q-0.75 1.094-1.813 1.094z"></path>
</svg>
