<!-- Generated by IcoMoon.io -->
<svg version="1.1" xmlns="http://www.w3.org/2000/svg" width="32" height="32" viewBox="0 0 32 32">
<title>notificationforbidfill</title>
<path d="M6 10q-1.281 0-2.141 0.844t-0.859 2.063v6.094q0 1.281 0.859 2.141t2.141 0.859h2.594l5.719 5.906q1.094 1.094 2.094 1.094 0.406 0 0.594-0.094 1-0.5 1-1.594v-7l-10.688-10.313h-1.313zM29.688 25.313l-1.781-1.719q2.094-3.719 2.094-7.594 0-2.719-0.953-5.266t-2.734-4.641q-0.313-0.313-0.703-0.344t-0.703 0.25q-0.313 0.313-0.359 0.703t0.266 0.703q1.5 1.813 2.344 4.047t0.844 4.547q0 3.219-1.594 6.094l-2.906-2.781q0.5-1.844 0.5-3.313 0-3.563-2.094-6.406-0.219-0.375-0.625-0.438t-0.781 0.25q-0.813 0.625-0.188 1.406 1.688 2.313 1.688 5.188 0 0.688-0.188 1.688l-3.813-3.594v-9.281q0-0.594-0.266-1.031t-0.734-0.594q-1.344-0.5-2.688 1l-3.313 3.313-4.313-4.188q-0.281-0.313-0.688-0.313t-0.703 0.297-0.297 0.703 0.313 0.688l23 22q0.281 0.313 0.688 0.313t0.703-0.297 0.297-0.703-0.313-0.688z"></path>
</svg>
