<!-- Generated by IcoMoon.io -->
<svg version="1.1" xmlns="http://www.w3.org/2000/svg" width="32" height="32" viewBox="0 0 32 32">
<title>notice_forbid_fill</title>
<path d="M29.688 26.313l-2.781-2.719q0-0.094-0.094-0.094l-0.391-0.594t-0.938-1.547-1.078-2.063-0.922-2.422-0.391-2.375q0-3.719-1.422-5.938t-3.672-3.063v-0.5q0-1.281-0.859-2.141t-2.141-0.859-2.141 0.859-0.859 2.141v0.5q-1.344 0.438-2.406 1.5l-2.906-2.688q-0.281-0.313-0.688-0.313t-0.703 0.297-0.297 0.703 0.313 0.688l23 22q0.281 0.313 0.688 0.313t0.703-0.297 0.297-0.703-0.313-0.688zM14 5q0-0.438 0.281-0.719t0.719-0.281 0.719 0.281 0.281 0.719h-2zM6.906 14.406q0 1.063-0.391 2.359t-0.922 2.422-1.078 2.078-0.938 1.547l-0.391 0.594q-0.188 0.188-0.188 0.781 0.156 0.469 0.5 0.719 3.75 1.875 7.313 2.594 0.531 1.594 1.656 2.547t2.531 0.953 2.531-0.953 1.656-2.547q1.5-0.313 4.219-1.188l-16.094-15.313q-0.406 2-0.406 3.406zM15 28q1.188 0 1.813-0.094-0.813 1.094-1.813 1.094t-1.813-1.094q0.625 0.094 1.813 0.094z"></path>
</svg>
