<!-- Generated by IcoMoon.io -->
<svg version="1.1" xmlns="http://www.w3.org/2000/svg" width="32" height="32" viewBox="0 0 32 32">
<title>order</title>
<path d="M10.375 5.078q-0.625-0.266-1.094 0.203l-6 6q-0.281 0.313-0.281 0.719t0.297 0.703 0.703 0.297 0.719-0.281l4.281-4.313v16.594q0 0.406 0.297 0.703t0.703 0.297 0.703-0.297 0.297-0.703v-19q0-0.656-0.625-0.922zM28.703 19.297q-0.297-0.297-0.703-0.297t-0.719 0.281l-3.281 3.313v-16.594q0-0.406-0.297-0.703t-0.703-0.297-0.703 0.297-0.297 0.703v19q0 0.656 0.625 0.938 0.188 0.063 0.375 0.063 0.406 0 0.719-0.281l5-5q0.281-0.313 0.281-0.719t-0.297-0.703z"></path>
</svg>
