<!-- Generated by IcoMoon.io -->
<svg version="1.1" xmlns="http://www.w3.org/2000/svg" width="32" height="32" viewBox="0 0 32 32">
<title>paintfill</title>
<path d="M31 15.656q0-1.25-0.875-2.125l-11.719-11.719q-0.844-0.844-2.125-0.844t-2.125 0.844l-4.25 4.25q-0.875 0.875-0.875 2.125t0.875 2.125l11.719 11.719q0.875 0.875 2.125 0.875t2.125-0.875l1.094-1.125 0.813 0.844q0.281 0.281 0.297 0.688t-0.234 0.656l-3 2.563q-0.281 0.313-0.703 0.313t-0.703-0.313l-7.781-7.781q-0.875-0.875-2.109-0.875t-2.141 0.875l-0.281 0.313-1.938-1.938q-0.281-0.281-0.688-0.281t-0.719 0.281l-0.594 0.625-4.344 4.344q-0.875 0.875-0.875 2.109t0.875 2.109l3.531 3.563q0.875 0.875 2.109 0.875t2.141-0.875l4.344-4.344 0.594-0.625q0.281-0.281 0.281-0.703t-0.281-0.703l-3.031-3.031 0.313-0.281q0.281-0.313 0.703-0.313t0.703 0.313v0l7.781 7.781q0.875 0.875 2.125 0.875 1.219 0 2.063-0.844l3-2.563q0.875-0.875 0.875-2.109t-0.875-2.141l-0.844-0.813 1.75-1.719q0.875-0.875 0.875-2.125zM27.078 16.469q-0.297 0.281-0.703 0.281t-0.719-0.281l-10.063-10.281q-0.313-0.313-0.297-0.719t0.313-0.703 0.703-0.297 0.688 0.313l10.094 10.281q0.281 0.281 0.281 0.703t-0.297 0.703z"></path>
</svg>
