<!-- Generated by IcoMoon.io -->
<svg version="1.1" xmlns="http://www.w3.org/2000/svg" width="32" height="32" viewBox="0 0 32 32">
<title>pay</title>
<path d="M24.969 28.125h-19.969q-1.25 0-2.125-0.875t-0.875-2.125v-18.063q0-1.25 0.875-2.125t2.125-0.875h20.063q1.25 0 2.125 0.875t0.875 2.125v2.938q0 0.406-0.281 0.703t-0.703 0.297-0.719-0.297-0.297-0.703v-2.938q0-0.406-0.281-0.703t-0.719-0.297h-20.063q-0.406 0-0.703 0.297t-0.297 0.703v18.063q0 0.438 0.297 0.719t0.703 0.281h19.969q0.438 0 0.719-0.281t0.281-0.719v-3.063q0-0.438 0.297-0.719t0.719-0.281 0.703 0.281 0.281 0.719v3.063q0 1.25-0.875 2.125t-2.125 0.875zM19.688 16.063q0-0.406 0.297-0.688t0.688-0.281 0.688 0.281 0.297 0.688-0.297 0.688-0.688 0.281-0.688-0.281-0.297-0.688zM28 20h-10q-0.813 0-1.406-0.594t-0.594-1.406v-4q0-0.813 0.594-1.406t1.406-0.594h10q0.813 0 1.406 0.594t0.594 1.406v4q0 0.813-0.594 1.406t-1.406 0.594zM18 14v4h10v-4h-10z"></path>
</svg>
