<!-- Generated by IcoMoon.io -->
<svg version="1.1" xmlns="http://www.w3.org/2000/svg" width="32" height="32" viewBox="0 0 32 32">
<title>peoplelist</title>
<path d="M24.094 12q0-3.75-2.625-6.375t-6.375-2.625-6.375 2.625-2.625 6.375q0 2.531 1.234 4.594t3.359 3.219q-2.875 1.125-4.891 3.5t-2.609 5.5q-0.063 0.375 0.156 0.75t0.656 0.438h0.188q0.844 0 1-0.813 0.688-3.5 3.453-5.813t6.359-2.375h0.188q3.625 0 6.266-2.672t2.641-6.328zM8.094 12q0-2.938 2.047-4.969t4.969-2.031 4.953 2.031 2.031 4.969q0 2.844-2.016 4.891t-4.891 2.109h-0.281q-2.844-0.156-4.828-2.188t-1.984-4.813zM22 21q0 0.438 0.281 0.719t0.719 0.281h5q0.438 0 0.719-0.281t0.281-0.719-0.281-0.719-0.719-0.281h-5q-0.406 0-0.703 0.281t-0.297 0.719zM28 23.906h-8q-0.438 0-0.719 0.266t-0.281 0.719 0.281 0.734 0.719 0.281h8q0.438 0 0.719-0.281t0.281-0.734-0.281-0.719-0.719-0.266zM28 27.906h-7.906q-0.438 0-0.719 0.266t-0.281 0.719 0.281 0.734 0.719 0.281h7.906q0.438 0 0.719-0.281t0.281-0.719-0.297-0.719-0.703-0.281z"></path>
</svg>
