<!-- Generated by IcoMoon.io -->
<svg version="1.1" xmlns="http://www.w3.org/2000/svg" width="32" height="32" viewBox="0 0 32 32">
<title>people</title>
<path d="M25 12q0-3.75-2.625-6.375t-6.375-2.625-6.375 2.625-2.625 6.375q0 2.531 1.234 4.594t3.359 3.219q-2.875 1.125-4.891 3.5t-2.609 5.5q-0.063 0.375 0.156 0.75t0.656 0.438h0.188q0.844 0 1-0.813 0.688-3.5 3.438-5.813t6.375-2.375h0.188q3.688 0 6.297-2.625t2.609-6.375zM9 12q0-2.938 2.031-4.969t4.969-2.031 4.969 2.031 2.031 4.969q0 2.844-2.016 4.891t-4.891 2.109h-0.281q-2.875-0.063-4.844-2.109t-1.969-4.891zM22.594 21.094q-0.375-0.219-0.781-0.141t-0.625 0.453-0.141 0.781 0.453 0.625q3.656 2.531 4.406 6.375 0.156 0.813 1 0.813h0.188q0.406-0.063 0.641-0.406t0.172-0.781q-0.469-2.313-1.828-4.297t-3.484-3.422z"></path>
</svg>
