<!-- Generated by IcoMoon.io -->
<svg version="1.1" xmlns="http://www.w3.org/2000/svg" width="32" height="32" viewBox="0 0 32 32">
<title>people_list_light</title>
<path d="M25.344 11q0-3.719-2.641-6.359t-6.375-2.641-6.359 2.641-2.625 6.359q0 2.719 1.469 4.922t3.844 3.266q-3.125 0.969-5.469 3.469t-3.125 5.875q-0.063 0.25 0.078 0.5t0.391 0.313h0.125q0.563 0 0.688-0.531 0.938-3.844 3.969-6.328t6.75-2.484h0.281q3.75 0 6.375-2.625t2.625-6.375zM8.656 11q0-3.156 2.266-5.406t5.406-2.25 5.406 2.25 2.266 5.406-2.234 5.406-5.422 2.25q-3.219 0-5.453-2.234t-2.234-5.422zM21.938 20.656q0 0.313 0.188 0.5t0.469 0.188h4.75q0.281 0 0.469-0.188t0.188-0.484-0.188-0.484-0.469-0.188h-4.75q-0.25 0-0.453 0.203t-0.203 0.453zM22 25.344h5.344q0.281 0 0.469-0.188t0.188-0.484-0.188-0.484-0.469-0.188h-5.344q-0.313 0-0.484 0.188t-0.172 0.469q0 0.313 0.203 0.5t0.453 0.188zM19.406 28.063h-0.688q-0.281 0-0.469 0.188t-0.188 0.484 0.188 0.484 0.469 0.188h0.688q0.281 0 0.469-0.188t0.188-0.5q0-0.281-0.203-0.469t-0.453-0.188zM18.656 25.344h0.688q0.281 0 0.469-0.188t0.188-0.484-0.188-0.484-0.469-0.188h-0.688q-0.281 0-0.469 0.188t-0.188 0.484 0.188 0.484 0.469 0.188zM27.344 28h-5.344q-0.313 0-0.484 0.188t-0.172 0.484 0.172 0.484 0.484 0.188h5.344q0.281 0 0.469-0.188t0.188-0.484-0.188-0.484-0.469-0.188z"></path>
</svg>
