<!-- Generated by IcoMoon.io -->
<svg version="1.1" xmlns="http://www.w3.org/2000/svg" width="32" height="32" viewBox="0 0 32 32">
<title>phone</title>
<path d="M11.531 25.938v0.031q-0.125 0-0.266 0.016t-0.172 0.016h-0.094q-1.625 0-2.781-1.141t-1.188-2.766q-0.063-1.656 1.063-2.844 1.156-1.219 2.781-1.25h0.125q1.25 0 2.313 0.75 1.438 0.5 2.875-1.406t0.594-2.969q-0.281-0.219-0.563-0.531-0.063-0.031-0.094-0.094-0.969-1.094-1.031-2.5-0.031-1.656 1.094-2.844t2.781-1.25h0.125q1.375 0 2.453 0.875t1.391 2.219q0.188 0.563 0.25 1.344t-0.047 2.125-0.875 3.141-2.141 3.641q-1.281 1.719-2.656 2.906t-2.547 1.688-1.953 0.672-1.438 0.172zM11.406 23.938q0.281 0 0.641-0.031t1.141-0.281 1.531-0.703 1.797-1.391 2.016-2.219q1.188-1.625 1.859-3.172t0.75-2.672 0.031-1.703-0.172-0.984q-0.156-0.719-0.703-1.172t-1.234-0.453q-0.844 0.031-1.406 0.625t-0.563 1.406q0.031 0.719 0.531 1.25v0.031q0.188 0.188 0.375 0.313 0.125 0.094 0.188 0.188 0.313 0.313 0.516 0.75t0.344 1.141-0.172 1.672-1.094 2q-1.719 2.313-3.875 2.313-0.75 0-1.469-0.281-0.125-0.063-0.25-0.156-0.531-0.438-1.188-0.438-0.875 0.031-1.438 0.625t-0.531 1.406q0 0.813 0.578 1.375t1.391 0.563v0q0.031-0.031 0.094-0.031 0.188 0 0.313 0.031zM16 30.094q-2.844 0-5.438-1.094-0.375-0.156-0.531-0.531t0-0.766 0.547-0.547 0.766 0q2.219 0.938 4.656 0.938 3.25 0 6.016-1.609t4.375-4.375 1.609-6.016-1.609-6.016-4.375-4.375-6.016-1.609-6.016 1.609-4.375 4.375-1.609 6.016q0 3.469 1.844 6.375 0.219 0.344 0.125 0.75t-0.453 0.625-0.766 0.125-0.625-0.438q-2.125-3.406-2.125-7.438 0-2.844 1.109-5.438t2.984-4.469 4.469-2.984 5.438-1.109 5.438 1.109 4.469 2.984 2.984 4.469 1.109 5.438-1.109 5.438-2.984 4.469-4.469 2.984-5.438 1.109z"></path>
</svg>
