<!-- Generated by IcoMoon.io -->
<svg version="1.1" xmlns="http://www.w3.org/2000/svg" width="32" height="32" viewBox="0 0 32 32">
<title>pic</title>
<path d="M8 12q0-0.813 0.594-1.406t1.406-0.594 1.406 0.594 0.594 1.406-0.594 1.406-1.406 0.594-1.406-0.594-0.594-1.406zM26.344 28h-20.688q-1.5 0-2.578-1.078t-1.078-2.578v-16.688q0-1.5 1.078-2.578t2.578-1.078h20.688q1.5 0 2.578 1.078t1.078 2.578v16.688q0 1.5-1.078 2.578t-2.578 1.078zM5.656 6q-0.688 0-1.172 0.484t-0.484 1.172v16.688q0 0.688 0.484 1.172t1.172 0.484h20.688q0.688 0 1.172-0.484t0.484-1.172v-16.688q0-0.688-0.484-1.172t-1.172-0.484h-20.688zM7 24.031q-0.156 0-0.313-0.031-0.375-0.125-0.563-0.5t-0.094-0.75q0.094-0.281 0.266-0.719t0.688-1.422 1.125-1.734 1.594-1.328 2.078-0.547 2.875 0.563q0.75 0.219 1.109 0.313t1.109 0.188 1.219-0.063q0.438-0.063 0.703-0.531t0.641-1.656q0.25-0.813 0.422-1.266t0.625-1.219 0.969-1.188 1.422-0.766 2.031-0.344q0.406 0 0.703 0.297t0.297 0.703-0.297 0.703-0.703 0.297q-0.875 0-1.453 0.203t-0.969 0.719-0.609 1.016-0.531 1.438q-0.188 0.594-0.297 0.922t-0.375 0.859-0.531 0.828-0.719 0.578-1.016 0.375q-0.813 0.063-1.234 0.094t-1.125-0.094-1.031-0.219-0.922-0.281q-1.563-0.438-2.375-0.469h-0.031q-0.688 0-1.344 0.484t-1.125 1.234-0.781 1.406-0.5 1.188q-0.188 0.719-0.938 0.719z"></path>
</svg>
