<!-- Generated by IcoMoon.io -->
<svg version="1.1" xmlns="http://www.w3.org/2000/svg" width="32" height="32" viewBox="0 0 32 32">
<title>picfill</title>
<path d="M26.344 4h-20.688q-1.5 0-2.578 1.078t-1.078 2.578v16.688q0 1.5 1.078 2.578t2.578 1.078h20.688q1.5 0 2.578-1.078t1.078-2.578v-16.688q0-1.5-1.078-2.578t-2.578-1.078zM9 9q0.844 0 1.422 0.578t0.578 1.422-0.578 1.422-1.422 0.578-1.422-0.578-0.578-1.422 0.578-1.422 1.422-0.578zM26 23q0 0.406-0.297 0.688t-0.703 0.281l-17.938 0.031q-0.531 0-0.813-0.375-0.313-0.406-0.156-0.906 0.094-0.281 0.25-0.703t0.672-1.391 1.109-1.703 1.563-1.328 2.031-0.594q1.188 0.031 3 0.563 2.125 0.625 3.438 0.438 0.438-0.094 0.703-0.547t0.641-1.641q0.25-0.813 0.422-1.266t0.609-1.219 0.953-1.188 1.422-0.766 2.031-0.344q0.438 0 0.719 0.297t0.281 0.703l0.063 3.969v7z"></path>
</svg>
