<!-- Generated by IcoMoon.io -->
<svg version="1.1" xmlns="http://www.w3.org/2000/svg" width="32" height="32" viewBox="0 0 32 32">
<title>piclight</title>
<path d="M9.313 14.063q-1.094 0-1.875-0.781t-0.781-1.891 0.781-1.891 1.875-0.781 1.875 0.781 0.781 1.891-0.781 1.891-1.875 0.781zM9.313 10.063q-0.563 0-0.953 0.391t-0.391 0.938 0.391 0.938 0.953 0.391 0.953-0.391 0.391-0.938-0.391-0.938-0.953-0.391zM5.969 26.75q-1.344 0-2.328-1.047t-0.984-2.234v-14.75q0-1.031 0.25-1.734t0.766-1.031 1.047-0.438 1.25-0.109h20q1.406 0 2.375 0.969t0.969 2.344v14.625q0 1.375-0.969 2.344t-2.375 0.969l-20 0.094zM5.969 6.719q-1.125 0-1.563 0.344t-0.438 1.656v14.75q0 0.688 0.609 1.313t1.391 0.625l20-0.063q0.844 0 1.422-0.594t0.578-1.406v-14.625q0-0.813-0.578-1.406t-1.422-0.594h-20zM6.719 24.031q-0.125 0-0.219-0.031-0.25-0.094-0.375-0.344t-0.031-0.5q0.094-0.313 0.266-0.734t0.703-1.406 1.141-1.719 1.563-1.328 1.984-0.563q1.063 0.031 2.875 0.656 0.563 0.188 0.828 0.266t0.828 0.219 0.875 0.109 0.969-0.063q0.594-0.094 0.953-0.672t0.859-1.859q0.281-0.844 0.484-1.297t0.656-1.203 0.969-1.141 1.375-0.719 1.922-0.328q0.281 0 0.469 0.188t0.188 0.469-0.188 0.469-0.469 0.188q-0.781 0-1.422 0.234t-1.031 0.531-0.75 0.891-0.516 0.984-0.438 1.172q-0.219 0.625-0.359 0.953t-0.406 0.828-0.516 0.766-0.672 0.516-0.891 0.344q-0.781 0.031-1.203 0.063t-1.078-0.109-0.969-0.234-0.906-0.313q-1.594-0.563-2.469-0.594h-0.063q-0.75 0-1.5 0.547t-1.313 1.391-0.922 1.578-0.578 1.359q-0.156 0.438-0.625 0.438z"></path>
</svg>
