<!-- Generated by IcoMoon.io -->
<svg version="1.1" xmlns="http://www.w3.org/2000/svg" width="32" height="32" viewBox="0 0 32 32">
<title>play_forward_fill</title>
<path d="M27.563 15.188l-12-8.188q-0.25-0.156-0.563-0.156-0.406 0-0.703 0.281t-0.297 0.719v3.531l-6.438-4.375q-0.25-0.156-0.563-0.156-0.406 0-0.703 0.281t-0.297 0.719v16.313q0 0.406 0.297 0.703t0.703 0.297q0.313 0 0.563-0.156l6.438-4.375v3.531q0 0.406 0.297 0.703t0.703 0.297q0.313 0 0.563-0.156l12-8.188q0.438-0.281 0.438-0.813t-0.438-0.813z"></path>
</svg>
