<!-- Generated by IcoMoon.io -->
<svg version="1.1" xmlns="http://www.w3.org/2000/svg" width="32" height="32" viewBox="0 0 32 32">
<title>present</title>
<path d="M29.031 9h-2.344q0.375 0 0.75-0.609t0.594-1.328q0.438-1.438-0.531-2.719-0.063-0.063-0.125-0.156-0.875-0.719-1.938-0.969t-2-0.109-1.953 0.563-1.672 0.813-1.281 0.828q-0.344 0.25-0.422 0.656t0.156 0.75 0.641 0.422 0.75-0.172l0.094-0.063q0.531-0.375 1.141-0.719t1.547-0.75 1.891-0.375 1.641 0.594q0.281 0.406 0.156 0.844-0.188 0.5-0.75 0.984t-1 0.641q-1.969 0.75-3.281 0.844-0.031 0-0.078 0.016t-0.078 0.016h-2.781q-0.031 0-0.063-0.078t-0.063-0.109q-3.406-3.156-3.969-3.531-2.75-1.906-5.141-2.188t-4.016 1.094l-0.156 0.156q-0.938 1.281-0.5 2.719 0.219 0.719 0.578 1.328t0.766 0.609h-2.563q-0.406 0-0.719 0.313t-0.313 0.719v5q0 0.25 0.016 0.391t0.109 0.297 0.297 0.234 0.578 0.078v9.781q0 1.313 0.859 2.25t2.047 0.938h20.188q1.188 0 2.047-0.953t0.859-2.234v-9.781q0.375 0 0.578-0.078t0.297-0.234 0.109-0.297 0.016-0.391v-5q0-0.438-0.281-0.734t-0.688-0.297zM11.156 8.969q-1.281-0.094-3.313-0.875-0.406-0.125-0.969-0.609t-0.719-1.016q-0.125-0.406 0.125-0.813 0.719-0.563 1.672-0.609t1.953 0.328 1.703 0.75 1.391 0.844q0.094 0.063 2.281 2.031h-3.938q-0.031 0-0.094-0.016t-0.094-0.016zM28 11v3h-23.875q-0.125 0-0.125 0.031v-3.031h24zM26.094 27h-20.188q-0.375 0-0.641-0.375t-0.266-0.813v-9.813h22v9.813q0 0.438-0.281 0.813t-0.625 0.375z"></path>
</svg>
