<!-- Generated by IcoMoon.io -->
<svg version="1.1" xmlns="http://www.w3.org/2000/svg" width="32" height="32" viewBox="0 0 32 32">
<title>presentfill</title>
<path d="M29 9h-2.375q1.031-0.875 1.375-1.938 0.438-1.469-0.531-2.719-0.063-0.094-0.156-0.156-0.844-0.75-1.922-1t-2-0.109-1.938 0.563-1.672 0.813-1.281 0.859q-0.344 0.25-0.422 0.641t0.156 0.734 0.641 0.422 0.75-0.141l0.094-0.063q0.531-0.406 1.141-0.75t1.547-0.734 1.875-0.375 1.656 0.578q0.281 0.406 0.125 0.844-0.156 0.531-0.719 1.016t-1 0.641q-2 0.75-3.281 0.844-0.031 0-0.094 0.016t-0.094 0.016h-2.75q-0.094-0.156-0.156-0.188-3.438-3.219-3.938-3.563-2.781-1.875-5.172-2.156t-3.984 1.094q-0.094 0.063-0.156 0.156-0.969 1.25-0.531 2.719 0.344 1.031 1.375 1.938h-2.563q-0.406 0-0.703 0.297t-0.297 0.703v5q0 0.438 0.297 0.719t0.703 0.281v9.781q0 1.313 0.844 2.25t2.031 0.938h20.156q1.219 0 2.094-0.938t0.875-2.25v-9.781q0.406 0 0.703-0.281t0.297-0.719v-5q0-0.406-0.297-0.703t-0.703-0.297zM6.25 5.625q0.719-0.531 1.672-0.594t1.938 0.313 1.703 0.766 1.406 0.859q0.281 0.188 2.281 2.031h-3.938l-0.188-0.031q-1.281-0.094-3.313-0.875-0.406-0.125-0.969-0.609t-0.719-1.016q-0.156-0.438 0.125-0.844zM25.969 16.969h-20q-0.438 0-0.719-0.297t-0.281-0.703 0.281-0.703 0.719-0.297h20q0.406 0 0.703 0.297t0.297 0.703-0.297 0.703-0.703 0.297z"></path>
</svg>
