<!-- Generated by IcoMoon.io -->
<svg version="1.1" xmlns="http://www.w3.org/2000/svg" width="32" height="32" viewBox="0 0 32 32">
<title>profilefill</title>
<path d="M28 22.094h-8q-0.438 0-0.719 0.281t-0.281 0.719v6q0 0.469 0.281 0.734t0.719 0.266h8q0.438 0 0.719-0.266t0.281-0.734v-6q0-0.438-0.297-0.719t-0.703-0.281zM24 27h-1q-0.438 0-0.719-0.281t-0.281-0.719 0.281-0.719 0.719-0.281h1q0.438 0 0.719 0.281t0.281 0.719-0.297 0.719-0.703 0.281zM18 29.094v-6q0-0.813 0.594-1.406t1.406-0.594h1.594l0.094-0.094q-0.969-0.719-2.281-1.188 2.063-1.25 3.328-3.328t1.266-4.484q0-3.75-2.625-6.375t-6.375-2.625-6.375 2.625-2.625 6.375q0 2.5 1.266 4.578t3.328 3.234q-2.875 1.125-4.891 3.5t-2.609 5.5q-0.156 0.438 0.219 0.781 0.125 0.406 0.688 0.406h14.188q-0.188-0.313-0.188-0.906z"></path>
</svg>
