<!-- Generated by IcoMoon.io -->
<svg version="1.1" xmlns="http://www.w3.org/2000/svg" width="32" height="32" viewBox="0 0 32 32">
<title>profile_light</title>
<path d="M24.656 11.078q0-3.703-2.641-6.359t-6.344-2.656-6.359 2.656-2.656 6.344q0 2.719 1.469 4.922t3.875 3.297q-3.125 0.938-5.438 3.422t-3.156 5.828q-0.063 0.313 0.078 0.531t0.453 0.281h0.125q0.563 0 0.656-0.531 0.969-3.875 3.984-6.344t6.766-2.469h0.188q3.719 0.063 6.359-2.578t2.641-6.344zM8 11.063q0-3.156 2.266-5.406t5.406-2.25 5.406 2.25 2.266 5.406-2.266 5.406-5.406 2.25-5.406-2.25-2.266-5.406zM26.656 20.656h-7.313q-0.875 0-1.438 0.578t-0.563 1.422v5.344q0 0.844 0.563 1.422t1.438 0.578h7.313q0.875 0 1.438-0.578t0.563-1.422v-5.344q0-0.781-0.594-1.391t-1.406-0.609zM27.344 28q0 0.313-0.188 0.484t-0.5 0.172h-7.313q-0.313 0-0.5-0.172t-0.188-0.484v-5.344q0-0.281 0.188-0.469t0.5-0.188h7.313q0.313 0 0.5 0.188t0.188 0.469v5.344zM20.719 24.594h1.281q0.313 0 0.484-0.188t0.172-0.484-0.172-0.469-0.484-0.172h-1.281q-0.281 0-0.469 0.172t-0.188 0.469 0.188 0.484 0.469 0.188zM25.344 26h-4.625q-0.281 0-0.469 0.188t-0.188 0.484 0.188 0.484 0.469 0.188h4.625q0.281 0 0.469-0.188t0.188-0.5q0-0.281-0.203-0.469t-0.453-0.188z"></path>
</svg>
