<!-- Generated by IcoMoon.io -->
<svg version="1.1" xmlns="http://www.w3.org/2000/svg" width="32" height="32" viewBox="0 0 32 32">
<title>pullleft</title>
<path d="M16 30q-5.781 0-9.891-4.109t-4.109-9.891 4.109-9.891 9.891-4.109 9.891 4.109 4.109 9.891-4.109 9.891-9.891 4.109zM16 4q-4.969 0-8.484 3.516t-3.516 8.484 3.516 8.484 8.484 3.516 8.484-3.516 3.516-8.484-3.516-8.484-8.484-3.516zM9.063 16.375l0.031 0.031q0.063 0.188 0.188 0.313v0 0l4.969 4.969q0.313 0.313 0.719 0.313t0.703-0.297 0.297-0.703-0.281-0.719l-3.25-3.219h9.531q0.438 0 0.719-0.297t0.281-0.719-0.281-0.703-0.719-0.281h-9.563l3.313-3.281q0.281-0.313 0.281-0.719t-0.281-0.703-0.719-0.297q-0.406 0-0.688 0.281l-5.031 4.969q-0.469 0.469-0.219 1.063z"></path>
</svg>
