<!-- Generated by IcoMoon.io -->
<svg version="1.1" xmlns="http://www.w3.org/2000/svg" width="32" height="32" viewBox="0 0 32 32">
<title>pulldown</title>
<path d="M16 30q-5.781 0-9.891-4.109t-4.109-9.891 4.109-9.891 9.891-4.109 9.891 4.109 4.109 9.891-4.109 9.891-9.891 4.109zM16 4q-4.969 0-8.484 3.516t-3.516 8.484 3.516 8.484 8.484 3.516 8.484-3.516 3.516-8.484-3.516-8.484-8.484-3.516zM21.703 16.328q-0.297-0.297-0.719-0.297t-0.703 0.281l-3.281 3.25v-9.594q0-0.406-0.297-0.703t-0.703-0.297-0.703 0.297-0.297 0.703v9.656l-3.281-3.344q-0.313-0.281-0.719-0.297t-0.703 0.281-0.297 0.719 0.281 0.703l5 5.031q0.281 0.313 0.719 0.313 0.406 0 0.688-0.281v-0.031l5-4.969q0.313-0.313 0.313-0.719t-0.297-0.703z"></path>
</svg>
