<!-- Generated by IcoMoon.io -->
<svg version="1.1" xmlns="http://www.w3.org/2000/svg" width="32" height="32" viewBox="0 0 32 32">
<title>pullup</title>
<path d="M16 30q-5.781 0-9.891-4.109t-4.109-9.891 4.109-9.891 9.891-4.109 9.891 4.109 4.109 9.891-4.109 9.891-9.891 4.109zM16 4q-4.969 0-8.484 3.516t-3.516 8.484 3.516 8.484 8.484 3.516 8.484-3.516 3.516-8.484-3.516-8.484-8.484-3.516zM21.688 14.313l-4.938-5q-0.469-0.469-1.094-0.219l-0.063 0.031q-0.188 0.094-0.25 0.188v0 0l-5 4.969q-0.281 0.281-0.281 0.703t0.281 0.719 0.703 0.297 0.703-0.313l3.25-3.219v9.531q0 0.406 0.297 0.703t0.703 0.297 0.703-0.297 0.297-0.703v-9.594l3.281 3.313q0.281 0.313 0.719 0.313 0.406 0 0.703-0.297t0.297-0.703-0.313-0.719z"></path>
</svg>
