<!-- Generated by IcoMoon.io -->
<svg version="1.1" xmlns="http://www.w3.org/2000/svg" width="32" height="32" viewBox="0 0 32 32">
<title>punch</title>
<path d="M18 8h-4q-0.406 0-0.703 0.297t-0.297 0.703 0.297 0.703 0.703 0.297h4q0.406 0 0.703-0.297t0.297-0.703-0.297-0.703-0.703-0.297zM18 12h-4q-0.406 0-0.703 0.297t-0.297 0.703 0.297 0.703 0.703 0.297h4q0.406 0 0.703-0.297t0.297-0.703-0.297-0.703-0.703-0.297zM8 20h16q0.406 0 0.703-0.297t0.297-0.703-0.297-0.703-0.703-0.297h-1v-14q0-0.406-0.297-0.703t-0.703-0.297h-12q-0.406 0-0.703 0.297t-0.297 0.703v14h-1q-0.406 0-0.703 0.297t-0.297 0.703 0.297 0.703 0.703 0.297zM11 5h10v13h-10v-13zM28 9.531q0-1.281-0.594-1.906t-1.375-0.625h-0.031q-0.406 0-0.688 0.297t-0.281 0.703q0 0.375 0.25 0.656t0.656 0.344q0.063 0.188 0.063 0.594l0.844 14.406h-21.688l0.844-14.469q0-0.344 0.125-0.531 0.375-0.063 0.625-0.344t0.25-0.656q0-0.406-0.297-0.703t-0.703-0.297q-0.844 0-1.422 0.719t-0.578 1.75l-1 16.906q0 1.094 0.656 1.859t1.563 0.766h21.813q0.813 0 1.391-0.688t0.578-2zM26.906 27h-21.656q-0.063-0.031-0.156-0.203t-0.094-0.359l0.031-0.438h21.938l0.031 0.375q0 0.406-0.094 0.625z"></path>
</svg>
