<!-- Generated by IcoMoon.io -->
<svg version="1.1" xmlns="http://www.w3.org/2000/svg" width="32" height="32" viewBox="0 0 32 32">
<title>punch_light</title>
<path d="M19.344 8h-6.625q-0.281 0-0.469 0.188t-0.188 0.484 0.188 0.484 0.469 0.188h6.625q0.281 0 0.469-0.188t0.188-0.5q0-0.281-0.203-0.469t-0.453-0.188zM19.344 12h-6.625q-0.281 0-0.469 0.188t-0.188 0.484 0.188 0.484 0.469 0.188h6.625q0.281 0 0.469-0.188t0.188-0.5q0-0.281-0.203-0.469t-0.453-0.188zM8.063 20h16q0.313 0 0.484-0.188t0.172-0.484-0.172-0.484-0.484-0.188h-1.344v-14.656q0-0.313-0.172-0.484t-0.484-0.172h-12q-0.281 0-0.469 0.172t-0.188 0.484v14.656h-1.344q-0.281 0-0.469 0.188t-0.188 0.484 0.188 0.484 0.469 0.188zM10.719 4.656h10.688v14h-10.688v-14zM27.656 9.531q0-2.188-1.375-2.188h-0.875q-0.313 0-0.5 0.172t-0.188 0.484 0.188 0.484 0.5 0.172h0.781q0 0.031 0.047 0.109t0.078 0.297 0.031 0.531l0.781 14.406h-22.25l0.844-14.469q0-0.281 0.078-0.484t0.156-0.297 0.109-0.094h0.656q0.313 0 0.5-0.172t0.188-0.484-0.188-0.484-0.5-0.172h-0.656q-0.688 0-1.172 0.609t-0.484 1.516l-1 16.938q0 0.938 0.547 1.594t1.328 0.656h21.719q0.75 0 1.172-0.609t0.422-1.703zM27 27.344h-21.719q-0.188 0-0.375-0.281t-0.188-0.656l0.094-1.063h22.469l0.063 1.063q0 0.406-0.109 0.672t-0.234 0.266z"></path>
</svg>
