<!-- Generated by IcoMoon.io -->
<svg version="1.1" xmlns="http://www.w3.org/2000/svg" width="32" height="32" viewBox="0 0 32 32">
<title>qi</title>
<path d="M28.5 25h-10.438v-6h5.938q0.625 0 1.063-0.438t0.438-1.063q0-0.563-0.375-0.984t-0.969-0.484q-0.063-0.031-0.156-0.031h-5.938v-4.438q0-0.625-0.453-1.078t-1.078-0.453q-0.563 0-0.984 0.375t-0.484 0.938q-0.031 0.031-0.047 0.078t-0.016 0.078v13.5h-2.938v-8.938l-0.031-0.031 0.031-0.031q0-0.625-0.438-1.063t-1.063-0.438h-4.406l7.5-7.5h5.719l6.125 6q1.031 1.031 2.281 0.375 1.031-0.531 1.063-1.5 0-0.531-0.406-0.969l-7.156-6.625q-0.188-0.125-0.484-0.188t-0.484-0.094h-7.156q-0.531 0-1.031 0.344l-8.438 7.906q-0.188 0.156-0.328 0.313t-0.203 0.266-0.078 0.203-0.016 0.125v0.063l-0.063 2.781q0 0.625 0.438 1.063t1.063 0.438h4.5v7.5h-4.5q-0.625 0-1.063 0.438t-0.438 1.063 0.438 1.063 1.063 0.438h24q0.625 0 1.063-0.438t0.438-1.063-0.438-1.063-1.063-0.438v0z"></path>
</svg>
