<!-- Generated by IcoMoon.io -->
<svg version="1.1" xmlns="http://www.w3.org/2000/svg" width="32" height="32" viewBox="0 0 32 32">
<title>qr_code_light</title>
<path d="M12 4q0.563 0 0.953 0.391t0.391 0.953v6.656q0 0.563-0.391 0.953t-0.953 0.391h-6.656q-0.563 0-0.953-0.391t-0.391-0.953v-6.656q0-0.563 0.391-0.953t0.953-0.391h6.656zM12 2.656h-6.656q-1.125 0-1.906 0.781t-0.781 1.906v6.656q0 1.094 0.781 1.875t1.906 0.781h6.656q1.094 0 1.875-0.781t0.781-1.875v-6.656q0-1.125-0.781-1.906t-1.875-0.781zM26.656 4q0.563 0 0.953 0.391t0.391 0.953v6.656q0 0.563-0.391 0.953t-0.953 0.391h-6.656q-0.563 0-0.953-0.391t-0.391-0.953v-6.656q0-0.563 0.391-0.953t0.953-0.391h6.656zM26.656 2.656h-6.656q-1.094 0-1.875 0.781t-0.781 1.906v6.656q0 1.094 0.781 1.875t1.875 0.781h6.656q1.125 0 1.906-0.781t0.781-1.875v-6.656q0-1.125-0.781-1.906t-1.906-0.781zM12 18.656q0.563 0 0.953 0.391t0.391 0.953v6.656q0 0.563-0.391 0.953t-0.953 0.391h-6.656q-0.563 0-0.953-0.391t-0.391-0.953v-6.656q0-0.563 0.391-0.953t0.953-0.391h6.656zM12 17.344h-6.656q-1.125 0-1.906 0.781t-0.781 1.875v6.656q0 1.125 0.781 1.906t1.906 0.781h6.656q1.094 0 1.875-0.781t0.781-1.906v-6.656q0-1.094-0.781-1.875t-1.875-0.781zM23.406 28.656q-0.313 0-0.5-0.172t-0.188-0.484v-9.344q0-0.281 0.188-0.469t0.484-0.188 0.484 0.188 0.188 0.469v9.344q0 0.281-0.203 0.469t-0.453 0.188zM28.063 28.656q-0.281 0-0.469-0.172t-0.188-0.484v-9.344q0-0.281 0.188-0.469t0.484-0.188 0.469 0.188 0.172 0.469v9.344q0 0.281-0.188 0.469t-0.469 0.188zM18.719 28.656q-0.281 0-0.469-0.172t-0.188-0.484v-9.344q0-0.281 0.188-0.469t0.484-0.188 0.484 0.188 0.188 0.469v9.344q0 0.281-0.203 0.469t-0.484 0.188z"></path>
</svg>
