<!-- Generated by IcoMoon.io -->
<svg version="1.1" xmlns="http://www.w3.org/2000/svg" width="32" height="32" viewBox="0 0 32 32">
<title>qrcode</title>
<path d="M13.094 5v8h-8v-8h8zM13.094 3h-8q-0.813 0-1.406 0.594t-0.594 1.406v8q0 0.813 0.594 1.406t1.406 0.594h8q0.844 0 1.422-0.594t0.578-1.406v-8q0-0.813-0.578-1.406t-1.422-0.594zM28.094 5v8h-8v-8h8zM28.094 3h-8q-0.813 0-1.406 0.594t-0.594 1.406v8q0 0.813 0.594 1.406t1.406 0.594h8q0.844 0 1.422-0.594t0.578-1.406v-8q0-0.813-0.578-1.406t-1.422-0.594zM13.094 19v8h-8v-8h8zM13.094 17h-8q-0.813 0-1.406 0.594t-0.594 1.406v8q0 0.813 0.594 1.406t1.406 0.594h8q0.844 0 1.422-0.594t0.578-1.406v-8q0-0.813-0.578-1.406t-1.422-0.594zM19.094 28q-0.438 0-0.719-0.281t-0.281-0.719v-8q0-0.438 0.281-0.719t0.734-0.281 0.719 0.281 0.266 0.719v8q0 0.375-0.313 0.688t-0.688 0.313zM24 28q-0.438 0-0.719-0.281t-0.281-0.719v-8q0-0.438 0.281-0.719t0.719-0.281 0.719 0.281 0.281 0.719v8q0 0.375-0.313 0.688t-0.688 0.313zM29.094 28q-0.438 0-0.719-0.281t-0.281-0.719v-8q0-0.438 0.281-0.719t0.734-0.281 0.719 0.281 0.266 0.719v8q0 0.375-0.313 0.688t-0.688 0.313z"></path>
</svg>
