<!-- Generated by IcoMoon.io -->
<svg version="1.1" xmlns="http://www.w3.org/2000/svg" width="32" height="32" viewBox="0 0 32 32">
<title>question</title>
<path d="M14.5 24.5q0-0.625 0.438-1.063t1.063-0.438 1.063 0.438 0.438 1.063-0.438 1.063-1.063 0.438-1.063-0.438-0.438-1.063zM16 30q-5.781 0-9.891-4.109t-4.109-9.891 4.109-9.891 9.891-4.109 9.891 4.109 4.109 9.891-4.109 9.891-9.891 4.109zM16 4q-3.25 0-6.016 1.609t-4.375 4.375-1.609 6.016 1.609 6.016 4.375 4.375 6.016 1.609 6.016-1.609 4.375-4.375 1.609-6.016-1.609-6.016-4.375-4.375-6.016-1.609zM16 21.063q-0.406 0-0.703-0.297t-0.297-0.703v-1.688q0-0.781 0.406-1.563t0.797-1.234 1.141-1.203q0.563-0.563 0.828-0.844t0.547-0.719 0.281-0.75q0-1.25-0.875-2.141t-2.125-0.891-2.125 0.859-0.875 2.109q0 0.406-0.297 0.703t-0.703 0.297-0.703-0.297-0.297-0.703q0-2.063 1.469-3.516t3.531-1.453 3.531 1.469 1.469 3.563q0 0.688-0.375 1.422t-0.75 1.156-1.094 1.141q-0.594 0.594-0.891 0.906t-0.594 0.813-0.297 0.875v1.688q0 0.406-0.297 0.703t-0.703 0.297z"></path>
</svg>
