<!-- Generated by IcoMoon.io -->
<svg version="1.1" xmlns="http://www.w3.org/2000/svg" width="32" height="32" viewBox="0 0 32 32">
<title>radiobox</title>
<path d="M16 2.063q-2.844 0-5.422 1.109t-4.438 2.969-2.969 4.438-1.109 5.422 1.109 5.422 2.969 4.438 4.438 2.969 5.422 1.109 5.422-1.109 4.438-2.969 2.969-4.438 1.109-5.422-1.109-5.422-2.969-4.438-4.438-2.969-5.422-1.109zM16 27.938q-3.25 0-6-1.594t-4.344-4.344-1.594-6 1.594-6 4.344-4.344 6-1.594 6 1.594 4.344 4.344 1.594 6-1.594 6-4.344 4.344-6 1.594zM16 11q-2.063 0-3.531 1.469t-1.469 3.531 1.469 3.531 3.531 1.469 3.531-1.469 1.469-3.531-1.469-3.531-3.531-1.469z"></path>
</svg>
