<!-- Generated by IcoMoon.io -->
<svg version="1.1" xmlns="http://www.w3.org/2000/svg" width="32" height="32" viewBox="0 0 32 32">
<title>rankfill</title>
<path d="M9 9h-4q-0.406 0-0.703 0.297t-0.297 0.703v17q0 0.406 0.297 0.703t0.703 0.297h4q0.406 0 0.703-0.297t0.297-0.703v-17q0-0.406-0.297-0.703t-0.703-0.297zM18 15h-4q-0.406 0-0.703 0.297t-0.297 0.703v11q0 0.406 0.297 0.703t0.703 0.297h4q0.406 0 0.703-0.297t0.297-0.703v-11q0-0.406-0.297-0.703t-0.703-0.297zM27 4h-4q-0.406 0-0.703 0.297t-0.297 0.703v22q0 0.406 0.297 0.703t0.703 0.297h4q0.406 0 0.703-0.297t0.297-0.703v-22q0-0.406-0.297-0.703t-0.703-0.297z"></path>
</svg>
