<!-- Generated by IcoMoon.io -->
<svg version="1.1" xmlns="http://www.w3.org/2000/svg" width="32" height="32" viewBox="0 0 32 32">
<title>read</title>
<path d="M14 29h-0.125l-8.938-1q-1.219-0.031-2.078-0.906t-0.859-2.094v-19q0-1.25 0.875-2.125t2.125-0.875h0.125l8.938 1q1.219 0.031 2.078 0.906t0.859 2.094v19q0 1.25-0.875 2.125t-2.125 0.875zM4.969 5q-0.406 0.031-0.688 0.313t-0.281 0.688v19q0 0.406 0.297 0.703t0.703 0.297h0.125l8.906 1q0.406-0.031 0.688-0.313t0.281-0.688v-19q0-0.406-0.297-0.703t-0.703-0.297h-0.125zM19.031 28.875q-0.375 0-0.656-0.25t-0.344-0.625q-0.031-0.406 0.234-0.734t0.672-0.359l7.938-0.906h0.125q0.406 0 0.703-0.297t0.297-0.703v-19q0-0.406-0.281-0.688t-0.688-0.313l-7.906 0.875q-0.375 0.063-0.703-0.203t-0.375-0.672 0.203-0.734 0.656-0.359l8-0.906h0.094q1.25 0 2.125 0.875t0.875 2.125v19q0 1.219-0.859 2.094t-2.078 0.906l-7.906 0.875h-0.125z"></path>
</svg>
