<!-- Generated by IcoMoon.io -->
<svg version="1.1" xmlns="http://www.w3.org/2000/svg" width="32" height="32" viewBox="0 0 32 32">
<title>recharge</title>
<path d="M16 2q-5.781 0-9.891 4.109t-4.109 9.891 4.109 9.891 9.891 4.109 9.891-4.109 4.109-9.891-4.109-9.891-9.891-4.109zM16 28q-4.969 0-8.484-3.516t-3.516-8.484 3.516-8.484 8.484-3.516 8.484 3.516 3.516 8.484-3.516 8.484-8.484 3.516zM20.031 16q0.406 0 0.703-0.297t0.297-0.703-0.297-0.703-0.703-0.297h-3.031v-0.469l3.719-3.875q0.281-0.313 0.266-0.719t-0.313-0.688-0.703-0.281-0.688 0.313l-3.188 3.344-3.344-3.375q-0.313-0.281-0.719-0.281t-0.703 0.297-0.313 0.703 0.297 0.719l3.688 3.688v0.625h-2.969q-0.406 0-0.703 0.297t-0.297 0.703 0.297 0.703 0.703 0.297h2.969v2h-2.969q-0.406 0-0.703 0.297t-0.297 0.703 0.297 0.703 0.703 0.297h2.969v2.969q0 0.406 0.297 0.703t0.703 0.297 0.703-0.297 0.297-0.703v-2.969h3.031q0.406 0 0.703-0.297t0.297-0.703-0.297-0.703-0.703-0.297h-3.031v-2h3.031z"></path>
</svg>
