<!-- Generated by IcoMoon.io -->
<svg version="1.1" xmlns="http://www.w3.org/2000/svg" width="32" height="32" viewBox="0 0 32 32">
<title>rechargefill</title>
<path d="M16 2q-5.781 0-9.891 4.109t-4.109 9.891 4.109 9.891 9.891 4.109 9.891-4.109 4.109-9.891-4.109-9.891-9.891-4.109zM20.031 18q0.406 0 0.703 0.297t0.297 0.703-0.297 0.703-0.703 0.297h-3.031v2.969q0 0.406-0.297 0.703t-0.703 0.297-0.703-0.297-0.297-0.703v-2.969h-2.969q-0.406 0-0.703-0.297t-0.297-0.703 0.297-0.703 0.703-0.297h2.969v-2h-2.969q-0.406 0-0.703-0.297t-0.297-0.703 0.297-0.703 0.703-0.297h2.969v-0.625l-3.688-3.688q-0.313-0.313-0.297-0.719t0.297-0.703 0.703-0.297 0.703 0.281l3.375 3.375 3.156-3.344q0.313-0.313 0.719-0.313t0.703 0.281 0.313 0.688-0.297 0.719l-3.688 3.875v0.469h3.031q0.406 0 0.703 0.297t0.297 0.703-0.297 0.703-0.703 0.297h-3.031v2h3.031z"></path>
</svg>
