<!-- Generated by IcoMoon.io -->
<svg version="1.1" xmlns="http://www.w3.org/2000/svg" width="32" height="32" viewBox="0 0 32 32">
<title>recordlight</title>
<path d="M29 8.922q-0.344-0.203-0.656-0.016l-5 2.875q-0.031 0-0.063 0.031l-0.031 0.031q-0.25 0.031-0.422 0.219t-0.172 0.438v10.938q0 0.5-0.359 0.859t-0.859 0.359h-16.219q-0.5 0-0.859-0.359t-0.359-0.859v-13.531q0-0.531 0.359-0.891t0.859-0.359h16.469q0.281 0 0.484-0.188t0.203-0.469-0.203-0.469-0.484-0.188h-16.469q-1.063 0-1.813 0.75t-0.75 1.813v13.531q0 1.063 0.75 1.813t1.813 0.75h16.219q1.063 0 1.813-0.75t0.75-1.813v-2.125l4.313 2.688q0.156 0.094 0.344 0.094t0.344-0.063q0.344-0.219 0.344-0.594v-13.938q0-0.375-0.344-0.578zM28 22.25l-3.938-2.469h-0.063v-6.844l4-2.281v11.594zM5.406 11.359q0-0.547 0.391-0.938t0.938-0.391 0.938 0.391 0.391 0.938-0.391 0.938-0.938 0.391-0.938-0.391-0.391-0.938z"></path>
</svg>
