<!-- Generated by IcoMoon.io -->
<svg version="1.1" xmlns="http://www.w3.org/2000/svg" width="32" height="32" viewBox="0 0 32 32">
<title>record</title>
<path d="M29.5 8.125q-0.5-0.281-1 0.031l-5 3q-0.031 0-0.063 0.031l-0.031 0.031q-0.094 0.094-0.156 0.141t-0.109 0.156-0.078 0.172-0.031 0.188q0 0.031-0.016 0.063t-0.016 0.063v11q0 0.406-0.297 0.703t-0.703 0.297h-17q-0.406 0-0.703-0.297t-0.297-0.703v-14q0-0.406 0.297-0.703t0.703-0.297h17q0.406 0 0.703-0.297t0.297-0.703-0.297-0.703-0.703-0.297h-17q-1.25 0-2.125 0.875t-0.875 2.125v14q0 1.25 0.875 2.125t2.125 0.875h17q1.25 0 2.125-0.875t0.875-2.125v-1.219l3.5 2.063q0.219 0.156 0.5 0.156 0.25 0 0.5-0.125 0.5-0.281 0.5-0.875v-14q0-0.594-0.5-0.875zM28 21.25l-3-1.781v-6.906l3-1.781v10.469zM6 12q0 0.813 0.594 1.406t1.406 0.594 1.406-0.594 0.594-1.406-0.594-1.406-1.406-0.594-1.406 0.594-0.594 1.406z"></path>
</svg>
