<!-- Generated by IcoMoon.io -->
<svg version="1.1" xmlns="http://www.w3.org/2000/svg" width="32" height="32" viewBox="0 0 32 32">
<title>recordfill</title>
<path d="M29.484 8.125q-0.516-0.281-1.016 0.031l-3.469 2.156v-1.313q0-1.25-0.875-2.125t-2.125-0.875h-17q-1.25 0-2.125 0.875t-0.875 2.125v14q0 1.25 0.875 2.125t2.125 0.875h17q1.25 0 2.125-0.875t0.875-2.125v-1.219l3.5 2.063q0.219 0.156 0.5 0.156 0.25 0 0.5-0.125 0.5-0.281 0.5-0.875v-14q0-0.594-0.516-0.875zM8 14q-0.813 0-1.406-0.594t-0.594-1.406 0.594-1.406 1.406-0.594 1.406 0.594 0.594 1.406-0.594 1.406-1.406 0.594z"></path>
</svg>
