<!-- Generated by IcoMoon.io -->
<svg version="1.1" xmlns="http://www.w3.org/2000/svg" width="32" height="32" viewBox="0 0 32 32">
<title>redpacket_fill</title>
<path d="M25 2h-18q-1.25 0-2.125 0.875t-0.875 2.125v3q0 0.344 0.234 0.641t0.578 0.328l11.125 2q0.094 0.031 0.188 0.031t0.188-0.031l10.875-2q0.344-0.063 0.578-0.344t0.234-0.625v-3q0-1.25-0.875-2.125t-2.125-0.875zM27.656 11.219q-0.281-0.219-0.656-0.219-0.094 0-0.188 0.031l-10.813 1.938-10.813-1.938q-0.094-0.031-0.188-0.031-0.406 0-0.703 0.297t-0.297 0.703v15q0 1.25 0.875 2.125t2.125 0.875h18q1.25 0 2.125-0.875t0.875-2.125v-15q0-0.469-0.344-0.781zM19 19q0.406 0 0.703 0.297t0.297 0.703-0.297 0.703-0.703 0.297h-2v1h2q0.406 0 0.703 0.297t0.297 0.703-0.297 0.703-0.703 0.297h-2v2q0 0.438-0.297 0.719t-0.703 0.281-0.703-0.281-0.297-0.719v-2h-2q-0.438 0-0.719-0.297t-0.281-0.703 0.281-0.703 0.719-0.297h2v-1h-2q-0.438 0-0.719-0.297t-0.281-0.703 0.281-0.703 0.719-0.297h1.594l-2.313-2.313q-0.25-0.281-0.25-0.656 0-0.406 0.281-0.703t0.719-0.297q0.375 0 0.656 0.25l2.281 2.281 2.406-2.281q0.281-0.281 0.688-0.281 0.438 0 0.719 0.313 0.281 0.281 0.281 0.688t-0.313 0.719l-2.375 2.281h1.625z"></path>
</svg>
