<!-- Generated by IcoMoon.io -->
<svg version="1.1" xmlns="http://www.w3.org/2000/svg" width="32" height="32" viewBox="0 0 32 32">
<title>redpacket</title>
<path d="M16.125 11q-0.094 0-0.188-0.031l-11.125-2q-0.344-0.063-0.578-0.328t-0.234-0.641v-3q0-1.25 0.875-2.125t2.125-0.875h18q1.25 0 2.125 0.875t0.875 2.125v3q0 0.375-0.234 0.641t-0.578 0.328l-10.875 2q-0.094 0.031-0.188 0.031zM6 7.156l10.125 1.813 9.875-1.813v-2.156q0-0.406-0.297-0.703t-0.703-0.297h-18q-0.406 0-0.703 0.297t-0.297 0.703v2.156zM25 30h-18q-1.25 0-2.125-0.875t-0.875-2.125v-15q0-0.406 0.297-0.703t0.703-0.297 0.703 0.297 0.297 0.703v15q0 0.406 0.297 0.703t0.703 0.297h18q0.406 0 0.703-0.297t0.297-0.703v-15q0-0.406 0.297-0.703t0.703-0.297 0.703 0.297 0.297 0.703v15q0 1.25-0.875 2.125t-2.125 0.875zM19 20q0.406 0 0.703-0.297t0.297-0.703-0.297-0.703-0.703-0.297h-1.625l2.375-2.281q0.313-0.313 0.313-0.719t-0.281-0.703-0.703-0.297-0.703 0.281l-2.406 2.281-2.281-2.281q-0.281-0.281-0.703-0.281t-0.719 0.297-0.297 0.703 0.313 0.688l2.313 2.313h-1.594q-0.438 0-0.719 0.297t-0.281 0.703 0.281 0.703 0.719 0.297h2v1h-2q-0.438 0-0.719 0.297t-0.281 0.703 0.281 0.703 0.719 0.297h2v2q0 0.438 0.297 0.719t0.703 0.281 0.703-0.281 0.297-0.719v-2h2q0.406 0 0.703-0.297t0.297-0.703-0.297-0.703-0.703-0.297h-2v-1h2z"></path>
</svg>
