<!-- Generated by IcoMoon.io -->
<svg version="1.1" xmlns="http://www.w3.org/2000/svg" width="32" height="32" viewBox="0 0 32 32">
<title>refresh</title>
<path d="M29.359 8.016q-0.391-0.141-0.766 0.031t-0.5 0.578l-0.781 2.156q-1.406-3.125-4.156-5.188-2.844-2.125-6.328-2.516t-6.703 0.953-5.375 4.188q-1.563 2.063-2.203 4.547t-0.297 5.078q0.375 2.563 1.703 4.781t3.453 3.781q3.5 2.594 7.844 2.594 3.063 0 5.859-1.344t4.672-3.844q1.719-2.281 2.313-5.031 0.094-0.406-0.125-0.75t-0.625-0.438-0.75 0.141-0.438 0.641q-0.5 2.313-1.969 4.219-1.813 2.406-4.547 3.547t-5.688 0.797-5.359-2.125q-1.781-1.344-2.906-3.203t-1.438-4.047q-0.656-4.5 2.094-8.156 1.813-2.375 4.547-3.531t5.688-0.813 5.391 2.125q2.719 2.031 3.844 5.219l-3.438-1.344q-0.406-0.156-0.781 0.016t-0.531 0.563 0.016 0.766 0.547 0.531l5.063 1.969q0.188 0.063 0.375 0.063h0.031q0.031 0 0.063 0.016t0.063 0.016q0.719 0 0.938-0.688l1.813-5.031q0.125-0.375-0.047-0.75t-0.563-0.516z"></path>
</svg>
