<!-- Generated by IcoMoon.io -->
<svg version="1.1" xmlns="http://www.w3.org/2000/svg" width="32" height="32" viewBox="0 0 32 32">
<title>refresh_light</title>
<path d="M29.594 8.719q-0.25-0.094-0.5 0.031t-0.375 0.375l-1.188 3.406q-1.219-4.031-4.594-6.609t-7.594-2.578q-3.469 0-6.375 1.688t-4.609 4.609-1.703 6.359 1.703 6.359 4.609 4.609 6.375 1.688q4.625 0 8.172-2.984t4.297-7.547q0.031-0.25-0.125-0.5t-0.406-0.297-0.5 0.125-0.313 0.422q-0.656 4.094-3.813 6.781t-7.313 2.688q-3.094 0-5.703-1.516t-4.125-4.125-1.516-5.703 1.516-5.703 4.125-4.125 5.703-1.516q3.969 0 7.094 2.516t3.969 6.359l-3.406-1.469q-0.25-0.094-0.516 0t-0.359 0.344 0 0.5 0.344 0.375l4.656 2.063q0.063 0.063 0.281 0.063 0.5 0 0.594-0.406v-0.063q0.031-0.031 0.063-0.094l0.063-0.125 1.875-5.188q0.125-0.594-0.406-0.813z"></path>
</svg>
