<!-- Generated by IcoMoon.io -->
<svg version="1.1" xmlns="http://www.w3.org/2000/svg" width="32" height="32" viewBox="0 0 32 32">
<title>refund</title>
<path d="M30.813 18.438q-0.25-0.344-0.656-0.406t-0.75 0.188l-1.781 1.281q0.469-1.719 0.469-3.469 0-3.531-1.734-6.531t-4.75-4.75-6.547-1.75-6.531 1.75-4.75 4.75-1.75 6.531 1.75 6.531 4.75 4.75 6.531 1.75q3.469 0 6.469-1.719 0.188-0.031 0.313-0.125 0.844-0.5 1.594-1.125 0.313-0.25 0.359-0.656t-0.219-0.734-0.672-0.359-0.75 0.219q-0.531 0.438-1.25 0.875l-0.188 0.063q-2.594 1.563-5.656 1.563-2.969 0-5.516-1.484t-4.031-4.016-1.484-5.531 1.484-5.531 4.031-4.016 5.531-1.484 5.531 1.484 4.016 4.016 1.469 5.531q0 2.063-0.75 4l-1.406-3.406q-0.156-0.375-0.547-0.531t-0.766 0-0.531 0.547 0 0.766l2.25 5.406q0 0.031 0.094 0.156v0.016t0.031 0.016v0.031q0.125 0.156 0.313 0.25l0.063 0.031q0.188 0.094 0.344 0.094 0 0.031 0.016 0.016t0.031-0.016 0.016 0.016 0.031 0.016l0.016-0.016t0.047-0.016q0.094 0 0.219-0.031h0.031q0.125-0.063 0.219-0.125h0.031l4.75-3.406q0.313-0.25 0.391-0.656t-0.172-0.75zM18.969 11.688q0.281-0.281 0.297-0.688t-0.281-0.703-0.703-0.313-0.719 0.297l-2.5 2.406-2.469-2.406q-0.313-0.313-0.719-0.297t-0.703 0.313-0.281 0.703 0.297 0.688l2.813 2.719v0.594h-2q-0.406 0-0.703 0.297t-0.297 0.703 0.297 0.703 0.703 0.297h2v1h-2q-0.406 0-0.703 0.297t-0.297 0.703 0.297 0.703 0.703 0.297h2v2.094q0 0.438 0.297 0.719t0.703 0.281 0.703-0.281 0.297-0.719v-2.094h2q0.406 0 0.703-0.297t0.297-0.703-0.297-0.703-0.703-0.297h-2v-1h2q0.406 0 0.703-0.297t0.297-0.703-0.297-0.703-0.703-0.297h-2v-0.438z"></path>
</svg>
