<!-- Generated by IcoMoon.io -->
<svg version="1.1" xmlns="http://www.w3.org/2000/svg" width="32" height="32" viewBox="0 0 32 32">
<title>remind</title>
<path d="M28 7.094q-0.406 0-0.719-0.281l-3-3q-0.281-0.313-0.281-0.719t0.297-0.703 0.703-0.297 0.719 0.281l3 3q0.281 0.313 0.281 0.719t-0.297 0.703-0.703 0.297zM4.047 7.031q-0.422 0-0.719-0.297t-0.297-0.703 0.313-0.719l3-3q0.281-0.281 0.688-0.281t0.703 0.297 0.297 0.703-0.281 0.719l-3 3q-0.281 0.281-0.703 0.281zM22.719 10.813q0.281-0.313 0.281-0.719t-0.297-0.703-0.703-0.297-0.719 0.281l-4 4v0.031q-0.625-0.313-1.281-0.313t-1.281 0.313v-0.031l-3-3q-0.313-0.281-0.719-0.281t-0.703 0.297-0.297 0.703 0.281 0.719l3 3h0.031q-0.313 0.625-0.313 1.281 0 1.25 0.875 2.125t2.125 0.875 2.125-0.875 0.875-2.125q0-0.656-0.313-1.281h0.031zM16 17.094q-0.406 0-0.703-0.297t-0.297-0.703 0.297-0.703 0.703-0.297 0.703 0.297 0.297 0.703-0.297 0.703-0.703 0.297zM25.313 25.156q1.75-1.781 2.719-4.125t0.969-4.938q0-3.531-1.734-6.516t-4.734-4.734-6.531-1.75-6.531 1.75-4.734 4.734-1.734 6.516q0 2.625 0.984 4.969t2.766 4.125l-1.531 2.313q-0.25 0.344-0.156 0.75t0.438 0.656q0.25 0.156 0.531 0.156 0.563 0 0.844-0.438l1.375-2.094q3.469 2.563 7.75 2.563 4.313 0 7.781-2.625l1.438 2.094q0.281 0.438 0.813 0.438 0.313 0 0.563-0.188 0.344-0.219 0.422-0.625t-0.141-0.75zM5 16.109q0-2.984 1.469-5.531t4.016-4.016 5.516-1.469 5.516 1.469 4.016 4.016 1.469 5.531-1.469 5.516-4.016 4-5.516 1.469-5.516-1.469-4.016-4-1.469-5.516z"></path>
</svg>
