<!-- Generated by IcoMoon.io -->
<svg version="1.1" xmlns="http://www.w3.org/2000/svg" width="32" height="32" viewBox="0 0 32 32">
<title>repairfill</title>
<path d="M28.688 25.156l-6.656-6.688q-0.313-0.281-0.719-0.281t-0.688 0.281l-2.469 2.438q-0.313 0.313-0.313 0.719t0.281 0.719l6.688 6.688q0.313 0.281 0.719 0.281t0.719-0.281l2.438-2.469q0.313-0.281 0.313-0.703t-0.313-0.703zM17.938 2.781l-0.031-0.031q-2.688-1.094-5.516-0.531t-4.859 2.594l-5.219 5.188q-0.281 0.313-0.281 0.719t0.281 0.719l3.063 3.063q0.313 0.281 0.719 0.281t0.719-0.281l1.75-1.75 2.125 2.125q0.281 0.281 0.688 0.281h0.031q0.406 0 0.688-0.281l2.438-2.469q0.281-0.313 0.281-0.719t-0.281-0.719l-2.125-2.094q-0.094-0.281 0.031-0.594l0.156-0.25q0.281-0.531 1.281-1.688 1.5-1.5 3.625-1.656 0.688 0.063 0.969-0.594 0.156-0.375 0-0.766t-0.531-0.547zM29.438 6.469q-0.219-0.469-0.719-0.563t-0.875 0.281l-2.813 2.813-1.031-1.063 2.781-2.75q0.375-0.375 0.281-0.891t-0.563-0.734q-1.188-0.531-2.5-0.531-2.469 0-4.219 1.75-1.188 1.188-1.594 2.828t0.125 3.234l-7.469 7.438q-1.594-0.5-3.25-0.094t-2.813 1.594q-1.313 1.313-1.656 3.156t0.438 3.563q0.219 0.469 0.719 0.563 0.531 0.094 0.906-0.281l2.719-2.719 1.031 1.031-2.75 2.75q-0.344 0.344-0.266 0.859t0.547 0.734q1.25 0.594 2.594 0.594 2.469 0 4.219-1.75 1.219-1.219 1.594-2.891t-0.156-3.266l7.406-7.406q0.938 0.313 1.938 0.313 2.469 0 4.219-1.75 1.344-1.344 1.656-3.219t-0.5-3.594z"></path>
</svg>
