<!-- Generated by IcoMoon.io -->
<svg version="1.1" xmlns="http://www.w3.org/2000/svg" width="32" height="32" viewBox="0 0 32 32">
<title>repair</title>
<path d="M25.516 29.281q-0.422 0-0.703-0.281l-6.688-6.688q-0.281-0.281-0.281-0.703t0.281-0.719 0.703-0.297 0.703 0.313l6 5.969 1.031-1.031-5.969-5.969q-0.281-0.313-0.281-0.719t0.297-0.703 0.703-0.297 0.688 0.313l6.688 6.656q0.281 0.281 0.281 0.703t-0.281 0.703l-2.469 2.469q-0.281 0.281-0.703 0.281zM18.469 4v0q0.063-0.188 0.063-0.406v0 0q-0.031-0.188-0.125-0.344 0-0.031-0.016-0.047l-0.016-0.016q-0.094-0.156-0.188-0.25 0-0.031-0.047-0.047l-0.047-0.016q-0.156-0.125-0.188-0.125l-0.063-0.031q-2.656-1.094-5.469-0.531t-4.875 2.625l-0.016 0.031t-0.031 0.047-0.047 0.031l-0.031 0.016-5.063 5.063q-0.313 0.281-0.313 0.688t0.313 0.719l3.063 3.063q0.281 0.313 0.703 0.313t0.703-0.313l1.75-1.75 2.125 2.125q0.313 0.313 0.719 0.313t0.703-0.297 0.297-0.719-0.281-0.703l-2.844-2.844q-0.313-0.281-0.719-0.281t-0.688 0.281l-1.75 1.75-1.656-1.656 4.344-4.313q0-0.031 0.016-0.063t0.031-0.031 0.047-0.031l0.031-0.031q1.875-1.875 4.531-2.156-0.063 0.063-0.188 0.156-0.469 0.375-0.813 0.688 0 0.031-0.016 0.047l-0.016 0.016q-0.906 0.938-1.563 2.031-0.094 0.188-0.219 0.375l0.031 0.031q-0.625 1.219 0 2.438 0.063 0.125 0.188 0.25l0.016 0.031t0.047 0.063l2.188 2.188q0.313 0.281 0.719 0.281t0.703-0.281 0.297-0.703-0.281-0.703l-2.125-2.094q-0.125-0.313 0.031-0.594v-0.031q0.125-0.219 0.156-0.25 0.5-0.906 1.25-1.625 0.031-0.031 0.406-0.375 1.469-1.219 3.313-1.344h0.063q0.188-0.031 0.313-0.094 0.031 0 0.047-0.016l0.016-0.016q0.156-0.094 0.25-0.188l0.031-0.031q0.125-0.156 0.156-0.25 0-0.031 0.016-0.047zM9.063 30q-1.375 0-2.594-0.563-0.469-0.25-0.563-0.75t0.281-0.875l2.75-2.75-1.031-1.031-2.75 2.719q-0.375 0.375-0.875 0.281-0.531-0.094-0.719-0.563-0.781-1.719-0.438-3.563t1.656-3.156q1.156-1.188 2.813-1.578t3.25 0.109l7.438-7.469q-0.5-1.594-0.109-3.234t1.578-2.828q1.75-1.75 4.25-1.75 1.281 0 2.469 0.531 0.5 0.219 0.594 0.734t-0.281 0.891l-2.781 2.781 1.031 1.031 2.781-2.813q0.375-0.344 0.891-0.266t0.734 0.547q0.813 1.719 0.484 3.609t-1.672 3.203q-1.75 1.75-4.219 1.75-0.969 0-1.906-0.313l-7.406 7.438q0.531 1.594 0.141 3.266t-1.578 2.859q-1.75 1.75-4.219 1.75zM8.844 28q1.75 0.094 3.031-1.156 0.875-0.906 1.094-2.156t-0.344-2.406q-0.281-0.625 0.219-1.125l8.344-8.344q0.469-0.5 1.125-0.188 1.125 0.531 2.391 0.313t2.141-1.094q1.25-1.25 1.156-3.031l-2.25 2.281q-0.313 0.281-0.719 0.281v0q-0.406 0-0.719-0.281l-2.438-2.469q-0.281-0.281-0.281-0.688t0.281-0.719l2.219-2.219q-1.719-0.031-2.906 1.156-0.906 0.906-1.125 2.125t0.313 2.375q0.281 0.625-0.219 1.125l-8.375 8.375q-0.469 0.469-1.125 0.188-1.094-0.5-2.359-0.281t-2.109 1.094q-1.219 1.219-1.188 2.938l2.188-2.188q0.313-0.281 0.719-0.281t0.719 0.281l2.438 2.438q0.281 0.313 0.281 0.719t-0.281 0.719z"></path>
</svg>
