<!-- Generated by IcoMoon.io -->
<svg version="1.1" xmlns="http://www.w3.org/2000/svg" width="32" height="32" viewBox="0 0 32 32">
<title>repeal</title>
<path d="M17.813 3h-0.188q-3.688 0-6.156 2.344t-2.469 5.844v13.406l-3.281-3.313q-0.281-0.313-0.703-0.313t-0.719 0.297-0.297 0.703 0.313 0.719l4.938 5q0.281 0.281 0.719 0.281 0.406 0 0.688-0.281v0 0l5-4.969q0.281-0.281 0.281-0.703t-0.297-0.719-0.703-0.297-0.688 0.313l-3.25 3.219v-13.344q0-2.656 1.891-4.422t4.734-1.766h0.188q2.719 0 4.453 1.719t1.734 4.469v15.813q0 0.406 0.297 0.703t0.703 0.297 0.703-0.297 0.297-0.703v-15.813q0-3.563-2.313-5.875t-5.875-2.313z"></path>
</svg>
