<!-- Generated by IcoMoon.io -->
<svg version="1.1" xmlns="http://www.w3.org/2000/svg" width="32" height="32" viewBox="0 0 32 32">
<title>roundadd</title>
<path d="M16 29.938q-2.813 0-5.359-1.047t-4.531-3.031-3.047-4.531-1.063-5.328 1.063-5.328 3.047-4.531 4.531-3.031 5.359-1.047 5.359 1.047 4.531 3.031 3.047 4.531 1.063 5.328-1.063 5.328-3.047 4.531-4.531 3.031-5.359 1.047zM16 4.063q-2.406 0-4.594 0.906t-3.891 2.594-2.609 3.859-0.906 4.578 0.906 4.578 2.609 3.859 3.891 2.594 4.594 0.906 4.594-0.906 3.891-2.594 2.609-3.875 0.906-4.578-0.906-4.563-2.609-3.859-3.891-2.594-4.594-0.906zM23 15h-6v-6q0-0.406-0.297-0.703t-0.703-0.297-0.703 0.297-0.297 0.703v6h-6q-0.406 0-0.703 0.297t-0.297 0.703 0.297 0.703 0.703 0.297h6v6q0 0.406 0.297 0.703t0.703 0.297 0.703-0.297 0.297-0.703v-6h6q0.406 0 0.703-0.297t0.297-0.703-0.297-0.703-0.703-0.297z"></path>
</svg>
