<!-- Generated by IcoMoon.io -->
<svg version="1.1" xmlns="http://www.w3.org/2000/svg" width="32" height="32" viewBox="0 0 32 32">
<title>roundleftfill</title>
<path d="M16 2q-5.781 0-9.891 4.109t-4.109 9.891 4.109 9.891 9.891 4.109 9.891-4.109 4.109-9.891-4.109-9.891-9.891-4.109zM17.688 20.25q0.313 0.281 0.313 0.703t-0.297 0.703-0.719 0.281-0.703-0.281l-4.969-5q-0.094-0.094-0.188-0.25 0-0.031-0.016-0.047l-0.016-0.016q-0.25-0.625 0.219-1.094l5-4.938q0.313-0.313 0.719-0.313t0.703 0.297 0.297 0.719-0.313 0.703l-4.281 4.25z"></path>
</svg>
