<!-- Generated by IcoMoon.io -->
<svg version="1.1" xmlns="http://www.w3.org/2000/svg" width="32" height="32" viewBox="0 0 32 32">
<title>roundaddfill</title>
<path d="M25.891 6.141q-1.984-1.984-4.531-3.031t-5.359-1.047-5.359 1.047-4.531 3.031-3.047 4.531-1.063 5.328 1.063 5.328 3.047 4.531 4.531 3.031 5.359 1.047 5.359-1.047 4.531-3.031 3.047-4.531 1.063-5.328-1.063-5.328-3.047-4.531zM23 17h-6v6q0 0.406-0.297 0.703t-0.703 0.297-0.703-0.297-0.297-0.703v-6h-6q-0.406 0-0.703-0.297t-0.297-0.703 0.297-0.703 0.703-0.297h6v-6q0-0.406 0.297-0.703t0.703-0.297 0.703 0.297 0.297 0.703v6h6q0.406 0 0.703 0.297t0.297 0.703-0.297 0.703-0.703 0.297z"></path>
</svg>
