<!-- Generated by IcoMoon.io -->
<svg version="1.1" xmlns="http://www.w3.org/2000/svg" width="32" height="32" viewBox="0 0 32 32">
<title>roundright</title>
<path d="M16 30q-5.781 0-9.891-4.109t-4.109-9.891 4.109-9.891 9.891-4.109 9.891 4.109 4.109 9.891-4.109 9.891-9.891 4.109zM16 4q-4.969 0-8.484 3.516t-3.516 8.484 3.516 8.484 8.484 3.516 8.484-3.516 3.516-8.484-3.516-8.484-8.484-3.516zM20.906 15.656v0q-0.094-0.188-0.219-0.313v0 0l-4.969-5q-0.281-0.281-0.703-0.281t-0.719 0.281-0.297 0.703 0.313 0.703l4.25 4.281-4.313 4.25q-0.281 0.281-0.281 0.703t0.297 0.719 0.703 0.297 0.688-0.313l5.031-4.938q0.469-0.469 0.219-1.094z"></path>
</svg>
