<!-- Generated by IcoMoon.io -->
<svg version="1.1" xmlns="http://www.w3.org/2000/svg" width="32" height="32" viewBox="0 0 32 32">
<title>round_close_fill_light</title>
<path d="M16.063 2.656q-3.688 0-6.75 1.766t-4.828 4.828-1.766 6.75q0 3.594 1.781 6.672t4.844 4.875 6.656 1.797 6.672-1.797 4.875-4.875 1.797-6.672q0-2.719-1.063-5.188t-2.844-4.25-4.234-2.844-5.141-1.063zM21.125 20.125q0.219 0.219 0.219 0.484t-0.203 0.469-0.469 0.203-0.484-0.219l-4.188-4.188-4.281 4.188q-0.188 0.219-0.453 0.219t-0.469-0.203-0.203-0.469 0.219-0.484l4.188-4.188-4.188-4.219q-0.219-0.188-0.219-0.453t0.203-0.469 0.469-0.203 0.453 0.219l4.219 4.188 4.188-4.188q0.219-0.219 0.484-0.219t0.469 0.203 0.203 0.469-0.219 0.453l-4.188 4.219z"></path>
</svg>
