<!-- Generated by IcoMoon.io -->
<svg version="1.1" xmlns="http://www.w3.org/2000/svg" width="32" height="32" viewBox="0 0 32 32">
<title>roundclose</title>
<path d="M16 30q-5.781 0-9.891-4.109t-4.109-9.891 4.109-9.891 9.891-4.109 9.891 4.109 4.109 9.891-4.109 9.891-9.891 4.109zM16 4q-3.25 0-6.016 1.609t-4.375 4.375-1.609 6.016 1.609 6.016 4.375 4.375 6.016 1.609 6.016-1.609 4.375-4.375 1.609-6.016-1.609-6.016-4.375-4.375-6.016-1.609zM17.406 16.031l4.313-4.25q0.313-0.313 0.313-0.719t-0.297-0.703-0.703-0.297-0.719 0.281l-4.313 4.281-4.281-4.281q-0.281-0.281-0.688-0.281t-0.703 0.281-0.297 0.703 0.281 0.703l4.25 4.281-4.281 4.25q-0.281 0.281-0.297 0.703t0.281 0.719 0.703 0.297q0.438 0 0.719-0.313l4.313-4.25 4.313 4.375q0.313 0.281 0.719 0.281t0.703-0.297 0.297-0.703-0.281-0.719z"></path>
</svg>
