<!-- Generated by IcoMoon.io -->
<svg version="1.1" xmlns="http://www.w3.org/2000/svg" width="32" height="32" viewBox="0 0 32 32">
<title>roundclosefill</title>
<path d="M16 2q-5.781 0-9.891 4.109t-4.109 9.891 4.109 9.891 9.891 4.109 9.891-4.109 4.109-9.891-4.109-9.891-9.891-4.109zM21.719 20.313q0.281 0.281 0.281 0.703t-0.297 0.719-0.703 0.297-0.719-0.313l-4.281-4.313-4.313 4.281q-0.313 0.281-0.719 0.281t-0.703-0.297-0.297-0.703 0.313-0.719l4.313-4.25-4.313-4.313q-0.281-0.281-0.281-0.703t0.297-0.719 0.703-0.297 0.719 0.313l4.281 4.313 4.313-4.281q0.313-0.281 0.719-0.281t0.703 0.297 0.297 0.703-0.313 0.719l-4.313 4.25z"></path>
</svg>
