<!-- Generated by IcoMoon.io -->
<svg version="1.1" xmlns="http://www.w3.org/2000/svg" width="32" height="32" viewBox="0 0 32 32">
<title>round_close_light</title>
<path d="M16 2.594q-3.594 0-6.672 1.797t-4.875 4.859-1.797 6.672 1.797 6.688 4.875 4.875 6.672 1.797 6.672-1.797 4.875-4.875 1.797-6.688-1.797-6.672-4.875-4.859-6.672-1.797zM16 27.938q-3.25 0-6.016-1.609t-4.375-4.375-1.609-6.016 1.609-6.016 4.375-4.375 6.016-1.609 6.016 1.609 4.375 4.375 1.609 6.016q0 3.281-1.609 6.047t-4.375 4.359-6.016 1.594zM21.063 10.813q-0.188-0.219-0.453-0.219t-0.484 0.219l-4.188 4.188-4.219-4.188q-0.188-0.219-0.453-0.219t-0.469 0.203-0.203 0.469 0.219 0.453l4.188 4.219-4.188 4.188q-0.219 0.219-0.219 0.484t0.203 0.469 0.469 0.203 0.453-0.219l4.281-4.188 4.188 4.188q0.219 0.219 0.484 0.219t0.469-0.203 0.203-0.469-0.219-0.484l-4.188-4.188 4.188-4.219q0.375-0.469-0.063-0.906z"></path>
</svg>
