<!-- Generated by IcoMoon.io -->
<svg version="1.1" xmlns="http://www.w3.org/2000/svg" width="32" height="32" viewBox="0 0 32 32">
<title>roundrightfill</title>
<path d="M16 2q-5.781 0-9.891 4.109t-4.109 9.891 4.109 9.891 9.891 4.109 9.891-4.109 4.109-9.891-4.109-9.891-9.891-4.109zM20.688 16.75l-5 4.938q-0.313 0.313-0.719 0.313t-0.703-0.297-0.297-0.719 0.313-0.703l4.281-4.25-4.25-4.281q-0.313-0.281-0.313-0.703t0.297-0.703 0.719-0.281 0.703 0.281l4.969 5q0.125 0.125 0.219 0.313v0q0.25 0.625-0.219 1.094z"></path>
</svg>
