<!-- Generated by IcoMoon.io -->
<svg version="1.1" xmlns="http://www.w3.org/2000/svg" width="32" height="32" viewBox="0 0 32 32">
<title>roundaddlight</title>
<path d="M16 30q-2.813 0-5.359-1.063t-4.531-3.047-3.047-4.531-1.063-5.359 1.063-5.359 3.047-4.531 4.531-3.047 5.359-1.063 5.359 1.063 4.531 3.047 3.047 4.531 1.063 5.359-1.063 5.359-3.047 4.531-4.531 3.047-5.359 1.063zM16 3.344q-2.531 0-4.844 0.953t-4.109 2.75-2.75 4.109-0.953 4.844 0.953 4.844 2.75 4.109 4.109 2.75 4.844 0.953 4.844-0.953 4.109-2.75 2.75-4.109 0.953-4.844-0.953-4.844-2.75-4.109-4.109-2.75-4.844-0.953zM22.656 15.344h-5.969l-0.031-6q0-0.281-0.188-0.484t-0.469-0.203v0q-0.281 0-0.469 0.203t-0.188 0.484v6h-5.969q-0.25 0-0.453 0.188t-0.203 0.469 0.203 0.469 0.453 0.188h5.969v6.031q0 0.25 0.203 0.453t0.484 0.203v0q0.281 0 0.469-0.203t0.188-0.484v-6h5.969q0.281 0 0.484-0.188t0.203-0.469-0.203-0.469-0.484-0.188z"></path>
</svg>
