<!-- Generated by IcoMoon.io -->
<svg version="1.1" xmlns="http://www.w3.org/2000/svg" width="32" height="32" viewBox="0 0 32 32">
<title>roundcheck</title>
<path d="M16 30q-5.781 0-9.891-4.109t-4.109-9.891 4.109-9.891 9.891-4.109 9.891 4.109 4.109 9.891-4.109 9.891-9.891 4.109zM16 4q-3.25 0-6.016 1.609t-4.375 4.375-1.609 6.016 1.609 6.016 4.375 4.375 6.016 1.609 6.016-1.609 4.375-4.375 1.609-6.016-1.609-6.016-4.375-4.375-6.016-1.609zM22.719 12.297q-0.281-0.297-0.703-0.297t-0.703 0.281l-7.313 7.375-3.219-3.313q-0.281-0.281-0.703-0.297t-0.719 0.281-0.297 0.703 0.281 0.719l3.938 4.031h0.031v0.031q0.031 0.031 0.219 0.125 0 0.031 0.031 0.047t0.063 0.047q0.188 0.063 0.375 0.063t0.375-0.063q0.031-0.031 0.063-0.047t0.063-0.047q0.156-0.094 0.219-0.125v0-0.031l8-8.094q0.313-0.281 0.297-0.688t-0.297-0.703z"></path>
</svg>
