<!-- Generated by IcoMoon.io -->
<svg version="1.1" xmlns="http://www.w3.org/2000/svg" width="32" height="32" viewBox="0 0 32 32">
<title>roundcheckfill</title>
<path d="M16 2.063q-2.844 0-5.422 1.109t-4.438 2.969-2.969 4.438-1.109 5.422 1.109 5.422 2.969 4.438 4.438 2.969 5.422 1.109 5.422-1.109 4.438-2.969 2.969-4.438 1.109-5.422-1.109-5.422-2.969-4.438-4.438-2.969-5.422-1.109zM22.719 13.688l-8 8.094v0.031q-0.063 0.031-0.219 0.125-0.031 0.031-0.063 0.047t-0.063 0.047q-0.188 0.063-0.375 0.063t-0.375-0.063q-0.031-0.031-0.063-0.047t-0.031-0.047q-0.188-0.094-0.219-0.125v-0.031h-0.031l-3.938-4.031q-0.281-0.313-0.281-0.719t0.297-0.703 0.719-0.281 0.703 0.297l3.219 3.313 7.313-7.375q0.281-0.281 0.703-0.281t0.703 0.281 0.297 0.703-0.297 0.703z"></path>
</svg>
