<!-- Generated by IcoMoon.io -->
<svg version="1.1" xmlns="http://www.w3.org/2000/svg" width="32" height="32" viewBox="0 0 32 32">
<title>safe</title>
<path d="M22.25 11.156l-7.281 7.375-3.219-3.313q-0.281-0.313-0.703-0.313t-0.719 0.281-0.297 0.703 0.281 0.703l3.938 4.063q0.063 0.063 0.219 0.156 0.031 0 0.063 0.031t0.063 0.031q0.188 0.094 0.375 0.094t0.375-0.094q0.031 0 0.063-0.031l0.031-0.031q0.188-0.094 0.219-0.125v-0.031h0.031l8-8.094q0.281-0.281 0.281-0.703t-0.297-0.719-0.703-0.281-0.719 0.297zM16.156 2h-0.313q-1 0.188-2.016 0.406t-2.594 0.594-2.906 0.891-2.578 1.141-1.953 1.438-0.703 1.688q0 3.438 1.031 6.891t2.609 6.063 3.359 4.703 3.359 3.188 2.547 1.094 2.563-1.125 3.406-3.234 3.406-4.734 2.656-6.047 1.063-6.797q0-1-1-1.922t-2.406-1.563-3.328-1.219-3.328-0.891-2.875-0.563zM16 28.094q-0.469-0.063-1.438-0.797t-2.203-1.969-2.516-3.109-2.344-3.969-1.734-4.766-0.672-5.328q0-0.906 3.297-2.156t7.609-2q4.375 0.781 7.734 2.031t3.359 2.125q0 3.156-0.969 6.313t-2.406 5.484-3.016 4.203-2.844 2.875-1.859 1.063z"></path>
</svg>
