<!-- Generated by IcoMoon.io -->
<svg version="1.1" xmlns="http://www.w3.org/2000/svg" width="32" height="32" viewBox="0 0 32 32">
<title>samefill</title>
<path d="M11 11h4v4h-4v-4zM28.719 27.281l-4.563-4.531q2.844-3.375 2.844-7.75 0-4.969-3.516-8.484t-8.484-3.516-8.484 3.516-3.516 8.484 3.516 8.484 8.484 3.516q4.375 0 7.75-2.844l4.531 4.563q0.313 0.281 0.719 0.281t0.703-0.297 0.297-0.703-0.281-0.719zM9 16v-6q0-0.406 0.297-0.703t0.703-0.297h6q0.406 0 0.703 0.297t0.297 0.703v6q0 0.406-0.297 0.703t-0.703 0.297h-6q-0.406 0-0.703-0.297t-0.297-0.703zM20 19q0 0.406-0.297 0.703t-0.703 0.297h-5q-0.406 0-0.703-0.297t-0.297-0.703 0.297-0.703 0.703-0.297h4v-4q0-0.406 0.297-0.703t0.703-0.297 0.703 0.297 0.297 0.703v5z"></path>
</svg>
