<!-- Generated by IcoMoon.io -->
<svg version="1.1" xmlns="http://www.w3.org/2000/svg" width="32" height="32" viewBox="0 0 32 32">
<title>scan</title>
<path d="M29 17h-26q-0.406 0-0.703-0.297t-0.297-0.703 0.297-0.703 0.703-0.297h26q0.406 0 0.703 0.297t0.297 0.703-0.297 0.703-0.703 0.297zM26 29h-6q-0.406 0-0.703-0.297t-0.297-0.703 0.297-0.703 0.703-0.297h6q0.406 0 0.703-0.297t0.297-0.703v-5q0-0.406 0.297-0.703t0.703-0.297 0.703 0.297 0.297 0.703v5q0 1.25-0.875 2.125t-2.125 0.875zM11 29h-5q-1.25 0-2.125-0.875t-0.875-2.125v-5q0-0.406 0.297-0.703t0.703-0.297 0.703 0.297 0.297 0.703v5q0 0.406 0.297 0.703t0.703 0.297h5q0.406 0 0.703 0.297t0.297 0.703-0.297 0.703-0.703 0.297zM4 12q-0.406 0-0.703-0.297t-0.297-0.703v-5q0-1.25 0.875-2.125t2.125-0.875h5q0.406 0 0.703 0.297t0.297 0.703-0.297 0.703-0.703 0.297h-5q-0.406 0-0.703 0.297t-0.297 0.703v5q0 0.406-0.297 0.703t-0.703 0.297zM28 12q-0.406 0-0.703-0.297t-0.297-0.703v-5q0-0.406-0.297-0.703t-0.703-0.297h-6q-0.406 0-0.703-0.297t-0.297-0.703 0.297-0.703 0.703-0.297h6q1.25 0 2.125 0.875t0.875 2.125v5q0 0.406-0.297 0.703t-0.703 0.297z"></path>
</svg>
