<!-- Generated by IcoMoon.io -->
<svg version="1.1" xmlns="http://www.w3.org/2000/svg" width="32" height="32" viewBox="0 0 32 32">
<title>scan_light</title>
<path d="M29 15.344h-26q-0.313 0-0.484 0.172t-0.172 0.484 0.172 0.484 0.484 0.172h26q0.313 0 0.484-0.172t0.172-0.484q0-0.281-0.203-0.469t-0.453-0.188zM28 20.063q-0.313 0-0.484 0.188t-0.172 0.469v4.625q0 0.844-0.594 1.422t-1.406 0.578h-4.625q-0.281 0-0.469 0.172t-0.188 0.484 0.188 0.484 0.469 0.172h4.625q1.375 0 2.344-0.984t0.969-2.328v-4.625q0-0.25-0.203-0.453t-0.453-0.203zM11.281 27.406h-4.625q-0.844 0-1.422-0.594t-0.578-1.406v-4.688q0-0.281-0.172-0.469t-0.484-0.188-0.484 0.188-0.172 0.469v4.688q0 1.375 0.984 2.344t2.328 0.969h4.625q0.281 0 0.469-0.172t0.188-0.484q0-0.281-0.203-0.469t-0.453-0.188zM4 12q0.313 0 0.484-0.188t0.172-0.469v-4.688q0-0.844 0.594-1.422t1.406-0.578h4.688q0.281 0 0.469-0.172t0.188-0.484-0.188-0.484-0.469-0.172h-4.688q-1.375 0-2.344 0.984t-0.969 2.328v4.688q0 0.281 0.172 0.469t0.484 0.188zM20.719 4.656h4.625q0.844 0 1.422 0.594t0.578 1.406v4.688q0 0.281 0.172 0.469t0.484 0.188 0.484-0.188 0.172-0.469v-4.688q0-1.375-0.984-2.344t-2.328-0.969h-4.625q-0.281 0-0.469 0.172t-0.188 0.484 0.188 0.484 0.469 0.172z"></path>
</svg>
