<!-- Generated by IcoMoon.io -->
<svg version="1.1" xmlns="http://www.w3.org/2000/svg" width="32" height="32" viewBox="0 0 32 32">
<title>search_light</title>
<path d="M29.875 28.875l-4.688-4.813q1.656-1.813 2.563-4.078t0.906-4.641q0-3.469-1.688-6.375t-4.609-4.609-6.359-1.703-6.359 1.703-4.609 4.609-1.688 6.359 1.688 6.375 4.609 4.609 6.359 1.688q2.969 0 5.719-1.344 0.281-0.094 0.359-0.344t-0.078-0.5q-0.094-0.25-0.375-0.344t-0.5 0.063q-2.406 1.188-5.125 1.188-3.094 0-5.703-1.5t-4.125-4.125-1.516-5.703 1.516-5.703 4.125-4.156 5.703-1.531 5.703 1.516 4.125 4.125 1.516 5.703q0 2.344-0.953 4.5t-2.672 3.75q-0.188 0.219-0.188 0.484t0.188 0.453q0.156 0.125 0.281 0.125l4.938 5.063q0.188 0.219 0.453 0.219t0.484-0.219q0.156-0.156 0.172-0.391t-0.172-0.453z"></path>
</svg>
