<!-- Generated by IcoMoon.io -->
<svg version="1.1" xmlns="http://www.w3.org/2000/svg" width="32" height="32" viewBox="0 0 32 32">
<title>search</title>
<path d="M29.813 28.375l-4.781-5.094q3-3.625 3-8.281 0-3.531-1.75-6.531t-4.734-4.734-6.516-1.734-6.531 1.734-4.734 4.734-1.734 6.531 1.734 6.516 4.734 4.734 6.531 1.75q2.813 0 5.375-1.156 0.375-0.188 0.516-0.578t-0.031-0.766-0.563-0.516-0.766 0.016q-2.156 1-4.531 1-3 0-5.531-1.484t-4-4.016-1.469-5.516 1.469-5.516 4-4 5.516-1.469 5.516 1.469 4.016 4 1.484 5.531q0 4.406-3.063 7.625-0.281 0.281-0.281 0.703t0.313 0.703l0.031 0.031t0.047 0.031 0.047 0.047 0.031 0.078l5.188 5.531q0.281 0.313 0.719 0.313 0.406 0 0.688-0.281 0.313-0.281 0.328-0.688t-0.266-0.719z"></path>
</svg>
