<!-- Generated by IcoMoon.io -->
<svg version="1.1" xmlns="http://www.w3.org/2000/svg" width="32" height="32" viewBox="0 0 32 32">
<title>searchlist</title>
<path d="M29.813 25.438l-4.281-5.625q2.469-2.375 2.469-5.781 0-3.313-2.344-5.656t-5.656-2.344-5.656 2.344-2.344 5.656 2.344 5.656 5.656 2.344q2.094 0 3.906-1.031l4.313 5.656q0.313 0.375 0.813 0.375 0.344 0 0.594-0.188 0.344-0.25 0.391-0.672t-0.203-0.734zM14 14.016q0-2.484 1.766-4.234t4.25-1.75 4.234 1.75 1.75 4.234-1.75 4.25-4.234 1.766-4.25-1.766-1.766-4.25zM10 10h-6q-0.406 0-0.703-0.297t-0.297-0.703 0.297-0.703 0.703-0.297h6q0.406 0 0.703 0.297t0.297 0.703-0.297 0.703-0.703 0.297zM8 18h-4q-0.406 0-0.703-0.297t-0.297-0.703 0.297-0.703 0.703-0.297h4q0.406 0 0.703 0.297t0.297 0.703-0.297 0.703-0.703 0.297zM15 25h-11q-0.406 0-0.703-0.297t-0.297-0.703 0.297-0.703 0.703-0.297h11q0.406 0 0.703 0.297t0.297 0.703-0.297 0.703-0.703 0.297z"></path>
</svg>
