<!-- Generated by IcoMoon.io -->
<svg version="1.1" xmlns="http://www.w3.org/2000/svg" width="32" height="32" viewBox="0 0 32 32">
<title>search_list_light</title>
<path d="M29.813 24.875l-4.531-6q1.281-1.094 2.031-2.625t0.75-3.25q-0.031-3.219-2.281-5.438t-5.438-2.219-5.438 2.234-2.25 5.422 2.25 5.422 5.438 2.234q1.906 0 3.781-1v0.063l4.531 6q0.188 0.281 0.531 0.281 0.156 0 0.406-0.125 0.25-0.219 0.313-0.516t-0.094-0.484zM14 13q0-2.594 1.859-4.469t4.469-1.875 4.469 1.875 1.859 4.469-1.859 4.469-4.469 1.875-4.469-1.875-1.859-4.469zM4 8.656h6q0.313 0 0.484-0.172t0.172-0.484-0.172-0.484-0.484-0.172h-6q-0.313 0-0.484 0.172t-0.172 0.484 0.172 0.484 0.484 0.172zM4 15.344q-0.313 0-0.484 0.172t-0.172 0.484 0.172 0.484 0.484 0.172h4q0.313 0 0.484-0.172t0.172-0.484-0.172-0.484-0.484-0.172h-4zM14.594 21.938h-10.656q-0.313 0-0.484 0.188t-0.172 0.484 0.172 0.484 0.484 0.188h10.656q0.313 0 0.5-0.188t0.188-0.484-0.188-0.484-0.5-0.188z"></path>
</svg>
