<!-- Generated by IcoMoon.io -->
<svg version="1.1" xmlns="http://www.w3.org/2000/svg" width="32" height="32" viewBox="0 0 32 32">
<title>selection</title>
<path d="M23.219 22.563q0.031-0.031 0.172-0.125t0.203-0.156q0.344-0.313 0.313-0.813l-0.094-1.594 1.563-0.25q0.5-0.063 0.75-0.5 1.375-2.594 1.375-5.531v-0.406l-0.031-0.125q-0.031-0.5-0.438-0.781l-1.313-0.906 0.813-1.438q0.25-0.406 0.063-0.875-1.25-2.938-3.844-4.844-0.406-0.281-0.875-0.156l-1.531 0.469-0.594-1.5q-0.188-0.469-0.656-0.594-3.094-0.875-6.156 0-0.5 0.125-0.688 0.594l-0.594 1.5-1.531-0.469q-0.469-0.125-0.875 0.156-2.594 1.906-3.844 4.844-0.188 0.469 0.063 0.875l0.813 1.438-1.313 0.906q-0.406 0.281-0.438 0.781v0.156q-0.031 0.25-0.031 0.375 0 2.938 1.406 5.531 0.219 0.438 0.719 0.5l1.563 0.25-0.094 1.594q-0.063 0.469 0.313 0.813 0.063 0.063 0.188 0.141t0.188 0.141l-2.688 4.375q-0.406 0.656 0.031 1.234t1.188 0.359l2.469-0.688 1.563 1.781q0.344 0.406 0.844 0.406 0.094 0 0.219-0.031 0.625-0.156 0.813-0.781l1.281-4.281q0.219-0.063 0.344-0.219l1.156-1.063 1.156 1.063q0.281 0.281 0.688 0.281 0.094 0 0.156-0.031 1.813-0.313 3.563-1.281l1.438 2.281-0.625-0.156q-0.781-0.25-1.344 0.375l-0.844 1-0.156-0.438q-0.156-0.375-0.531-0.563t-0.766-0.047-0.563 0.516-0.016 0.781l0.656 1.844q0.219 0.594 0.844 0.719 0.094 0.031 0.188 0.031 0.5 0 0.844-0.406l1.563-1.781 2.5 0.688q0.75 0.219 1.188-0.359t0.031-1.234zM11.781 27.094l-0.781-0.906q-0.531-0.625-1.344-0.375l-0.625 0.156 1.406-2.281q1.094 0.625 2.094 0.938zM16.688 21.563q-0.281-0.281-0.688-0.281t-0.688 0.281l-1.438 1.344q-2.094-0.469-3.75-1.813l0.125-2q0.031-0.406-0.203-0.703t-0.641-0.359l-1.969-0.313q-0.938-1.938-0.938-4.063l1.656-1.156q0.344-0.219 0.422-0.609t-0.109-0.703l-1.031-1.781q0.938-1.906 2.594-3.281l1.938 0.594q0.375 0.125 0.734-0.047t0.484-0.547l0.75-1.875q2.063-0.469 4.125 0l0.75 1.875q0.125 0.375 0.484 0.547t0.734 0.047l1.938-0.594q1.656 1.375 2.594 3.281l-1.031 1.781q-0.188 0.313-0.109 0.703t0.422 0.609l1.656 1.156q0 2.125-0.938 4.063l-1.969 0.313q-0.406 0.063-0.641 0.359t-0.203 0.703l0.125 2q-1.656 1.344-3.75 1.813zM16 20.438q-2.875 0-4.906-2.031t-2.031-4.906 2.031-4.906 4.906-2.031 4.906 2.031 2.031 4.906-2.031 4.906-4.906 2.031zM16 8.563q-2.031 0-3.484 1.453t-1.453 3.484 1.453 3.484 3.484 1.453 3.484-1.453 1.453-3.484-1.453-3.484-3.484-1.453z"></path>
</svg>
