<!-- Generated by IcoMoon.io -->
<svg version="1.1" xmlns="http://www.w3.org/2000/svg" width="32" height="32" viewBox="0 0 32 32">
<title>selectionfill</title>
<path d="M28 13.219l-0.031-0.156q0-0.5-0.438-0.781l-1.313-0.906 0.813-1.438q0.25-0.406 0.063-0.875-1.25-2.938-3.844-4.844-0.406-0.313-0.875-0.156l-1.531 0.469-0.594-1.5q-0.188-0.469-0.656-0.594-1.531-0.438-3.078-0.438t-3.078 0.438q-0.5 0.125-0.688 0.594l-0.594 1.5-1.531-0.469q-0.469-0.125-0.875 0.156-2.594 1.906-3.844 4.844-0.188 0.469 0.063 0.875l0.813 1.438-1.313 0.906q-0.406 0.281-0.438 0.781v0.125q-0.031 0.25-0.031 0.406 0 2.938 1.406 5.531 0.219 0.438 0.719 0.5l1.563 0.25-0.094 1.594q-0.031 0.5 0.313 0.813 2.438 2.125 5.594 2.688 0.063 0.031 0.156 0.031 0.406 0 0.688-0.281l1.156-1.063 1.156 1.063q0.375 0.344 0.844 0.25 3.156-0.563 5.594-2.688 0.375-0.313 0.313-0.813l-0.094-1.594 1.563-0.25q0.5-0.063 0.75-0.5 1.375-2.594 1.375-5.531v-0.375zM16.5 19q-2.281 0-3.891-1.609t-1.609-3.891 1.609-3.891 3.891-1.609 3.891 1.609 1.609 3.891-1.609 3.891-3.891 1.609zM24.313 23.469q-2.469 2-5.563 2.563-0.156 0-0.344-0.031l0.875 3.313q0.219 0.625 0.844 0.75h0.188q0.5 0 0.844-0.375l1.563-1.813 2.938 0.719q0.719 0.188 1.156-0.391t0-1.266zM14.625 26.031q-0.094 0-0.188-0.031-3.188-0.563-5.719-2.688l-2.563 3.688q-0.406 0.625 0.031 1.203t1.156 0.391l2.906-0.719 1.563 1.781q0.344 0.406 0.844 0.406 0.094 0 0.219-0.031 0.625-0.125 0.813-0.781l0.969-3.219h-0.031z"></path>
</svg>
