<!-- Generated by IcoMoon.io -->
<svg version="1.1" xmlns="http://www.w3.org/2000/svg" width="32" height="32" viewBox="0 0 32 32">
<title>send</title>
<path d="M8.969 16h-1.938q-0.406 0-0.703-0.297t-0.297-0.703 0.297-0.703 0.703-0.297h1.938q0.406 0 0.703 0.297t0.297 0.703-0.297 0.703-0.703 0.297zM27.594 4h-23.188q-1 0-1.703 0.703t-0.703 1.703v19.406q0 0.906 0.656 1.547t1.563 0.641h23.563q0.906 0 1.563-0.641t0.656-1.547v-19.406q0-1-0.703-1.703t-1.703-0.703zM28 6.406v4.094h-6.969v-4.5h6.563q0.156 0 0.281 0.125t0.125 0.281zM13.969 6h5.063v11.25l-2.219-0.875q-0.375-0.156-0.75 0l-2.094 0.875v-11.25zM4 6.406q0-0.156 0.125-0.281t0.281-0.125h7.563v4.5h-7.969v-4.094zM27.781 26h-23.563q-0.219 0-0.219-0.188v-13.313h7.969v6.25q0 0.531 0.438 0.813 0.25 0.188 0.563 0.188 0.188 0 0.375-0.094l3.094-1.25 3.219 1.25q0.469 0.219 0.922-0.078t0.453-0.828v-6.25h6.969v13.313q0 0.188-0.219 0.188z"></path>
</svg>
