<!-- Generated by IcoMoon.io -->
<svg version="1.1" xmlns="http://www.w3.org/2000/svg" width="32" height="32" viewBox="0 0 32 32">
<title>servicefill</title>
<path d="M19.031 21q-1.156 0-2.156-0.125-0.406-0.031-0.656-0.359t-0.203-0.734 0.359-0.672 0.719-0.203q2.188 0.219 4.359-0.094t2.609-1.25q0.188-0.375 0.578-0.516t0.766 0.031 0.516 0.563-0.047 0.766q-1.25 2.594-6.844 2.594zM28 20q-0.406 0-0.703-0.297t-0.297-0.703v-3.438l-1.344-0.5q-0.656-0.219-0.656-0.938 0-3.719-2.641-6.359t-6.359-2.641-6.359 2.641-2.641 6.359q0 0.531-0.406 0.813l-0.594 0.438v3.625q0 0.406-0.297 0.703t-0.703 0.297-0.703-0.297-0.297-0.703v-4.156q0-0.5 0.406-0.813l0.594-0.406q0.219-4.375 3.406-7.438t7.594-3.063q4.344 0 7.516 2.984t3.453 7.328l1.375 0.469q0.656 0.25 0.656 0.938v4.156q0 0.406-0.297 0.703t-0.703 0.297zM20 24.5v-0.313q1.5-1.156 2-2.281-0.594 0.094-2.75 0.094-2.094 0-2.375-0.031-0.813-0.094-1.344-0.781t-0.438-1.531q0.094-0.813 0.75-1.328t1.469-0.422q1.719 0.156 3.313 0.016t2.344-0.453q0.031-0.656 0.031-2.625 0-3.188-1.813-5t-4.938-1.906h-0.625q-3.125 0.063-4.891 1.906t-1.766 5.031q0 1.094 0.016 1.797t0.188 1.922 0.469 2.094 0.906 1.859 1.453 1.641v0.313q-3.125 0.469-5.094 1.656t-1.969 2.781q0 0.406 0.297 0.734t0.734 0.328h19.625q0.406 0 0.813-0.328t0.406-0.734q0-1.594-1.875-2.781t-4.938-1.656z"></path>
</svg>
