<!-- Generated by IcoMoon.io -->
<svg version="1.1" xmlns="http://www.w3.org/2000/svg" width="32" height="32" viewBox="0 0 32 32">
<title>service_light</title>
<path d="M25.281 17.656q0.094-0.25 0-0.5t-0.344-0.359-0.516-0.016-0.359 0.344q-0.406 0.813-1.813 1.234t-3.594 0.359q-0.281 0-0.469 0.188t-0.188 0.484 0.188 0.484 0.469 0.188h0.281q5.219 0 6.344-2.406zM26.938 13.875l-1.125-0.469q-0.219-3.938-3.047-6.672t-6.766-2.734q-4 0-6.844 2.781t-2.969 6.75l-0.594 0.469q-0.25 0.094-0.25 0.469v2.875q0 0.281 0.172 0.469t0.484 0.188 0.484-0.188 0.172-0.469v-2.469l0.625-0.469q0.25-0.281 0.25-0.531 0-3.563 2.484-6.047t5.984-2.484 5.984 2.484 2.484 5.984q0 0.5 0.406 0.594l1.125 0.469v2.469q0 0.281 0.188 0.469t0.484 0.188 0.484-0.188 0.188-0.469v-2.875q0-0.406-0.406-0.594zM16 20q-2.5 0-4.25-1.75t-1.75-4.25 1.75-4.25 4.25-1.75 4.25 1.75 1.75 4.25q0 0.469-0.125 1.281-0.063 0.25 0.094 0.5t0.438 0.281q0.25 0.063 0.5-0.094t0.281-0.438q0.156-0.469 0.156-1.531 0-3-2.172-5.172t-5.172-2.172-5.172 2.172-2.172 5.172q0 2.063 1.078 3.813t2.859 2.656q-2.813 0.75-4.703 2.703t-2.422 4.703q-0.063 0.25 0.094 0.5t0.438 0.281h0.125q0.563 0 0.688-0.531 0.531-3.094 3.016-4.906t6.172-1.813q0.313 0 0.484-0.188t0.172-0.484-0.203-0.516-0.453-0.219zM23.063 21.469q-0.188-0.156-0.484-0.125t-0.453 0.25q-0.156 0.188-0.125 0.484t0.281 0.453q3.063 2.344 3.719 5.594 0.094 0.531 0.656 0.531h0.156q0.25-0.031 0.406-0.266t0.125-0.516q-0.844-3.844-4.281-6.406z"></path>
</svg>
