<!-- Generated by IcoMoon.io -->
<svg version="1.1" xmlns="http://www.w3.org/2000/svg" width="32" height="32" viewBox="0 0 32 32">
<title>service</title>
<path d="M26.094 18.406q0.156-0.375 0.016-0.766t-0.516-0.547-0.766-0.016-0.516 0.516q-0.375 0.688-1.781 1.047t-3.531 0.359q-0.438 0-0.719 0.281t-0.281 0.719 0.281 0.719 0.719 0.281h0.313q5.563 0 6.781-2.594zM28.313 13.688l-1.313-0.5q-0.313-4.281-3.484-7.281t-7.516-3q-2.906 0-5.375 1.406t-3.969 3.813-1.656 5.281l-0.594 0.406q-0.406 0.375-0.406 0.781v4.219q0 0.438 0.281 0.719t0.719 0.281 0.719-0.281 0.281-0.719v-3.625l0.594-0.375q0.406-0.406 0.406-0.906 0-3.75 2.625-6.375t6.375-2.625 6.375 2.625 2.625 6.375q0 0.281 0.203 0.547t0.484 0.359l1.313 0.5v3.375q0 0.469 0.281 0.734t0.719 0.266 0.719-0.266 0.281-0.734v-4.188q0-0.25-0.203-0.484t-0.484-0.328zM16 20.313q-2.344 0-4.016-1.672t-1.672-4.047q0-2.344 1.656-4.016t4.031-1.672q2.344 0 4.016 1.656t1.672 4.031q0 0.813-0.094 1.219-0.063 0.375 0.156 0.75t0.656 0.438q0.375 0.094 0.75-0.141t0.438-0.672q0.219-1 0.219-1.594 0-3.156-2.25-5.422t-5.469-2.266-5.453 2.234-2.234 5.453q0 2 0.938 3.672t2.563 2.734q-2.656 0.906-4.469 2.938t-2.344 4.75q-0.063 0.406 0.156 0.766t0.656 0.453h0.188q0.844 0 1-0.813 0.594-3.063 3.078-4.922t5.922-1.859q0.469 0 0.734-0.281t0.266-0.719q-0.156-1-1.094-1zM23.594 22.188q-0.281-0.219-0.734-0.188t-0.672 0.406q-0.219 0.281-0.188 0.734t0.406 0.672q3 2.344 3.594 5.375 0.156 0.813 1 0.813h0.188q0.406-0.063 0.641-0.406t0.172-0.781q-0.719-3.781-4.406-6.625z"></path>
</svg>
