<!-- Generated by IcoMoon.io -->
<svg version="1.1" xmlns="http://www.w3.org/2000/svg" width="32" height="32" viewBox="0 0 32 32">
<title>settings</title>
<path d="M16 19q-1.25 0-2.125-0.875t-0.875-2.125 0.875-2.125 2.125-0.875 2.125 0.875 0.875 2.125-0.875 2.125-2.125 0.875zM16 15q-0.406 0-0.703 0.297t-0.297 0.703 0.297 0.703 0.703 0.297 0.703-0.297 0.297-0.703-0.297-0.703-0.703-0.297zM19.719 30q-0.5 0-0.813-0.406l-2.281-3.156q-0.625 0.063-1.25 0l-2.281 3.156q-0.406 0.563-1.094 0.375-1.625-0.469-3.063-1.281-0.594-0.313-0.5-1l0.625-3.875q-0.469-0.406-0.875-0.875l-3.875 0.625q-0.688 0.094-1-0.5-0.813-1.438-1.281-3.063-0.188-0.688 0.375-1.094l3.156-2.281q-0.031-0.313-0.031-0.625t0.031-0.625l-3.156-2.281q-0.563-0.406-0.375-1.094 0.469-1.625 1.281-3.063 0.313-0.594 1-0.5l3.875 0.625q0.406-0.469 0.875-0.875l-0.625-3.875q-0.094-0.688 0.5-1 1.438-0.813 3.063-1.281 0.688-0.188 1.094 0.375l2.281 3.156q0.625-0.063 1.25 0l2.281-3.156q0.406-0.563 1.094-0.375 1.625 0.469 3.063 1.281 0.594 0.313 0.5 1l-0.625 3.875q0.469 0.406 0.875 0.875l3.875-0.625q0.688-0.094 1 0.5 0.813 1.438 1.281 3.063 0.188 0.688-0.375 1.094l-3.156 2.281q0.031 0.313 0.031 0.625t-0.031 0.625l3.156 2.281q0.563 0.406 0.375 1.094-0.469 1.625-1.281 3.063-0.313 0.594-1 0.5l-3.875-0.625q-0.406 0.469-0.875 0.875l0.625 3.875q0.094 0.688-0.5 1-1.438 0.813-3.063 1.281-0.156 0.031-0.281 0.031zM10.531 27.281q0.656 0.313 1.375 0.563l2.188-3.031q0.344-0.469 0.938-0.406 0.969 0.125 1.938 0 0.594-0.063 0.938 0.406l2.188 3.031q0.719-0.25 1.375-0.563l-0.594-3.719q-0.063-0.563 0.375-0.938 0.781-0.594 1.375-1.375 0.375-0.438 0.938-0.375l3.719 0.594q0.313-0.656 0.563-1.375l-3.031-2.188q-0.469-0.344-0.406-0.938 0.063-0.531 0.063-0.969t-0.063-0.969q-0.063-0.594 0.406-0.938l3.031-2.188q-0.25-0.719-0.563-1.375l-3.719 0.594q-0.563 0.063-0.938-0.375-0.594-0.781-1.375-1.375-0.438-0.375-0.375-0.938l0.594-3.719q-0.656-0.313-1.375-0.563l-2.188 3.031q-0.344 0.469-0.938 0.406-0.969-0.125-1.938 0-0.594 0.063-0.938-0.406l-2.188-3.031q-0.719 0.25-1.375 0.563l0.594 3.719q0.063 0.563-0.375 0.938-0.781 0.594-1.375 1.375-0.375 0.438-0.938 0.375l-3.719-0.594q-0.313 0.656-0.563 1.375l3.031 2.188q0.469 0.344 0.406 0.938-0.063 0.531-0.063 0.969t0.063 0.969q0.063 0.594-0.406 0.938l-3.031 2.188q0.25 0.719 0.563 1.375l3.719-0.594q0.563-0.063 0.938 0.375 0.594 0.781 1.375 1.375 0.438 0.375 0.375 0.938z"></path>
</svg>
