<!-- Generated by IcoMoon.io -->
<svg version="1.1" xmlns="http://www.w3.org/2000/svg" width="32" height="32" viewBox="0 0 32 32">
<title>shake</title>
<path d="M21.438 3h-10.875q-1.063 0-1.813 0.75t-0.75 1.813v20.875q0 1.063 0.75 1.813t1.813 0.75h10.875q1.063 0 1.813-0.75t0.75-1.813v-20.875q0-1.063-0.75-1.813t-1.813-0.75zM22 26.438q0 0.219-0.172 0.391t-0.391 0.172h-10.875q-0.219 0-0.391-0.172t-0.172-0.391v-20.875q0-0.219 0.172-0.391t0.391-0.172h10.875q0.219 0 0.391 0.172t0.172 0.391v20.875zM14.5 24.5q0-0.625 0.438-1.063t1.063-0.438 1.063 0.438 0.438 1.063-0.438 1.063-1.063 0.438-1.063-0.438-0.438-1.063zM4 16.031q0-2.844 1.813-5.469 0.219-0.344 0.141-0.75t-0.406-0.641-0.734-0.156-0.656 0.422q-2.156 3.125-2.156 6.594 0 4.094 2.188 7.5 0.281 0.469 0.844 0.469 0.281 0 0.531-0.156 0.344-0.219 0.438-0.625t-0.125-0.75q-1.875-2.938-1.875-6.438zM27.906 9.438q-0.25-0.344-0.656-0.422t-0.75 0.156-0.422 0.641 0.172 0.75q1.813 2.625 1.813 5.469 0 3.5-1.875 6.438-0.219 0.344-0.125 0.75t0.438 0.625q0.25 0.156 0.531 0.156 0.531 0 0.844-0.469 2.188-3.406 2.188-7.5 0-3.469-2.156-6.594zM20 6h-8q-0.406 0-0.703 0.297t-0.297 0.703v14q0 0.406 0.297 0.703t0.703 0.297h8q0.406 0 0.703-0.297t0.297-0.703v-14q0-0.406-0.297-0.703t-0.703-0.297zM19 20h-6v-12h6v12z"></path>
</svg>
