<!-- Generated by IcoMoon.io -->
<svg version="1.1" xmlns="http://www.w3.org/2000/svg" width="32" height="32" viewBox="0 0 32 32">
<title>share</title>
<path d="M24.031 22q-1.688 0-2.844 1.188l-9.688-5.375q0.469-0.875 0.469-1.813 0-0.531-0.188-1.125l9.531-5.906q1.156 1.031 2.656 1.031 1.656 0 2.828-1.172t1.172-2.828-1.172-2.828-2.828-1.172-2.828 1.172-1.172 2.828q0 0.625 0.25 1.281l-9.438 5.875q-1.188-1.156-2.813-1.156-1.656 0-2.828 1.172t-1.172 2.828 1.172 2.828 2.828 1.172q1.188 0 2.188-0.656l10.031 5.594q-0.156 0.563-0.156 1.063 0 1.656 1.172 2.828t2.828 1.172 2.828-1.172 1.172-2.828-1.172-2.828-2.828-1.172zM23.984 4q0.828 0 1.406 0.594t0.578 1.422-0.578 1.406-1.406 0.578-1.422-0.578-0.594-1.406 0.594-1.422 1.422-0.594zM5.969 15.984q0-0.828 0.594-1.406t1.422-0.578 1.406 0.578 0.578 1.406-0.578 1.422-1.406 0.594-1.422-0.594-0.594-1.422zM24.016 28q-0.828 0-1.406-0.594t-0.578-1.422 0.578-1.406 1.406-0.578 1.422 0.578 0.594 1.406-0.594 1.422-1.422 0.594z"></path>
</svg>
