<!-- Generated by IcoMoon.io -->
<svg version="1.1" xmlns="http://www.w3.org/2000/svg" width="32" height="32" viewBox="0 0 32 32">
<title>share_light</title>
<path d="M24.344 22q-1 0-1.813 0.469t-1.25 1.25l-9.281-5.313q0.656-1.125 0.656-2.406 0-0.688-0.188-1.406l9.188-5.719q1.094 1.188 2.688 1.188 1.5 0 2.578-1.078t1.078-2.578-1.078-2.594-2.578-1.094-2.594 1.094-1.094 2.594q0 0.781 0.281 1.313l-9.063 5.688q-0.688-0.938-1.703-1.5t-2.172-0.563q-1.938 0-3.297 1.359t-1.359 3.297 1.359 3.297 3.297 1.359q1.813 0 3.125-1.188l9.594 5.469h0.094q-0.094 0.188-0.094 0.719 0 1.5 1.094 2.594t2.594 1.094 2.578-1.094 1.078-2.594-1.094-2.578-2.625-1.078zM24.344 4.063q0.938 0 1.625 0.688t0.688 1.641-0.688 1.641-1.641 0.688-1.641-0.688-0.688-1.625q0-0.969 0.672-1.656t1.672-0.688zM8 19.344q-1.406 0-2.375-0.969t-0.969-2.375 0.969-2.375 2.375-0.969 2.375 0.969 0.969 2.375q0 1.375-0.984 2.359t-2.359 0.984zM24.344 28q-0.969 0-1.656-0.688t-0.688-1.641 0.688-1.641 1.641-0.688 1.641 0.688 0.688 1.625q0 0.969-0.672 1.656t-1.641 0.688v0z"></path>
</svg>
