<!-- Generated by IcoMoon.io -->
<svg version="1.1" xmlns="http://www.w3.org/2000/svg" width="32" height="32" viewBox="0 0 32 32">
<title>shop</title>
<path d="M27 19.313q-0.438 0-0.719 0.266t-0.281 0.734v6.094q0 0.219-0.188 0.406t-0.406 0.188h-18.813q-0.219 0-0.406-0.188t-0.188-0.406v-6.094q0-0.469-0.281-0.734t-0.719-0.266-0.719 0.266-0.281 0.734v6.094q0 1.031 0.781 1.813t1.813 0.781h18.813q1.031 0 1.813-0.781t0.781-1.813v-6.094q0-0.469-0.281-0.734t-0.719-0.266zM29.906 9.906l-3.313-6.406q-0.313-0.5-0.906-0.5h-20q-0.281 0-0.547 0.203t-0.328 0.484l-2.625 6.5q-0.063 0.094-0.094 0.219t-0.031 0.234 0.016 0.234l0.016 0.125v2.5q0 1.875 1.359 3.234t3.234 1.359h1.313q2.25 0 3.5-1.406 1.25 1.406 3.906 1.406h1.281q2.656 0 3.906-1.406 1.313 1.313 3.5 1.313h1.313q1.875 0 3.234-1.359t1.359-3.234v-2.594q0-0.719-0.094-0.906zM6.406 5h18.688l2.094 4h-22.5zM25.406 16h-1.313q-0.344 0-0.672-0.047t-0.828-0.219-0.797-0.625-0.297-1.109q0-0.438-0.281-0.719t-0.719-0.281-0.719 0.281-0.281 0.719v0.406q0 0.563-0.359 0.938t-0.922 0.516-0.938 0.188-0.688 0.047h-1.281q-0.313 0-0.688-0.047t-0.938-0.188-0.922-0.516-0.359-0.938v-0.313q0-0.438-0.281-0.719t-0.734-0.281-0.719 0.281-0.266 0.719q0 1.063-0.75 1.531t-1.844 0.469h-1.219q-1.031 0-1.813-0.766t-0.781-1.828v-2.5h24v2.406q0 1.063-0.75 1.828t-1.844 0.766z"></path>
</svg>
