<!-- Generated by IcoMoon.io -->
<svg version="1.1" xmlns="http://www.w3.org/2000/svg" width="32" height="32" viewBox="0 0 32 32">
<title>shoplight</title>
<path d="M27.328 19.406q-0.297 0-0.484 0.188t-0.188 0.469v6.281q0 0.375-0.297 0.688t-0.703 0.313h-19.313q-0.406 0-0.703-0.313t-0.297-0.688v-6.281q0-0.281-0.188-0.469t-0.484-0.188-0.484 0.188-0.188 0.469v6.281q0 0.938 0.688 1.625t1.656 0.688h19.313q0.969 0 1.656-0.688t0.688-1.625v-6.281q0-0.281-0.188-0.469t-0.484-0.188zM30.063 11.344q0-0.281-0.063-0.406l-3.469-6.531q-0.094-0.406-0.531-0.406h-20.594q-0.188 0-0.375 0.125t-0.219 0.281l-2.75 6.656q-0.063 0.125-0.063 0.344v2.25q0 1.813 1.297 3.078t3.109 1.266h1.25q1.156 0 2.109-0.516t1.578-1.422q0.625 0.875 1.688 1.406t2.375 0.531h1.406q1.281 0 2.328-0.547t1.672-1.516q0.594 0.906 1.563 1.453t2.094 0.547h1.25q1.813 0 3.078-1.266t1.266-3.078v-2.25zM5.875 5.344h19.719l2.813 5.313h-24.75zM25.719 16.594h-1.25q-1.25 0-2.125-0.875t-0.875-2.125q0-0.281-0.188-0.469t-0.484-0.188-0.484 0.188-0.188 0.469v0.344q0 1.094-0.969 1.906t-2.344 0.813h-1.406q-1.406 0-2.375-0.719t-0.969-1.813q0-0.125-0.063-0.188v-0.063q0-0.313-0.188-0.5t-0.484-0.188-0.484 0.188-0.188 0.5q0 1.188-0.875 2.016t-2.125 0.828h-1.25q-1.281-0.031-2.172-0.922t-0.891-2.141v-1.656h25.375v1.594q0 1.25-0.875 2.125t-2.125 0.875z"></path>
</svg>
