<!-- Generated by IcoMoon.io -->
<svg version="1.1" xmlns="http://www.w3.org/2000/svg" width="32" height="32" viewBox="0 0 32 32">
<title>shopfill</title>
<path d="M29.781 11.031v-0.063q-0.031-0.094-0.063-0.156l-2.344-5.844q-0.313-0.906-1.094-1.422t-1.844-0.516h-16.469q-1.031 0-1.781 0.5t-1.063 1.406l-2.5 5.938q-0.031 0.063-0.031 0.156-0.281 0.844-0.281 1.688 0 1.531 0.781 2.844t2.125 2.031q1.125 0.594 2.594 0.594v0q2.563 0 4.188-1.969 1.656 1.938 4.188 1.969 2.531-0.031 4.156-1.969 1.625 1.938 4.219 1.938 1.5 0 2.625-0.625 1.313-0.719 2.078-2.016t0.766-2.797q0-0.875-0.25-1.688zM23.938 12h-16q-0.406 0-0.703-0.297t-0.297-0.703 0.297-0.703 0.703-0.297h16q0.438 0 0.719 0.297t0.281 0.703-0.281 0.703-0.719 0.297zM27.969 20q0-0.406-0.297-0.703t-0.703-0.297q-0.094 0-0.281 0.063v0q-1.219 0.469-2.406 0.406-2.469-0.125-3.938-1.375-1.781 1.5-4.156 1.531-2.563 0-4.188-1.375-1.688 1.469-4.188 1.469v0q-1 0-2.375-0.5l-0.063-0.031q-0.031 0-0.063-0.016t-0.063-0.047h-0.219q-0.406 0-0.703 0.281t-0.297 0.719v5.344q0 1.063 0.75 1.813t1.813 0.75h18.813q1.063 0 1.813-0.766t0.75-1.797v-5.469z"></path>
</svg>
