<!-- Generated by IcoMoon.io -->
<svg version="1.1" xmlns="http://www.w3.org/2000/svg" width="32" height="32" viewBox="0 0 32 32">
<title>similar</title>
<path d="M9.594 14.094q-2.281 0-3.891-1.609t-1.609-3.891 1.609-3.891 3.891-1.609 3.891 1.609 1.609 3.891-1.609 3.891-3.891 1.609zM9.578 5.094q-1.453 0-2.469 1.031t-1.016 2.469 1.016 2.469 2.469 1.031 2.484-1.031 1.031-2.469-1.031-2.469-2.484-1.031zM22.484 14.094q-2.266 0-3.891-1.609t-1.625-3.891 1.625-3.891 3.891-1.609 3.875 1.609 1.609 3.891-1.609 3.891-3.875 1.609zM22.484 5.094q-1.453 0-2.484 1.031t-1.031 2.469 1.031 2.469 2.484 1.031 2.469-1.031 1.016-2.469-1.016-2.469-2.469-1.031zM9.484 28.156q-2.266 0-3.875-1.609t-1.609-3.875 1.609-3.891 3.875-1.625 3.891 1.625 1.625 3.891-1.625 3.875-3.891 1.609zM9.484 19.156q-1.453 0-2.469 1.031t-1.016 2.484 1.016 2.469 2.469 1.016 2.484-1.016 1.031-2.469-1.031-2.484-2.484-1.031zM28.844 28.344l-2.063-2.156q1.281-1.5 1.281-3.531 0-2.25-1.609-3.875t-3.875-1.625-3.891 1.625-1.625 3.875q0 2.094 1.422 3.656t3.516 1.813h0.125q0.375 0 0.656-0.25t0.313-0.625q0.063-0.406-0.188-0.734t-0.656-0.391q-1.344-0.156-2.266-1.156t-0.922-2.313q0-1.438 1.031-2.469t2.484-1.031 2.469 1.031 1.016 2.469q0 1.719-1.344 2.781-0.313 0.25-0.359 0.656t0.203 0.719q0.125 0.188 0.344 0.281 0.031 0.031 0.047 0.078t0.047 0.078l2.406 2.469q0.281 0.313 0.719 0.313 0.406 0 0.688-0.281 0.313-0.281 0.313-0.688t-0.281-0.719z"></path>
</svg>
