<!-- Generated by IcoMoon.io -->
<svg version="1.1" xmlns="http://www.w3.org/2000/svg" width="32" height="32" viewBox="0 0 32 32">
<title>skin</title>
<path d="M26.813 8.406q-0.25-0.313-0.688-0.375t-0.734 0.172-0.359 0.672 0.156 0.719q1.813 2.563 1.813 6.313 0 2.25-0.906 4.188-0.406-0.094-1.094-0.094-2.031 0-3.469 1.297t-1.438 3.109q0 0.5 0.219 1.281-1.938 0.813-3.719 0.813-0.438 0-0.719 0.297t-0.281 0.703q0 0.375 0.313 0.688t0.688 0.313q3.063-0.156 5.406-1.406 0.25-0.063 0.5-0.594 0.125-0.375-0.094-0.813-0.406-0.531-0.406-1.188 0-0.969 0.859-1.688t2.047-0.719q0.406 0 1.188 0.219 0.813 0.313 1.313-0.5 1.5-2.719 1.5-5.906 0.156-4.5-2.094-7.5zM5.813 21.906q0.375-0.219 0.484-0.609t-0.109-0.703q-1.188-2.406-1.188-4.688 0-2.906 1.438-5.375t3.906-3.906 5.344-1.438q1.125 0 2.125 0.219 0.375 0.063 0.75-0.188t0.438-0.625-0.188-0.75-0.625-0.438q-1.375-0.219-2.5-0.219-3.438 0-6.359 1.703t-4.625 4.641-1.703 6.375q0 2.938 1.406 5.594 0.313 0.5 0.906 0.5 0.281 0 0.5-0.094zM7 13.5q0 0.625 0.438 1.063t1.063 0.438 1.063-0.438 0.438-1.063-0.438-1.063-1.063-0.438-1.063 0.438-0.438 1.063zM10 9q0 0.406 0.297 0.703t0.703 0.297 0.703-0.297 0.297-0.703-0.297-0.703-0.703-0.297-0.703 0.297-0.297 0.703zM16.406 22l9.281-17.406q0.25-0.594 0.063-1.266t-0.75-1.016q-0.594-0.406-1.281-0.297t-1.125 0.672l-12.188 15.5q0 0.125-0.094 0.125-0.469 0.75-0.313 1.594 0 0.031 0.047 0.141t0.047 0.141q-1.188 0.094-2.25 0.781t-1.344 2.031q-0.063 0.281-0.094 0.547t-0.016 0.5 0.031 0.406 0.078 0.375 0.094 0.281 0.109 0.266 0.109 0.219q0 0.094 0.094 0.094l-0.094 0.125q-0.25 0.313-0.5 0.5t-0.375 0.25l-0.125 0.031q-0.656 0.156-0.813 0.813-0.156 0.625 0.406 1 0.906 0.625 2.125 1.109t2.375 0.484q2.125 0 3.688-1.688 0.281-0.344 0.5-0.719t0.359-0.734 0.25-0.734 0.172-0.75 0.094-0.688 0.047-0.594 0.016-0.484-0.016-0.359l-0.016-0.156q0.938-0.313 1.406-1.094zM12 19.406l11-14.094-8.313 15.688-0.125 0.125t-0.063-0.031l-2.5-1.5v-0.188zM12.094 27q-1.438 1.688-4.094 0.594 0.094-0.094 0.25-0.297t0.25-0.297q0.688-1 0.094-2.188-0.313-0.5-0.188-1.406 0.188-0.875 1.906-1.219l2.781 1.5q0 2.188-1 3.313z"></path>
</svg>
