<!-- Generated by IcoMoon.io -->
<svg version="1.1" xmlns="http://www.w3.org/2000/svg" width="32" height="32" viewBox="0 0 32 32">
<title>skin_light</title>
<path d="M26.469 9.063q-0.156-0.188-0.453-0.234t-0.484 0.109-0.234 0.438 0.109 0.5q1.938 2.625 1.938 6.531 0 2.5-1 4.594-0.625-0.188-1.281-0.188-1.875 0-3.203 1.203t-1.328 2.922q0 0.688 0.344 1.469-1.844 0.813-4.156 0.938-0.281 0-0.469 0.203t-0.188 0.453 0.203 0.453 0.453 0.203q2.844-0.094 5.344-1.375 0.156-0.063 0.344-0.406 0.063-0.25-0.063-0.531-0.469-0.719-0.469-1.406 0-1.156 0.938-1.984t2.25-0.828q0.781 0 1.406 0.281 0.531 0.219 0.875-0.344 1.375-2.688 1.375-5.719-0.094-4.438-2.25-7.281zM5.875 21.125q-0.625-1.219-0.922-2.391t-0.297-2.391q0-3 1.484-5.531t4.016-4 5.5-1.469q1.313 0 2.219 0.188 0.281 0.063 0.516-0.109t0.266-0.484q0.063-0.25-0.109-0.5t-0.422-0.313q-1-0.188-2.469-0.188-3.344 0.031-6.188 1.703t-4.484 4.516-1.641 6.188q0 2.875 1.313 5.469 0.219 0.313 0.625 0.313 0.188 0 0.313-0.063 0.25-0.156 0.328-0.422t-0.047-0.516zM6.719 13.734q0 0.703 0.5 1.188t1.188 0.484 1.172-0.484 0.484-1.188-0.484-1.188-1.172-0.484-1.188 0.484-0.5 1.188zM9.938 9.469v0q0 0.563 0.391 0.953t0.938 0.391 0.938-0.391 0.391-0.953v0 0q0-0.563-0.391-0.953t-0.938-0.391-0.938 0.391-0.391 0.953v0zM14 7.141q0 0.422 0.297 0.703t0.703 0.281 0.703-0.281 0.297-0.703-0.297-0.719-0.703-0.297-0.703 0.297-0.297 0.719zM25.125 2.406q-0.5-0.344-1.047-0.266t-0.953 0.578l-13 16.875q0 0.063-0.063 0.063-0.375 0.594-0.25 1.406-1.094 0.125-1.969 0.688t-1.125 1.719q-0.25 1.188 0.281 2.406 0.094 0.25 0.094 0.328t-0.094 0.266q-0.219 0.281-0.5 0.5t-0.469 0.281l-0.156 0.094q-0.438 0.094-0.531 0.531-0.125 0.406 0.25 0.656 2.313 1.531 4.344 1.531 2.125 0 3.469-1.594 1.25-1.531 1.25-4.594 0.563-0.188 0.938-0.813l10.063-18.719q0.25-0.563 0.109-1.109t-0.641-0.828zM12.344 27.531q-0.688 0.875-1.688 1.078t-1.766 0-1.547-0.609q0.25-0.188 0.781-0.875 0.281-0.406 0.344-0.797t0-0.594-0.188-0.547q-0.344-0.656-0.219-1.531 0.125-0.531 0.609-0.859t0.859-0.391 0.75-0.063l3.063 1.656q0 2.406-1 3.531zM24.469 3.719l-10 18.625q-0.125 0.219-0.406 0.313h-0.344l-2.438-1.531q-0.156-0.063-0.156-0.25 0-0.344 0.063-0.469l12.938-16.875q0-0.063 0.094-0.078t0.188 0.016q0.063 0.063 0.063 0.25z"></path>
</svg>
