<!-- Generated by IcoMoon.io -->
<svg version="1.1" xmlns="http://www.w3.org/2000/svg" width="32" height="32" viewBox="0 0 32 32">
<title>skinfill</title>
<path d="M7 25q0 1.094 0.188 1.688 0.063 0.313 0 0.609t-0.188 0.531-0.297 0.438-0.344 0.359-0.328 0.266-0.25 0.156l-0.094 0.047q0.125 0.063 0.297 0.141t0.719 0.234 1.078 0.203 1.234-0.078 1.297-0.5q0.813-0.5 1.469-1.234t1.031-1.578 0.063-1.719-1.375-1.563q-1.063-0.594-1.813-0.594-1.125 0-1.859 0.797t-0.828 1.797zM17.5 21.094l-1 1.594q-1.531 1.469-2.594 1 0.281 0.75 0.328 1.438t-0.094 1.188-0.297 0.828-0.344 0.547q1.188 0.313 2.5 0.313 2.563 0 4.688-1v0l0.125-0.094q0.75-0.563 0.188-1.406-0.406-0.531-0.406-1.313 0-1.281 1.25-2.188t3.063-0.906h0.688q0.063 0 0.281 0.031t0.344 0.016 0.328-0.078 0.328-0.25 0.219-0.5q0-0.125 0.094-0.219l0.125-0.188q0.188-0.5 0.188-0.594 0.5-1.844 0.5-3.625 0-4.813-3.406-8.375-7.094 13.906-7.094 13.781zM7 13.109q0-0.672 0.469-1.141t1.141-0.469 1.125 0.469 0.453 1.141-0.453 1.125-1.125 0.453-1.141-0.453-0.469-1.125zM10 8.906q0-0.531 0.391-0.922t0.906-0.391 0.906 0.391 0.391 0.922-0.391 0.906-0.906 0.375-0.906-0.375-0.391-0.906zM14.313 6.5q0-0.313 0.25-0.563t0.547-0.25 0.547 0.25 0.25 0.563-0.25 0.563-0.547 0.25-0.547-0.25-0.25-0.563zM4 15.813q0 4.125 2.313 7.188 0.313-0.656 0.891-1.094t1.266-0.578 1.047-0.188 0.672-0.047q-0.188-0.813-0.078-1.5t0.359-1.156l0.219-0.438 9.906-13.188q-2.5-1-4.688-1-3.25-0.063-6 1.531t-4.328 4.375-1.578 6.094zM23.906 2.688q-0.719 0.625-12.219 16.219v0q-0.531 0.656-0.313 1.609t1.031 1.484l0.281 0.188q0.844 0.563 1.75 0.328t1.375-1.109l0.281-0.594q0.625-1.25 2.891-5.547t4.109-7.828 2-3.938q0.156-0.438-0.031-0.719t-0.563-0.281q-0.281-0.125-0.594 0.188z"></path>
</svg>
