<!-- Generated by IcoMoon.io -->
<svg version="1.1" xmlns="http://www.w3.org/2000/svg" width="32" height="32" viewBox="0 0 32 32">
<title>sort</title>
<path d="M12 10h16q0.406 0 0.703-0.297t0.297-0.703-0.297-0.703-0.703-0.297h-16q-0.406 0-0.703 0.297t-0.297 0.703 0.297 0.703 0.703 0.297zM28 15h-16q-0.406 0-0.703 0.297t-0.297 0.703 0.297 0.703 0.703 0.297h16q0.406 0 0.703-0.297t0.297-0.703-0.297-0.703-0.703-0.297zM28 22h-16q-0.406 0-0.703 0.297t-0.297 0.703 0.297 0.703 0.703 0.297h16q0.406 0 0.703-0.297t0.297-0.703-0.297-0.703-0.703-0.297zM4 9q0-0.813 0.594-1.406t1.406-0.594 1.406 0.594 0.594 1.406-0.594 1.406-1.406 0.594-1.406-0.594-0.594-1.406zM4 16q0-0.813 0.594-1.406t1.406-0.594 1.406 0.594 0.594 1.406-0.594 1.406-1.406 0.594-1.406-0.594-0.594-1.406zM4 23q0-0.813 0.594-1.406t1.406-0.594 1.406 0.594 0.594 1.406-0.594 1.406-1.406 0.594-1.406-0.594-0.594-1.406z"></path>
</svg>
