<!-- Generated by IcoMoon.io -->
<svg version="1.1" xmlns="http://www.w3.org/2000/svg" width="32" height="32" viewBox="0 0 32 32">
<title>sortlight</title>
<path d="M28.031 9.344h-16q-0.281 0-0.469-0.203t-0.188-0.469 0.188-0.469 0.469-0.203h16q0.281 0 0.469 0.203t0.188 0.469-0.188 0.469-0.469 0.203zM28.031 16.656h-16q-0.281 0-0.469-0.188t-0.188-0.469 0.188-0.469 0.469-0.188h16q0.281 0 0.469 0.188t0.188 0.469-0.188 0.469-0.469 0.188zM28.031 24h-16q-0.281 0-0.469-0.188t-0.188-0.469 0.188-0.484 0.469-0.203h16q0.281 0 0.469 0.203t0.188 0.484-0.188 0.469-0.469 0.188zM4.688 8.672q0-0.547 0.391-0.938t0.953-0.391 0.953 0.391 0.391 0.938-0.391 0.938-0.953 0.391-0.953-0.391-0.391-0.938zM4.688 16q0-0.563 0.391-0.953t0.953-0.391 0.953 0.391 0.391 0.953-0.391 0.953-0.953 0.391-0.953-0.391-0.391-0.953zM4.688 23.328q0-0.547 0.391-0.938t0.953-0.391 0.953 0.391 0.391 0.938-0.391 0.938-0.953 0.391-0.953-0.391-0.391-0.938z"></path>
</svg>
