<!-- Generated by IcoMoon.io -->
<svg version="1.1" xmlns="http://www.w3.org/2000/svg" width="32" height="32" viewBox="0 0 32 32">
<title>sound</title>
<path d="M16 30.031q-2.844 0-5.438-1.125t-4.469-3-2.984-4.453-1.109-5.422 1.109-5.438 2.984-4.469 4.469-2.984 5.438-1.109 5.438 1.109 4.469 2.984 2.984 4.469 1.109 5.438-1.109 5.422-2.984 4.453-4.469 3-5.438 1.125zM16 4.031q-3.25 0-6.016 1.594t-4.375 4.359-1.609 6.031 1.609 6.031 4.375 4.375 6.016 1.609 6.016-1.609 4.375-4.375 1.609-6.031-1.609-6.031-4.375-4.359-6.016-1.594zM17.969 24q-0.406 0-0.719-0.313-0.281-0.281-0.281-0.703t0.313-0.703q2.688-2.594 2.688-6.281t-2.688-6.281q-0.313-0.281-0.313-0.703t0.281-0.719 0.703-0.297 0.703 0.281q1.594 1.531 2.453 3.531t0.859 4.188-0.844 4.188-2.469 3.531q-0.281 0.281-0.688 0.281zM15 21.969q-0.375 0-0.688-0.281-0.281-0.281-0.297-0.688t0.266-0.719q1.688-1.75 1.688-4.281 0-2.563-1.719-4.313-0.281-0.313-0.281-0.719t0.297-0.703 0.719-0.281 0.703 0.297q2.281 2.344 2.281 5.719 0 3.313-2.25 5.656-0.281 0.313-0.719 0.313zM12.031 19.406q-0.469 0-0.781-0.375-0.25-0.313-0.203-0.734t0.359-0.672q0.625-0.5 0.625-1.219t-0.625-1.219q-0.313-0.25-0.359-0.672t0.203-0.734 0.672-0.359 0.734 0.203q1.375 1.094 1.375 2.781t-1.375 2.781q-0.281 0.219-0.625 0.219z"></path>
</svg>
