<!-- Generated by IcoMoon.io -->
<svg version="1.1" xmlns="http://www.w3.org/2000/svg" width="32" height="32" viewBox="0 0 32 32">
<title>soundlight</title>
<path d="M16 30.031q-2.844 0-5.438-1.125t-4.469-3-2.984-4.453-1.109-5.422 1.109-5.438 2.984-4.469 4.469-2.984 5.438-1.109 5.438 1.109 4.469 2.984 2.984 4.469 1.109 5.438-1.109 5.422-2.984 4.453-4.469 3-5.438 1.125zM16 3.344q-3.438 0-6.359 1.703t-4.609 4.625-1.688 6.344 1.688 6.344 4.609 4.625 6.359 1.703 6.359-1.703 4.609-4.625 1.688-6.344-1.688-6.344-4.609-4.625-6.359-1.703zM18.719 24q-0.25 0-0.438-0.156-0.219-0.188-0.234-0.469t0.172-0.469q2.5-2.875 2.5-6.906t-2.5-6.906q-0.188-0.188-0.172-0.469t0.219-0.469 0.484-0.156 0.469 0.219q2.813 3.25 2.813 7.781t-2.813 7.781q-0.219 0.219-0.5 0.219zM14.75 21.969q-0.25 0-0.438-0.156-0.219-0.188-0.234-0.469t0.172-0.469q1.781-2.031 1.781-4.875 0-2.906-1.813-4.906-0.188-0.219-0.188-0.484t0.219-0.453 0.484-0.172 0.453 0.203q2.188 2.406 2.188 5.813 0 3.375-2.125 5.75-0.219 0.219-0.5 0.219zM11.344 19.75q-0.344 0-0.531-0.25-0.188-0.219-0.156-0.5t0.25-0.438q1.094-0.875 1.094-2.156t-1.094-2.156q-0.219-0.156-0.25-0.438t0.141-0.484 0.453-0.234 0.5 0.125q1.594 1.281 1.594 3.203t-1.594 3.172q-0.188 0.156-0.406 0.156z"></path>
</svg>
