<!-- Generated by IcoMoon.io -->
<svg version="1.1" xmlns="http://www.w3.org/2000/svg" width="32" height="32" viewBox="0 0 32 32">
<title>sports</title>
<path d="M29.188 17.875q0.156-1.219 0.156-1.875 0-3.281-1.5-6.125t-4.031-4.688q-0.219-0.188-0.281-0.188-3.5-2.344-7.531-2.344-3.594 0-6.672 1.797t-4.875 4.875-1.797 6.672q0 4.75 3 8.406 1.906 2.281 4.609 3.609t5.734 1.328q4.969 0 8.703-3.25t4.422-8.094q0.063-0.063 0.063-0.125zM28 16q0 0.813-0.063 1.188-0.406 0.094-1.281 0.094-2.688 0-5.063-1.156 2.406-4.063 2.406-8.781v-0.219q1.875 1.688 2.938 3.984t1.063 4.891zM22.656 6v1.344q0 4.469-2.25 8.188-2.625-1.625-4.188-4.359t-1.563-5.891q0-0.813 0.063-1.219 0.406-0.063 1.281-0.063 3.625 0 6.656 2zM13.406 4.281q0 0.156-0.031 0.484t-0.031 0.516q0 3.531 1.703 6.531t4.609 4.781q-1.438 1.969-3.188 3.344-1.844-2.75-4.781-4.375t-6.344-1.625q-0.813 0-1.219 0.063 0.656-3.594 3.188-6.266t6.094-3.453zM4 15.406q0.469-0.063 1.406-0.063 3.094 0 5.734 1.453t4.266 3.922q-4.125 2.625-8.75 2.625h-0.188q-2.469-3.344-2.469-7.344v-0.594zM7.656 24.594q4.656-0.313 8.406-2.719 1.344 2.656 1.344 5.406v0.594q-0.469 0.125-1.406 0.125-2.406 0-4.563-0.891t-3.781-2.516zM18.656 27.656v-0.375q0-3.344-1.531-6.219 2.063-1.563 3.75-3.875 2.656 1.344 5.781 1.344 0.688 0 1-0.063-0.688 3.438-3.141 5.938t-5.859 3.25z"></path>
</svg>
