<!-- Generated by IcoMoon.io -->
<svg version="1.1" xmlns="http://www.w3.org/2000/svg" width="32" height="32" viewBox="0 0 32 32">
<title>squarecheck</title>
<path d="M22.719 12.297q-0.281-0.297-0.703-0.297t-0.703 0.281l-7.313 7.375-3.219-3.313q-0.281-0.281-0.703-0.297t-0.719 0.281-0.297 0.703 0.281 0.719l3.938 4.031h0.031v0.031q0.031 0.031 0.219 0.125 0 0.031 0.031 0.047t0.063 0.047q0.188 0.063 0.375 0.063t0.375-0.063q0.031-0.031 0.063-0.047t0.063-0.047q0.156-0.094 0.219-0.125v0-0.031l8-8.094q0.313-0.281 0.297-0.688t-0.297-0.703zM26 29h-20q-1.25 0-2.125-0.875t-0.875-2.125v-20q0-1.25 0.875-2.125t2.125-0.875h20q1.25 0 2.125 0.875t0.875 2.125v20q0 1.25-0.875 2.125t-2.125 0.875zM6 5q-0.406 0-0.703 0.297t-0.297 0.703v20q0 0.406 0.297 0.703t0.703 0.297h20q0.406 0 0.703-0.297t0.297-0.703v-20q0-0.406-0.297-0.703t-0.703-0.297h-20z"></path>
</svg>
