<!-- Generated by IcoMoon.io -->
<svg version="1.1" xmlns="http://www.w3.org/2000/svg" width="32" height="32" viewBox="0 0 32 32">
<title>suan</title>
<path d="M24.781 20.219q0.719 0 1.25-0.141t0.891-0.328 0.594-0.578 0.359-0.688 0.172-0.891 0.063-0.938 0.016-1.031v-0.531l-0.031-1.5q0-2.313-2.625-2.938l1.531-1.406q-0.656-0.438-1.719-0.969 1.938 0.063 4 0.313 0.438-1.375 0.844-2.219-3.125-0.219-7.438 0.125l0.344-0.531-4-1.438-0.156 0.469t-0.422 1.063-0.719 1.484-1.016 1.5-1.344 1.297q0.344 0.156 0.75 0.375-2.406 0.156-4.875 0.438l1.781-1.813q-0.438-0.375-1.563-0.969 1.875 0.063 3.938 0.313 0.469-1.094 0.906-1.938-3.406-0.344-6.969 0.031l0.594-0.781-4.125-1.25q-0.031 0.156-0.125 0.422t-0.438 0.984-0.734 1.359-1.031 1.406-1.359 1.234q0.5 0.219 0.984 0.516t0.703 0.516l0.25 0.188q1.594-0.625 3.375-2.406 1.25 0.813 2.125 1.531h-3.688v9.719h4.25q0.031 0.594 0 0.938h-7.094v2.156h6.813q-0.406 1.281-1.781 1.984t-4.219 0.797l1.031 1.906q3-0.219 4.984-0.906t2.906-1.594 1.328-2.188h6.469v4.906h4.219v-4.906h5.344v-2.156h-5.344v-0.938zM12.063 18.563h-1.75v-0.594l13.25-0.313q-0.469 0.906-1.813 0.906h-9.688zM23.563 13.25l-13.25 0.344v-0.625q3.875-0.375 8.25-0.656 4.344-0.25 5 0.938zM10.313 15.406l13.438-0.344v0.781l-13.438 0.313v-0.75zM20.844 8.813q1.344 0.906 2.25 1.594h-0.5q-1.688 0.031-3.563 0.125 0.906-0.719 1.813-1.719zM10.438 11.25l-0.125 0.031v-0.125q0.063 0.031 0.125 0.094zM14.438 21.156q0.031-0.438 0.031-0.938h6.094v0.938h-6.125z"></path>
</svg>
