<!-- Generated by IcoMoon.io -->
<svg version="1.1" xmlns="http://www.w3.org/2000/svg" width="32" height="32" viewBox="0 0 32 32">
<title>subscription</title>
<path d="M5.094 25.5q0 1.031 0.734 1.766t1.766 0.734 1.766-0.734 0.734-1.766-0.734-1.766-1.766-0.734-1.766 0.734-0.734 1.766zM8 4q-1.063 0-2.156 0.094-0.344 0.063-0.594 0.359t-0.25 0.641q0 0.406 0.297 0.703t0.703 0.297h0.063q0.969-0.094 1.938-0.094v0q5.156 0 9.531 2.547t6.922 6.922 2.547 9.531q0 1.25-0.063 1.906v0.094q0 0.406 0.297 0.703t0.703 0.297q0.375 0 0.672-0.266t0.328-0.641q0.063-0.75 0.063-2.094 0-4.25-1.672-8.141t-4.484-6.703-6.703-4.484-8.141-1.672zM8 13q-1.125 0-2.219 0.219-0.344 0.063-0.563 0.344t-0.219 0.625q0 0.406 0.281 0.703t0.719 0.297q0.063 0 0.156-0.031 0.906-0.156 1.844-0.156v0q4.125 0 7.063 2.938t2.938 7.063q0 0.906-0.156 1.813-0.031 0.094-0.031 0.188 0 0.406 0.297 0.703t0.703 0.297q0.344 0 0.641-0.25t0.359-0.594q0.188-1.063 0.188-2.156 0-3.25-1.609-6.016t-4.375-4.375-6.016-1.609z"></path>
</svg>
