<!-- Generated by IcoMoon.io -->
<svg version="1.1" xmlns="http://www.w3.org/2000/svg" width="32" height="32" viewBox="0 0 32 32">
<title>subscription_light</title>
<path d="M5.406 25.328q0 0.828 0.578 1.422t1.406 0.594 1.422-0.594 0.594-1.422-0.594-1.406-1.422-0.578-1.406 0.578-0.578 1.406zM8.063 4.063q-0.656 0-2.125 0.125-0.25 0-0.422 0.219t-0.172 0.469q0.031 0.281 0.234 0.453t0.484 0.141q1.344-0.125 2-0.125 3.938 0 7.516 1.531t6.172 4.109 4.125 6.172 1.531 7.5q0 1.469-0.063 1.938 0 0.25 0.172 0.469t0.422 0.281h0.063q0.25 0 0.438-0.172t0.219-0.453q0.063-0.438 0.063-2.063 0-4.156-1.625-7.969t-4.406-6.578-6.609-4.406-8.016-1.641zM8.063 13.281q-1.125 0-2.125 0.188-0.25 0.063-0.422 0.281t-0.125 0.516 0.281 0.438 0.516 0.109q0.906-0.219 1.938-0.219 2.781 0 5.172 1.391t3.781 3.781 1.391 5.172q0 0.75-0.188 1.656-0.063 0.25 0.109 0.5t0.422 0.313h0.125q0.563 0 0.656-0.531 0.219-1 0.219-1.938-0.031-3.188-1.609-5.875t-4.266-4.234-5.875-1.547z"></path>
</svg>
