<!-- Generated by IcoMoon.io -->
<svg version="1.1" xmlns="http://www.w3.org/2000/svg" width="32" height="32" viewBox="0 0 32 32">
<title>tag</title>
<path d="M10.094 24.594q-1.25 0-2.125-0.891t-0.875-2.125 0.875-2.109 2.125-0.875 2.125 0.875 0.875 2.109-0.875 2.125-2.125 0.891zM10.094 20.594q-0.406 0-0.703 0.297t-0.297 0.703 0.297 0.703 0.703 0.297 0.703-0.297 0.297-0.703-0.297-0.703-0.703-0.297zM13 28.969h-4.125q-1.844 0-3-0.328t-1.781-1.125-0.844-1.828-0.219-2.719v-4.406q0-1.688 0.422-2.531t1.797-2.188l10.219-10q0.875-0.813 2.234-0.813t2.203 0.813l8.219 8q0.906 0.875 0.906 2.219t-0.906 2.219l-9.063 9.219q-1 0.969-1.5 1.422t-1.297 1.031-1.578 0.797-1.688 0.219zM17.703 4.969q-0.516 0-0.828 0.313l-10.219 10q-1.156 1.125-1.391 1.609t-0.234 1.672v4.406q0 0.969 0.031 1.5t0.172 1.047 0.375 0.75 0.688 0.422 1.047 0.234 1.531 0.047h4.125q1.156 0 2.047-0.609t2.609-2.297l0.844-0.813 8.219-8.375q0.313-0.313 0.313-0.813t-0.281-0.781l-8.219-8q-0.313-0.313-0.828-0.313z"></path>
</svg>
