<!-- Generated by IcoMoon.io -->
<svg version="1.1" xmlns="http://www.w3.org/2000/svg" width="32" height="32" viewBox="0 0 32 32">
<title>tagfill</title>
<path d="M28.156 11.875l-8.219-8q-0.875-0.844-2.234-0.844t-2.234 0.844l-10.219 10q-1.375 1.313-1.781 2.172t-0.406 2.547v4.5q0 1.656 0.203 2.688t0.828 1.828 1.781 1.141 3 0.344h4.125q0.938 0 1.703-0.234t1.563-0.797 1.313-1.016 1.484-1.453l9.063-9.281q0.938-0.906 0.938-2.25 0-1.313-0.906-2.188zM10.094 24.594q-1.25 0-2.125-0.891t-0.875-2.125 0.875-2.109 2.125-0.875 2.125 0.875 0.875 2.109-0.875 2.125-2.125 0.891z"></path>
</svg>
