<!-- Generated by IcoMoon.io -->
<svg version="1.1" xmlns="http://www.w3.org/2000/svg" width="32" height="32" viewBox="0 0 32 32">
<title>tao</title>
<path d="M4.781 11.031l-1.594 2.469 2.906 1.813q0.063 0.031 0.125 0.078l0.25 0.188t0.344 0.297 0.313 0.406 0.219 0.531 0.016 0.656-0.234 0.75q-0.375 0.781-1.672 2.203t-2.359 2.453-1.094 1.031l3.813 2.406q0.813-1.781 1.484-3.188t0.859-1.813 0.359-0.859 0.422-1.234q0.563-1.531 0.531-2.797t-0.844-2.109q-1.125-1.125-1.672-1.578t-2.172-1.703zM6.844 10.094q1.063 0 1.797-0.656t0.734-1.594-0.734-1.609-1.797-0.672q-1.031 0-1.766 0.672t-0.734 1.609 0.734 1.594 1.766 0.656zM29.531 10.375q-0.031-0.125-0.078-0.344t-0.422-0.813-0.938-1.078-1.719-0.922-2.656-0.578-3.875 0.156-5.25 1.109l0.875-1.719-3.5-1-0.172 0.516t-0.5 1.25-0.813 1.734-1.094 1.766-1.391 1.578q0.156 0.094 0.406 0.234t0.781 0.453 0.891 0.516 0.359 0.172q1.031-1.031 1.875-2.125 0.781-0.344 1.625-0.688-1.563 2.781-2.75 4.063l1.469 1.313q1.031-0.969 2.125-2.156h1.25v2.188h-4.906v1.75h4.906v4.156h-0.188q-1.344-0.063-1.719-0.625-0.156-0.313-0.188-0.734t0.047-1.047 0.078-0.781h-3.406l-0.125 0.094q-0.031 0.094-0.063 0.297t-0.063 0.781 0.016 1.109 0.266 1.172 0.609 1.094 1.109 0.75 1.719 0.266q5.281 0.156 8.344-2.219l0.5 1.844 2.781-1.188-1.875-4.625-2.281 0.719 0.438 1.563q-0.813 0.625-1.969 1.031v-3.656h4.781v-1.75h-4.781v-2.188h4.813v-1.75h-8.563q1.063-1.281 1.25-1.875l-1.5-0.406q9.969-3.625 9.938 1.875v10.156t-0.031 0.469-0.125 0.656-0.344 0.688-0.625 0.641-0.984 0.422-1.422 0.094l-2.094-0.438-0.5 2q0.188 0.063 0.516 0.141t1.297 0.203 1.844 0.141 1.984-0.219 1.938-0.719 1.469-1.5 0.797-2.453q0.188-1.969 0.25-3.906t0-3.203-0.172-2.406-0.172-1.5-0.094-0.547v0z"></path>
</svg>
