<!-- Generated by IcoMoon.io -->
<svg version="1.1" xmlns="http://www.w3.org/2000/svg" width="32" height="32" viewBox="0 0 32 32">
<title>taoqianggou</title>
<path d="M5.625 13.938l-1.75-0.375-0.156 0.844 1.781 0.344zM3.906 15.188l-1.031 4.063h1.5l1.031-4.063h-1.5zM8.813 16.313l-0.344 1.969q0 0.219-0.078 0.328t-0.266 0.078h-0.219l0.5-2.813h1.5l0.125-0.688h-1.5l0.031-0.094 0.031-0.25h1.5l0.094-0.688h-2.813l0.156-0.375h-1.375l-0.5 1.063h1.5l-0.063 0.344h-1.5l-0.125 0.688h1.5l-0.531 2.813h-0.469l0.469-2.375h-1.031l-0.5 2.938h3.906q0.531 0 0.594-0.438l0.438-2.5h-1.031zM7.563 12.844l0.219-0.469h-1.344l-0.563 1.156h4.875l-1.094 5.719h0.5q0.906 0.063 1-0.781l0.938-5.625h-4.531zM5.844 12.781l-1.781-0.344-0.156 0.813 1.781 0.313zM16.719 14.375l0.875-1.313h0.156l0.656 1.313h1.469l-0.75-2h-2.625l-1.125 2h1.344zM15.156 14.375l-0.375 0.063 0.156-0.906h0.344l0.094-0.688h-0.344l0.125-0.469h-1.688l-0.125 0.469h-1.063l-0.125 0.688h1.063l-0.219 1.375-1.031 0.25-0.188 0.938 0.969-0.25-0.344 2.438q0 0.438-0.375 0.344h-0.594l-0.125 0.625h1.969q0.719 0.063 0.781-0.625l0.469-3.25 0.375-0.094zM26.469 12.781l0.469-0.781-0.563 0.781h-0.563l0.125-0.344h-1.625l-0.25 1.094 1.781-0.031-2.563 3.469h1.594l-1.125 3.563 2.719-5.156h-1.5l1.094-1.875 1.219-0.031q-0.531 3.438-0.781 4.75-0.031 0.063-0.234 0.109t-0.391 0.047l-0.219 0.031-0.375 0.844h1.844q0.688 0.094 0.75-0.594l1-5.875h-2.406zM20.781 12.438l-0.813 4.938h0.438l-0.375 1.281h-3.531q-0.438 0.063-0.281-0.375l0.5-2.875h1.594l-0.281 1.469q0.031 0.438-0.406 0.375h-0.656l-0.094 0.688h1.813q0.75 0.063 0.813-0.688l0.438-2.531h-4.625l-0.688 3.875q-0.063 0.344 0.109 0.5t0.578 0.156h5.656l0.313-1.469 0.75-2.875h-0.438l0.25-1.781h0.688l-0.844 4.844h0.531q0.719 0.063 0.781-0.688l0.844-4.844h-3.063zM21.438 18.125l0.063 1.125h1.156l-0.063-1.125h-1.156z"></path>
</svg>
