<!-- Generated by IcoMoon.io -->
<svg version="1.1" xmlns="http://www.w3.org/2000/svg" width="32" height="32" viewBox="0 0 32 32">
<title>taoxiaopu</title>
<path d="M2 5.781v9.25q0 1.656 1.172 2.813t2.828 1.156 2.828-1.156 1.172-2.813v-9.344q0-0.313-0.203-0.516t-0.516-0.203h-6.313q-0.406 0-0.688 0.219t-0.281 0.594zM12 5.813v9.25q0 1.656 1.172 2.813t2.828 1.156 2.828-1.156 1.172-2.813v-9.375q0-0.281-0.203-0.5t-0.516-0.219h-6.313q-0.406 0-0.688 0.234t-0.281 0.609zM22.031 5.813v8.969h0.031q0 0.063-0.016 0.141t-0.016 0.141q0 1.656 1.172 2.813t2.828 1.156 2.828-1.156 1.172-2.813v-9.375q0-0.281-0.203-0.5t-0.484-0.219h-6.344q-0.406 0-0.688 0.234t-0.281 0.609zM25 27h-17q-0.813 0-1.406-0.594t-0.594-1.406v-3q0-0.406 0.297-0.703t0.703-0.297 0.703 0.297 0.297 0.703v3h17v-3q0-0.406 0.297-0.703t0.703-0.297 0.703 0.297 0.297 0.703v3q0 0.813-0.594 1.406t-1.406 0.594z"></path>
</svg>
