<!-- Generated by IcoMoon.io -->
<svg version="1.1" xmlns="http://www.w3.org/2000/svg" width="32" height="32" viewBox="0 0 32 32">
<title>taxi</title>
<path d="M7 20.016q0-0.828 0.578-1.406t1.406-0.578 1.422 0.578 0.594 1.406-0.594 1.406-1.422 0.578-1.406-0.578-0.578-1.406zM21.031 20.016q0-0.828 0.578-1.406t1.406-0.578 1.422 0.578 0.594 1.406-0.594 1.406-1.422 0.578-1.406-0.578-0.578-1.406zM22.031 16h-12q-0.406 0-0.703-0.297t-0.297-0.703 0.297-0.703 0.703-0.297h12q0.406 0 0.703 0.297t0.297 0.703-0.297 0.703-0.703 0.297zM28 14.125v-0.156q0-0.094-0.031-0.219l-1-4.969q0-0.125-0.063-0.219-0.5-1.063-1.656-1.813t-2.25-0.75h-1.094l-0.031-0.188-0.594-1.938q-0.188-0.781-0.922-1.328t-1.641-0.547h-5.438q-0.906 0-1.625 0.531t-0.906 1.281l-0.625 1.969v0.219h-1.125q-1.188 0-2.328 0.688t-1.609 1.938q-0.031 0.094-0.031 0.156l-1 5q-0.031 0.094-0.031 0.219v0.125q-0.875 0.344-1.438 1.109t-0.563 1.734v6.094q0 1.219 0.875 2.078t2.125 0.859h1v0.063q0 1.656 1.172 2.828t2.828 1.172 2.828-1.172 1.172-2.828v-0.063h4v0.063q0 1.656 1.172 2.828t2.828 1.172 2.828-1.172 1.172-2.828v-0.063h1q1.25 0 2.125-0.844t0.875-2.094v-6.094q0-0.969-0.563-1.75t-1.438-1.094zM12.688 4.313q0.031-0.094 0.203-0.203t0.391-0.109h5.438q0.25 0 0.422 0.125t0.203 0.281l0.5 1.594h-7.688zM28 23.063q0 0.406-0.281 0.672t-0.719 0.266h-2q-0.406 0-0.703 0.297t-0.297 0.703v1.063q0 0.813-0.594 1.406t-1.406 0.594-1.406-0.594-0.594-1.406v-1.063q0-0.406-0.297-0.703t-0.703-0.297h-6q-0.406 0-0.703 0.297t-0.297 0.703v1.063q0 0.813-0.594 1.406t-1.406 0.594-1.406-0.594-0.594-1.406v-1.063q0-0.406-0.297-0.703t-0.703-0.297h-2q-0.438 0-0.719-0.266t-0.281-0.672v-6.094q0-0.406 0.297-0.703t0.719-0.297 0.719-0.297 0.297-0.734l-0.031-0.875 0.969-4.781q0.25-0.594 0.828-0.938t1.203-0.344h14q0.5 0 1.125 0.406t0.938 0.906l0.938 4.75v0.906q0 0.406 0.297 0.703t0.703 0.297 0.703 0.281 0.297 0.719v6.094z"></path>
</svg>
