<!-- Generated by IcoMoon.io -->
<svg version="1.1" xmlns="http://www.w3.org/2000/svg" width="32" height="32" viewBox="0 0 32 32">
<title>text</title>
<path d="M27.719 9.281l-6-6q-0.156-0.125-0.344-0.203t-0.375-0.078h-14q-1.25 0-2.125 0.875t-0.875 2.125v20q0 1.25 0.875 2.125t2.125 0.875h18q1.25 0 2.125-0.875t0.875-2.125v-16q0-0.406-0.281-0.719zM22 6.406l3.594 3.594h-3.594v-3.594zM25 27h-18q-0.406 0-0.703-0.297t-0.297-0.703v-20q0-0.406 0.297-0.703t0.703-0.297h13v6q0 0.406 0.297 0.703t0.703 0.297h5v14q0 0.406-0.297 0.703t-0.703 0.297zM9 11h6q0.406 0 0.703-0.297t0.297-0.703-0.297-0.703-0.703-0.297h-6q-0.406 0-0.703 0.297t-0.297 0.703 0.297 0.703 0.703 0.297zM19 15h-10q-0.406 0-0.703 0.297t-0.297 0.703 0.297 0.703 0.703 0.297h10q0.406 0 0.703-0.297t0.297-0.703-0.297-0.703-0.703-0.297zM19 21h-10q-0.406 0-0.703 0.297t-0.297 0.703 0.297 0.703 0.703 0.297h10q0.406 0 0.703-0.297t0.297-0.703-0.297-0.703-0.703-0.297z"></path>
</svg>
