<!-- Generated by IcoMoon.io -->
<svg version="1.1" xmlns="http://www.w3.org/2000/svg" width="32" height="32" viewBox="0 0 32 32">
<title>tian</title>
<path d="M27.719 13.219h-10.719v-6.344h9.656v-2.438h-21.313v2.438h9.219v6.344h-10.281v2.406h10q-0.094 0.406-0.234 0.906t-0.5 1.438-0.844 1.828-1.281 1.969-1.766 2-2.375 1.797-3 1.438v2.438q3.531-0.719 6.656-3.531t4.813-6.594q1.781 4 5.125 6.703t6.844 3.422v-2.469q-1.656-0.594-3.094-1.484t-2.453-1.813-1.875-2.031-1.375-1.984-0.922-1.813-0.563-1.391-0.25-0.828h10.531v-2.406z"></path>
</svg>
