<!-- Generated by IcoMoon.io -->
<svg version="1.1" xmlns="http://www.w3.org/2000/svg" width="32" height="32" viewBox="0 0 32 32">
<title>ticket</title>
<path d="M13.438 29.906q-1.094 0-1.875-0.781l-2.125-2.188q-0.281-0.313-0.281-0.719t0.313-0.719q0.688-0.656 0.703-1.625t-0.672-1.656q-0.656-0.656-1.641-0.672t-1.641 0.641q-0.313 0.281-0.719 0.281-0.438 0-0.719-0.313l-2.125-2.188q-0.75-0.781-0.734-1.859t0.797-1.828l13.844-13.594q0.75-0.719 1.859-0.719t1.859 0.75l2.125 2.219q0.281 0.281 0.266 0.703t-0.297 0.703q-0.688 0.688-0.703 1.641t0.672 1.641q0.656 0.688 1.641 0.703t1.641-0.641q0.25-0.25 0.719-0.281 0.406 0 0.719 0.281l2.125 2.188q0.75 0.781 0.734 1.859t-0.797 1.859l-13.844 13.563q-0.781 0.75-1.844 0.75zM11.5 26.156l1.5 1.563q0.188 0.188 0.438 0.188t0.438-0.188l13.844-13.563q0.188-0.188 0.188-0.438t-0.156-0.438l-1.531-1.563q-1 0.625-2.219 0.625-1.813 0-3.094-1.313-1.25-1.281-1.219-3.063 0-1.25 0.656-2.281l-1.5-1.563q-0.188-0.156-0.438-0.172t-0.438 0.172l-13.875 13.563q-0.156 0.188-0.172 0.438t0.172 0.438l1.5 1.563q1.031-0.625 2.25-0.625 1.813 0 3.094 1.313 1.25 1.281 1.219 3.094 0 1.219-0.656 2.25zM11.063 18.219q-0.406 0-0.703-0.297t-0.297-0.703 0.313-0.688l5.563-5.594q0.313-0.281 0.719-0.281t0.703 0.281 0.297 0.703-0.281 0.703l-5.594 5.594q-0.313 0.281-0.719 0.281zM14.063 21.219q-0.406 0-0.703-0.297t-0.297-0.703 0.281-0.719l5.594-5.563q0.281-0.313 0.703-0.313t0.703 0.297 0.281 0.703-0.281 0.719l-5.594 5.563q-0.281 0.313-0.688 0.313z"></path>
</svg>
