<!-- Generated by IcoMoon.io -->
<svg version="1.1" xmlns="http://www.w3.org/2000/svg" width="32" height="32" viewBox="0 0 32 32">
<title>time</title>
<path d="M16 2q-5.781 0-9.891 4.109t-4.109 9.891 4.109 9.891 9.891 4.109 9.891-4.109 4.109-9.891-4.109-9.891-9.891-4.109zM16 28q-3.25 0-6.016-1.609t-4.375-4.375-1.609-6.016 1.609-6.016 4.375-4.375 6.016-1.609 6.016 1.609 4.375 4.375 1.609 6.016-1.609 6.016-4.375 4.375-6.016 1.609zM21 16h-5v-7q0-0.406-0.297-0.703t-0.703-0.297-0.703 0.297-0.297 0.703v8q0 0.406 0.297 0.703t0.703 0.297h6q0.406 0 0.703-0.297t0.297-0.703-0.297-0.703-0.703-0.297z"></path>
</svg>
