<!-- Generated by IcoMoon.io -->
<svg version="1.1" xmlns="http://www.w3.org/2000/svg" width="32" height="32" viewBox="0 0 32 32">
<title>tmall</title>
<path d="M24.281 24.25q0.063 0 0.094-0.031h0.094t0.156 0.031h-0.344zM7.344 24.25q-0.156 0.094-0.313 0.391t-0.266 0.734-0.172 0.984-0.063 1.172v0.75q0.031 0.375 0.094 0.719h1.781q0.125-0.656 0.125-1.469 0-0.625-0.063-1.188t-0.188-0.969q-0.125-0.438-0.266-0.734t-0.328-0.391h-0.344zM24.281 24.25q-0.156 0.094-0.313 0.391t-0.266 0.734-0.172 0.969q-0.063 0.563-0.063 1.188 0 0.406 0.031 0.75 0.031 0.406 0.063 0.719h1.781q0.063-0.344 0.094-0.719 0.031-0.344 0.031-0.75 0-0.625-0.063-1.188t-0.188-0.984-0.266-0.719-0.328-0.391h-0.344zM7.688 24.25q0.594 0.031 1.141 0.297t0.938 0.719 0.609 1.031 0.219 1.203q0 0.813-0.344 1.5h11.469q-0.344-0.688-0.344-1.5 0-0.625 0.234-1.203t0.625-1.031 0.922-0.719 1.125-0.297h-16.594zM16.875 27.25l-0.313 0.469q-0.125 0.156-0.219 0.313-0.094 0.125-0.156 0.25-0.031 0-0.063 0.031t-0.125 0.031-0.125-0.031-0.063-0.031q-0.063-0.094-0.188-0.25l-0.188-0.313-0.344-0.469q-0.094-0.188 0-0.313t0.344-0.125h1.125q0.25 0 0.344 0.125t-0.031 0.313zM24.625 24.25q0.625 0.031 1.156 0.297t0.922 0.719 0.625 1.031 0.234 1.203q0 0.406-0.094 0.781t-0.281 0.719h2.719v-5.969q0-0.469-0.047-1.047t-0.188-1.109-0.375-0.984-0.609-0.672q-0.406-0.25-0.797-0.188t-0.719 0.25-0.547 0.422-0.313 0.328q-0.5 0.625-1.125 1.375-0.594 0.688-1.313 1.266t-1.578 0.953-1.922 0.375h-8.75q-1.094 0-1.953-0.375t-1.563-0.953-1.297-1.266q-0.563-0.688-1.156-1.375-0.063-0.063-0.172-0.188t-0.281-0.281-0.391-0.281q-0.219-0.156-0.469-0.219t-0.516-0.031-0.547 0.188q-0.375 0.219-0.594 0.672t-0.359 0.984-0.188 1.109-0.047 1.047q-0.031 0-0.031 0.094v0 5.875h2.719q-0.156-0.344-0.25-0.719t-0.094-0.781q0-0.625 0.234-1.203t0.625-1.031 0.922-0.719 1.125-0.297h17.281zM7.344 24.25q0.063 0 0.094-0.031h0.188t0.063 0.031h-0.344zM29 18q-0.406 0-0.703-0.297t-0.297-0.703v-11q0-0.406-0.297-0.703t-0.703-0.297h-22q-0.406 0-0.703 0.297t-0.297 0.703v11q0 0.406-0.297 0.703t-0.703 0.297-0.703-0.297-0.297-0.703v-11q0-1.25 0.875-2.125t2.125-0.875h22q1.25 0 2.125 0.875t0.875 2.125v11q0 0.406-0.297 0.703t-0.703 0.297zM16 15q-2.906 0-4.953-2.047t-2.047-4.953q0-0.406 0.297-0.703t0.703-0.297 0.703 0.297 0.297 0.703q0 2.063 1.469 3.531t3.531 1.469 3.531-1.469 1.469-3.531q0-0.406 0.297-0.703t0.703-0.297 0.703 0.297 0.297 0.703q0 2.906-2.047 4.953t-4.953 2.047z"></path>
</svg>
