<!-- Generated by IcoMoon.io -->
<svg version="1.1" xmlns="http://www.w3.org/2000/svg" width="32" height="32" viewBox="0 0 32 32">
<title>top</title>
<path d="M25.813 17.344l-9-9.031q-0.281-0.281-0.719-0.281l-0.031-0.016t-0.063-0.016q-0.219 0-0.406 0.094-0.188 0.063-0.344 0.219l-8.094 8.094q-0.313 0.281-0.313 0.703t0.297 0.719 0.703 0.297 0.719-0.313l6.438-6.438v17.625q0 0.406 0.297 0.703t0.703 0.297 0.703-0.297 0.297-0.703v-17.656l7.375 7.406q0.313 0.313 0.719 0.313t0.703-0.297 0.297-0.703-0.281-0.719zM27 6h-22q-0.406 0-0.703-0.297t-0.297-0.703 0.297-0.703 0.703-0.297h22q0.406 0 0.703 0.297t0.297 0.703-0.297 0.703-0.703 0.297z"></path>
</svg>
