<!-- Generated by IcoMoon.io -->
<svg version="1.1" xmlns="http://www.w3.org/2000/svg" width="32" height="32" viewBox="0 0 32 32">
<title>unlock</title>
<path d="M16 24q-0.406 0-0.703-0.297t-0.297-0.703v-3q0-0.406 0.297-0.703t0.703-0.297 0.703 0.297 0.297 0.703v3q0 0.406-0.297 0.703t-0.703 0.297zM26 30h-20q-1.25 0-2.125-0.875t-0.875-2.125v-12q0-1.25 0.875-2.125t2.125-0.875h20q1.25 0 2.125 0.875t0.875 2.125v12q0 1.25-0.875 2.125t-2.125 0.875zM6 14q-0.406 0-0.703 0.297t-0.297 0.703v12q0 0.406 0.297 0.703t0.703 0.297h20q0.406 0 0.703-0.297t0.297-0.703v-12q0-0.406-0.297-0.703t-0.703-0.297h-20zM9 13q-0.406 0-0.703-0.297t-0.297-0.703v-2.031q0-2.375 1.234-4.25t3.109-2.797 3.969-0.922q2.375 0 4.469 1.281t3.156 3.375q0.188 0.344 0.063 0.75t-0.5 0.594-0.766 0.047-0.578-0.484q-0.813-1.625-2.422-2.594t-3.422-0.969q-2.469 0-4.391 1.656t-1.922 4.313v2.031q0 0.406-0.297 0.703t-0.703 0.297z"></path>
</svg>
