<!-- Generated by IcoMoon.io -->
<svg version="1.1" xmlns="http://www.w3.org/2000/svg" width="32" height="32" viewBox="0 0 32 32">
<title>untitled</title>
<path d="M1 26q-0.406 0-0.703-0.297t-0.297-0.703v-18q0-0.406 0.297-0.703t0.703-0.297 0.703 0.297 0.297 0.703v18q0 0.406-0.297 0.703t-0.703 0.297zM14.031 26h-9q-0.406 0-0.703-0.281t-0.297-0.719l-0.031-8q0-0.906 0.547-1.453t1.453-0.547h7v-7h-8q-0.406 0-0.703-0.297t-0.297-0.703 0.297-0.703 0.703-0.297h8q0.906 0 1.453 0.547t0.547 1.453v8q0 0.406-0.297 0.703t-0.703 0.297h-8l0.031 7h8q0.406 0 0.703 0.297t0.297 0.719-0.297 0.703-0.703 0.281zM18.047 26q-0.422 0-0.719-0.297t-0.297-0.703v-18q0-0.406 0.297-0.703t0.719-0.297 0.703 0.297 0.281 0.703v18q0 0.406-0.281 0.703t-0.703 0.297zM31.063 26h-9q-0.406 0-0.703-0.281t-0.297-0.719l-0.031-8q0-0.906 0.563-1.453t1.438-0.547h7v-7h-8q-0.406 0-0.703-0.297t-0.297-0.703 0.297-0.703 0.703-0.297h8q0.906 0 1.453 0.547t0.547 1.453v8q0 0.406-0.281 0.703t-0.719 0.297h-7.969v7h8q0.406 0 0.703 0.297t0.297 0.719-0.297 0.703-0.703 0.281z"></path>
</svg>
