<!-- Generated by IcoMoon.io -->
<svg version="1.1" xmlns="http://www.w3.org/2000/svg" width="32" height="32" viewBox="0 0 32 32">
<title>untitled1</title>
<path d="M19.188 10h-7.75l-1.313 2h4.75l-1.125 2.25-0.781-1.25h-3.094l2.344 4.125-3.781 6.875h3.031l2.281-4.281 2.344 4.281h3.094l-3.906-6.906zM19.188 14h1.813v10h4v-14h-3.813zM28.406 10l-1.969 4h1.563v10h4v-14h-3.594zM9.094 20.938l-2.188-3.844 3.844-7.094h-10.719l1.344 2h5.063l-1.063 2.156-0.75-1.156h-3.094l2.281 4-3.813 7h3.031l2.344-4.281 2.188 4.063z"></path>
</svg>
