<!-- Generated by IcoMoon.io -->
<svg version="1.1" xmlns="http://www.w3.org/2000/svg" width="32" height="32" viewBox="0 0 32 32">
<title>upblock</title>
<path d="M24.313 18.875q0.281 0.281 0.703 0.281t0.719-0.297 0.297-0.703-0.313-0.719l-8.844-8.906q-0.281-0.531-0.875-0.531-0.688 0-0.938 0.688l-7.844 7.813q-0.281 0.281-0.281 0.703t0.297 0.719 0.703 0.297 0.688-0.313l6.375-6.344v17.438q0 0.406 0.297 0.703t0.703 0.297 0.703-0.297 0.297-0.703v-17.5zM28 5q0-0.406-0.297-0.703t-0.703-0.297h-22q-0.406 0-0.703 0.297t-0.297 0.703 0.297 0.703 0.703 0.297h22q0.406 0 0.703-0.297t0.297-0.703zM25.547 21q-1.859 0-3.188 1.328t-1.328 3.188 1.328 3.172 3.188 1.313 3.172-1.313 1.313-3.172-1.313-3.188-3.172-1.328zM28.031 25.5q0 0.531-0.188 1l-3.281-3.281q0.469-0.219 0.969-0.219 1.031 0 1.766 0.734t0.734 1.766zM23.031 25.5q0-0.375 0.156-0.813l3.188 3.156q-0.438 0.156-0.844 0.156-1.031 0-1.766-0.734t-0.734-1.766z"></path>
</svg>
