<!-- Generated by IcoMoon.io -->
<svg version="1.1" xmlns="http://www.w3.org/2000/svg" width="32" height="32" viewBox="0 0 32 32">
<title>upload</title>
<path d="M25.719 12.344l-8.969-9.031q-0.156-0.156-0.344-0.219-0.188-0.094-0.406-0.094-0.531 0-0.813 0.469l-7.969 7.938q-0.281 0.281-0.281 0.703t0.281 0.719 0.703 0.297 0.703-0.313l6.375-6.344v17.531q0 0.406 0.297 0.703t0.703 0.297 0.703-0.297 0.297-0.703v-17.594l7.313 7.344q0.281 0.313 0.703 0.313t0.719-0.297 0.297-0.703-0.313-0.719zM28 22q-0.406 0-0.703 0.297t-0.297 0.703v4h-22v-4q0-0.406-0.297-0.703t-0.703-0.297-0.703 0.297-0.297 0.703v5q0 0.406 0.297 0.703t0.703 0.297h24q0.406 0 0.703-0.297t0.297-0.703v-5q0-0.406-0.297-0.703t-0.703-0.297z"></path>
</svg>
