<!-- Generated by IcoMoon.io -->
<svg version="1.1" xmlns="http://www.w3.org/2000/svg" width="32" height="32" viewBox="0 0 32 32">
<title>upstagefill</title>
<path d="M29 9h-3.094q0.094-1.156 0.094-2.094 0-0.906-0.094-1.969 0-0.375-0.297-0.641t-0.672-0.266h-17.844q-0.406 0-0.688 0.266t-0.313 0.641q-0.094 1.094-0.094 1.969 0 0.938 0.094 2.094h-3.094q-0.406 0-0.703 0.297t-0.297 0.703q0 3.094 1.672 5.047t4.328 1.953q0.031 0 0.078-0.016t0.078-0.016q1.219 2.531 3 4.109t3.844 1.891v4.031h-4q-0.406 0-0.703 0.297t-0.297 0.703 0.297 0.703 0.703 0.297h10q0.406 0 0.703-0.297t0.297-0.703-0.297-0.703-0.703-0.297h-4v-4.031q2.063-0.313 3.844-1.891t3.031-4.109l0.047 0.016t0.078 0.016q2.656 0 4.328-1.953t1.672-5.047q0-0.406-0.297-0.703t-0.703-0.297zM4.063 11h2.25q0.344 2.094 0.969 3.938-1.281-0.25-2.141-1.297t-1.078-2.641zM24.719 14.938q0.625-1.813 0.969-3.938h2.25q-0.219 1.594-1.078 2.641t-2.141 1.297z"></path>
</svg>
