<!-- Generated by IcoMoon.io -->
<svg version="1.1" xmlns="http://www.w3.org/2000/svg" width="32" height="32" viewBox="0 0 32 32">
<title>video_fill_light</title>
<path d="M16.016 2.656q-3.609 0-6.688 1.797t-4.875 4.875-1.797 6.672 1.797 6.672 4.875 4.875 6.672 1.797 6.672-1.797 4.875-4.875 1.797-6.672q0-3.625-1.797-6.703t-4.859-4.859-6.672-1.781zM21.656 17.063l-8 4.875q-0.063 0.063-0.313 0.063-0.219 0-0.344-0.063-0.344-0.219-0.344-0.594v-10q0-0.281 0.156-0.406 0.125-0.25 0.406-0.297t0.5 0.078l8 5.156q0.344 0.219 0.344 0.594-0.094 0.406-0.406 0.594z"></path>
</svg>
