<!-- Generated by IcoMoon.io -->
<svg version="1.1" xmlns="http://www.w3.org/2000/svg" width="32" height="32" viewBox="0 0 32 32">
<title>video_light</title>
<path d="M16.016 2.656q-3.609 0-6.688 1.797t-4.875 4.875-1.797 6.672 1.797 6.672 4.875 4.875 6.672 1.797 6.672-1.797 4.875-4.875 1.797-6.672q0-3.625-1.797-6.703t-4.859-4.859-6.672-1.781zM16 28q-3.25 0-6.016-1.609t-4.375-4.375-1.609-6.016 1.609-6.016 4.375-4.375 6.016-1.609q4.938 0 8.469 3.531t3.531 8.469-3.531 8.469-8.469 3.531v0zM21.719 15.938l-8-5.125q-0.219-0.156-0.5-0.109t-0.406 0.297q-0.156 0.125-0.156 0.344v10q0 0.375 0.344 0.594 0.125 0.063 0.344 0.063 0.25 0 0.313-0.063l8-4.875q0.344-0.219 0.344-0.531 0-0.406-0.281-0.594zM14 20.125v-7.594l6.063 3.938z"></path>
</svg>
