<!-- Generated by IcoMoon.io -->
<svg version="1.1" xmlns="http://www.w3.org/2000/svg" width="32" height="32" viewBox="0 0 32 32">
<title>video</title>
<path d="M13 22q-0.313 0-0.5-0.094-0.5-0.344-0.5-0.906v-10q0-0.563 0.5-0.891t1-0.016l8 5.219q0.5 0.313 0.5 0.875 0 0.25-0.141 0.5t-0.359 0.313l-8 4.906q-0.094 0.094-0.5 0.094zM14 12.813v6.375l5.094-3.094zM16 30q-3.781 0-7.016-1.875t-5.109-5.109-1.875-7.016 1.875-7.016 5.109-5.109 7.016-1.875 7.016 1.875 5.109 5.109 1.875 7.016-1.875 7.016-5.109 5.109-7.016 1.875zM16 4q-4.938 0-8.469 3.531t-3.531 8.469 3.531 8.469 8.469 3.531 8.469-3.531 3.531-8.469-3.531-8.469-8.469-3.531z"></path>
</svg>
