<!-- Generated by IcoMoon.io -->
<svg version="1.1" xmlns="http://www.w3.org/2000/svg" width="32" height="32" viewBox="0 0 32 32">
<title>videofill</title>
<path d="M16 2q-3.781 0-7.016 1.875t-5.109 5.109-1.875 7.016 1.875 7.016 5.109 5.109 7.016 1.875 7.016-1.875 5.109-5.109 1.875-7.016-1.875-7.016-5.109-5.109-7.016-1.875zM21.594 17l-8 4.906q-0.188 0.094-0.594 0.094-0.313 0-0.5-0.094-0.5-0.344-0.5-0.906v-10q0-0.563 0.5-0.891t1-0.016l8 5.219q0.5 0.313 0.5 0.875 0 0.688-0.406 0.813z"></path>
</svg>
