<!-- Generated by IcoMoon.io -->
<svg version="1.1" xmlns="http://www.w3.org/2000/svg" width="32" height="32" viewBox="0 0 32 32">
<title>vip</title>
<path d="M16 30q-2.844 0-5.438-1.109t-4.469-2.984-2.984-4.469-1.109-5.438q0-5.781 4.109-9.891t9.891-4.109q2.844 0 5.438 1.109t4.469 2.984 2.984 4.469 1.109 5.438-1.109 5.438-2.984 4.469-4.469 2.984-5.438 1.109zM16 4q-4.969 0-8.484 3.516t-3.516 8.484q0 3.25 1.609 6.016t4.375 4.375 6.016 1.609 6.016-1.609 4.375-4.375 1.609-6.016-1.609-6.016-4.375-4.375-6.016-1.609zM13 23.063q-0.219 0-0.438-0.094-0.563-0.281-0.563-0.906v-10.063h-2q-0.406 0-0.703-0.297t-0.297-0.703 0.297-0.703 0.703-0.297h3q0.406 0 0.703 0.297t0.297 0.703v8.938l7.25-5.938h-0.25q-0.406 0-0.703-0.297t-0.297-0.703 0.297-0.703 0.703-0.297h3.031q0.719 0 0.953 0.656t-0.328 1.125l-11.031 9.031q-0.281 0.25-0.625 0.25z"></path>
</svg>
