<!-- Generated by IcoMoon.io -->
<svg version="1.1" xmlns="http://www.w3.org/2000/svg" width="32" height="32" viewBox="0 0 32 32">
<title>vipcard</title>
<path d="M26.844 27h-21.688q-1.313 0-2.234-0.922t-0.922-2.234v-15.688q0-1.313 0.922-2.234t2.234-0.922h21.688q1.313 0 2.234 0.922t0.922 2.234v15.688q0 1.313-0.922 2.234t-2.234 0.922zM5.156 7q-0.469 0-0.813 0.344t-0.344 0.813v15.688q0 0.469 0.344 0.813t0.813 0.344h21.688q0.469 0 0.813-0.344t0.344-0.813v-15.688q0-0.469-0.344-0.813t-0.813-0.344h-21.688zM25 13h-18q-0.406 0-0.703-0.297t-0.297-0.703 0.297-0.703 0.703-0.297h18q0.406 0 0.703 0.297t0.297 0.703-0.297 0.703-0.703 0.297zM10 23h-3q-0.406 0-0.703-0.297t-0.297-0.703 0.297-0.703 0.703-0.297h3q0.406 0 0.703 0.297t0.297 0.703-0.297 0.703-0.703 0.297z"></path>
</svg>
