<!-- Generated by IcoMoon.io -->
<svg version="1.1" xmlns="http://www.w3.org/2000/svg" width="32" height="32" viewBox="0 0 32 32">
<title>voicelight</title>
<path d="M16.031 22.063q2.469 0 4.234-1.656t1.766-4v-8q0-2.344-1.766-4t-4.234-1.656-4.234 1.656-1.766 4v8q0 2.344 1.766 4t4.234 1.656zM11.375 8.406q0-1.813 1.359-3.078t3.297-1.266 3.297 1.266 1.359 3.078v8q0 1.781-1.359 3.047t-3.297 1.266-3.297-1.266-1.359-3.047v-8zM26.031 10q-0.281 0-0.469 0.188t-0.188 0.469v4q0 3.906-2.734 6.656t-6.594 2.75-6.609-2.75-2.75-6.656v-4q0-0.281-0.188-0.469t-0.469-0.188-0.469 0.188-0.188 0.469v4q0 4.25 2.906 7.344t7.094 3.375v2.625h-6q-0.281 0-0.484 0.188t-0.203 0.469 0.203 0.484 0.484 0.203h13.313q0.281 0 0.484-0.203t0.203-0.484-0.203-0.469-0.484-0.188h-6v-2.625q4.219-0.281 7.109-3.375t2.891-7.344v-4q0-0.281-0.188-0.469t-0.469-0.188z"></path>
</svg>
