<!-- Generated by IcoMoon.io -->
<svg version="1.1" xmlns="http://www.w3.org/2000/svg" width="32" height="32" viewBox="0 0 32 32">
<title>voicefill</title>
<path d="M16 22.063q2.469 0 4.234-1.766t1.766-4.234v-8q0-2.469-1.766-4.234t-4.234-1.766-4.234 1.766-1.766 4.234v8q0 2.469 1.766 4.234t4.234 1.766zM27 15v-4q0-0.406-0.297-0.703t-0.703-0.297-0.703 0.297-0.297 0.703v4q0 3.75-2.641 6.406t-6.359 2.656-6.359-2.656-2.641-6.406v-4q0-0.406-0.297-0.703t-0.703-0.297-0.703 0.297-0.297 0.703v4q0 4.313 2.891 7.469t7.109 3.563v1.969h-6q-0.406 0-0.703 0.297t-0.297 0.703 0.297 0.703 0.703 0.297h14q0.406 0 0.703-0.297t0.297-0.703-0.297-0.703-0.703-0.297h-6v-1.969q4.219-0.406 7.109-3.563t2.891-7.469z"></path>
</svg>
