<!-- Generated by IcoMoon.io -->
<svg version="1.1" xmlns="http://www.w3.org/2000/svg" width="32" height="32" viewBox="0 0 32 32">
<title>wang_light</title>
<path d="M17.344 14.406v-2q0-0.406-0.313-0.703t-0.688-0.297q-0.438 0-0.719 0.281t-0.281 0.719v2q0 0.406 0.297 0.703t0.688 0.297 0.703-0.297 0.313-0.703zM23.344 14.406v-2q0-0.406-0.313-0.703t-0.688-0.297q-0.438 0-0.719 0.281t-0.281 0.719v2q0 0.406 0.297 0.703t0.688 0.297 0.703-0.297 0.313-0.703zM16 2q-4.063 0-7.406 2.125-1.875-2.188-5-2.188-0.375 0-0.594 0.328t0 0.672q0.125 0.188 0.328 0.563t0.578 1.563 0.5 2.406q0.031 0.25 0.219 0.422t0.438 0.172h0.063q0.688-0.094 0.688-0.719-0.156-1.188-0.422-2.172t-0.578-1.828q2.094 0.406 3.125 2.063l0.125 0.125q0.031 0 0.063 0.031t0.063 0.031 0.078 0.031 0.078 0.031h0.25q0.063 0 0.125-0.063 0.094 0 0.156-0.063 3.25-2.188 7.125-2.188 3.438 0 6.359 1.688t4.609 4.609 1.688 6.359-1.688 6.359-4.609 4.609-6.359 1.688-6.359-1.688-4.609-4.609-1.688-6.359q0-2.813 1.063-5.125 0.094-0.25 0-0.516t-0.344-0.359-0.5 0-0.375 0.344q-1.188 2.688-1.188 5.656 0 3.813 1.875 7.031t5.094 5.094 7.031 1.875 7.031-1.875 5.094-5.094 1.875-7.031-1.875-7.031-5.094-5.094-7.031-1.875z"></path>
</svg>
