<!-- Generated by IcoMoon.io -->
<svg version="1.1" xmlns="http://www.w3.org/2000/svg" width="32" height="32" viewBox="0 0 32 32">
<title>wangfill</title>
<path d="M16 2.094q-3.844 0-7.125 1.969-1.875-2.063-4.969-2.063-0.594 0-0.875 0.516t0.031 1.016q0.969 1.563 1.281 4-0.125 0.5-0.578 1.563t-0.578 1.406q-1.188 3.188-1.188 5.594 0 2.844 1.109 5.438t2.984 4.469 4.469 2.984 5.438 1.109 5.438-1.109 4.469-2.984 2.984-4.469 1.109-5.438-1.109-5.438-2.984-4.453-4.469-2.984-5.438-1.125zM18 15q0 0.625-0.438 1.063t-1.063 0.438-1.063-0.438-0.438-1.063v-2q0-0.625 0.438-1.063t1.063-0.438 1.063 0.438 0.438 1.063v2zM23.969 15q0 0.625-0.438 1.063t-1.063 0.438-1.063-0.438-0.438-1.063v-2q0-0.625 0.438-1.063t1.063-0.438 1.063 0.438 0.438 1.063v2z"></path>
</svg>
