<!-- Generated by IcoMoon.io -->
<svg version="1.1" xmlns="http://www.w3.org/2000/svg" width="32" height="32" viewBox="0 0 32 32">
<title>warnfill</title>
<path d="M29.469 24.031l-10.656-19.031q-1.094-1.969-2.828-1.969t-2.828 1.969l-10.625 19.031q-1.063 1.938-0.188 3.469 0.906 1.5 3.125 1.5h21.063q2.219 0 3.109-1.516t-0.172-3.453zM15 10q0-0.406 0.297-0.703t0.703-0.297 0.703 0.297 0.297 0.703v9q0 0.406-0.297 0.703t-0.703 0.297-0.703-0.297-0.297-0.703v-9zM16 26q-0.625 0-1.063-0.438t-0.438-1.063 0.438-1.063 1.063-0.438 1.063 0.438 0.438 1.063-0.438 1.063-1.063 0.438z"></path>
</svg>
