<!-- Generated by IcoMoon.io -->
<svg version="1.1" xmlns="http://www.w3.org/2000/svg" width="32" height="32" viewBox="0 0 32 32">
<title>warn</title>
<path d="M26.531 29.031h-21.063q-2.219 0-3.109-1.531t0.172-3.469l10.625-19.031q1.094-1.969 2.828-1.969t2.828 1.969l10.656 19.031q1.063 1.969 0.172 3.484t-3.109 1.516zM16 5.031q-0.563 0-1.094 0.938l-10.625 19.063q-0.531 0.938-0.219 1.469t1.406 0.531h21.063q1.094 0 1.406-0.531t-0.219-1.469l-10.656-19.063q-0.5-0.938-1.063-0.938zM16 20q-0.406 0-0.703-0.297t-0.297-0.703v-9q0-0.406 0.297-0.703t0.703-0.297 0.703 0.297 0.297 0.703v9q0 0.406-0.297 0.703t-0.703 0.297zM14.5 23.5q0-0.625 0.438-1.063t1.063-0.438 1.063 0.438 0.438 1.063-0.438 1.063-1.063 0.438-1.063-0.438-0.438-1.063z"></path>
</svg>
