<!-- Generated by IcoMoon.io -->
<svg version="1.1" xmlns="http://www.w3.org/2000/svg" width="32" height="32" viewBox="0 0 32 32">
<title>we_light</title>
<path d="M9.531 8.875q-0.219-0.188-0.469-0.172t-0.469 0.234q-2.594 2.906-2.594 6.781 0 3.781 2.531 6.75 0.188 0.188 0.469 0.188t0.469-0.188q0.219-0.219 0.234-0.469t-0.172-0.469q-1.031-1.156-1.609-2.672t-0.578-3.141q0-3.344 2.25-5.906 0.188-0.219 0.172-0.484t-0.234-0.453zM23.406 8.938q-0.438-0.438-0.938-0.063-0.438 0.438-0.063 0.938 2.25 2.469 2.25 5.906 0 3.375-2.188 5.875-0.188 0.219-0.172 0.469t0.234 0.469q0.188 0.188 0.469 0.188 0.375 0 0.469-0.188 2.531-2.844 2.531-6.719 0-3.969-2.594-6.875zM25.063 26.656q-0.25 0-0.453-0.188t-0.203-0.469 0.188-0.469q0.594-0.5 1.406-1.594 2.656-3.594 2.656-7.938 0-4.844-3.063-8.531-0.219-0.313-1.531-1.594-0.219-0.219-0.234-0.469t0.172-0.469q0.219-0.219 0.469-0.234t0.469 0.172q0.906 0.813 1.719 1.719 3.344 4.063 3.344 9.406 0 4.844-2.875 8.719-0.688 1-1.594 1.813-0.25 0.125-0.469 0.125zM7.406 26.656q-0.281 0-0.406-0.125-0.688-0.594-1.406-1.406-1.75-1.938-2.672-4.391t-0.922-5.078q0-5.406 3.594-9.531 0.625-0.719 1.344-1.313 0.188-0.219 0.484-0.188t0.453 0.25q0.188 0.188 0.156 0.484t-0.219 0.453q-0.156 0.125-0.406 0.375t-0.453 0.438-0.359 0.375q-3.25 3.781-3.25 8.656 0 2.375 0.828 4.594t2.422 3.938q0.594 0.688 1.281 1.281 0.188 0.219 0.219 0.469t-0.156 0.469q-0.281 0.25-0.531 0.25v0zM15.875 20.656q-1.281 0-2.063-1l-3.156-3.719q-0.75-0.906-0.656-2.047t1-1.891q0.969-0.75 2.063-0.656 1.188 0.094 1.875 1l1.063 1.25 1.063-1.25q0.688-0.906 1.875-1 1.188-0.125 2.063 0.656 0.906 0.688 1 1.875t-0.656 2.063l-1.344 1.594q-0.219 0.219-0.469 0.234t-0.469-0.172-0.234-0.453 0.172-0.484l1.344-1.594q0.438-0.438 0.313-1.063-0.094-0.656-0.531-1-0.438-0.438-1.063-0.344-0.656 0.125-1 0.531l-2.063 2.469-2.063-2.469q-0.438-0.438-1-0.531-0.531-0.094-1.063 0.344-0.469 0.406-0.516 1.016t0.297 1.047l3.156 3.75q0.406 0.531 1.188 0.531t1.188-0.531q0.219-0.219 0.484-0.25t0.453 0.156q0.219 0.219 0.25 0.484t-0.188 0.453q-0.781 1-2.25 1h-0.063z"></path>
</svg>
