<!-- Generated by IcoMoon.io -->
<svg version="1.1" xmlns="http://www.w3.org/2000/svg" width="32" height="32" viewBox="0 0 32 32">
<title>weblock</title>
<path d="M18.688 17.5q-0.219 0.281-0.203 0.688t0.328 0.719q0.281 0.281 0.672 0.25t0.609-0.344l1.313-1.625q0.75-0.938 0.656-2.25t-1.063-2.125q-1.031-0.875-2.188-0.719-1.219 0.156-2 1.094l-0.813 1-0.813-1q-0.781-0.938-2-1.094-1.156-0.156-2.188 0.719-0.906 0.813-1.031 2.109t0.625 2.266l3 3.719q0.938 1.094 2.219 1.094h0.094q1.313 0.156 2.406-1.094 0.219-0.313 0.203-0.719t-0.328-0.688q-0.281-0.219-0.672-0.203t-0.609 0.297q-0.281 0.406-0.906 0.406t-0.906-0.406l-3-3.688q-0.281-0.406-0.25-0.844t0.344-0.75 0.813-0.313 0.688 0.406l2.219 2.781 2.188-2.781q0.406-0.406 0.719-0.406 0.5 0 0.781 0.313 0.375 0.281 0.391 0.75t-0.297 0.844zM24.906 16.094q0 2.156-1.094 4.219 0.375-0.125 1.094-0.125 0.219 0 0.594 0.063t0.5 0.063q0.906-1.969 0.906-4.219 0-3.969-2.719-7-0.313-0.313-0.688-0.344t-0.688 0.25-0.328 0.688 0.203 0.719q2.219 2.656 2.219 5.688zM9.297 9.109q-0.297-0.297-0.703-0.297t-0.688 0.281q-2.906 2.906-2.906 6.813 0 3.844 2.813 6.781 0.281 0.313 0.688 0.313t0.703-0.297 0.297-0.703-0.313-0.688q-2.188-2.375-2.188-5.406 0-3.094 2.313-5.406 0.281-0.313 0.281-0.703t-0.297-0.688zM27.406 6.313q-1-1.156-1.906-1.813-0.313-0.281-0.734-0.25t-0.672 0.344q-0.219 0.313-0.203 0.719t0.297 0.688q0.875 0.719 1.625 1.594 1.469 1.813 2.281 4.047t0.813 4.547q0 2.719-1 5 1.031 0.875 1.406 1.719 1.5-3.156 1.5-6.719 0.125-2.656-0.766-5.25t-2.641-4.625zM6.313 25q-3.313-3.938-3.313-8.906 0-2.469 0.875-4.781t2.531-4.125l1.188-1.188q0.313-0.313 0.359-0.703t-0.266-0.703-0.688-0.344-0.688 0.25q-0.5 0.406-1.5 1.406-1.844 2.125-2.828 4.75t-0.984 5.438 0.984 5.453 2.828 4.766l1.5 1.5q0.188 0.188 0.688 0.188 0.531 0 0.813-0.406 0.281-0.313 0.234-0.734t-0.359-0.672q-1-0.781-1.375-1.188zM23.5 21.094q-1.875 0-3.188 1.313t-1.313 3.188 1.313 3.188 3.188 1.313 3.188-1.313 1.313-3.188-1.313-3.188-3.188-1.313zM23.5 28.094q-1.063 0-1.781-0.719t-0.719-1.781q0-0.406 0.188-0.781l3.219 3.188q-0.156 0-0.453 0.047t-0.453 0.047zM25.813 26.5l-3.313-3.313q0.594-0.188 1-0.188 1.063 0 1.781 0.719t0.719 1.781q0 0.406-0.188 1z"></path>
</svg>
