<!-- Generated by IcoMoon.io -->
<svg version="1.1" xmlns="http://www.w3.org/2000/svg" width="32" height="32" viewBox="0 0 32 32">
<title>wefill</title>
<path d="M24 22.906q-0.188 0-0.594-0.219-0.313-0.219-0.375-0.656t0.156-0.719q1.813-2.25 1.813-5.219 0-3.125-2.188-5.5-0.313-0.313-0.266-0.703t0.359-0.703q0.313-0.281 0.703-0.234t0.703 0.359q1.281 1.406 1.984 3.219t0.703 3.656q0 3.656-2.313 6.406-0.125 0.313-0.688 0.313zM8.594 22.906q-0.406 0-0.688-0.313-1.375-1.375-2.141-3.109t-0.766-3.578q0-3.969 2.906-6.719 0.281-0.281 0.688-0.281t0.703 0.297 0.297 0.703-0.281 0.688q-2.313 2.469-2.313 5.313 0 3 2.313 5.281 0.281 0.313 0.281 0.719t-0.297 0.703-0.703 0.297zM7 28q-0.313 0-0.688-0.188l-1.5-1.5q-3.813-4.594-3.813-10.313 0-2.844 1.016-5.516t2.891-4.797q0.156-0.156 0.438-0.453t0.5-0.531 0.469-0.391q0.875-0.531 1.5 0.094 0.281 0.313 0.234 0.703t-0.359 0.703q-0.719 0.563-1.281 1.281-1.656 1.813-2.531 4.109t-0.875 4.797q0 4.969 3.313 8.906 0.563 0.719 1.281 1.281 0.313 0.313 0.359 0.703t-0.266 0.703q-0.188 0.406-0.688 0.406zM25 28q-0.406 0-0.703-0.297t-0.297-0.703 0.313-0.688q1.688-1.719 2-2.125 2.688-3.594 2.688-8.188 0-4.969-3.094-8.688-0.719-0.875-1.594-1.625-0.313-0.313-0.359-0.688t0.234-0.688q0.313-0.313 0.703-0.359t0.703 0.234q1.063 0.906 1.813 1.813 3.594 4.375 3.594 10 0 5.125-3.094 9.313-0.5 0.688-2.219 2.375-0.281 0.313-0.688 0.313v0zM21 12.688q-1.031-0.844-2.188-0.688-1.219 0.156-2 1.094l-0.813 1-0.813-1q-0.75-0.969-1.984-1.094t-2.203 0.688q-1 0.844-1 2.125-0.125 1.125 0.688 2.281l3 3.719q0.969 1.094 2.219 1.094h0.094q1.344 0.156 2.406-1.094l3-3.719q0.75-0.969 0.625-2.266t-1.031-2.141z"></path>
</svg>
