<!-- Generated by IcoMoon.io -->
<svg version="1.1" xmlns="http://www.w3.org/2000/svg" width="32" height="32" viewBox="0 0 32 32">
<title>weibo</title>
<path d="M22.781 15.531q-0.031 0-0.141-0.031t-0.141-0.047-0.125-0.047-0.125-0.063-0.094-0.063-0.078-0.078-0.047-0.109-0.016-0.125 0.047-0.156q0.344-0.844 0.359-1.641t-0.328-1.328q-1.219-1.719-5.938 0.219v0.031q-0.719 0.281-0.688-0.156 0-0.094 0.031-0.156 0.688-2.219-0.313-3.219-1.125-1.125-3.781-0.094t-5.281 3.594q-1.969 1.969-3.047 3.953t-1.078 3.734q0 2.156 1.719 3.859t4.344 2.547 5.531 0.844q2.719 0 5.094-0.719t3.938-1.875 2.453-2.516 0.891-2.641q0-1.438-0.922-2.375t-2.266-1.344zM13.625 25.391q-3.438 0.328-6.031-1t-2.813-3.563 2.063-4.047 5.703-2.141 6.016 1 2.813 3.563-2.047 4.047-5.703 2.141zM28.047 7.344q-1.391-1.438-3.313-2t-3.891-0.188v0q-0.438 0.094-0.688 0.453t-0.156 0.766 0.484 0.641 0.828 0.141q1.375-0.25 2.75 0.141t2.359 1.422 1.281 2.375-0.141 2.563v0q-0.156 0.406 0.047 0.781t0.641 0.516 0.844-0.063 0.531-0.609v0q0.625-1.719 0.219-3.609t-1.797-3.328zM25.25 9.906q-0.656-0.719-1.594-1t-1.906-0.094q-0.375 0.094-0.578 0.406t-0.125 0.672 0.406 0.563 0.703 0.141v0q1-0.219 1.703 0.531t0.359 1.688v0q-0.094 0.375 0.078 0.703t0.531 0.438 0.719-0.063 0.453-0.516q0.313-0.875 0.109-1.813t-0.859-1.656zM15.156 15.75q-1.688-0.438-3.359 0.281t-2.391 2.188q-0.75 1.469-0.109 2.906t2.328 1.969q1.781 0.563 3.578-0.188t2.516-2.344q0.688-1.563-0.063-2.969t-2.5-1.844zM13.438 20.703q-0.344 0.516-0.984 0.719t-1.172-0.047q-0.563-0.219-0.703-0.75t0.203-1.047 0.969-0.719 1.156 0.047q0.563 0.219 0.719 0.75t-0.188 1.047zM14.938 18.859q-0.125 0.203-0.359 0.281t-0.453 0-0.266-0.281 0.047-0.391q0.313-0.469 0.813-0.281 0.219 0.063 0.281 0.266t-0.063 0.406z"></path>
</svg>
