<!-- Generated by IcoMoon.io -->
<svg version="1.1" xmlns="http://www.w3.org/2000/svg" width="32" height="32" viewBox="0 0 32 32">
<title>weunblock</title>
<path d="M18.188 19.594q-0.281-0.219-0.672-0.203t-0.609 0.297q-0.281 0.406-0.906 0.406t-0.906-0.406l-3-3.688q-0.281-0.375-0.25-0.828t0.344-0.766 0.813-0.313 0.688 0.406l2.219 2.813 2.188-2.813q0.406-0.406 0.719-0.406 0.5 0 0.781 0.313 0.375 0.281 0.391 0.75t-0.297 0.844l-1.281 1.594q-0.25 0.313-0.219 0.719t0.313 0.688q0.313 0.281 0.688 0.25t0.625-0.344l1.281-1.594q0.781-0.969 0.672-2.281t-1.078-2.125q-1-0.844-2.188-0.719-1.219 0.156-2 1.125l-0.813 1-0.781-1q-0.813-0.969-2-1.125-1.188-0.125-2.219 0.719-0.906 0.813-1.016 2.109t0.641 2.297l3 3.688q0.938 1.094 2.188 1.094h0.094q1.344 0.156 2.406-1.094 0.5-0.344 0.516-0.766t-0.328-0.641zM25.5 21.5q1.594-2.719 1.594-5.5 0-3.969-2.688-7-0.313-0.313-0.703-0.344t-0.703 0.25q-0.281 0.281-0.313 0.688t0.219 0.719q2.188 2.5 2.188 5.688 0 2.906-1.781 5.313-0.25 0.281-0.203 0.734t0.391 0.641q0.406 0.219 0.594 0.219l1-1q0-0.219 0.406-0.406zM7 15.813q0-3.125 2.313-5.406 0.281-0.313 0.281-0.703t-0.297-0.703-0.703-0.313-0.688 0.313q-2.906 2.906-2.906 6.813 0 1.875 0.734 3.656t2.078 3.125q0.281 0.313 0.688 0.313t0.703-0.297 0.297-0.703-0.313-0.719q-1.031-1.094-1.609-2.531t-0.578-2.844zM29.188 21.906q0.125 0.094 0.266 0.297t0.234 0.297q1.406-3.125 1.406-6.406 0-5.625-3.594-10-0.969-1.125-1.906-1.781-0.313-0.313-0.734-0.266t-0.672 0.359q-0.281 0.313-0.234 0.734t0.359 0.672q0.875 0.719 1.594 1.594 1.5 1.781 2.297 4.016t0.797 4.578q0 2.813-1 5.094 0.844 0.344 1.188 0.813zM6.406 24.906q-1.656-1.781-2.531-4.078t-0.875-4.734q0-2.469 0.875-4.781t2.531-4.125q0.063-0.063 0.359-0.375t0.5-0.5 0.422-0.313q0.313-0.313 0.359-0.703t-0.234-0.703q-0.281-0.406-0.703-0.469t-0.703 0.188q-0.5 0.375-1.5 1.375-3.906 4.531-3.906 10.406 0 2.813 0.984 5.453t2.828 4.766l1.5 1.5q0.594 0.188 0.688 0.188 0.531 0 0.813-0.406 0.281-0.313 0.234-0.734t-0.359-0.672q-0.719-0.563-1.281-1.281zM27.797 23.297q-0.297-0.297-0.703-0.297t-0.688 0.313l-4.313 4.281-1.281-1.281q-0.313-0.313-0.719-0.313t-0.703 0.297-0.297 0.703 0.313 0.688l2 2q0.281 0.313 0.688 0.313t0.719-0.313l5-5q0.281-0.281 0.281-0.688t-0.297-0.703z"></path>
</svg>
