<!-- Generated by IcoMoon.io -->
<svg version="1.1" xmlns="http://www.w3.org/2000/svg" width="32" height="32" viewBox="0 0 32 32">
<title>wifi</title>
<path d="M7.625 19.531q-0.406 0-0.688-0.281t-0.297-0.703 0.266-0.703q1.844-1.875 4.219-2.891t5-1.016q2.563 0 4.891 0.969t4.172 2.781q0.281 0.313 0.281 0.719t-0.297 0.703-0.703 0.297-0.719-0.281q-3.156-3.188-7.625-3.188-2.219 0-4.219 0.859t-3.563 2.422q-0.281 0.313-0.719 0.313zM3.047 14.438q-0.422 0-0.703-0.281t-0.281-0.703 0.281-0.703q2.75-2.781 6.313-4.266t7.469-1.484q3.844 0 7.359 1.453t6.266 4.172q0.313 0.281 0.313 0.688t-0.297 0.703-0.703 0.297-0.719-0.281q-2.469-2.438-5.625-3.734t-6.594-1.297q-3.531 0-6.719 1.328t-5.656 3.828q-0.281 0.281-0.703 0.281zM15.969 26.031q-0.375 0-0.656-0.281l-3-2.75q-0.281-0.281-0.297-0.688t0.234-0.719q1.5-1.719 3.719-1.719 2.375 0 3.844 1.875 0.25 0.313 0.219 0.703t-0.344 0.672l-3.063 2.656q-0.281 0.25-0.656 0.25zM14.5 22.281l1.5 1.406 1.563-1.344q-0.688-0.438-1.531-0.453t-1.531 0.391z"></path>
</svg>
