<!-- Generated by IcoMoon.io -->
<svg version="1.1" xmlns="http://www.w3.org/2000/svg" width="32" height="32" viewBox="0 0 32 32">
<title>writefill</title>
<path d="M28.688 9.844l-7.688-7.563q-0.281-0.281-0.719-0.281-0.406 0-0.719 0.281l-14.344 14.719q-0.219 0.188-0.281 0.5l-1.906 10.344q-0.125 0.531 0.281 0.906 0.281 0.281 0.688 0.281 0.125 0 0.219-0.031l9.125-2.031q0.313-0.063 0.5-0.281l14.875-15.438q0.281-0.313 0.281-0.719t-0.313-0.688zM13.375 25.094q-0.281 0.313-0.719 0.313-0.406 0-0.688-0.281l-5.688-5.344q-0.313-0.281-0.313-0.703t0.281-0.719 0.688-0.313 0.719 0.266l5.688 5.375q0.313 0.281 0.313 0.688t-0.281 0.719z"></path>
</svg>
