<!-- Generated by IcoMoon.io -->
<svg version="1.1" xmlns="http://www.w3.org/2000/svg" width="32" height="32" viewBox="0 0 32 32">
<title>write</title>
<path d="M28.75 9.844l-7.719-7.563q-0.281-0.281-0.719-0.281-0.406 0-0.688 0.281l-14.344 14.719q-0.219 0.219-0.281 0.5l-1.938 10.344q-0.094 0.531 0.281 0.906 0.281 0.281 0.688 0.281 0.125 0 0.219-0.031l9.156-2.031q0.281-0.063 0.5-0.281l14.875-15.438q0.281-0.313 0.266-0.719t-0.297-0.688zM13.563 24.156l-3.844-3.781q-0.281-0.313-0.703-0.313t-0.703 0.297-0.281 0.719 0.281 0.703l3.531 3.469-6.531 1.469 1.594-8.531 13.438-13.781 6.281 6.156z"></path>
</svg>
