<!-- Generated by IcoMoon.io -->
<svg version="1.1" xmlns="http://www.w3.org/2000/svg" width="32" height="32" viewBox="0 0 32 32">
<title>xiamiforbid</title>
<path d="M11 5.594v-0.063q2.094 1.406 2.109 1.406h0.078t0.125-0.031l0.844-1.281q0.031-0.031 0.031-0.063 0-0.063-0.031-0.094l-3.813-3.156q-0.469-0.406-0.813-0.313t-0.344 0.688v1.188zM13 15.813v3.813l0.016 0.094t-0.094 0.188-0.328 0.094h-1.594v-6.094l-2-1.938v8.031h-1.281q-0.219 0-0.391-0.094t-0.266-0.188l-0.063-0.094v-7.906q0.25-0.719 0.719-0.719h0.25l-1.781-1.719q-0.375 0.25-0.609 0.703t-0.266 0.797l-0.031 0.313 0.031 8.906q0 0.094 0.016 0.219t0.109 0.469 0.281 0.609 0.594 0.484 0.938 0.219h1.938v7.594q0 0.594 0.344 0.766t0.813-0.234l3.781-3.094v-0.031q0.063-0.063 0.063-0.125v-0.063q-0.781-1.281-0.813-1.313-0.063-0.031-0.125-0.031h-0.063l-0.156 0.063-2.031 1.375v-4.906h2.063q0.563 0 0.953-0.188t0.578-0.469 0.281-0.563 0.125-0.469v-2.594zM15.5 9h3.5v4.375l2 1.781v-6.156h5.688q0.219 0 0.297-0.234t0.047-0.453l-0.031-0.25v-1.031q-0.063-0.031-0.313-0.031h-11.188q-0.219 0-0.344 0.031l-0.125 0.031-0.031 0.031v0.969q0.094 0.813 0.5 0.938zM21 23.469l-2-1.781v6.156q0.156 0.156 0.625 0.156h0.969q0.406-0.031 0.406-0.25v-4.281zM25.781 19.719l2.125-1.844q0.344-0.313 0.359-0.719t-0.328-0.688l-2.969-2.344q-0.344-0.313-0.656-0.188t-0.313 0.563v3.531zM29 28q-0.406 0-0.688-0.281l-23-22q-0.313-0.281-0.313-0.703t0.281-0.719 0.703-0.297 0.703 0.281l23 22q0.313 0.281 0.313 0.703t-0.281 0.703q-0.281 0.313-0.719 0.313z"></path>
</svg>
