<!-- Generated by IcoMoon.io -->
<svg version="1.1" xmlns="http://www.w3.org/2000/svg" width="32" height="32" viewBox="0 0 32 32">
<title>xiami</title>
<path d="M27.938 16.469l-2.969-2.344q-0.344-0.313-0.656-0.188t-0.313 0.563v5.563q0 0.438 0.313 0.547t0.625-0.172l2.969-2.563q0.344-0.313 0.359-0.719t-0.328-0.688zM21 9h5.688q0.219 0 0.297-0.234t0.047-0.453l-0.031-0.25v-1.031q-0.063-0.031-0.313-0.031h-11.188q-0.219 0-0.344 0.031l-0.125 0.031-0.031 0.031v0.969q0.094 0.813 0.5 0.938h3.656v18.844q0 0.156 0.469 0.156h0.969q0.219 0 0.328-0.063t0.078-0.125v-18.813zM13.063 9h-2.063v-3.469q2.094 1.406 2.109 1.406h0.078t0.125-0.031l0.844-1.281q0.031-0.031 0.031-0.063 0-0.063-0.031-0.094l-3.813-3.156q-0.469-0.406-0.813-0.313t-0.344 0.688v6.313h-1.969q-0.531 0-0.922 0.219t-0.578 0.531-0.297 0.609-0.109 0.516v9.125q0 0.094 0.016 0.219t0.109 0.469 0.281 0.609 0.594 0.484 0.938 0.219h1.938v7.594q0 0.594 0.344 0.766t0.813-0.234l3.781-3.094v-0.031q0.063-0.063 0.063-0.125v-0.063q-0.781-1.281-0.813-1.313-0.063-0.031-0.125-0.031h-0.063l-0.156 0.063-2.031 1.375v-4.906h2.063q0.563 0 0.953-0.188t0.578-0.469 0.281-0.563 0.125-0.469v-9.063q0-0.094-0.016-0.25t-0.109-0.547-0.281-0.672-0.578-0.531-0.953-0.25zM9 20h-1.281q-0.219 0-0.391-0.094t-0.266-0.188l-0.063-0.094v-7.906q0.25-0.719 0.719-0.719h1.281v9zM12.594 20h-1.594v-9h1.594q0.125 0 0.219 0.078t0.125 0.188 0.047 0.219 0.016 0.172v7.969q-0.094 0.344-0.406 0.375z"></path>
</svg>
