<!-- Generated by IcoMoon.io -->
<svg version="1.1" xmlns="http://www.w3.org/2000/svg" width="32" height="32" viewBox="0 0 32 32">
<title>ye</title>
<path d="M28.563 25.031h-7.531v-4.719h1.625q0.438 0 0.781-0.25t0.5-0.5l0.125-0.25 5.063-8.438q0.344-0.563 0.188-1.188t-0.703-0.953-1.172-0.172-0.969 0.719l-4.813 8.031h-0.625v-11.844q-0.031-0.625-0.469-1.047t-1.047-0.422-1.031 0.422-0.453 1.016v19.563h-3v-19.531h-0.031q0-0.625-0.438-1.047t-1.047-0.422-1.031 0.422-0.453 1.016v11.875h-0.625l-4.844-8.031q-0.313-0.563-0.938-0.719t-1.188 0.188-0.703 0.953 0.172 1.172l5.094 8.438q0.031 0.125 0.125 0.281t0.469 0.438 0.813 0.281h1.625v4.719h-7.531q-0.625 0-1.063 0.438t-0.438 1.047 0.438 1.047 1.063 0.438h24.063q0.594 0 1.031-0.438t0.438-1.047-0.438-1.047-1.031-0.438v0z"></path>
</svg>
