<!-- Generated by IcoMoon.io -->
<svg version="1.1" xmlns="http://www.w3.org/2000/svg" width="32" height="32" viewBox="0 0 32 32">
<title>yiguoqi</title>
<path d="M16.031 8.531q1.75 0 3.281 0.781t2.531 2.156l0.906 0.25q-1.031-1.75-2.828-2.781t-3.891-1.031q-2.031 0-3.813 0.969l0.938 0.25q1.375-0.594 2.875-0.594zM20.781 8.125l0.5 0.406 0.156-0.625 0.563-0.313-0.563-0.344-0.156-0.594-0.5 0.406-0.656-0.063 0.25 0.594-0.25 0.563zM12.031 6.75l-0.531-0.344-0.094 0.625-0.531 0.406 0.563 0.281 0.188 0.594 0.469-0.469 0.656-0.031-0.281-0.563 0.219-0.594zM16.875 5.875l-0.375-0.5-0.313 0.563-0.625 0.219 0.469 0.438v0.656l0.594-0.313 0.625 0.156-0.094-0.625 0.375-0.5zM23.906 9.813l-0.531-0.375-0.094 0.625-0.5 0.375 0.594 0.313 0.219 0.594 0.438-0.438h0.656l-0.313-0.594 0.188-0.594zM30.969 14.563l-27.281-7.313q-0.5-0.125-0.953 0.125t-0.578 0.75l-1.969 7.281q-0.125 0.5 0.141 0.953t0.766 0.578l27.281 7.313q0.5 0.156 0.953-0.109t0.578-0.766l1.969-7.281q0.125-0.5-0.125-0.953t-0.781-0.578zM31.188 16.25l-1.781 6.656q-0.125 0.375-0.453 0.578t-0.703 0.109l-26.688-7.156q-0.375-0.125-0.578-0.453t-0.109-0.703l1.813-6.688q0.094-0.375 0.438-0.563t0.719-0.094l26.688 7.156q0.375 0.094 0.563 0.438t0.094 0.719zM16.031 4.438q3.875 0 6.906 2.359t4.031 6.047l0.688 0.156q-0.938-3.969-4.188-6.578t-7.438-2.609q-2.5 0-4.75 1t-3.938 2.75l0.688 0.188q1.563-1.563 3.641-2.438t4.359-0.875zM18.906 22.375q-1.375 0.594-2.875 0.594-1.75 0-3.266-0.781t-2.547-2.125l-0.906-0.25q1.031 1.719 2.828 2.75t3.891 1.031q2.031 0 3.813-0.969zM12.188 23.688l-0.5-0.406-0.156 0.594-0.563 0.344 0.563 0.344 0.156 0.594 0.5-0.406 0.656 0.063-0.25-0.594 0.25-0.594zM16.031 25.625l0.375 0.5 0.313-0.594 0.625-0.219-0.469-0.438v-0.625l-0.563 0.313-0.625-0.188 0.094 0.625-0.375 0.531zM8.094 21.656l0.531 0.438 0.094-0.625 0.531-0.344-0.563-0.344-0.156-0.625-0.469 0.438-0.656-0.063 0.281 0.594-0.219 0.594zM16.031 27.063q-3.875 0-6.906-2.359t-4-6.016l-0.719-0.188q0.938 4 4.188 6.594t7.438 2.594q2.531 0 4.781-1t3.906-2.75l-0.688-0.188q-1.563 1.563-3.625 2.438t-4.375 0.875zM20.563 24.75l0.531 0.375 0.094-0.656 0.531-0.375-0.563-0.281-0.188-0.625-0.469 0.5h-0.625l0.281 0.563-0.219 0.625zM10.75 15.094q0.5 0.375 0.938 0.656-0.031 0.031-0.188 0.375-0.219 0.406-0.406 0.719-0.375 0.719-1.594 0.406l-2.875-0.75q-1.406-0.375-1.031-1.781l0.75-2.813 0.938 0.25-0.156 0.656 3.219 0.844 0.344-1.406-4.344-1.125 0.25-0.906 5.313 1.406-0.844 3.188-4.156-1.094-0.313 1.219q-0.188 0.656 0.438 0.813l2.469 0.625q0.656 0.156 0.813-0.25 0.031-0.063 0.109-0.266t0.172-0.359q0.031-0.094 0.094-0.234t0.063-0.172zM14.969 17.969q0.719 0.219 2.813 0.688 0.188 0.063 0.359 0.094t0.328 0.078 0.219 0.047q-0.406 0.531-0.531 0.75-2.094-0.531-3.656-1-1-0.281-1.281-0.938-0.688 0.344-0.969 0.594l-0.125-1.094q0.188-0.125 0.406-0.188 0.094-0.063 0.406-0.188l0.469-1.813-0.625-0.156 0.25-0.875 1.5 0.375-0.688 2.688q0.25 0.688 1.125 0.938zM13.656 12.219l0.844-0.25q0.188 0.5 0.5 1.406-0.094 0.063-0.531 0.188-0.188 0.031-0.438 0.125-0.156-0.563-0.281-1.125-0.094-0.25-0.094-0.344zM14.938 14.781l0.875-0.344q0.156 0.25 0.719 1.531-0.156-0.406-0.188-0.438l0.219 0.594-0.25 0.125q-0.031 0-0.25 0.078t-0.406 0.172q-0.063-0.094-0.219-0.531l-0.172-0.406t-0.328-0.781zM17.781 14l0.313-1.063 0.938 0.25-0.281 1.063 0.938 0.25-0.188 0.813-0.938-0.25-0.563 2.188q-0.281 1.094-1.313 0.875-0.813-0.156-1.313-0.313v-0.125q0.063-0.281 0.031-0.875 0.031 0.031 0.5 0.188 0.406 0.094 0.531 0.156 0.5 0.125 0.625-0.438l0.5-1.906-2.563-0.688 0.188-0.813zM24.219 15.188l-0.219 0.75-0.344-0.063-0.719 2.781 0.344 0.094-0.219 0.813-0.969-0.281q0.281 0.438 0.531 0.906 0.656-0.5 1.125-2.281l0.781-3 2.438 0.656-1.406 5.375q-0.156 0.594-0.781 0.5-0.25-0.063-0.875-0.188v-0.375q0.063-0.313 0.031-0.531 0.25 0.094 0.531 0.188 0.281 0.063 0.375-0.219l0.219-0.844-0.875-0.219q-0.406 1.219-1.156 1.875l-0.125-0.125q-0.156-0.219-0.406-0.5l-0.563 0.25q-0.313-0.688-0.594-1.188l0.688-0.313-1.438-0.375 0.438 0.594q-0.531 0.344-1.219 0.781-0.125-0.188-0.344-0.469-0.031-0.063-0.094-0.141l-0.063-0.078q0.531-0.25 1.125-0.688l-0.906-0.25 0.188-0.781 0.531 0.125 0.75-2.813-0.469-0.094 0.219-0.781 0.438 0.125 0.156-0.563 0.781 0.188-0.125 0.563 0.969 0.25 0.156-0.531 0.844 0.219-0.156 0.531zM21.25 17.688l-0.125 0.5 0.969 0.25 0.125-0.469zM21.531 16.563l-0.125 0.438 1 0.25 0.125-0.438zM21.844 15.375l-0.125 0.469 1 0.25 0.125-0.438zM24.438 18.5l0.875 0.188 0.188-0.844-0.844-0.219q-0.156 0.688-0.219 0.875zM25.75 17.063l0.219-0.906-0.844-0.219-0.25 0.938z"></path>
</svg>
