<!-- Generated by IcoMoon.io -->
<svg version="1.1" xmlns="http://www.w3.org/2000/svg" width="32" height="32" viewBox="0 0 32 32">
<title>yinxiang</title>
<path d="M16 17.662c-2.154 0-3.938 1.785-3.938 3.938s1.785 3.938 3.938 3.938 3.938-1.785 3.938-3.938v0c0-2.154-1.785-3.938-3.938-3.938zM16 24.369c-1.538 0-2.831-1.231-2.831-2.769s1.231-2.831 2.769-2.831 2.831 1.231 2.831 2.831v0c0 1.538-1.231 2.769-2.769 2.769v0zM24.677 1.969h-17.354c-1.231 0-2.215 0.985-2.215 2.215v23.508c0 1.231 0.985 2.215 2.215 2.215h17.354c1.231 0 2.215-0.985 2.215-2.215v-23.446c0-1.231-0.985-2.215-2.215-2.277zM16 7.569c1.231 0 2.215 0.985 2.215 2.215s-0.985 2.277-2.215 2.277-2.215-0.985-2.215-2.215v0c0-1.231 0.985-2.277 2.215-2.277zM16 27.754c-3.385 0-6.154-2.769-6.154-6.154s2.769-6.154 6.154-6.154 6.154 2.769 6.154 6.154-2.769 6.154-6.154 6.154z"></path>
</svg>
