<!-- Generated by IcoMoon.io -->
<svg version="1.1" xmlns="http://www.w3.org/2000/svg" width="32" height="32" viewBox="0 0 32 32">
<title>yishiyong</title>
<path d="M7.094 16.469q-1.094-0.25-0.781-1.281l0.75-2.813 0.938 0.25-0.156 0.563 2.875 0.75 0.313-1.156-3.969-1.063 0.219-0.844 4.906 1.313-0.75 2.844-3.813-1-0.313 1.188q-0.156 0.469 0.344 0.594l2.281 0.594q0.563 0.219 0.75-0.281 0.031-0.094 0.156-0.344 0.094-0.281 0.156-0.406 0.469 0.281 0.844 0.5-0.219 0.531-0.438 1-0.344 0.688-1.344 0.406zM12.75 18.188l0.688-2.563q-0.313 0.281-0.594 0.5 0.094-0.656 0.156-1.25 0.906-0.938 1.656-2.344l0.844 0.469q-0.344 0.594-0.813 1.219l-1.156 4.188zM17.688 19.5q-1.438-0.563-2.094-1.094-0.438 0.188-1.469 0.25l-0.344-0.875q0.688 0.063 1.094-0.031-0.219-0.344-0.438-0.781l0.625-0.281-0.5-0.125 0.563-2.063 1.438 0.406 0.094-0.406-1.531-0.406 0.188-0.75 1.563 0.406 0.156-0.563 0.875 0.25-0.125 0.563 1.594 0.438-0.219 0.75-1.625-0.438-0.094 0.375 1.469 0.406-0.594 2.25-0.813-0.219 0.031-0.219-0.688-0.188q-0.188 0.531-0.531 0.875 0.594 0.406 1.938 0.781l-0.125 0.125q-0.281 0.344-0.438 0.563zM15.656 17.438q0.188-0.156 0.344-0.5l-0.844-0.219q0.188 0.406 0.5 0.719zM15.75 15.438l-0.188 0.656 0.625 0.156 0.188-0.656zM17.906 16l-0.656-0.188-0.188 0.656 0.656 0.188zM19.656 20.125q-0.063-0.031-0.156-0.156-0.344-0.344-0.531-0.5 0.469-0.438 0.688-0.906 0.219-0.406 0.469-1.375l0.75-2.688 5.031 1.344-1.25 4.625q-0.188 0.844-1.031 0.594-0.313-0.063-0.875-0.188 0.031-0.406 0.063-0.844 0.313 0.094 0.563 0.156 0.375 0.125 0.438-0.188l0.156-0.5-1.219-0.344-0.406 1.5-0.875-0.25 0.375-1.469-1.188-0.313q-0.219 0.813-1 1.5zM21.031 17.438q-0.094 0.313-0.094 0.375l1.125 0.313 0.188-0.719-1.125-0.313zM21.531 15.563l-0.188 0.75 1.125 0.281 0.188-0.719zM23.156 17.656l-0.188 0.719 1.219 0.313 0.188-0.719zM24.781 16.438l-1.219-0.313-0.188 0.719 1.219 0.313zM16 9.281q1.625 0 3.047 0.734t2.359 1.984l0.844 0.25q-0.969-1.625-2.625-2.578t-3.625-0.953q-1.875 0-3.531 0.906l0.844 0.219q1.281-0.563 2.688-0.563zM20.406 8.906l0.469 0.375 0.156-0.563 0.5-0.313-0.5-0.281-0.156-0.594-0.469 0.406-0.625-0.063 0.25 0.531-0.25 0.563zM12.281 7.625l-0.469-0.313-0.125 0.594-0.5 0.375 0.563 0.25 0.156 0.563 0.438-0.438 0.594-0.031-0.25-0.531 0.188-0.563zM16.781 6.813l-0.344-0.469-0.281 0.531-0.594 0.219 0.438 0.406v0.594l0.531-0.281 0.594 0.156-0.094-0.594 0.375-0.469zM23.313 10.469l-0.5-0.344-0.063 0.594-0.5 0.344 0.563 0.281 0.219 0.563 0.406-0.438 0.594 0.031-0.281-0.531 0.156-0.563zM29.875 14.875l-25.344-6.781q-0.469-0.125-0.891 0.125t-0.547 0.688l-1.813 6.781q-0.125 0.469 0.125 0.891t0.719 0.547l25.344 6.781q0.469 0.125 0.891-0.125t0.547-0.688l1.813-6.781q0.125-0.469-0.125-0.891t-0.719-0.547zM30.063 16.438l-1.656 6.219q-0.094 0.344-0.406 0.516t-0.656 0.078l-24.781-6.625q-0.375-0.094-0.547-0.406t-0.078-0.656l1.656-6.219q0.094-0.344 0.406-0.516t0.656-0.078l24.781 6.625q0.375 0.094 0.547 0.406t0.078 0.656zM16 5.5q3.594 0 6.422 2.188t3.734 5.594l0.625 0.188q-0.875-3.719-3.875-6.141t-6.906-2.422q-2.344 0-4.438 0.922t-3.625 2.578l0.625 0.156q1.469-1.438 3.391-2.25t4.047-0.813zM18.688 22.156q-1.281 0.563-2.688 0.563-1.625 0-3.047-0.734t-2.359-1.984l-0.844-0.25q0.969 1.625 2.625 2.578t3.625 0.953q1.875 0 3.531-0.906zM12.406 23.375l-0.438-0.406-0.156 0.594-0.531 0.281 0.531 0.313 0.156 0.563 0.438-0.375 0.625 0.063-0.25-0.563 0.25-0.531zM16 25.156l0.344 0.469 0.281-0.531 0.594-0.188-0.438-0.406v-0.594l-0.531 0.281-0.594-0.156 0.094 0.563-0.344 0.5zM8.625 21.5l0.469 0.375 0.125-0.563 0.5-0.313-0.531-0.313-0.188-0.594-0.438 0.406-0.594-0.063 0.25 0.563-0.188 0.531zM16 26.5q-3.594 0-6.422-2.188t-3.734-5.594l-0.625-0.188q0.875 3.719 3.875 6.141t6.906 2.422q2.344 0 4.438-0.922t3.625-2.578l-0.625-0.156q-1.469 1.438-3.391 2.25t-4.047 0.813zM20.219 24.344l0.469 0.344 0.125-0.594 0.469-0.344-0.531-0.281-0.156-0.563-0.438 0.438-0.594 0.031 0.25 0.531-0.188 0.563z"></path>
</svg>
